M48
; DRILL file {KiCad 8.0.6} date 2025-12-11T01:18:00-0500
; FORMAT={-:-/ absolute / inch / decimal}
; #@! TF.CreationDate,2025-12-11T01:18:00-05:00
; #@! TF.GenerationSoftware,Kicad,Pcbnew,8.0.6
; #@! TF.FileFunction,Plated,1,2,PTH
FMAT,2
INCH
; #@! TA.AperFunction,Plated,PTH,ViaDrill
T1C0.0157
; #@! TA.AperFunction,Plated,PTH,ComponentDrill
T2C0.0197
; #@! TA.AperFunction,Plated,PTH,ViaDrill
T3C0.0315
; #@! TA.AperFunction,Plated,PTH,ComponentDrill
T4C0.0394
; #@! TA.AperFunction,Plated,PTH,ComponentDrill
T5C0.0433
; #@! TA.AperFunction,Plated,PTH,ComponentDrill
T6C0.0591
; #@! TA.AperFunction,Plated,PTH,ComponentDrill
T7C0.1378
%
G90
G05
T1
X5.4Y-4.022
X5.45Y-4.3
X5.475Y-4.175
X5.5039Y-4.0386
X5.5886Y-4.1341
X5.6992Y-4.4972
X5.7319Y-4.7655
X5.7483Y-5.1722
X5.85Y-4.425
X6.0569Y-4.1405
T2
X5.5659Y-3.5039
X5.5659Y-5.748
X5.5962Y-3.4309
X5.5962Y-3.577
X5.5962Y-5.675
X5.5962Y-5.8211
X5.6693Y-3.4006
X5.6693Y-3.6073
X5.6693Y-5.6447
X5.6693Y-5.8514
X5.7424Y-3.4309
X5.7424Y-3.577
X5.7424Y-5.675
X5.7424Y-5.8211
X5.7726Y-3.5039
X5.7726Y-5.748
T3
X5.76Y-4.14
X5.8976Y-3.9547
T4
X5.5547Y-4.2175
X5.5547Y-4.3175
X5.6547Y-4.2175
X5.6547Y-4.3175
X5.7547Y-4.2175
X5.7547Y-4.3175
X5.8547Y-4.2175
X5.8547Y-4.3175
X5.9547Y-4.2175
X5.9547Y-4.3175
T5
X5.4547Y-3.8681
X5.5547Y-3.8681
X5.6547Y-3.8681
X5.7547Y-3.8681
X5.8547Y-3.8681
X5.9547Y-3.8681
X6.0236Y-4.6244
X6.0236Y-4.7244
X6.0236Y-4.9
X6.0236Y-5.0
X6.0236Y-5.2331
X6.0236Y-5.3331
X6.0236Y-5.4331
T6
X5.372Y-3.4933
X5.6319Y-4.6193
X5.6319Y-4.8949
X5.6319Y-5.3279
X5.9469Y-5.7531
T7
X5.6693Y-3.5039
X5.6693Y-5.748
M30
