G04 #@! TF.GenerationSoftware,KiCad,Pcbnew,8.0.6*
G04 #@! TF.CreationDate,2025-12-26T07:29:08-05:00*
G04 #@! TF.ProjectId,heaterboard_1,68656174-6572-4626-9f61-72645f312e6b,3.0*
G04 #@! TF.SameCoordinates,Original*
G04 #@! TF.FileFunction,Copper,L2,Bot*
G04 #@! TF.FilePolarity,Positive*
%FSLAX46Y46*%
G04 Gerber Fmt 4.6, Leading zero omitted, Abs format (unit mm)*
G04 Created by KiCad (PCBNEW 8.0.6) date 2025-12-26 07:29:08*
%MOMM*%
%LPD*%
G01*
G04 APERTURE LIST*
G04 Aperture macros list*
%AMRoundRect*
0 Rectangle with rounded corners*
0 $1 Rounding radius*
0 $2 $3 $4 $5 $6 $7 $8 $9 X,Y pos of 4 corners*
0 Add a 4 corners polygon primitive as box body*
4,1,4,$2,$3,$4,$5,$6,$7,$8,$9,$2,$3,0*
0 Add four circle primitives for the rounded corners*
1,1,$1+$1,$2,$3*
1,1,$1+$1,$4,$5*
1,1,$1+$1,$6,$7*
1,1,$1+$1,$8,$9*
0 Add four rect primitives between the rounded corners*
20,1,$1+$1,$2,$3,$4,$5,0*
20,1,$1+$1,$4,$5,$6,$7,0*
20,1,$1+$1,$6,$7,$8,$9,0*
20,1,$1+$1,$8,$9,$2,$3,0*%
G04 Aperture macros list end*
G04 #@! TA.AperFunction,ComponentPad*
%ADD10C,3.000000*%
G04 #@! TD*
G04 #@! TA.AperFunction,ComponentPad*
%ADD11R,2.100000X2.100000*%
G04 #@! TD*
G04 #@! TA.AperFunction,ComponentPad*
%ADD12C,2.100000*%
G04 #@! TD*
G04 #@! TA.AperFunction,ComponentPad*
%ADD13RoundRect,0.250000X-0.600000X0.600000X-0.600000X-0.600000X0.600000X-0.600000X0.600000X0.600000X0*%
G04 #@! TD*
G04 #@! TA.AperFunction,ComponentPad*
%ADD14C,1.700000*%
G04 #@! TD*
G04 #@! TA.AperFunction,ComponentPad*
%ADD15C,0.800000*%
G04 #@! TD*
G04 #@! TA.AperFunction,ComponentPad*
%ADD16C,7.000000*%
G04 #@! TD*
G04 #@! TA.AperFunction,ViaPad*
%ADD17C,0.800000*%
G04 #@! TD*
G04 #@! TA.AperFunction,ViaPad*
%ADD18C,1.200000*%
G04 #@! TD*
G04 #@! TA.AperFunction,Conductor*
%ADD19C,0.762000*%
G04 #@! TD*
G04 #@! TA.AperFunction,Conductor*
%ADD20C,0.254000*%
G04 #@! TD*
G04 #@! TA.AperFunction,Conductor*
%ADD21C,1.270000*%
G04 #@! TD*
G04 #@! TA.AperFunction,Conductor*
%ADD22C,0.250000*%
G04 #@! TD*
G04 #@! TA.AperFunction,Conductor*
%ADD23C,1.000000*%
G04 #@! TD*
G04 #@! TA.AperFunction,Conductor*
%ADD24C,2.700000*%
G04 #@! TD*
G04 #@! TA.AperFunction,Conductor*
%ADD25C,0.508000*%
G04 #@! TD*
G04 #@! TA.AperFunction,Conductor*
%ADD26C,2.500000*%
G04 #@! TD*
G04 #@! TA.AperFunction,Conductor*
%ADD27C,0.381000*%
G04 #@! TD*
G04 #@! TA.AperFunction,Profile*
%ADD28C,0.100000*%
G04 #@! TD*
G04 APERTURE END LIST*
D10*
X143050000Y-124329714D03*
X151050000Y-146129714D03*
D11*
X151250000Y-98250000D03*
D12*
X148710000Y-98250000D03*
X146170000Y-98250000D03*
X143630000Y-98250000D03*
X141090000Y-98250000D03*
X138550000Y-98250000D03*
D10*
X143050000Y-117329714D03*
D13*
X151250000Y-107125000D03*
D14*
X151250000Y-109665000D03*
X148710000Y-107125000D03*
X148710000Y-109665000D03*
X146170000Y-107125000D03*
X146170000Y-109665000D03*
X143630000Y-107125000D03*
X143630000Y-109665000D03*
X141090000Y-107125000D03*
X141090000Y-109665000D03*
D10*
X143050000Y-135329714D03*
X136450000Y-88729714D03*
D11*
X153000000Y-138000000D03*
D12*
X153000000Y-135460000D03*
X153000000Y-132920000D03*
D11*
X153000000Y-120000000D03*
D12*
X153000000Y-117460000D03*
D15*
X141375000Y-146000000D03*
X142143845Y-144143845D03*
X142143845Y-147856155D03*
X144000000Y-143375000D03*
D16*
X144000000Y-146000000D03*
D15*
X144000000Y-148625000D03*
X145856155Y-144143845D03*
X145856155Y-147856155D03*
X146625000Y-146000000D03*
X141375000Y-89000000D03*
X142143845Y-87143845D03*
X142143845Y-90856155D03*
X144000000Y-86375000D03*
D16*
X144000000Y-89000000D03*
D15*
X144000000Y-91625000D03*
X145856155Y-87143845D03*
X145856155Y-90856155D03*
X146625000Y-89000000D03*
D11*
X153000000Y-127000000D03*
D12*
X153000000Y-124460000D03*
D17*
X137160000Y-102158800D03*
X139800000Y-102579714D03*
X138430000Y-109220000D03*
X145590000Y-121044714D03*
X148590000Y-112395000D03*
X141951122Y-105005524D03*
X153845000Y-105169714D03*
X139065000Y-106045000D03*
D18*
X149800050Y-100450000D03*
X146304000Y-105156000D03*
D17*
X146006250Y-131373464D03*
X144760514Y-114229714D03*
D19*
X143630000Y-102990000D02*
X141090000Y-100450000D01*
X141068800Y-98250000D02*
X137160000Y-102158800D01*
D20*
X144807000Y-108302000D02*
X144807000Y-111733000D01*
D21*
X141090000Y-100450000D02*
X141090000Y-98250000D01*
D19*
X145074000Y-112000000D02*
X146375000Y-112000000D01*
D22*
X143180286Y-135460000D02*
X143050000Y-135329714D01*
D20*
X146375000Y-112000000D02*
X146615000Y-111760000D01*
D19*
X143630000Y-107125000D02*
X144807000Y-108302000D01*
X143630000Y-107125000D02*
X143630000Y-102990000D01*
D23*
X148050000Y-135460000D02*
X147919714Y-135329714D01*
D19*
X146615000Y-111760000D02*
X148710000Y-109665000D01*
D23*
X148050000Y-135460000D02*
X143180286Y-135460000D01*
X147919714Y-135329714D02*
X143050000Y-135329714D01*
X153000000Y-135460000D02*
X148050000Y-135460000D01*
D20*
X144807000Y-111733000D02*
X145074000Y-112000000D01*
D24*
X143050000Y-117329714D02*
X141090000Y-115369714D01*
X146170000Y-100450000D02*
X151250000Y-105530000D01*
X149005286Y-124460000D02*
X148765000Y-124219714D01*
D25*
X146304000Y-98552000D02*
X146304000Y-98384000D01*
D26*
X153000000Y-124460000D02*
X149005286Y-124460000D01*
D24*
X148765000Y-119035000D02*
X150400000Y-117400000D01*
X148765000Y-124219714D02*
X148765000Y-119035000D01*
D19*
X151250000Y-105530000D02*
X151250000Y-107125000D01*
D25*
X146304000Y-98384000D02*
X146170000Y-98250000D01*
D26*
X150400000Y-117400000D02*
X153000000Y-117400000D01*
D24*
X141090000Y-115369714D02*
X141090000Y-109665000D01*
D21*
X146170000Y-98250000D02*
X146170000Y-100450000D01*
D22*
X148710000Y-99600497D02*
X148710000Y-99860000D01*
D21*
X148710000Y-99860000D02*
X149300000Y-100450000D01*
X149300000Y-100450000D02*
X149800050Y-100450000D01*
D22*
X148978000Y-100450000D02*
X149800050Y-100450000D01*
D21*
X146170000Y-107125000D02*
X146170000Y-109665000D01*
D22*
X146304000Y-106991000D02*
X146170000Y-107125000D01*
D21*
X148710000Y-98250000D02*
X148710000Y-99860000D01*
D22*
X148844000Y-100584000D02*
X148978000Y-100450000D01*
X148776117Y-100450000D02*
X149800050Y-100450000D01*
D21*
X146304000Y-105156000D02*
X146304000Y-106991000D01*
D19*
X143630000Y-100659714D02*
X148710000Y-105739714D01*
D23*
X151453464Y-131373464D02*
X153000000Y-132920000D01*
D19*
X148710000Y-105739714D02*
X148710000Y-107125000D01*
X144760514Y-114229714D02*
X143630000Y-113099200D01*
D23*
X146006250Y-131373464D02*
X151453464Y-131373464D01*
D19*
X143630000Y-100450000D02*
X143630000Y-100659714D01*
X149950500Y-113249500D02*
X149950500Y-111700000D01*
D21*
X143630000Y-98250000D02*
X143630000Y-100450000D01*
D22*
X149885000Y-108229000D02*
X149860000Y-108204000D01*
D19*
X149789000Y-108204000D02*
X148710000Y-107125000D01*
X144760514Y-114229714D02*
X148970286Y-114229714D01*
D27*
X149950500Y-111700000D02*
X149950500Y-108294500D01*
D22*
X149860000Y-108204000D02*
X149789000Y-108204000D01*
D19*
X148970286Y-114229714D02*
X149950500Y-113249500D01*
X143630000Y-113099200D02*
X143630000Y-109665000D01*
G04 #@! TA.AperFunction,Conductor*
G36*
X149182175Y-111037668D02*
G01*
X149224022Y-111093620D01*
X149228977Y-111163313D01*
X149210925Y-111205793D01*
X149162233Y-111278667D01*
X149095184Y-111440537D01*
X149095181Y-111440549D01*
X149061000Y-111612387D01*
X149061000Y-112829695D01*
X149041315Y-112896734D01*
X149024681Y-112917376D01*
X148638162Y-113303895D01*
X148576839Y-113337380D01*
X148550481Y-113340214D01*
X145180319Y-113340214D01*
X145113280Y-113320529D01*
X145092638Y-113303895D01*
X144889629Y-113100886D01*
X144856144Y-113039563D01*
X144861128Y-112969871D01*
X144903000Y-112913938D01*
X144968464Y-112889521D01*
X144980300Y-112889680D01*
X144980300Y-112889500D01*
X146462609Y-112889500D01*
X146462610Y-112889499D01*
X146634458Y-112855317D01*
X146796336Y-112788265D01*
X146942023Y-112690920D01*
X147065920Y-112567023D01*
X147078968Y-112547494D01*
X147098721Y-112517933D01*
X147132933Y-112483721D01*
X147162494Y-112463968D01*
X147182023Y-112450920D01*
X148059961Y-111572980D01*
X148088254Y-111551809D01*
X149048445Y-111028044D01*
X149116721Y-111013223D01*
X149182175Y-111037668D01*
G37*
G04 #@! TD.AperFunction*
G04 #@! TA.AperFunction,Conductor*
G36*
X142658343Y-85019685D02*
G01*
X142704098Y-85072489D01*
X142714042Y-85141647D01*
X142685017Y-85205203D01*
X142633078Y-85240752D01*
X142467423Y-85300023D01*
X142112135Y-85468062D01*
X141775041Y-85670109D01*
X141459368Y-85904228D01*
X141353622Y-86000069D01*
X142285457Y-86931904D01*
X142193573Y-86893845D01*
X142094117Y-86893845D01*
X142002231Y-86931905D01*
X141931905Y-87002231D01*
X141893845Y-87094117D01*
X141893845Y-87193573D01*
X141931904Y-87285456D01*
X141000069Y-86353622D01*
X140904228Y-86459368D01*
X140670109Y-86775041D01*
X140468062Y-87112135D01*
X140300023Y-87467424D01*
X140300016Y-87467440D01*
X140167625Y-87837450D01*
X140072129Y-88218691D01*
X140014461Y-88607449D01*
X139995176Y-89000000D01*
X140014461Y-89392550D01*
X140072129Y-89781308D01*
X140167625Y-90162549D01*
X140300016Y-90532559D01*
X140300023Y-90532575D01*
X140468062Y-90887864D01*
X140670109Y-91224958D01*
X140904228Y-91540632D01*
X141000068Y-91646376D01*
X141000069Y-91646376D01*
X142598381Y-90048064D01*
X142681457Y-90156331D01*
X142843669Y-90318543D01*
X142951934Y-90401617D01*
X142355786Y-90997765D01*
X142393845Y-90905883D01*
X142393845Y-90806427D01*
X142355785Y-90714541D01*
X142285459Y-90644215D01*
X142193573Y-90606155D01*
X142094117Y-90606155D01*
X142002231Y-90644215D01*
X141931905Y-90714541D01*
X141893845Y-90806427D01*
X141893845Y-90905883D01*
X141931905Y-90997769D01*
X142002231Y-91068095D01*
X142094117Y-91106155D01*
X142193573Y-91106155D01*
X142285455Y-91068096D01*
X141353622Y-91999929D01*
X141353622Y-91999930D01*
X141459367Y-92095771D01*
X141775041Y-92329890D01*
X142112135Y-92531937D01*
X142467424Y-92699976D01*
X142467440Y-92699983D01*
X142837450Y-92832374D01*
X143218691Y-92927870D01*
X143607449Y-92985538D01*
X144000000Y-93004823D01*
X144392550Y-92985538D01*
X144781308Y-92927870D01*
X145162549Y-92832374D01*
X145532559Y-92699983D01*
X145532575Y-92699976D01*
X145887864Y-92531937D01*
X146224958Y-92329890D01*
X146540632Y-92095770D01*
X146646376Y-91999929D01*
X145714542Y-91068095D01*
X145806427Y-91106155D01*
X145905883Y-91106155D01*
X145997769Y-91068095D01*
X146068095Y-90997769D01*
X146106155Y-90905883D01*
X146106155Y-90806427D01*
X146068095Y-90714542D01*
X146999929Y-91646376D01*
X147095770Y-91540632D01*
X147329890Y-91224958D01*
X147531937Y-90887864D01*
X147699976Y-90532575D01*
X147699983Y-90532559D01*
X147832374Y-90162549D01*
X147927870Y-89781308D01*
X147985538Y-89392550D01*
X148004823Y-89000000D01*
X147985538Y-88607449D01*
X147927870Y-88218691D01*
X147832374Y-87837450D01*
X147699983Y-87467440D01*
X147699976Y-87467424D01*
X147531937Y-87112135D01*
X147329890Y-86775041D01*
X147095771Y-86459367D01*
X146999930Y-86353622D01*
X146999929Y-86353622D01*
X146068096Y-87285454D01*
X146106155Y-87193573D01*
X146106155Y-87094117D01*
X146068095Y-87002231D01*
X145997769Y-86931905D01*
X145905883Y-86893845D01*
X145806427Y-86893845D01*
X145714541Y-86931905D01*
X145644215Y-87002231D01*
X145606155Y-87094117D01*
X145606155Y-87193573D01*
X145644215Y-87285459D01*
X145714541Y-87355785D01*
X145806427Y-87393845D01*
X145905883Y-87393845D01*
X145997764Y-87355786D01*
X145401617Y-87951934D01*
X145318543Y-87843669D01*
X145156331Y-87681457D01*
X145048065Y-87598381D01*
X146646376Y-86000069D01*
X146646376Y-86000068D01*
X146540632Y-85904228D01*
X146224958Y-85670109D01*
X145887864Y-85468062D01*
X145532576Y-85300023D01*
X145366922Y-85240752D01*
X145310433Y-85199633D01*
X145285141Y-85134501D01*
X145299078Y-85066036D01*
X145347817Y-85015973D01*
X145408696Y-85000000D01*
X157876000Y-85000000D01*
X157943039Y-85019685D01*
X157988794Y-85072489D01*
X158000000Y-85124000D01*
X158000000Y-149876000D01*
X157980315Y-149943039D01*
X157927511Y-149988794D01*
X157876000Y-150000000D01*
X145408696Y-150000000D01*
X145341657Y-149980315D01*
X145295902Y-149927511D01*
X145285958Y-149858353D01*
X145314983Y-149794797D01*
X145366922Y-149759248D01*
X145532576Y-149699976D01*
X145887864Y-149531937D01*
X146224958Y-149329890D01*
X146540632Y-149095770D01*
X146646376Y-148999929D01*
X145714542Y-148068095D01*
X145806427Y-148106155D01*
X145905883Y-148106155D01*
X145997769Y-148068095D01*
X146068095Y-147997769D01*
X146106155Y-147905883D01*
X146106155Y-147806427D01*
X146068095Y-147714542D01*
X146999929Y-148646376D01*
X147095770Y-148540632D01*
X147329890Y-148224958D01*
X147531937Y-147887864D01*
X147699976Y-147532575D01*
X147699983Y-147532559D01*
X147832374Y-147162549D01*
X147927870Y-146781308D01*
X147985538Y-146392550D01*
X147998451Y-146129712D01*
X149044891Y-146129712D01*
X149044891Y-146129715D01*
X149065300Y-146415076D01*
X149126109Y-146694609D01*
X149226091Y-146962672D01*
X149363191Y-147213752D01*
X149363196Y-147213760D01*
X149469882Y-147356275D01*
X149469883Y-147356276D01*
X150372421Y-146453738D01*
X150385359Y-146484972D01*
X150467437Y-146607811D01*
X150571903Y-146712277D01*
X150694742Y-146794355D01*
X150725974Y-146807292D01*
X149823436Y-147709829D01*
X149965960Y-147816521D01*
X149965961Y-147816522D01*
X150217042Y-147953622D01*
X150217041Y-147953622D01*
X150485104Y-148053604D01*
X150764637Y-148114413D01*
X151049999Y-148134823D01*
X151050001Y-148134823D01*
X151335362Y-148114413D01*
X151614895Y-148053604D01*
X151882958Y-147953622D01*
X152134047Y-147816517D01*
X152276561Y-147709830D01*
X152276562Y-147709829D01*
X151374025Y-146807291D01*
X151405258Y-146794355D01*
X151528097Y-146712277D01*
X151632563Y-146607811D01*
X151714641Y-146484972D01*
X151727578Y-146453739D01*
X152630115Y-147356276D01*
X152630116Y-147356275D01*
X152736803Y-147213761D01*
X152873908Y-146962672D01*
X152973890Y-146694609D01*
X153034699Y-146415076D01*
X153055109Y-146129715D01*
X153055109Y-146129712D01*
X153034699Y-145844351D01*
X152973890Y-145564818D01*
X152873908Y-145296755D01*
X152736808Y-145045675D01*
X152736807Y-145045674D01*
X152630115Y-144903150D01*
X151727577Y-145805687D01*
X151714641Y-145774456D01*
X151632563Y-145651617D01*
X151528097Y-145547151D01*
X151405258Y-145465073D01*
X151374024Y-145452135D01*
X152276562Y-144549597D01*
X152276561Y-144549596D01*
X152134046Y-144442910D01*
X152134038Y-144442905D01*
X151882957Y-144305805D01*
X151882958Y-144305805D01*
X151614895Y-144205823D01*
X151335362Y-144145014D01*
X151050001Y-144124605D01*
X151049999Y-144124605D01*
X150764637Y-144145014D01*
X150485104Y-144205823D01*
X150217041Y-144305805D01*
X149965961Y-144442905D01*
X149965953Y-144442910D01*
X149823437Y-144549596D01*
X149823436Y-144549597D01*
X150725975Y-145452135D01*
X150694742Y-145465073D01*
X150571903Y-145547151D01*
X150467437Y-145651617D01*
X150385359Y-145774456D01*
X150372421Y-145805688D01*
X149469883Y-144903150D01*
X149469882Y-144903151D01*
X149363196Y-145045667D01*
X149363191Y-145045675D01*
X149226091Y-145296755D01*
X149126109Y-145564818D01*
X149065300Y-145844351D01*
X149044891Y-146129712D01*
X147998451Y-146129712D01*
X148004823Y-146000000D01*
X147985538Y-145607449D01*
X147927870Y-145218691D01*
X147832374Y-144837450D01*
X147699983Y-144467440D01*
X147699976Y-144467424D01*
X147531937Y-144112135D01*
X147329890Y-143775041D01*
X147095771Y-143459367D01*
X146999930Y-143353622D01*
X146999929Y-143353622D01*
X146068096Y-144285454D01*
X146106155Y-144193573D01*
X146106155Y-144094117D01*
X146068095Y-144002231D01*
X145997769Y-143931905D01*
X145905883Y-143893845D01*
X145806427Y-143893845D01*
X145714541Y-143931905D01*
X145644215Y-144002231D01*
X145606155Y-144094117D01*
X145606155Y-144193573D01*
X145644215Y-144285459D01*
X145714541Y-144355785D01*
X145806427Y-144393845D01*
X145905883Y-144393845D01*
X145997764Y-144355786D01*
X145401617Y-144951934D01*
X145318543Y-144843669D01*
X145156331Y-144681457D01*
X145048065Y-144598381D01*
X146646376Y-143000069D01*
X146646376Y-143000068D01*
X146540632Y-142904228D01*
X146224958Y-142670109D01*
X145887864Y-142468062D01*
X145532575Y-142300023D01*
X145532559Y-142300016D01*
X145162549Y-142167625D01*
X144781308Y-142072129D01*
X144392550Y-142014461D01*
X144000000Y-141995176D01*
X143607449Y-142014461D01*
X143218691Y-142072129D01*
X142837450Y-142167625D01*
X142467440Y-142300016D01*
X142467424Y-142300023D01*
X142112135Y-142468062D01*
X141775041Y-142670109D01*
X141459368Y-142904228D01*
X141353622Y-143000069D01*
X142285457Y-143931904D01*
X142193573Y-143893845D01*
X142094117Y-143893845D01*
X142002231Y-143931905D01*
X141931905Y-144002231D01*
X141893845Y-144094117D01*
X141893845Y-144193573D01*
X141931904Y-144285456D01*
X141000069Y-143353622D01*
X140904228Y-143459368D01*
X140670109Y-143775041D01*
X140468062Y-144112135D01*
X140300023Y-144467424D01*
X140300016Y-144467440D01*
X140167625Y-144837450D01*
X140072129Y-145218691D01*
X140014461Y-145607449D01*
X139995176Y-146000000D01*
X140014461Y-146392550D01*
X140072129Y-146781308D01*
X140167625Y-147162549D01*
X140300016Y-147532559D01*
X140300023Y-147532575D01*
X140468062Y-147887864D01*
X140670109Y-148224958D01*
X140904228Y-148540632D01*
X141000068Y-148646376D01*
X141000069Y-148646376D01*
X142598381Y-147048064D01*
X142681457Y-147156331D01*
X142843669Y-147318543D01*
X142951934Y-147401617D01*
X142355786Y-147997765D01*
X142393845Y-147905883D01*
X142393845Y-147806427D01*
X142355785Y-147714541D01*
X142285459Y-147644215D01*
X142193573Y-147606155D01*
X142094117Y-147606155D01*
X142002231Y-147644215D01*
X141931905Y-147714541D01*
X141893845Y-147806427D01*
X141893845Y-147905883D01*
X141931905Y-147997769D01*
X142002231Y-148068095D01*
X142094117Y-148106155D01*
X142193573Y-148106155D01*
X142285455Y-148068096D01*
X141353622Y-148999929D01*
X141353622Y-148999930D01*
X141459367Y-149095771D01*
X141775041Y-149329890D01*
X142112135Y-149531937D01*
X142467423Y-149699976D01*
X142633078Y-149759248D01*
X142689567Y-149800367D01*
X142714859Y-149865499D01*
X142700922Y-149933964D01*
X142652183Y-149984027D01*
X142591304Y-150000000D01*
X132924000Y-150000000D01*
X132856961Y-149980315D01*
X132811206Y-149927511D01*
X132800000Y-149876000D01*
X132800000Y-135329714D01*
X141036807Y-135329714D01*
X141055557Y-135603844D01*
X141055558Y-135603846D01*
X141111458Y-135872855D01*
X141111463Y-135872872D01*
X141203476Y-136131770D01*
X141329889Y-136375738D01*
X141329893Y-136375744D01*
X141488340Y-136600213D01*
X141488343Y-136600216D01*
X141675889Y-136801028D01*
X141889031Y-136974432D01*
X141889033Y-136974433D01*
X141889034Y-136974434D01*
X142123801Y-137117199D01*
X142328348Y-137206045D01*
X142375823Y-137226667D01*
X142640404Y-137300799D01*
X142879720Y-137333692D01*
X142912614Y-137338214D01*
X142912615Y-137338214D01*
X143187386Y-137338214D01*
X143216733Y-137334180D01*
X143459596Y-137300799D01*
X143724177Y-137226667D01*
X143976200Y-137117198D01*
X144210969Y-136974432D01*
X144424111Y-136801028D01*
X144611657Y-136600216D01*
X144667579Y-136520991D01*
X144722321Y-136477574D01*
X144768884Y-136468500D01*
X147950671Y-136468500D01*
X151438148Y-136468500D01*
X151505187Y-136488185D01*
X151550942Y-136540989D01*
X151560886Y-136610147D01*
X151537414Y-136666812D01*
X151506647Y-136707910D01*
X151506645Y-136707913D01*
X151456403Y-136842620D01*
X151456401Y-136842627D01*
X151450000Y-136902155D01*
X151450000Y-137750000D01*
X152509252Y-137750000D01*
X152487482Y-137787708D01*
X152450000Y-137927591D01*
X152450000Y-138072409D01*
X152487482Y-138212292D01*
X152509252Y-138250000D01*
X151450000Y-138250000D01*
X151450000Y-139097844D01*
X151456401Y-139157372D01*
X151456403Y-139157379D01*
X151506645Y-139292086D01*
X151506649Y-139292093D01*
X151592809Y-139407187D01*
X151592812Y-139407190D01*
X151707906Y-139493350D01*
X151707913Y-139493354D01*
X151842620Y-139543596D01*
X151842627Y-139543598D01*
X151902155Y-139549999D01*
X151902172Y-139550000D01*
X152750000Y-139550000D01*
X152750000Y-138490747D01*
X152787708Y-138512518D01*
X152927591Y-138550000D01*
X153072409Y-138550000D01*
X153212292Y-138512518D01*
X153250000Y-138490747D01*
X153250000Y-139550000D01*
X154097828Y-139550000D01*
X154097844Y-139549999D01*
X154157372Y-139543598D01*
X154157379Y-139543596D01*
X154292086Y-139493354D01*
X154292093Y-139493350D01*
X154407187Y-139407190D01*
X154407190Y-139407187D01*
X154493350Y-139292093D01*
X154493354Y-139292086D01*
X154543596Y-139157379D01*
X154543598Y-139157372D01*
X154549999Y-139097844D01*
X154550000Y-139097827D01*
X154550000Y-138250000D01*
X153490748Y-138250000D01*
X153512518Y-138212292D01*
X153550000Y-138072409D01*
X153550000Y-137927591D01*
X153512518Y-137787708D01*
X153490748Y-137750000D01*
X154550000Y-137750000D01*
X154550000Y-136902172D01*
X154549999Y-136902155D01*
X154543598Y-136842627D01*
X154543596Y-136842620D01*
X154493354Y-136707913D01*
X154493350Y-136707906D01*
X154407190Y-136592812D01*
X154407187Y-136592809D01*
X154310137Y-136520157D01*
X154268266Y-136464223D01*
X154263282Y-136394532D01*
X154278718Y-136356104D01*
X154392927Y-136169732D01*
X154486805Y-135943092D01*
X154544072Y-135704557D01*
X154563319Y-135460000D01*
X154544072Y-135215443D01*
X154486805Y-134976908D01*
X154407965Y-134786572D01*
X154392928Y-134750269D01*
X154264753Y-134541106D01*
X154264752Y-134541104D01*
X154105433Y-134354567D01*
X154023147Y-134284288D01*
X153984956Y-134225783D01*
X153984458Y-134155915D01*
X154021811Y-134096869D01*
X154023085Y-134095765D01*
X154105433Y-134025433D01*
X154264752Y-133838896D01*
X154392927Y-133629732D01*
X154486805Y-133403092D01*
X154544072Y-133164557D01*
X154563319Y-132920000D01*
X154544072Y-132675443D01*
X154486805Y-132436908D01*
X154437182Y-132317108D01*
X154392928Y-132210269D01*
X154274093Y-132016348D01*
X154264752Y-132001104D01*
X154105433Y-131814567D01*
X153918896Y-131655248D01*
X153918893Y-131655246D01*
X153709730Y-131527071D01*
X153483087Y-131433193D01*
X153244553Y-131375927D01*
X153244554Y-131375927D01*
X153022841Y-131358478D01*
X153000000Y-131356681D01*
X152999999Y-131356681D01*
X152929902Y-131362197D01*
X152861525Y-131347832D01*
X152832494Y-131326260D01*
X152096348Y-130590113D01*
X152096344Y-130590110D01*
X151931174Y-130479746D01*
X151931167Y-130479742D01*
X151913328Y-130472353D01*
X151895488Y-130464964D01*
X151747633Y-130403720D01*
X151747625Y-130403718D01*
X151552797Y-130364964D01*
X151552793Y-130364964D01*
X145906921Y-130364964D01*
X145906916Y-130364964D01*
X145712088Y-130403718D01*
X145712080Y-130403720D01*
X145528548Y-130479741D01*
X145528539Y-130479746D01*
X145363369Y-130590110D01*
X145363365Y-130590113D01*
X145222899Y-130730579D01*
X145222896Y-130730583D01*
X145112532Y-130895753D01*
X145112527Y-130895762D01*
X145036506Y-131079294D01*
X145036504Y-131079302D01*
X144997750Y-131274130D01*
X144997750Y-131472797D01*
X145036504Y-131667625D01*
X145036506Y-131667633D01*
X145112527Y-131851165D01*
X145112532Y-131851174D01*
X145222896Y-132016344D01*
X145222899Y-132016348D01*
X145363365Y-132156814D01*
X145363369Y-132156817D01*
X145528539Y-132267181D01*
X145528545Y-132267184D01*
X145528546Y-132267185D01*
X145712081Y-132343208D01*
X145906916Y-132381963D01*
X145906920Y-132381964D01*
X145906921Y-132381964D01*
X150984368Y-132381964D01*
X151051407Y-132401649D01*
X151072049Y-132418283D01*
X151406260Y-132752494D01*
X151439745Y-132813817D01*
X151442197Y-132849902D01*
X151436681Y-132919999D01*
X151455927Y-133164554D01*
X151513193Y-133403087D01*
X151607071Y-133629730D01*
X151735246Y-133838893D01*
X151735248Y-133838896D01*
X151894567Y-134025433D01*
X151970547Y-134090327D01*
X151976850Y-134095710D01*
X152015043Y-134154217D01*
X152015541Y-134224085D01*
X151978187Y-134283131D01*
X151976850Y-134284290D01*
X151894567Y-134354567D01*
X151848902Y-134408032D01*
X151790397Y-134446225D01*
X151754614Y-134451500D01*
X148457490Y-134451500D01*
X148403219Y-134437905D01*
X148403046Y-134438324D01*
X148400223Y-134437155D01*
X148399034Y-134436857D01*
X148397415Y-134435991D01*
X148326952Y-134406805D01*
X148213883Y-134359970D01*
X148213875Y-134359968D01*
X148019047Y-134321214D01*
X148019043Y-134321214D01*
X144860849Y-134321214D01*
X144793810Y-134301529D01*
X144759546Y-134268724D01*
X144631369Y-134087138D01*
X144611655Y-134059209D01*
X144536465Y-133978702D01*
X144424111Y-133858400D01*
X144210969Y-133684996D01*
X144210967Y-133684995D01*
X144210965Y-133684993D01*
X143976198Y-133542228D01*
X143724178Y-133432761D01*
X143459602Y-133358630D01*
X143459597Y-133358629D01*
X143459596Y-133358629D01*
X143323490Y-133339921D01*
X143187386Y-133321214D01*
X143187385Y-133321214D01*
X142912615Y-133321214D01*
X142912614Y-133321214D01*
X142640404Y-133358629D01*
X142640397Y-133358630D01*
X142375821Y-133432761D01*
X142123801Y-133542228D01*
X141889034Y-133684993D01*
X141675892Y-133858397D01*
X141488340Y-134059214D01*
X141329893Y-134283683D01*
X141329889Y-134283689D01*
X141203476Y-134527657D01*
X141111463Y-134786555D01*
X141111458Y-134786572D01*
X141055558Y-135055581D01*
X141055557Y-135055583D01*
X141036807Y-135329714D01*
X132800000Y-135329714D01*
X132800000Y-124329714D01*
X141036807Y-124329714D01*
X141055557Y-124603844D01*
X141055558Y-124603846D01*
X141111458Y-124872855D01*
X141111463Y-124872872D01*
X141203476Y-125131770D01*
X141329889Y-125375738D01*
X141329893Y-125375744D01*
X141488340Y-125600213D01*
X141488343Y-125600216D01*
X141675889Y-125801028D01*
X141889031Y-125974432D01*
X141889033Y-125974433D01*
X141889034Y-125974434D01*
X142123801Y-126117199D01*
X142328348Y-126206045D01*
X142375823Y-126226667D01*
X142640404Y-126300799D01*
X142879720Y-126333692D01*
X142912614Y-126338214D01*
X142912615Y-126338214D01*
X143187386Y-126338214D01*
X143216733Y-126334180D01*
X143459596Y-126300799D01*
X143724177Y-126226667D01*
X143945769Y-126130416D01*
X143976198Y-126117199D01*
X144154772Y-126008606D01*
X144210969Y-125974432D01*
X144424111Y-125801028D01*
X144611657Y-125600216D01*
X144770111Y-125375737D01*
X144896523Y-125131772D01*
X144988538Y-124872867D01*
X144988539Y-124872860D01*
X144988541Y-124872855D01*
X145014491Y-124747973D01*
X145044442Y-124603844D01*
X145063193Y-124329714D01*
X145044442Y-124055584D01*
X145010767Y-123893533D01*
X144988541Y-123786572D01*
X144988536Y-123786555D01*
X144896523Y-123527657D01*
X144896523Y-123527656D01*
X144770111Y-123283691D01*
X144770110Y-123283689D01*
X144770106Y-123283683D01*
X144611659Y-123059214D01*
X144551429Y-122994724D01*
X144424111Y-122858400D01*
X144210969Y-122684996D01*
X144210967Y-122684995D01*
X144210965Y-122684993D01*
X143976198Y-122542228D01*
X143724178Y-122432761D01*
X143459602Y-122358630D01*
X143459597Y-122358629D01*
X143459596Y-122358629D01*
X143323490Y-122339921D01*
X143187386Y-122321214D01*
X143187385Y-122321214D01*
X142912615Y-122321214D01*
X142912614Y-122321214D01*
X142640404Y-122358629D01*
X142640397Y-122358630D01*
X142375821Y-122432761D01*
X142123801Y-122542228D01*
X141889034Y-122684993D01*
X141675892Y-122858397D01*
X141488340Y-123059214D01*
X141329893Y-123283683D01*
X141329889Y-123283689D01*
X141203476Y-123527657D01*
X141111463Y-123786555D01*
X141111458Y-123786572D01*
X141055558Y-124055581D01*
X141055557Y-124055583D01*
X141036807Y-124329714D01*
X132800000Y-124329714D01*
X132800000Y-102158800D01*
X136246496Y-102158800D01*
X136266458Y-102348728D01*
X136266459Y-102348731D01*
X136325470Y-102530349D01*
X136325473Y-102530356D01*
X136420960Y-102695744D01*
X136548747Y-102837666D01*
X136703248Y-102949918D01*
X136877712Y-103027594D01*
X137064513Y-103067300D01*
X137255487Y-103067300D01*
X137442288Y-103027594D01*
X137616752Y-102949918D01*
X137771253Y-102837666D01*
X137899040Y-102695744D01*
X137915521Y-102667196D01*
X137935225Y-102641516D01*
X139803205Y-100773536D01*
X139864526Y-100740053D01*
X139934218Y-100745037D01*
X139990151Y-100786909D01*
X140008815Y-100822900D01*
X140030277Y-100888952D01*
X140030276Y-100888952D01*
X140111991Y-101049325D01*
X140217787Y-101194940D01*
X140345060Y-101322213D01*
X140490675Y-101428009D01*
X140569333Y-101468087D01*
X140651047Y-101509723D01*
X140651050Y-101509724D01*
X140736639Y-101537533D01*
X140822230Y-101565343D01*
X140931162Y-101582596D01*
X140994296Y-101612525D01*
X140999445Y-101617388D01*
X142704181Y-103322124D01*
X142737666Y-103383447D01*
X142740500Y-103409805D01*
X142740500Y-106037058D01*
X142720815Y-106104097D01*
X142707729Y-106121041D01*
X142554284Y-106287723D01*
X142554280Y-106287729D01*
X142460250Y-106431651D01*
X142407103Y-106477007D01*
X142337872Y-106486430D01*
X142274536Y-106456927D01*
X142254866Y-106434951D01*
X142204924Y-106363626D01*
X141572961Y-106995588D01*
X141555925Y-106932007D01*
X141490099Y-106817993D01*
X141397007Y-106724901D01*
X141282993Y-106659075D01*
X141219410Y-106642037D01*
X141851373Y-106010073D01*
X141851373Y-106010072D01*
X141767583Y-105951402D01*
X141767579Y-105951400D01*
X141553492Y-105851570D01*
X141553483Y-105851566D01*
X141325326Y-105790432D01*
X141325315Y-105790430D01*
X141090002Y-105769843D01*
X141089998Y-105769843D01*
X140854684Y-105790430D01*
X140854673Y-105790432D01*
X140626516Y-105851566D01*
X140626507Y-105851570D01*
X140412419Y-105951401D01*
X140328625Y-106010072D01*
X140960590Y-106642037D01*
X140897007Y-106659075D01*
X140782993Y-106724901D01*
X140689901Y-106817993D01*
X140624075Y-106932007D01*
X140607037Y-106995590D01*
X139975072Y-106363625D01*
X139916401Y-106447419D01*
X139816570Y-106661507D01*
X139816566Y-106661516D01*
X139755432Y-106889673D01*
X139755430Y-106889684D01*
X139734843Y-107124998D01*
X139734843Y-107125001D01*
X139755430Y-107360315D01*
X139755432Y-107360326D01*
X139816566Y-107588483D01*
X139816570Y-107588492D01*
X139916399Y-107802578D01*
X140039784Y-107978788D01*
X140062111Y-108044994D01*
X140045101Y-108112762D01*
X140013696Y-108148288D01*
X139861970Y-108264711D01*
X139689711Y-108436970D01*
X139689705Y-108436977D01*
X139541403Y-108630249D01*
X139541399Y-108630254D01*
X139541398Y-108630257D01*
X139492958Y-108714156D01*
X139419585Y-108841242D01*
X139419583Y-108841246D01*
X139326355Y-109066318D01*
X139263298Y-109301650D01*
X139231501Y-109543176D01*
X139231500Y-109543193D01*
X139231500Y-115244028D01*
X139231499Y-115244062D01*
X139231499Y-115491534D01*
X139250566Y-115636353D01*
X139263299Y-115733067D01*
X139286448Y-115819460D01*
X139317332Y-115934724D01*
X139326354Y-115968392D01*
X139381780Y-116102202D01*
X139419585Y-116193471D01*
X139541398Y-116404457D01*
X139541401Y-116404462D01*
X139541403Y-116404464D01*
X139689705Y-116597736D01*
X139689711Y-116597743D01*
X139865072Y-116773104D01*
X139865102Y-116773132D01*
X141172515Y-118080545D01*
X141201671Y-118126692D01*
X141203477Y-118131772D01*
X141244660Y-118211251D01*
X141329889Y-118375738D01*
X141329893Y-118375744D01*
X141488340Y-118600213D01*
X141488343Y-118600216D01*
X141675889Y-118801028D01*
X141889031Y-118974432D01*
X141889033Y-118974433D01*
X141889034Y-118974434D01*
X142123801Y-119117199D01*
X142245353Y-119169996D01*
X142375823Y-119226667D01*
X142640404Y-119300799D01*
X142879720Y-119333692D01*
X142912614Y-119338214D01*
X142912615Y-119338214D01*
X143187386Y-119338214D01*
X143216733Y-119334180D01*
X143459596Y-119300799D01*
X143724177Y-119226667D01*
X143976200Y-119117198D01*
X144210969Y-118974432D01*
X144286259Y-118913179D01*
X146906499Y-118913179D01*
X146906499Y-119161199D01*
X146906500Y-119161228D01*
X146906500Y-124094028D01*
X146906499Y-124094062D01*
X146906499Y-124341534D01*
X146931232Y-124529391D01*
X146938299Y-124583067D01*
X146943867Y-124603846D01*
X147001353Y-124818390D01*
X147053007Y-124943092D01*
X147053007Y-124943093D01*
X147094579Y-125043459D01*
X147094585Y-125043471D01*
X147216398Y-125254457D01*
X147216400Y-125254460D01*
X147216401Y-125254461D01*
X147364705Y-125447736D01*
X147364711Y-125447743D01*
X147540073Y-125623105D01*
X147540101Y-125623131D01*
X147777258Y-125860289D01*
X147777263Y-125860293D01*
X147970543Y-126008602D01*
X147970550Y-126008606D01*
X148181521Y-126130411D01*
X148181526Y-126130413D01*
X148181529Y-126130415D01*
X148355617Y-126202524D01*
X148404385Y-126222725D01*
X148406609Y-126223646D01*
X148641933Y-126286701D01*
X148883474Y-126318501D01*
X148883481Y-126318501D01*
X149127092Y-126318501D01*
X149127099Y-126318501D01*
X149368639Y-126286701D01*
X149603964Y-126223646D01*
X149603966Y-126223645D01*
X149607400Y-126222725D01*
X149639493Y-126218500D01*
X151317500Y-126218500D01*
X151384539Y-126238185D01*
X151430294Y-126290989D01*
X151441500Y-126342500D01*
X151441500Y-128098654D01*
X151448011Y-128159202D01*
X151448011Y-128159204D01*
X151499111Y-128296204D01*
X151586739Y-128413261D01*
X151703796Y-128500889D01*
X151840799Y-128551989D01*
X151868050Y-128554918D01*
X151901345Y-128558499D01*
X151901362Y-128558500D01*
X154098638Y-128558500D01*
X154098654Y-128558499D01*
X154125692Y-128555591D01*
X154159201Y-128551989D01*
X154296204Y-128500889D01*
X154413261Y-128413261D01*
X154500889Y-128296204D01*
X154551989Y-128159201D01*
X154555591Y-128125692D01*
X154558499Y-128098654D01*
X154558500Y-128098637D01*
X154558500Y-125901362D01*
X154558499Y-125901345D01*
X154554085Y-125860294D01*
X154551989Y-125840799D01*
X154500889Y-125703796D01*
X154500888Y-125703793D01*
X154500887Y-125703792D01*
X154439312Y-125621539D01*
X154414894Y-125556075D01*
X154429745Y-125487802D01*
X154440204Y-125471740D01*
X154465276Y-125439066D01*
X154580535Y-125239433D01*
X154661705Y-125043471D01*
X154668743Y-125026479D01*
X154668743Y-125026476D01*
X154668749Y-125026464D01*
X154728411Y-124803802D01*
X154758500Y-124575258D01*
X154758500Y-124344742D01*
X154756521Y-124329714D01*
X154728411Y-124116201D01*
X154728411Y-124116198D01*
X154668749Y-123893536D01*
X154668744Y-123893525D01*
X154668743Y-123893520D01*
X154580539Y-123680576D01*
X154580534Y-123680566D01*
X154465276Y-123480934D01*
X154324947Y-123298053D01*
X154324942Y-123298047D01*
X154161952Y-123135057D01*
X154161945Y-123135051D01*
X153979074Y-122994730D01*
X153979072Y-122994729D01*
X153979066Y-122994724D01*
X153779433Y-122879465D01*
X153779423Y-122879460D01*
X153566479Y-122791256D01*
X153566466Y-122791252D01*
X153566467Y-122791252D01*
X153566464Y-122791251D01*
X153343802Y-122731589D01*
X153343801Y-122731588D01*
X153343798Y-122731588D01*
X153115265Y-122701500D01*
X153115258Y-122701500D01*
X150747500Y-122701500D01*
X150680461Y-122681815D01*
X150634706Y-122629011D01*
X150623500Y-122577500D01*
X150623500Y-119856178D01*
X150643185Y-119789139D01*
X150659819Y-119768497D01*
X151229819Y-119198497D01*
X151291142Y-119165012D01*
X151360834Y-119169996D01*
X151416767Y-119211868D01*
X151441184Y-119277332D01*
X151441500Y-119286178D01*
X151441500Y-121098654D01*
X151448011Y-121159202D01*
X151448011Y-121159204D01*
X151499111Y-121296204D01*
X151586739Y-121413261D01*
X151703796Y-121500889D01*
X151840799Y-121551989D01*
X151868050Y-121554918D01*
X151901345Y-121558499D01*
X151901362Y-121558500D01*
X154098638Y-121558500D01*
X154098654Y-121558499D01*
X154125692Y-121555591D01*
X154159201Y-121551989D01*
X154296204Y-121500889D01*
X154413261Y-121413261D01*
X154500889Y-121296204D01*
X154551989Y-121159201D01*
X154555591Y-121125692D01*
X154558499Y-121098654D01*
X154558500Y-121098637D01*
X154558500Y-118901362D01*
X154558499Y-118901345D01*
X154555157Y-118870270D01*
X154551989Y-118840799D01*
X154500889Y-118703796D01*
X154416575Y-118591166D01*
X154392159Y-118525704D01*
X154407011Y-118457431D01*
X154417468Y-118441370D01*
X154421341Y-118436323D01*
X154465276Y-118379066D01*
X154580535Y-118179433D01*
X154668749Y-117966464D01*
X154728411Y-117743802D01*
X154758500Y-117515258D01*
X154758500Y-117284742D01*
X154728411Y-117056198D01*
X154668749Y-116833536D01*
X154668744Y-116833525D01*
X154668743Y-116833520D01*
X154580539Y-116620576D01*
X154580534Y-116620566D01*
X154567357Y-116597743D01*
X154465276Y-116420934D01*
X154324947Y-116238053D01*
X154324942Y-116238047D01*
X154161952Y-116075057D01*
X154161945Y-116075051D01*
X153979074Y-115934730D01*
X153979072Y-115934729D01*
X153979066Y-115934724D01*
X153779433Y-115819465D01*
X153779423Y-115819460D01*
X153566479Y-115731256D01*
X153566466Y-115731252D01*
X153566467Y-115731252D01*
X153566464Y-115731251D01*
X153343802Y-115671589D01*
X153343801Y-115671588D01*
X153343798Y-115671588D01*
X153115265Y-115641500D01*
X153115258Y-115641500D01*
X151034207Y-115641500D01*
X151002114Y-115637275D01*
X150998673Y-115636353D01*
X150763353Y-115573299D01*
X150709677Y-115566232D01*
X150521819Y-115541499D01*
X150521812Y-115541499D01*
X150278187Y-115541499D01*
X150278179Y-115541499D01*
X150063484Y-115569765D01*
X150036647Y-115573299D01*
X149973593Y-115590194D01*
X149801323Y-115636353D01*
X149576245Y-115729584D01*
X149576234Y-115729589D01*
X149365257Y-115851397D01*
X149171978Y-115999705D01*
X149171971Y-115999711D01*
X147536976Y-117634707D01*
X147364710Y-117806971D01*
X147364705Y-117806977D01*
X147271542Y-117928392D01*
X147242327Y-117966466D01*
X147216399Y-118000256D01*
X147216393Y-118000264D01*
X147094588Y-118211235D01*
X147094580Y-118211251D01*
X147001353Y-118436323D01*
X146938299Y-118671648D01*
X146906499Y-118913179D01*
X144286259Y-118913179D01*
X144424111Y-118801028D01*
X144611657Y-118600216D01*
X144770111Y-118375737D01*
X144896523Y-118131772D01*
X144988538Y-117872867D01*
X144988539Y-117872860D01*
X144988541Y-117872855D01*
X145015359Y-117743798D01*
X145044442Y-117603844D01*
X145063193Y-117329714D01*
X145044442Y-117055584D01*
X144998299Y-116833533D01*
X144988541Y-116786572D01*
X144988536Y-116786555D01*
X144929547Y-116620576D01*
X144896523Y-116527656D01*
X144770111Y-116283691D01*
X144770110Y-116283689D01*
X144770106Y-116283683D01*
X144611659Y-116059214D01*
X144593031Y-116039269D01*
X144424111Y-115858400D01*
X144210969Y-115684996D01*
X144210967Y-115684995D01*
X144210965Y-115684993D01*
X143976206Y-115542233D01*
X143976202Y-115542231D01*
X143976200Y-115542230D01*
X143846888Y-115486061D01*
X143808611Y-115460009D01*
X142984819Y-114636217D01*
X142951334Y-114574894D01*
X142948500Y-114548536D01*
X142948500Y-113975005D01*
X142968185Y-113907966D01*
X143020989Y-113862211D01*
X143090147Y-113852267D01*
X143153703Y-113881292D01*
X143160181Y-113887324D01*
X143985284Y-114712427D01*
X144004989Y-114738106D01*
X144021474Y-114766658D01*
X144149261Y-114908580D01*
X144303762Y-115020832D01*
X144478226Y-115098508D01*
X144665027Y-115138214D01*
X144856001Y-115138214D01*
X144932639Y-115121924D01*
X144958420Y-115119214D01*
X149057895Y-115119214D01*
X149057896Y-115119213D01*
X149229744Y-115085031D01*
X149391622Y-115017979D01*
X149537309Y-114920634D01*
X150641420Y-113816523D01*
X150738765Y-113670836D01*
X150805817Y-113508958D01*
X150840000Y-113337108D01*
X150840000Y-113161892D01*
X150840000Y-111612392D01*
X150805817Y-111440542D01*
X150805815Y-111440537D01*
X150738766Y-111278665D01*
X150738764Y-111278662D01*
X150670398Y-111176344D01*
X150649520Y-111109667D01*
X150649500Y-111107454D01*
X150649500Y-111063319D01*
X150669185Y-110996280D01*
X150721989Y-110950525D01*
X150791147Y-110940581D01*
X150805594Y-110943544D01*
X151014677Y-110999568D01*
X151014684Y-110999569D01*
X151249998Y-111020157D01*
X151250002Y-111020157D01*
X151485315Y-110999569D01*
X151485326Y-110999567D01*
X151713483Y-110938433D01*
X151713492Y-110938429D01*
X151927578Y-110838600D01*
X151927582Y-110838598D01*
X152011373Y-110779926D01*
X152011373Y-110779925D01*
X151379410Y-110147962D01*
X151442993Y-110130925D01*
X151557007Y-110065099D01*
X151650099Y-109972007D01*
X151715925Y-109857993D01*
X151732962Y-109794410D01*
X152364925Y-110426373D01*
X152364926Y-110426373D01*
X152423598Y-110342582D01*
X152423600Y-110342578D01*
X152523429Y-110128492D01*
X152523433Y-110128483D01*
X152584567Y-109900326D01*
X152584569Y-109900315D01*
X152605157Y-109665001D01*
X152605157Y-109664998D01*
X152584569Y-109429684D01*
X152584567Y-109429673D01*
X152523433Y-109201516D01*
X152523429Y-109201507D01*
X152423600Y-108987423D01*
X152423599Y-108987421D01*
X152364925Y-108903626D01*
X152364925Y-108903625D01*
X151732962Y-109535589D01*
X151715925Y-109472007D01*
X151650099Y-109357993D01*
X151557007Y-109264901D01*
X151442993Y-109199075D01*
X151379409Y-109182037D01*
X152018746Y-108542700D01*
X152026926Y-108501998D01*
X152075541Y-108451815D01*
X152097679Y-108441986D01*
X152172738Y-108417115D01*
X152323652Y-108324030D01*
X152449030Y-108198652D01*
X152542115Y-108047738D01*
X152597887Y-107879426D01*
X152608500Y-107775545D01*
X152608499Y-106851178D01*
X152628183Y-106784140D01*
X152644823Y-106763493D01*
X152645455Y-106762860D01*
X152650293Y-106758023D01*
X152798602Y-106564743D01*
X152920415Y-106353758D01*
X153013646Y-106128678D01*
X153076701Y-105893353D01*
X153108501Y-105651813D01*
X153108501Y-105408187D01*
X153076701Y-105166647D01*
X153013646Y-104931322D01*
X152978556Y-104846608D01*
X152920419Y-104706251D01*
X152920411Y-104706235D01*
X152798606Y-104495264D01*
X152798602Y-104495257D01*
X152650293Y-104301977D01*
X152650288Y-104301971D01*
X150094548Y-101746232D01*
X150061063Y-101684909D01*
X150066047Y-101615217D01*
X150107919Y-101559284D01*
X150143911Y-101540620D01*
X150238999Y-101509724D01*
X150239002Y-101509723D01*
X150297466Y-101479934D01*
X150399375Y-101428009D01*
X150544990Y-101322213D01*
X150672263Y-101194940D01*
X150778059Y-101049325D01*
X150859773Y-100888952D01*
X150915393Y-100717770D01*
X150943550Y-100539995D01*
X150943550Y-100360005D01*
X150915393Y-100182230D01*
X150859773Y-100011048D01*
X150859770Y-100011041D01*
X150844104Y-99980294D01*
X150831208Y-99911625D01*
X150857485Y-99846885D01*
X150914592Y-99806628D01*
X150954589Y-99800000D01*
X151000000Y-99800000D01*
X151000000Y-98740747D01*
X151037708Y-98762518D01*
X151177591Y-98800000D01*
X151322409Y-98800000D01*
X151462292Y-98762518D01*
X151500000Y-98740747D01*
X151500000Y-99800000D01*
X152347828Y-99800000D01*
X152347844Y-99799999D01*
X152407372Y-99793598D01*
X152407379Y-99793596D01*
X152542086Y-99743354D01*
X152542093Y-99743350D01*
X152657187Y-99657190D01*
X152657190Y-99657187D01*
X152743350Y-99542093D01*
X152743354Y-99542086D01*
X152793596Y-99407379D01*
X152793598Y-99407372D01*
X152799999Y-99347844D01*
X152800000Y-99347827D01*
X152800000Y-98500000D01*
X151740748Y-98500000D01*
X151762518Y-98462292D01*
X151800000Y-98322409D01*
X151800000Y-98177591D01*
X151762518Y-98037708D01*
X151740748Y-98000000D01*
X152800000Y-98000000D01*
X152800000Y-97152172D01*
X152799999Y-97152155D01*
X152793598Y-97092627D01*
X152793596Y-97092620D01*
X152743354Y-96957913D01*
X152743350Y-96957906D01*
X152657190Y-96842812D01*
X152657187Y-96842809D01*
X152542093Y-96756649D01*
X152542086Y-96756645D01*
X152407379Y-96706403D01*
X152407372Y-96706401D01*
X152347844Y-96700000D01*
X151500000Y-96700000D01*
X151500000Y-97759252D01*
X151462292Y-97737482D01*
X151322409Y-97700000D01*
X151177591Y-97700000D01*
X151037708Y-97737482D01*
X151000000Y-97759252D01*
X151000000Y-96700000D01*
X150152155Y-96700000D01*
X150092627Y-96706401D01*
X150092620Y-96706403D01*
X149957913Y-96756645D01*
X149957906Y-96756649D01*
X149842812Y-96842809D01*
X149770157Y-96939863D01*
X149714223Y-96981733D01*
X149644531Y-96986717D01*
X149606102Y-96971279D01*
X149419730Y-96857072D01*
X149193087Y-96763193D01*
X148954553Y-96705927D01*
X148954554Y-96705927D01*
X148710000Y-96686681D01*
X148465445Y-96705927D01*
X148226912Y-96763193D01*
X148000269Y-96857071D01*
X147791106Y-96985246D01*
X147604567Y-97144567D01*
X147534290Y-97226850D01*
X147475783Y-97265043D01*
X147405915Y-97265541D01*
X147346869Y-97228187D01*
X147345710Y-97226850D01*
X147340327Y-97220547D01*
X147275433Y-97144567D01*
X147088896Y-96985248D01*
X147066101Y-96971279D01*
X146879730Y-96857071D01*
X146653087Y-96763193D01*
X146414553Y-96705927D01*
X146414554Y-96705927D01*
X146170000Y-96686681D01*
X145925445Y-96705927D01*
X145686912Y-96763193D01*
X145460269Y-96857071D01*
X145251106Y-96985246D01*
X145064567Y-97144567D01*
X144994290Y-97226850D01*
X144935783Y-97265043D01*
X144865915Y-97265541D01*
X144806869Y-97228187D01*
X144805710Y-97226850D01*
X144800327Y-97220547D01*
X144735433Y-97144567D01*
X144548896Y-96985248D01*
X144526101Y-96971279D01*
X144339730Y-96857071D01*
X144113087Y-96763193D01*
X143874553Y-96705927D01*
X143874554Y-96705927D01*
X143630000Y-96686681D01*
X143385445Y-96705927D01*
X143146912Y-96763193D01*
X142920269Y-96857071D01*
X142711106Y-96985246D01*
X142524567Y-97144567D01*
X142454290Y-97226850D01*
X142395783Y-97265043D01*
X142325915Y-97265541D01*
X142266869Y-97228187D01*
X142265710Y-97226850D01*
X142260327Y-97220547D01*
X142195433Y-97144567D01*
X142008896Y-96985248D01*
X141986101Y-96971279D01*
X141799730Y-96857071D01*
X141573087Y-96763193D01*
X141334553Y-96705927D01*
X141334554Y-96705927D01*
X141090000Y-96686681D01*
X140845445Y-96705927D01*
X140606912Y-96763193D01*
X140380269Y-96857071D01*
X140171106Y-96985246D01*
X139984570Y-97144564D01*
X139984568Y-97144565D01*
X139984567Y-97144567D01*
X139978072Y-97152172D01*
X139844790Y-97308223D01*
X139838181Y-97315371D01*
X139073787Y-98079765D01*
X139062518Y-98037708D01*
X138990110Y-97912292D01*
X138887708Y-97809890D01*
X138762292Y-97737482D01*
X138720234Y-97726212D01*
X139457941Y-96988504D01*
X139255861Y-96864668D01*
X139030457Y-96771303D01*
X138793219Y-96714348D01*
X138793220Y-96714348D01*
X138550000Y-96695207D01*
X138306780Y-96714348D01*
X138069542Y-96771303D01*
X137844138Y-96864668D01*
X137642057Y-96988504D01*
X138379766Y-97726212D01*
X138337708Y-97737482D01*
X138212292Y-97809890D01*
X138109890Y-97912292D01*
X138037482Y-98037708D01*
X138026212Y-98079765D01*
X137288504Y-97342057D01*
X137164668Y-97544138D01*
X137071303Y-97769542D01*
X137014348Y-98006780D01*
X136995207Y-98250000D01*
X137014348Y-98493219D01*
X137071303Y-98730457D01*
X137164668Y-98955861D01*
X137288504Y-99157941D01*
X138026212Y-98420233D01*
X138037482Y-98462292D01*
X138109890Y-98587708D01*
X138212292Y-98690110D01*
X138337708Y-98762518D01*
X138379765Y-98773787D01*
X137642057Y-99511494D01*
X137844138Y-99635331D01*
X138069544Y-99728696D01*
X138074177Y-99730202D01*
X138073535Y-99732177D01*
X138126575Y-99762605D01*
X138158763Y-99824619D01*
X138152314Y-99894190D01*
X138124750Y-99936104D01*
X136673314Y-101387541D01*
X136658520Y-101400177D01*
X136548746Y-101479934D01*
X136420959Y-101621857D01*
X136325473Y-101787243D01*
X136325470Y-101787250D01*
X136266459Y-101968868D01*
X136266458Y-101968872D01*
X136246496Y-102158800D01*
X132800000Y-102158800D01*
X132800000Y-88729714D01*
X134436807Y-88729714D01*
X134455557Y-89003844D01*
X134455558Y-89003846D01*
X134511458Y-89272855D01*
X134511463Y-89272872D01*
X134603476Y-89531770D01*
X134729889Y-89775738D01*
X134729893Y-89775744D01*
X134888340Y-90000213D01*
X134888343Y-90000216D01*
X135075889Y-90201028D01*
X135289031Y-90374432D01*
X135289033Y-90374433D01*
X135289034Y-90374434D01*
X135523801Y-90517199D01*
X135652027Y-90572895D01*
X135775823Y-90626667D01*
X136040404Y-90700799D01*
X136279720Y-90733692D01*
X136312614Y-90738214D01*
X136312615Y-90738214D01*
X136587386Y-90738214D01*
X136616733Y-90734180D01*
X136859596Y-90700799D01*
X137124177Y-90626667D01*
X137376200Y-90517198D01*
X137610969Y-90374432D01*
X137824111Y-90201028D01*
X138011657Y-90000216D01*
X138170111Y-89775737D01*
X138296523Y-89531772D01*
X138388538Y-89272867D01*
X138388539Y-89272860D01*
X138388541Y-89272855D01*
X138434907Y-89049728D01*
X138444442Y-89003844D01*
X138463193Y-88729714D01*
X138444442Y-88455584D01*
X138425141Y-88362703D01*
X138388541Y-88186572D01*
X138388536Y-88186555D01*
X138296523Y-87927657D01*
X138296523Y-87927656D01*
X138170111Y-87683691D01*
X138170110Y-87683689D01*
X138170106Y-87683683D01*
X138011659Y-87459214D01*
X137950608Y-87393845D01*
X137824111Y-87258400D01*
X137610969Y-87084996D01*
X137610967Y-87084995D01*
X137610965Y-87084993D01*
X137376198Y-86942228D01*
X137124178Y-86832761D01*
X136859602Y-86758630D01*
X136859597Y-86758629D01*
X136859596Y-86758629D01*
X136723490Y-86739921D01*
X136587386Y-86721214D01*
X136587385Y-86721214D01*
X136312615Y-86721214D01*
X136312614Y-86721214D01*
X136040404Y-86758629D01*
X136040397Y-86758630D01*
X135775821Y-86832761D01*
X135523801Y-86942228D01*
X135289034Y-87084993D01*
X135075892Y-87258397D01*
X134888340Y-87459214D01*
X134729893Y-87683683D01*
X134729889Y-87683689D01*
X134603476Y-87927657D01*
X134511463Y-88186555D01*
X134511458Y-88186572D01*
X134455558Y-88455581D01*
X134455557Y-88455583D01*
X134436807Y-88729714D01*
X132800000Y-88729714D01*
X132800000Y-85124000D01*
X132819685Y-85056961D01*
X132872489Y-85011206D01*
X132924000Y-85000000D01*
X142591304Y-85000000D01*
X142658343Y-85019685D01*
G37*
G04 #@! TD.AperFunction*
G04 #@! TA.AperFunction,Conductor*
G36*
X145997767Y-147644214D02*
G01*
X145905883Y-147606155D01*
X145806427Y-147606155D01*
X145714541Y-147644215D01*
X145644215Y-147714541D01*
X145606155Y-147806427D01*
X145606155Y-147905883D01*
X145644214Y-147997767D01*
X145048065Y-147401618D01*
X145156331Y-147318543D01*
X145318543Y-147156331D01*
X145401618Y-147048065D01*
X145997767Y-147644214D01*
G37*
G04 #@! TD.AperFunction*
G04 #@! TA.AperFunction,Conductor*
G36*
X142951934Y-144598381D02*
G01*
X142843669Y-144681457D01*
X142681457Y-144843669D01*
X142598382Y-144951934D01*
X142002233Y-144355785D01*
X142094117Y-144393845D01*
X142193573Y-144393845D01*
X142285459Y-144355785D01*
X142355785Y-144285459D01*
X142393845Y-144193573D01*
X142393845Y-144094117D01*
X142355785Y-144002232D01*
X142951934Y-144598381D01*
G37*
G04 #@! TD.AperFunction*
G04 #@! TA.AperFunction,Conductor*
G36*
X145997767Y-90644214D02*
G01*
X145905883Y-90606155D01*
X145806427Y-90606155D01*
X145714541Y-90644215D01*
X145644215Y-90714541D01*
X145606155Y-90806427D01*
X145606155Y-90905883D01*
X145644214Y-90997767D01*
X145048065Y-90401618D01*
X145156331Y-90318543D01*
X145318543Y-90156331D01*
X145401618Y-90048065D01*
X145997767Y-90644214D01*
G37*
G04 #@! TD.AperFunction*
G04 #@! TA.AperFunction,Conductor*
G36*
X142951934Y-87598381D02*
G01*
X142843669Y-87681457D01*
X142681457Y-87843669D01*
X142598382Y-87951934D01*
X142002233Y-87355785D01*
X142094117Y-87393845D01*
X142193573Y-87393845D01*
X142285459Y-87355785D01*
X142355785Y-87285459D01*
X142393845Y-87193573D01*
X142393845Y-87094117D01*
X142355785Y-87002232D01*
X142951934Y-87598381D01*
G37*
G04 #@! TD.AperFunction*
G04 #@! TA.AperFunction,Conductor*
G36*
X141926742Y-109664984D02*
G01*
X141935011Y-109668421D01*
X141938428Y-109676698D01*
X141938336Y-109678152D01*
X141726294Y-111354768D01*
X141721856Y-111362546D01*
X141714686Y-111365000D01*
X140465314Y-111365000D01*
X140457041Y-111361573D01*
X140453706Y-111354768D01*
X140241663Y-109678152D01*
X140244025Y-109669514D01*
X140251803Y-109665076D01*
X140253250Y-109664984D01*
X141090000Y-109664000D01*
X141926742Y-109664984D01*
G37*
G04 #@! TD.AperFunction*
G04 #@! TA.AperFunction,Conductor*
G36*
X146174489Y-107125865D02*
G01*
X146945598Y-107446251D01*
X146951923Y-107452590D01*
X146952334Y-107460357D01*
X146553470Y-108816601D01*
X146547848Y-108823571D01*
X146542245Y-108825000D01*
X145797755Y-108825000D01*
X145789482Y-108821573D01*
X145786530Y-108816601D01*
X145387665Y-107460357D01*
X145388619Y-107451453D01*
X145394401Y-107446251D01*
X146165511Y-107125865D01*
X146174466Y-107125856D01*
X146174489Y-107125865D01*
G37*
G04 #@! TD.AperFunction*
G04 #@! TA.AperFunction,Conductor*
G36*
X148714487Y-98250863D02*
G01*
X149668365Y-98646956D01*
X149674691Y-98653293D01*
X149674683Y-98662248D01*
X149674289Y-98663099D01*
X148838262Y-100293638D01*
X148831438Y-100299437D01*
X148827851Y-100300000D01*
X148592149Y-100300000D01*
X148583876Y-100296573D01*
X148581738Y-100293638D01*
X147745710Y-98663099D01*
X147744984Y-98654174D01*
X147750783Y-98647350D01*
X147751627Y-98646959D01*
X148705513Y-98250862D01*
X148714467Y-98250855D01*
X148714487Y-98250863D01*
G37*
G04 #@! TD.AperFunction*
G04 #@! TA.AperFunction,Conductor*
G36*
X148817657Y-105290395D02*
G01*
X148823456Y-105296194D01*
X148825867Y-105299699D01*
X149490404Y-106788753D01*
X149490647Y-106797704D01*
X149484488Y-106804205D01*
X149484209Y-106804326D01*
X148715190Y-107123844D01*
X148706236Y-107123852D01*
X147935895Y-106804361D01*
X147929566Y-106798027D01*
X147929570Y-106789072D01*
X147929733Y-106788696D01*
X148455273Y-105637275D01*
X148457640Y-105633866D01*
X148801112Y-105290394D01*
X148809384Y-105286968D01*
X148817657Y-105290395D01*
G37*
G04 #@! TD.AperFunction*
G04 #@! TA.AperFunction,Conductor*
G36*
X146550518Y-107968427D02*
G01*
X146553470Y-107973399D01*
X146952334Y-109329642D01*
X146951380Y-109338546D01*
X146945598Y-109343748D01*
X146174489Y-109664134D01*
X146165534Y-109664143D01*
X146165511Y-109664134D01*
X145394401Y-109343748D01*
X145388076Y-109337409D01*
X145387665Y-109329643D01*
X145786530Y-107973399D01*
X145792152Y-107966429D01*
X145797755Y-107965000D01*
X146542245Y-107965000D01*
X146550518Y-107968427D01*
G37*
G04 #@! TD.AperFunction*
G04 #@! TA.AperFunction,Conductor*
G36*
X143634489Y-109665865D02*
G01*
X144405598Y-109986251D01*
X144411923Y-109992590D01*
X144412334Y-110000357D01*
X144013470Y-111356601D01*
X144007848Y-111363571D01*
X144002245Y-111365000D01*
X143257755Y-111365000D01*
X143249482Y-111361573D01*
X143246530Y-111356601D01*
X142847665Y-110000357D01*
X142848619Y-109991453D01*
X142854401Y-109986251D01*
X143625511Y-109665865D01*
X143634466Y-109665856D01*
X143634489Y-109665865D01*
G37*
G04 #@! TD.AperFunction*
G04 #@! TA.AperFunction,Conductor*
G36*
X144412696Y-106804500D02*
G01*
X144419021Y-106810839D01*
X144419293Y-106811565D01*
X144928792Y-108322031D01*
X144928189Y-108330966D01*
X144921446Y-108336857D01*
X144917706Y-108337471D01*
X144681774Y-108337471D01*
X144678303Y-108336944D01*
X143316958Y-107914099D01*
X143310074Y-107908373D01*
X143309256Y-107899455D01*
X143309610Y-107898474D01*
X143628144Y-107128485D01*
X143634471Y-107122153D01*
X144403741Y-106804491D01*
X144412696Y-106804500D01*
G37*
G04 #@! TD.AperFunction*
G04 #@! TA.AperFunction,Conductor*
G36*
X148835188Y-99653427D02*
G01*
X148837859Y-99657563D01*
X149075551Y-100286344D01*
X149075271Y-100295294D01*
X149069109Y-100301280D01*
X148714502Y-100449123D01*
X148705548Y-100449144D01*
X148705498Y-100449123D01*
X148350890Y-100301280D01*
X148344572Y-100294933D01*
X148344448Y-100286345D01*
X148582141Y-99657562D01*
X148588272Y-99651036D01*
X148593085Y-99650000D01*
X148826915Y-99650000D01*
X148835188Y-99653427D01*
G37*
G04 #@! TD.AperFunction*
G04 #@! TA.AperFunction,Conductor*
G36*
X146683686Y-105455081D02*
G01*
X146686885Y-105461054D01*
X146953409Y-106790300D01*
X146951675Y-106799085D01*
X146946426Y-106803405D01*
X146174489Y-107124134D01*
X146165534Y-107124143D01*
X146165511Y-107124134D01*
X145395358Y-106804146D01*
X145389033Y-106797807D01*
X145388981Y-106789002D01*
X145920061Y-105459015D01*
X145926312Y-105452603D01*
X145930927Y-105451654D01*
X146675413Y-105451654D01*
X146683686Y-105455081D01*
G37*
G04 #@! TD.AperFunction*
G04 #@! TA.AperFunction,Conductor*
G36*
X147129799Y-98647551D02*
G01*
X147136125Y-98653888D01*
X147136329Y-98662294D01*
X146553774Y-100292238D01*
X146547763Y-100298875D01*
X146542757Y-100300000D01*
X145797243Y-100300000D01*
X145788970Y-100296573D01*
X145786226Y-100292238D01*
X145203670Y-98662294D01*
X145204112Y-98653350D01*
X145210198Y-98647552D01*
X146165513Y-98250862D01*
X146174467Y-98250855D01*
X147129799Y-98647551D01*
G37*
G04 #@! TD.AperFunction*
G04 #@! TA.AperFunction,Conductor*
G36*
X147934407Y-109343726D02*
G01*
X148706215Y-109662438D01*
X148712552Y-109668761D01*
X148712562Y-109668785D01*
X149031272Y-110440590D01*
X149031263Y-110449545D01*
X149026061Y-110455327D01*
X147785011Y-111132296D01*
X147776107Y-111133250D01*
X147771135Y-111130298D01*
X147244701Y-110603864D01*
X147241274Y-110595591D01*
X147242702Y-110589989D01*
X147919674Y-109348936D01*
X147926642Y-109343316D01*
X147934407Y-109343726D01*
G37*
G04 #@! TD.AperFunction*
G04 #@! TA.AperFunction,Conductor*
G36*
X144589799Y-98647551D02*
G01*
X144596125Y-98653888D01*
X144596329Y-98662294D01*
X144013774Y-100292238D01*
X144007763Y-100298875D01*
X144002757Y-100300000D01*
X143257243Y-100300000D01*
X143248970Y-100296573D01*
X143246226Y-100292238D01*
X142663670Y-98662294D01*
X142664112Y-98653350D01*
X142670198Y-98647552D01*
X143625513Y-98250862D01*
X143634467Y-98250855D01*
X144589799Y-98647551D01*
G37*
G04 #@! TD.AperFunction*
G04 #@! TA.AperFunction,Conductor*
G36*
X149492125Y-106804739D02*
G01*
X149498454Y-106811073D01*
X149498895Y-106812338D01*
X149859552Y-108077428D01*
X149860000Y-108080636D01*
X149860000Y-108313517D01*
X149856573Y-108321790D01*
X149848300Y-108325217D01*
X149845106Y-108324772D01*
X148397350Y-107913882D01*
X148390326Y-107908327D01*
X148389289Y-107899433D01*
X148389725Y-107898173D01*
X148707147Y-107129486D01*
X148713468Y-107123151D01*
X149483172Y-106804735D01*
X149492125Y-106804739D01*
G37*
G04 #@! TD.AperFunction*
D28*
X132800000Y-150000000D02*
X158000000Y-150000000D01*
X158000000Y-85000000D02*
X132800000Y-85000000D01*
X132800000Y-85000000D02*
X132800000Y-150000000D01*
X158000000Y-150000000D02*
X158000000Y-85000000D01*
M02*
