%TF.GenerationSoftware,KiCad,Pcbnew,8.0.6*%
%TF.CreationDate,2025-12-26T07:27:58-05:00*%
%TF.ProjectId,heaterboard_1,68656174-6572-4626-9f61-72645f312e6b,3.0*%
%TF.SameCoordinates,Original*%
%TF.FileFunction,Drillmap*%
%TF.FilePolarity,Positive*%
%FSLAX45Y45*%
G04 Gerber Fmt 4.5, Leading zero omitted, Abs format (unit mm)*
G04 Created by KiCad (PCBNEW 8.0.6) date 2025-12-26 07:27:58*
%MOMM*%
%LPD*%
G01*
G04 APERTURE LIST*
%ADD10C,0.100000*%
%ADD11C,0.200000*%
%ADD12C,0.110000*%
%ADD13C,0.150000*%
%ADD14C,0.350000*%
G04 APERTURE END LIST*
D10*
X13280000Y-15000000D02*
X15800000Y-15000000D01*
X15800000Y-8500000D02*
X13280000Y-8500000D01*
X13280000Y-8500000D02*
X13280000Y-15000000D01*
X15800000Y-15000000D02*
X15800000Y-8500000D01*
D11*
D10*
X13696000Y-10195880D02*
X13736000Y-10235880D01*
X13736000Y-10195880D02*
X13696000Y-10235880D01*
X13823000Y-10902000D02*
X13863000Y-10942000D01*
X13863000Y-10902000D02*
X13823000Y-10942000D01*
X13886500Y-10584500D02*
X13926500Y-10624500D01*
X13926500Y-10584500D02*
X13886500Y-10624500D01*
X13960000Y-10237971D02*
X14000000Y-10277971D01*
X14000000Y-10237971D02*
X13960000Y-10277971D01*
X14175112Y-10480552D02*
X14215112Y-10520552D01*
X14215112Y-10480552D02*
X14175112Y-10520552D01*
X14456051Y-11402971D02*
X14496051Y-11442971D01*
X14496051Y-11402971D02*
X14456051Y-11442971D01*
X14539000Y-12084471D02*
X14579000Y-12124471D01*
X14579000Y-12084471D02*
X14539000Y-12124471D01*
X14580625Y-13117346D02*
X14620625Y-13157346D01*
X14620625Y-13117346D02*
X14580625Y-13157346D01*
X14839000Y-11219500D02*
X14879000Y-11259500D01*
X14879000Y-11219500D02*
X14839000Y-11259500D01*
X15364500Y-10496971D02*
X15404500Y-10536971D01*
X15404500Y-10496971D02*
X15364500Y-10536971D01*
X14162500Y-8900000D02*
G75*
G02*
X14112500Y-8900000I-25000J0D01*
G01*
X14112500Y-8900000D02*
G75*
G02*
X14162500Y-8900000I25000J0D01*
G01*
X14162500Y-14600000D02*
G75*
G02*
X14112500Y-14600000I-25000J0D01*
G01*
X14112500Y-14600000D02*
G75*
G02*
X14162500Y-14600000I25000J0D01*
G01*
X14239384Y-8714385D02*
G75*
G02*
X14189384Y-8714385I-25000J0D01*
G01*
X14189384Y-8714385D02*
G75*
G02*
X14239384Y-8714385I25000J0D01*
G01*
X14239384Y-9085616D02*
G75*
G02*
X14189384Y-9085616I-25000J0D01*
G01*
X14189384Y-9085616D02*
G75*
G02*
X14239384Y-9085616I25000J0D01*
G01*
X14239384Y-14414384D02*
G75*
G02*
X14189384Y-14414384I-25000J0D01*
G01*
X14189384Y-14414384D02*
G75*
G02*
X14239384Y-14414384I25000J0D01*
G01*
X14239384Y-14785615D02*
G75*
G02*
X14189384Y-14785615I-25000J0D01*
G01*
X14189384Y-14785615D02*
G75*
G02*
X14239384Y-14785615I25000J0D01*
G01*
X14425000Y-8637500D02*
G75*
G02*
X14375000Y-8637500I-25000J0D01*
G01*
X14375000Y-8637500D02*
G75*
G02*
X14425000Y-8637500I25000J0D01*
G01*
X14425000Y-9162500D02*
G75*
G02*
X14375000Y-9162500I-25000J0D01*
G01*
X14375000Y-9162500D02*
G75*
G02*
X14425000Y-9162500I25000J0D01*
G01*
X14425000Y-14337500D02*
G75*
G02*
X14375000Y-14337500I-25000J0D01*
G01*
X14375000Y-14337500D02*
G75*
G02*
X14425000Y-14337500I25000J0D01*
G01*
X14425000Y-14862500D02*
G75*
G02*
X14375000Y-14862500I-25000J0D01*
G01*
X14375000Y-14862500D02*
G75*
G02*
X14425000Y-14862500I25000J0D01*
G01*
X14610615Y-8714385D02*
G75*
G02*
X14560615Y-8714385I-25000J0D01*
G01*
X14560615Y-8714385D02*
G75*
G02*
X14610615Y-8714385I25000J0D01*
G01*
X14610615Y-9085616D02*
G75*
G02*
X14560615Y-9085616I-25000J0D01*
G01*
X14560615Y-9085616D02*
G75*
G02*
X14610615Y-9085616I25000J0D01*
G01*
X14610615Y-14414384D02*
G75*
G02*
X14560615Y-14414384I-25000J0D01*
G01*
X14560615Y-14414384D02*
G75*
G02*
X14610615Y-14414384I25000J0D01*
G01*
X14610615Y-14785615D02*
G75*
G02*
X14560615Y-14785615I-25000J0D01*
G01*
X14560615Y-14785615D02*
G75*
G02*
X14610615Y-14785615I25000J0D01*
G01*
X14687500Y-8900000D02*
G75*
G02*
X14637500Y-8900000I-25000J0D01*
G01*
X14637500Y-8900000D02*
G75*
G02*
X14687500Y-8900000I25000J0D01*
G01*
X14687500Y-14600000D02*
G75*
G02*
X14637500Y-14600000I-25000J0D01*
G01*
X14637500Y-14600000D02*
G75*
G02*
X14687500Y-14600000I25000J0D01*
G01*
X14630400Y-10475600D02*
X14630400Y-10555600D01*
X14590400Y-10515600D02*
X14670400Y-10515600D01*
X14980005Y-10005000D02*
X14980005Y-10085000D01*
X14940005Y-10045000D02*
X15020005Y-10045000D01*
X14144356Y-10747856D02*
X14144356Y-10677144D01*
X14073644Y-10677144D01*
X14073644Y-10747856D01*
X14144356Y-10747856D01*
X14144356Y-11001856D02*
X14144356Y-10931144D01*
X14073644Y-10931144D01*
X14073644Y-11001856D01*
X14144356Y-11001856D01*
X14398356Y-10747856D02*
X14398356Y-10677144D01*
X14327644Y-10677144D01*
X14327644Y-10747856D01*
X14398356Y-10747856D01*
X14398356Y-11001856D02*
X14398356Y-10931144D01*
X14327644Y-10931144D01*
X14327644Y-11001856D01*
X14398356Y-11001856D01*
X14652356Y-10747856D02*
X14652356Y-10677144D01*
X14581644Y-10677144D01*
X14581644Y-10747856D01*
X14652356Y-10747856D01*
X14652356Y-11001856D02*
X14652356Y-10931144D01*
X14581644Y-10931144D01*
X14581644Y-11001856D01*
X14652356Y-11001856D01*
X14906356Y-10747856D02*
X14906356Y-10677144D01*
X14835644Y-10677144D01*
X14835644Y-10747856D01*
X14906356Y-10747856D01*
X14906356Y-11001856D02*
X14906356Y-10931144D01*
X14835644Y-10931144D01*
X14835644Y-11001856D01*
X14906356Y-11001856D01*
X15160356Y-10747856D02*
X15160356Y-10677144D01*
X15089644Y-10677144D01*
X15089644Y-10747856D01*
X15160356Y-10747856D01*
X15160356Y-11001856D02*
X15160356Y-10931144D01*
X15089644Y-10931144D01*
X15089644Y-11001856D01*
X15160356Y-11001856D01*
D12*
X13855000Y-9880000D02*
X13910000Y-9825000D01*
X13855000Y-9770000D01*
X13800000Y-9825000D01*
X13855000Y-9880000D01*
X14109000Y-9880000D02*
X14164000Y-9825000D01*
X14109000Y-9770000D01*
X14054000Y-9825000D01*
X14109000Y-9880000D01*
X14363000Y-9880000D02*
X14418000Y-9825000D01*
X14363000Y-9770000D01*
X14308000Y-9825000D01*
X14363000Y-9880000D01*
X14617000Y-9880000D02*
X14672000Y-9825000D01*
X14617000Y-9770000D01*
X14562000Y-9825000D01*
X14617000Y-9880000D01*
X14871000Y-9880000D02*
X14926000Y-9825000D01*
X14871000Y-9770000D01*
X14816000Y-9825000D01*
X14871000Y-9880000D01*
X15125000Y-9880000D02*
X15180000Y-9825000D01*
X15125000Y-9770000D01*
X15070000Y-9825000D01*
X15125000Y-9880000D01*
X15300000Y-11801000D02*
X15355000Y-11746000D01*
X15300000Y-11691000D01*
X15245000Y-11746000D01*
X15300000Y-11801000D01*
X15300000Y-12055000D02*
X15355000Y-12000000D01*
X15300000Y-11945000D01*
X15245000Y-12000000D01*
X15300000Y-12055000D01*
X15300000Y-12501000D02*
X15355000Y-12446000D01*
X15300000Y-12391000D01*
X15245000Y-12446000D01*
X15300000Y-12501000D01*
X15300000Y-12755000D02*
X15355000Y-12700000D01*
X15300000Y-12645000D01*
X15245000Y-12700000D01*
X15300000Y-12755000D01*
X15300000Y-13347000D02*
X15355000Y-13292000D01*
X15300000Y-13237000D01*
X15245000Y-13292000D01*
X15300000Y-13347000D01*
X15300000Y-13601000D02*
X15355000Y-13546000D01*
X15300000Y-13491000D01*
X15245000Y-13546000D01*
X15300000Y-13601000D01*
X15300000Y-13855000D02*
X15355000Y-13800000D01*
X15300000Y-13745000D01*
X15245000Y-13800000D01*
X15300000Y-13855000D01*
D13*
X13570000Y-8797971D02*
X13720000Y-8947971D01*
X13720000Y-8797971D02*
X13570000Y-8947971D01*
X13720000Y-8872971D02*
G75*
G02*
X13570000Y-8872971I-75000J0D01*
G01*
X13570000Y-8872971D02*
G75*
G02*
X13720000Y-8872971I75000J0D01*
G01*
X14230000Y-11657971D02*
X14380000Y-11807971D01*
X14380000Y-11657971D02*
X14230000Y-11807971D01*
X14380000Y-11732971D02*
G75*
G02*
X14230000Y-11732971I-75000J0D01*
G01*
X14230000Y-11732971D02*
G75*
G02*
X14380000Y-11732971I75000J0D01*
G01*
X14230000Y-12357971D02*
X14380000Y-12507971D01*
X14380000Y-12357971D02*
X14230000Y-12507971D01*
X14380000Y-12432971D02*
G75*
G02*
X14230000Y-12432971I-75000J0D01*
G01*
X14230000Y-12432971D02*
G75*
G02*
X14380000Y-12432971I75000J0D01*
G01*
X14230000Y-13457971D02*
X14380000Y-13607971D01*
X14380000Y-13457971D02*
X14230000Y-13607971D01*
X14380000Y-13532971D02*
G75*
G02*
X14230000Y-13532971I-75000J0D01*
G01*
X14230000Y-13532971D02*
G75*
G02*
X14380000Y-13532971I75000J0D01*
G01*
X15030000Y-14537971D02*
X15180000Y-14687971D01*
X15180000Y-14537971D02*
X15030000Y-14687971D01*
X15180000Y-14612971D02*
G75*
G02*
X15030000Y-14612971I-75000J0D01*
G01*
X15030000Y-14612971D02*
G75*
G02*
X15180000Y-14612971I75000J0D01*
G01*
D14*
X14225000Y-8725000D02*
X14575000Y-9075000D01*
X14575000Y-8725000D02*
X14225000Y-9075000D01*
X14400000Y-8725000D02*
X14400000Y-9075000D01*
X14225000Y-8900000D02*
X14575000Y-8900000D01*
X14225000Y-14425000D02*
X14575000Y-14775000D01*
X14575000Y-14425000D02*
X14225000Y-14775000D01*
X14400000Y-14425000D02*
X14400000Y-14775000D01*
X14225000Y-14600000D02*
X14575000Y-14600000D01*
D11*
X13535777Y-15316484D02*
X13535777Y-15116484D01*
X13535777Y-15116484D02*
X13583396Y-15116484D01*
X13583396Y-15116484D02*
X13611967Y-15126008D01*
X13611967Y-15126008D02*
X13631015Y-15145055D01*
X13631015Y-15145055D02*
X13640539Y-15164103D01*
X13640539Y-15164103D02*
X13650062Y-15202198D01*
X13650062Y-15202198D02*
X13650062Y-15230769D01*
X13650062Y-15230769D02*
X13640539Y-15268865D01*
X13640539Y-15268865D02*
X13631015Y-15287912D01*
X13631015Y-15287912D02*
X13611967Y-15306960D01*
X13611967Y-15306960D02*
X13583396Y-15316484D01*
X13583396Y-15316484D02*
X13535777Y-15316484D01*
X13735777Y-15316484D02*
X13735777Y-15183150D01*
X13735777Y-15221246D02*
X13745301Y-15202198D01*
X13745301Y-15202198D02*
X13754824Y-15192674D01*
X13754824Y-15192674D02*
X13773872Y-15183150D01*
X13773872Y-15183150D02*
X13792920Y-15183150D01*
X13859586Y-15316484D02*
X13859586Y-15183150D01*
X13859586Y-15116484D02*
X13850062Y-15126008D01*
X13850062Y-15126008D02*
X13859586Y-15135531D01*
X13859586Y-15135531D02*
X13869110Y-15126008D01*
X13869110Y-15126008D02*
X13859586Y-15116484D01*
X13859586Y-15116484D02*
X13859586Y-15135531D01*
X13983396Y-15316484D02*
X13964348Y-15306960D01*
X13964348Y-15306960D02*
X13954824Y-15287912D01*
X13954824Y-15287912D02*
X13954824Y-15116484D01*
X14088158Y-15316484D02*
X14069110Y-15306960D01*
X14069110Y-15306960D02*
X14059586Y-15287912D01*
X14059586Y-15287912D02*
X14059586Y-15116484D01*
X14316729Y-15316484D02*
X14316729Y-15116484D01*
X14316729Y-15116484D02*
X14383396Y-15259341D01*
X14383396Y-15259341D02*
X14450062Y-15116484D01*
X14450062Y-15116484D02*
X14450062Y-15316484D01*
X14631015Y-15316484D02*
X14631015Y-15211722D01*
X14631015Y-15211722D02*
X14621491Y-15192674D01*
X14621491Y-15192674D02*
X14602443Y-15183150D01*
X14602443Y-15183150D02*
X14564348Y-15183150D01*
X14564348Y-15183150D02*
X14545301Y-15192674D01*
X14631015Y-15306960D02*
X14611967Y-15316484D01*
X14611967Y-15316484D02*
X14564348Y-15316484D01*
X14564348Y-15316484D02*
X14545301Y-15306960D01*
X14545301Y-15306960D02*
X14535777Y-15287912D01*
X14535777Y-15287912D02*
X14535777Y-15268865D01*
X14535777Y-15268865D02*
X14545301Y-15249817D01*
X14545301Y-15249817D02*
X14564348Y-15240293D01*
X14564348Y-15240293D02*
X14611967Y-15240293D01*
X14611967Y-15240293D02*
X14631015Y-15230769D01*
X14726253Y-15183150D02*
X14726253Y-15383150D01*
X14726253Y-15192674D02*
X14745301Y-15183150D01*
X14745301Y-15183150D02*
X14783396Y-15183150D01*
X14783396Y-15183150D02*
X14802443Y-15192674D01*
X14802443Y-15192674D02*
X14811967Y-15202198D01*
X14811967Y-15202198D02*
X14821491Y-15221246D01*
X14821491Y-15221246D02*
X14821491Y-15278388D01*
X14821491Y-15278388D02*
X14811967Y-15297436D01*
X14811967Y-15297436D02*
X14802443Y-15306960D01*
X14802443Y-15306960D02*
X14783396Y-15316484D01*
X14783396Y-15316484D02*
X14745301Y-15316484D01*
X14745301Y-15316484D02*
X14726253Y-15306960D01*
X14907205Y-15297436D02*
X14916729Y-15306960D01*
X14916729Y-15306960D02*
X14907205Y-15316484D01*
X14907205Y-15316484D02*
X14897682Y-15306960D01*
X14897682Y-15306960D02*
X14907205Y-15297436D01*
X14907205Y-15297436D02*
X14907205Y-15316484D01*
X14907205Y-15192674D02*
X14916729Y-15202198D01*
X14916729Y-15202198D02*
X14907205Y-15211722D01*
X14907205Y-15211722D02*
X14897682Y-15202198D01*
X14897682Y-15202198D02*
X14907205Y-15192674D01*
X14907205Y-15192674D02*
X14907205Y-15211722D01*
D10*
X13235000Y-15625000D02*
X13275000Y-15665000D01*
X13275000Y-15625000D02*
X13235000Y-15665000D01*
D11*
X13573872Y-15536484D02*
X13592920Y-15536484D01*
X13592920Y-15536484D02*
X13611967Y-15546008D01*
X13611967Y-15546008D02*
X13621491Y-15555531D01*
X13621491Y-15555531D02*
X13631015Y-15574579D01*
X13631015Y-15574579D02*
X13640539Y-15612674D01*
X13640539Y-15612674D02*
X13640539Y-15660293D01*
X13640539Y-15660293D02*
X13631015Y-15698388D01*
X13631015Y-15698388D02*
X13621491Y-15717436D01*
X13621491Y-15717436D02*
X13611967Y-15726960D01*
X13611967Y-15726960D02*
X13592920Y-15736484D01*
X13592920Y-15736484D02*
X13573872Y-15736484D01*
X13573872Y-15736484D02*
X13554824Y-15726960D01*
X13554824Y-15726960D02*
X13545301Y-15717436D01*
X13545301Y-15717436D02*
X13535777Y-15698388D01*
X13535777Y-15698388D02*
X13526253Y-15660293D01*
X13526253Y-15660293D02*
X13526253Y-15612674D01*
X13526253Y-15612674D02*
X13535777Y-15574579D01*
X13535777Y-15574579D02*
X13545301Y-15555531D01*
X13545301Y-15555531D02*
X13554824Y-15546008D01*
X13554824Y-15546008D02*
X13573872Y-15536484D01*
X13726253Y-15717436D02*
X13735777Y-15726960D01*
X13735777Y-15726960D02*
X13726253Y-15736484D01*
X13726253Y-15736484D02*
X13716729Y-15726960D01*
X13716729Y-15726960D02*
X13726253Y-15717436D01*
X13726253Y-15717436D02*
X13726253Y-15736484D01*
X13907205Y-15603150D02*
X13907205Y-15736484D01*
X13859586Y-15526960D02*
X13811967Y-15669817D01*
X13811967Y-15669817D02*
X13935777Y-15669817D01*
X14050062Y-15536484D02*
X14069110Y-15536484D01*
X14069110Y-15536484D02*
X14088158Y-15546008D01*
X14088158Y-15546008D02*
X14097682Y-15555531D01*
X14097682Y-15555531D02*
X14107205Y-15574579D01*
X14107205Y-15574579D02*
X14116729Y-15612674D01*
X14116729Y-15612674D02*
X14116729Y-15660293D01*
X14116729Y-15660293D02*
X14107205Y-15698388D01*
X14107205Y-15698388D02*
X14097682Y-15717436D01*
X14097682Y-15717436D02*
X14088158Y-15726960D01*
X14088158Y-15726960D02*
X14069110Y-15736484D01*
X14069110Y-15736484D02*
X14050062Y-15736484D01*
X14050062Y-15736484D02*
X14031015Y-15726960D01*
X14031015Y-15726960D02*
X14021491Y-15717436D01*
X14021491Y-15717436D02*
X14011967Y-15698388D01*
X14011967Y-15698388D02*
X14002443Y-15660293D01*
X14002443Y-15660293D02*
X14002443Y-15612674D01*
X14002443Y-15612674D02*
X14011967Y-15574579D01*
X14011967Y-15574579D02*
X14021491Y-15555531D01*
X14021491Y-15555531D02*
X14031015Y-15546008D01*
X14031015Y-15546008D02*
X14050062Y-15536484D01*
X14240539Y-15536484D02*
X14259586Y-15536484D01*
X14259586Y-15536484D02*
X14278634Y-15546008D01*
X14278634Y-15546008D02*
X14288158Y-15555531D01*
X14288158Y-15555531D02*
X14297682Y-15574579D01*
X14297682Y-15574579D02*
X14307205Y-15612674D01*
X14307205Y-15612674D02*
X14307205Y-15660293D01*
X14307205Y-15660293D02*
X14297682Y-15698388D01*
X14297682Y-15698388D02*
X14288158Y-15717436D01*
X14288158Y-15717436D02*
X14278634Y-15726960D01*
X14278634Y-15726960D02*
X14259586Y-15736484D01*
X14259586Y-15736484D02*
X14240539Y-15736484D01*
X14240539Y-15736484D02*
X14221491Y-15726960D01*
X14221491Y-15726960D02*
X14211967Y-15717436D01*
X14211967Y-15717436D02*
X14202443Y-15698388D01*
X14202443Y-15698388D02*
X14192920Y-15660293D01*
X14192920Y-15660293D02*
X14192920Y-15612674D01*
X14192920Y-15612674D02*
X14202443Y-15574579D01*
X14202443Y-15574579D02*
X14211967Y-15555531D01*
X14211967Y-15555531D02*
X14221491Y-15546008D01*
X14221491Y-15546008D02*
X14240539Y-15536484D01*
X14392920Y-15736484D02*
X14392920Y-15603150D01*
X14392920Y-15622198D02*
X14402443Y-15612674D01*
X14402443Y-15612674D02*
X14421491Y-15603150D01*
X14421491Y-15603150D02*
X14450063Y-15603150D01*
X14450063Y-15603150D02*
X14469110Y-15612674D01*
X14469110Y-15612674D02*
X14478634Y-15631722D01*
X14478634Y-15631722D02*
X14478634Y-15736484D01*
X14478634Y-15631722D02*
X14488158Y-15612674D01*
X14488158Y-15612674D02*
X14507205Y-15603150D01*
X14507205Y-15603150D02*
X14535777Y-15603150D01*
X14535777Y-15603150D02*
X14554824Y-15612674D01*
X14554824Y-15612674D02*
X14564348Y-15631722D01*
X14564348Y-15631722D02*
X14564348Y-15736484D01*
X14659586Y-15736484D02*
X14659586Y-15603150D01*
X14659586Y-15622198D02*
X14669110Y-15612674D01*
X14669110Y-15612674D02*
X14688158Y-15603150D01*
X14688158Y-15603150D02*
X14716729Y-15603150D01*
X14716729Y-15603150D02*
X14735777Y-15612674D01*
X14735777Y-15612674D02*
X14745301Y-15631722D01*
X14745301Y-15631722D02*
X14745301Y-15736484D01*
X14745301Y-15631722D02*
X14754824Y-15612674D01*
X14754824Y-15612674D02*
X14773872Y-15603150D01*
X14773872Y-15603150D02*
X14802443Y-15603150D01*
X14802443Y-15603150D02*
X14821491Y-15612674D01*
X14821491Y-15612674D02*
X14831015Y-15631722D01*
X14831015Y-15631722D02*
X14831015Y-15736484D01*
X15221491Y-15526960D02*
X15050063Y-15784103D01*
X15478634Y-15536484D02*
X15497682Y-15536484D01*
X15497682Y-15536484D02*
X15516729Y-15546008D01*
X15516729Y-15546008D02*
X15526253Y-15555531D01*
X15526253Y-15555531D02*
X15535777Y-15574579D01*
X15535777Y-15574579D02*
X15545301Y-15612674D01*
X15545301Y-15612674D02*
X15545301Y-15660293D01*
X15545301Y-15660293D02*
X15535777Y-15698388D01*
X15535777Y-15698388D02*
X15526253Y-15717436D01*
X15526253Y-15717436D02*
X15516729Y-15726960D01*
X15516729Y-15726960D02*
X15497682Y-15736484D01*
X15497682Y-15736484D02*
X15478634Y-15736484D01*
X15478634Y-15736484D02*
X15459586Y-15726960D01*
X15459586Y-15726960D02*
X15450063Y-15717436D01*
X15450063Y-15717436D02*
X15440539Y-15698388D01*
X15440539Y-15698388D02*
X15431015Y-15660293D01*
X15431015Y-15660293D02*
X15431015Y-15612674D01*
X15431015Y-15612674D02*
X15440539Y-15574579D01*
X15440539Y-15574579D02*
X15450063Y-15555531D01*
X15450063Y-15555531D02*
X15459586Y-15546008D01*
X15459586Y-15546008D02*
X15478634Y-15536484D01*
X15631015Y-15717436D02*
X15640539Y-15726960D01*
X15640539Y-15726960D02*
X15631015Y-15736484D01*
X15631015Y-15736484D02*
X15621491Y-15726960D01*
X15621491Y-15726960D02*
X15631015Y-15717436D01*
X15631015Y-15717436D02*
X15631015Y-15736484D01*
X15764348Y-15536484D02*
X15783396Y-15536484D01*
X15783396Y-15536484D02*
X15802444Y-15546008D01*
X15802444Y-15546008D02*
X15811967Y-15555531D01*
X15811967Y-15555531D02*
X15821491Y-15574579D01*
X15821491Y-15574579D02*
X15831015Y-15612674D01*
X15831015Y-15612674D02*
X15831015Y-15660293D01*
X15831015Y-15660293D02*
X15821491Y-15698388D01*
X15821491Y-15698388D02*
X15811967Y-15717436D01*
X15811967Y-15717436D02*
X15802444Y-15726960D01*
X15802444Y-15726960D02*
X15783396Y-15736484D01*
X15783396Y-15736484D02*
X15764348Y-15736484D01*
X15764348Y-15736484D02*
X15745301Y-15726960D01*
X15745301Y-15726960D02*
X15735777Y-15717436D01*
X15735777Y-15717436D02*
X15726253Y-15698388D01*
X15726253Y-15698388D02*
X15716729Y-15660293D01*
X15716729Y-15660293D02*
X15716729Y-15612674D01*
X15716729Y-15612674D02*
X15726253Y-15574579D01*
X15726253Y-15574579D02*
X15735777Y-15555531D01*
X15735777Y-15555531D02*
X15745301Y-15546008D01*
X15745301Y-15546008D02*
X15764348Y-15536484D01*
X16021491Y-15736484D02*
X15907206Y-15736484D01*
X15964348Y-15736484D02*
X15964348Y-15536484D01*
X15964348Y-15536484D02*
X15945301Y-15565055D01*
X15945301Y-15565055D02*
X15926253Y-15584103D01*
X15926253Y-15584103D02*
X15907206Y-15593627D01*
X16202444Y-15536484D02*
X16107206Y-15536484D01*
X16107206Y-15536484D02*
X16097682Y-15631722D01*
X16097682Y-15631722D02*
X16107206Y-15622198D01*
X16107206Y-15622198D02*
X16126253Y-15612674D01*
X16126253Y-15612674D02*
X16173872Y-15612674D01*
X16173872Y-15612674D02*
X16192920Y-15622198D01*
X16192920Y-15622198D02*
X16202444Y-15631722D01*
X16202444Y-15631722D02*
X16211967Y-15650769D01*
X16211967Y-15650769D02*
X16211967Y-15698388D01*
X16211967Y-15698388D02*
X16202444Y-15717436D01*
X16202444Y-15717436D02*
X16192920Y-15726960D01*
X16192920Y-15726960D02*
X16173872Y-15736484D01*
X16173872Y-15736484D02*
X16126253Y-15736484D01*
X16126253Y-15736484D02*
X16107206Y-15726960D01*
X16107206Y-15726960D02*
X16097682Y-15717436D01*
X16278634Y-15536484D02*
X16411967Y-15536484D01*
X16411967Y-15536484D02*
X16326253Y-15736484D01*
X16478634Y-15536484D02*
X16478634Y-15574579D01*
X16554825Y-15536484D02*
X16554825Y-15574579D01*
X16850063Y-15812674D02*
X16840539Y-15803150D01*
X16840539Y-15803150D02*
X16821491Y-15774579D01*
X16821491Y-15774579D02*
X16811968Y-15755531D01*
X16811968Y-15755531D02*
X16802444Y-15726960D01*
X16802444Y-15726960D02*
X16792920Y-15679341D01*
X16792920Y-15679341D02*
X16792920Y-15641246D01*
X16792920Y-15641246D02*
X16802444Y-15593627D01*
X16802444Y-15593627D02*
X16811968Y-15565055D01*
X16811968Y-15565055D02*
X16821491Y-15546008D01*
X16821491Y-15546008D02*
X16840539Y-15517436D01*
X16840539Y-15517436D02*
X16850063Y-15507912D01*
X17031015Y-15736484D02*
X16916730Y-15736484D01*
X16973872Y-15736484D02*
X16973872Y-15536484D01*
X16973872Y-15536484D02*
X16954825Y-15565055D01*
X16954825Y-15565055D02*
X16935777Y-15584103D01*
X16935777Y-15584103D02*
X16916730Y-15593627D01*
X17154825Y-15536484D02*
X17173872Y-15536484D01*
X17173872Y-15536484D02*
X17192920Y-15546008D01*
X17192920Y-15546008D02*
X17202444Y-15555531D01*
X17202444Y-15555531D02*
X17211968Y-15574579D01*
X17211968Y-15574579D02*
X17221491Y-15612674D01*
X17221491Y-15612674D02*
X17221491Y-15660293D01*
X17221491Y-15660293D02*
X17211968Y-15698388D01*
X17211968Y-15698388D02*
X17202444Y-15717436D01*
X17202444Y-15717436D02*
X17192920Y-15726960D01*
X17192920Y-15726960D02*
X17173872Y-15736484D01*
X17173872Y-15736484D02*
X17154825Y-15736484D01*
X17154825Y-15736484D02*
X17135777Y-15726960D01*
X17135777Y-15726960D02*
X17126253Y-15717436D01*
X17126253Y-15717436D02*
X17116730Y-15698388D01*
X17116730Y-15698388D02*
X17107206Y-15660293D01*
X17107206Y-15660293D02*
X17107206Y-15612674D01*
X17107206Y-15612674D02*
X17116730Y-15574579D01*
X17116730Y-15574579D02*
X17126253Y-15555531D01*
X17126253Y-15555531D02*
X17135777Y-15546008D01*
X17135777Y-15546008D02*
X17154825Y-15536484D01*
X17459587Y-15736484D02*
X17459587Y-15536484D01*
X17545301Y-15736484D02*
X17545301Y-15631722D01*
X17545301Y-15631722D02*
X17535777Y-15612674D01*
X17535777Y-15612674D02*
X17516730Y-15603150D01*
X17516730Y-15603150D02*
X17488158Y-15603150D01*
X17488158Y-15603150D02*
X17469111Y-15612674D01*
X17469111Y-15612674D02*
X17459587Y-15622198D01*
X17669111Y-15736484D02*
X17650063Y-15726960D01*
X17650063Y-15726960D02*
X17640539Y-15717436D01*
X17640539Y-15717436D02*
X17631015Y-15698388D01*
X17631015Y-15698388D02*
X17631015Y-15641246D01*
X17631015Y-15641246D02*
X17640539Y-15622198D01*
X17640539Y-15622198D02*
X17650063Y-15612674D01*
X17650063Y-15612674D02*
X17669111Y-15603150D01*
X17669111Y-15603150D02*
X17697682Y-15603150D01*
X17697682Y-15603150D02*
X17716730Y-15612674D01*
X17716730Y-15612674D02*
X17726253Y-15622198D01*
X17726253Y-15622198D02*
X17735777Y-15641246D01*
X17735777Y-15641246D02*
X17735777Y-15698388D01*
X17735777Y-15698388D02*
X17726253Y-15717436D01*
X17726253Y-15717436D02*
X17716730Y-15726960D01*
X17716730Y-15726960D02*
X17697682Y-15736484D01*
X17697682Y-15736484D02*
X17669111Y-15736484D01*
X17850063Y-15736484D02*
X17831015Y-15726960D01*
X17831015Y-15726960D02*
X17821492Y-15707912D01*
X17821492Y-15707912D02*
X17821492Y-15536484D01*
X18002444Y-15726960D02*
X17983396Y-15736484D01*
X17983396Y-15736484D02*
X17945301Y-15736484D01*
X17945301Y-15736484D02*
X17926253Y-15726960D01*
X17926253Y-15726960D02*
X17916730Y-15707912D01*
X17916730Y-15707912D02*
X17916730Y-15631722D01*
X17916730Y-15631722D02*
X17926253Y-15612674D01*
X17926253Y-15612674D02*
X17945301Y-15603150D01*
X17945301Y-15603150D02*
X17983396Y-15603150D01*
X17983396Y-15603150D02*
X18002444Y-15612674D01*
X18002444Y-15612674D02*
X18011968Y-15631722D01*
X18011968Y-15631722D02*
X18011968Y-15650769D01*
X18011968Y-15650769D02*
X17916730Y-15669817D01*
X18088158Y-15726960D02*
X18107206Y-15736484D01*
X18107206Y-15736484D02*
X18145301Y-15736484D01*
X18145301Y-15736484D02*
X18164349Y-15726960D01*
X18164349Y-15726960D02*
X18173873Y-15707912D01*
X18173873Y-15707912D02*
X18173873Y-15698388D01*
X18173873Y-15698388D02*
X18164349Y-15679341D01*
X18164349Y-15679341D02*
X18145301Y-15669817D01*
X18145301Y-15669817D02*
X18116730Y-15669817D01*
X18116730Y-15669817D02*
X18097682Y-15660293D01*
X18097682Y-15660293D02*
X18088158Y-15641246D01*
X18088158Y-15641246D02*
X18088158Y-15631722D01*
X18088158Y-15631722D02*
X18097682Y-15612674D01*
X18097682Y-15612674D02*
X18116730Y-15603150D01*
X18116730Y-15603150D02*
X18145301Y-15603150D01*
X18145301Y-15603150D02*
X18164349Y-15612674D01*
X18240539Y-15812674D02*
X18250063Y-15803150D01*
X18250063Y-15803150D02*
X18269111Y-15774579D01*
X18269111Y-15774579D02*
X18278634Y-15755531D01*
X18278634Y-15755531D02*
X18288158Y-15726960D01*
X18288158Y-15726960D02*
X18297682Y-15679341D01*
X18297682Y-15679341D02*
X18297682Y-15641246D01*
X18297682Y-15641246D02*
X18288158Y-15593627D01*
X18288158Y-15593627D02*
X18278634Y-15565055D01*
X18278634Y-15565055D02*
X18269111Y-15546008D01*
X18269111Y-15546008D02*
X18250063Y-15517436D01*
X18250063Y-15517436D02*
X18240539Y-15507912D01*
D10*
X13275000Y-15909000D02*
G75*
G02*
X13225000Y-15909000I-25000J0D01*
G01*
X13225000Y-15909000D02*
G75*
G02*
X13275000Y-15909000I25000J0D01*
G01*
D11*
X13573872Y-15800484D02*
X13592920Y-15800484D01*
X13592920Y-15800484D02*
X13611967Y-15810008D01*
X13611967Y-15810008D02*
X13621491Y-15819531D01*
X13621491Y-15819531D02*
X13631015Y-15838579D01*
X13631015Y-15838579D02*
X13640539Y-15876674D01*
X13640539Y-15876674D02*
X13640539Y-15924293D01*
X13640539Y-15924293D02*
X13631015Y-15962388D01*
X13631015Y-15962388D02*
X13621491Y-15981436D01*
X13621491Y-15981436D02*
X13611967Y-15990960D01*
X13611967Y-15990960D02*
X13592920Y-16000484D01*
X13592920Y-16000484D02*
X13573872Y-16000484D01*
X13573872Y-16000484D02*
X13554824Y-15990960D01*
X13554824Y-15990960D02*
X13545301Y-15981436D01*
X13545301Y-15981436D02*
X13535777Y-15962388D01*
X13535777Y-15962388D02*
X13526253Y-15924293D01*
X13526253Y-15924293D02*
X13526253Y-15876674D01*
X13526253Y-15876674D02*
X13535777Y-15838579D01*
X13535777Y-15838579D02*
X13545301Y-15819531D01*
X13545301Y-15819531D02*
X13554824Y-15810008D01*
X13554824Y-15810008D02*
X13573872Y-15800484D01*
X13726253Y-15981436D02*
X13735777Y-15990960D01*
X13735777Y-15990960D02*
X13726253Y-16000484D01*
X13726253Y-16000484D02*
X13716729Y-15990960D01*
X13716729Y-15990960D02*
X13726253Y-15981436D01*
X13726253Y-15981436D02*
X13726253Y-16000484D01*
X13916729Y-15800484D02*
X13821491Y-15800484D01*
X13821491Y-15800484D02*
X13811967Y-15895722D01*
X13811967Y-15895722D02*
X13821491Y-15886198D01*
X13821491Y-15886198D02*
X13840539Y-15876674D01*
X13840539Y-15876674D02*
X13888158Y-15876674D01*
X13888158Y-15876674D02*
X13907205Y-15886198D01*
X13907205Y-15886198D02*
X13916729Y-15895722D01*
X13916729Y-15895722D02*
X13926253Y-15914769D01*
X13926253Y-15914769D02*
X13926253Y-15962388D01*
X13926253Y-15962388D02*
X13916729Y-15981436D01*
X13916729Y-15981436D02*
X13907205Y-15990960D01*
X13907205Y-15990960D02*
X13888158Y-16000484D01*
X13888158Y-16000484D02*
X13840539Y-16000484D01*
X13840539Y-16000484D02*
X13821491Y-15990960D01*
X13821491Y-15990960D02*
X13811967Y-15981436D01*
X14050062Y-15800484D02*
X14069110Y-15800484D01*
X14069110Y-15800484D02*
X14088158Y-15810008D01*
X14088158Y-15810008D02*
X14097682Y-15819531D01*
X14097682Y-15819531D02*
X14107205Y-15838579D01*
X14107205Y-15838579D02*
X14116729Y-15876674D01*
X14116729Y-15876674D02*
X14116729Y-15924293D01*
X14116729Y-15924293D02*
X14107205Y-15962388D01*
X14107205Y-15962388D02*
X14097682Y-15981436D01*
X14097682Y-15981436D02*
X14088158Y-15990960D01*
X14088158Y-15990960D02*
X14069110Y-16000484D01*
X14069110Y-16000484D02*
X14050062Y-16000484D01*
X14050062Y-16000484D02*
X14031015Y-15990960D01*
X14031015Y-15990960D02*
X14021491Y-15981436D01*
X14021491Y-15981436D02*
X14011967Y-15962388D01*
X14011967Y-15962388D02*
X14002443Y-15924293D01*
X14002443Y-15924293D02*
X14002443Y-15876674D01*
X14002443Y-15876674D02*
X14011967Y-15838579D01*
X14011967Y-15838579D02*
X14021491Y-15819531D01*
X14021491Y-15819531D02*
X14031015Y-15810008D01*
X14031015Y-15810008D02*
X14050062Y-15800484D01*
X14240539Y-15800484D02*
X14259586Y-15800484D01*
X14259586Y-15800484D02*
X14278634Y-15810008D01*
X14278634Y-15810008D02*
X14288158Y-15819531D01*
X14288158Y-15819531D02*
X14297682Y-15838579D01*
X14297682Y-15838579D02*
X14307205Y-15876674D01*
X14307205Y-15876674D02*
X14307205Y-15924293D01*
X14307205Y-15924293D02*
X14297682Y-15962388D01*
X14297682Y-15962388D02*
X14288158Y-15981436D01*
X14288158Y-15981436D02*
X14278634Y-15990960D01*
X14278634Y-15990960D02*
X14259586Y-16000484D01*
X14259586Y-16000484D02*
X14240539Y-16000484D01*
X14240539Y-16000484D02*
X14221491Y-15990960D01*
X14221491Y-15990960D02*
X14211967Y-15981436D01*
X14211967Y-15981436D02*
X14202443Y-15962388D01*
X14202443Y-15962388D02*
X14192920Y-15924293D01*
X14192920Y-15924293D02*
X14192920Y-15876674D01*
X14192920Y-15876674D02*
X14202443Y-15838579D01*
X14202443Y-15838579D02*
X14211967Y-15819531D01*
X14211967Y-15819531D02*
X14221491Y-15810008D01*
X14221491Y-15810008D02*
X14240539Y-15800484D01*
X14392920Y-16000484D02*
X14392920Y-15867150D01*
X14392920Y-15886198D02*
X14402443Y-15876674D01*
X14402443Y-15876674D02*
X14421491Y-15867150D01*
X14421491Y-15867150D02*
X14450063Y-15867150D01*
X14450063Y-15867150D02*
X14469110Y-15876674D01*
X14469110Y-15876674D02*
X14478634Y-15895722D01*
X14478634Y-15895722D02*
X14478634Y-16000484D01*
X14478634Y-15895722D02*
X14488158Y-15876674D01*
X14488158Y-15876674D02*
X14507205Y-15867150D01*
X14507205Y-15867150D02*
X14535777Y-15867150D01*
X14535777Y-15867150D02*
X14554824Y-15876674D01*
X14554824Y-15876674D02*
X14564348Y-15895722D01*
X14564348Y-15895722D02*
X14564348Y-16000484D01*
X14659586Y-16000484D02*
X14659586Y-15867150D01*
X14659586Y-15886198D02*
X14669110Y-15876674D01*
X14669110Y-15876674D02*
X14688158Y-15867150D01*
X14688158Y-15867150D02*
X14716729Y-15867150D01*
X14716729Y-15867150D02*
X14735777Y-15876674D01*
X14735777Y-15876674D02*
X14745301Y-15895722D01*
X14745301Y-15895722D02*
X14745301Y-16000484D01*
X14745301Y-15895722D02*
X14754824Y-15876674D01*
X14754824Y-15876674D02*
X14773872Y-15867150D01*
X14773872Y-15867150D02*
X14802443Y-15867150D01*
X14802443Y-15867150D02*
X14821491Y-15876674D01*
X14821491Y-15876674D02*
X14831015Y-15895722D01*
X14831015Y-15895722D02*
X14831015Y-16000484D01*
X15221491Y-15790960D02*
X15050063Y-16048103D01*
X15478634Y-15800484D02*
X15497682Y-15800484D01*
X15497682Y-15800484D02*
X15516729Y-15810008D01*
X15516729Y-15810008D02*
X15526253Y-15819531D01*
X15526253Y-15819531D02*
X15535777Y-15838579D01*
X15535777Y-15838579D02*
X15545301Y-15876674D01*
X15545301Y-15876674D02*
X15545301Y-15924293D01*
X15545301Y-15924293D02*
X15535777Y-15962388D01*
X15535777Y-15962388D02*
X15526253Y-15981436D01*
X15526253Y-15981436D02*
X15516729Y-15990960D01*
X15516729Y-15990960D02*
X15497682Y-16000484D01*
X15497682Y-16000484D02*
X15478634Y-16000484D01*
X15478634Y-16000484D02*
X15459586Y-15990960D01*
X15459586Y-15990960D02*
X15450063Y-15981436D01*
X15450063Y-15981436D02*
X15440539Y-15962388D01*
X15440539Y-15962388D02*
X15431015Y-15924293D01*
X15431015Y-15924293D02*
X15431015Y-15876674D01*
X15431015Y-15876674D02*
X15440539Y-15838579D01*
X15440539Y-15838579D02*
X15450063Y-15819531D01*
X15450063Y-15819531D02*
X15459586Y-15810008D01*
X15459586Y-15810008D02*
X15478634Y-15800484D01*
X15631015Y-15981436D02*
X15640539Y-15990960D01*
X15640539Y-15990960D02*
X15631015Y-16000484D01*
X15631015Y-16000484D02*
X15621491Y-15990960D01*
X15621491Y-15990960D02*
X15631015Y-15981436D01*
X15631015Y-15981436D02*
X15631015Y-16000484D01*
X15764348Y-15800484D02*
X15783396Y-15800484D01*
X15783396Y-15800484D02*
X15802444Y-15810008D01*
X15802444Y-15810008D02*
X15811967Y-15819531D01*
X15811967Y-15819531D02*
X15821491Y-15838579D01*
X15821491Y-15838579D02*
X15831015Y-15876674D01*
X15831015Y-15876674D02*
X15831015Y-15924293D01*
X15831015Y-15924293D02*
X15821491Y-15962388D01*
X15821491Y-15962388D02*
X15811967Y-15981436D01*
X15811967Y-15981436D02*
X15802444Y-15990960D01*
X15802444Y-15990960D02*
X15783396Y-16000484D01*
X15783396Y-16000484D02*
X15764348Y-16000484D01*
X15764348Y-16000484D02*
X15745301Y-15990960D01*
X15745301Y-15990960D02*
X15735777Y-15981436D01*
X15735777Y-15981436D02*
X15726253Y-15962388D01*
X15726253Y-15962388D02*
X15716729Y-15924293D01*
X15716729Y-15924293D02*
X15716729Y-15876674D01*
X15716729Y-15876674D02*
X15726253Y-15838579D01*
X15726253Y-15838579D02*
X15735777Y-15819531D01*
X15735777Y-15819531D02*
X15745301Y-15810008D01*
X15745301Y-15810008D02*
X15764348Y-15800484D01*
X16021491Y-16000484D02*
X15907206Y-16000484D01*
X15964348Y-16000484D02*
X15964348Y-15800484D01*
X15964348Y-15800484D02*
X15945301Y-15829055D01*
X15945301Y-15829055D02*
X15926253Y-15848103D01*
X15926253Y-15848103D02*
X15907206Y-15857627D01*
X16116729Y-16000484D02*
X16154825Y-16000484D01*
X16154825Y-16000484D02*
X16173872Y-15990960D01*
X16173872Y-15990960D02*
X16183396Y-15981436D01*
X16183396Y-15981436D02*
X16202444Y-15952865D01*
X16202444Y-15952865D02*
X16211967Y-15914769D01*
X16211967Y-15914769D02*
X16211967Y-15838579D01*
X16211967Y-15838579D02*
X16202444Y-15819531D01*
X16202444Y-15819531D02*
X16192920Y-15810008D01*
X16192920Y-15810008D02*
X16173872Y-15800484D01*
X16173872Y-15800484D02*
X16135777Y-15800484D01*
X16135777Y-15800484D02*
X16116729Y-15810008D01*
X16116729Y-15810008D02*
X16107206Y-15819531D01*
X16107206Y-15819531D02*
X16097682Y-15838579D01*
X16097682Y-15838579D02*
X16097682Y-15886198D01*
X16097682Y-15886198D02*
X16107206Y-15905246D01*
X16107206Y-15905246D02*
X16116729Y-15914769D01*
X16116729Y-15914769D02*
X16135777Y-15924293D01*
X16135777Y-15924293D02*
X16173872Y-15924293D01*
X16173872Y-15924293D02*
X16192920Y-15914769D01*
X16192920Y-15914769D02*
X16202444Y-15905246D01*
X16202444Y-15905246D02*
X16211967Y-15886198D01*
X16278634Y-15800484D02*
X16411967Y-15800484D01*
X16411967Y-15800484D02*
X16326253Y-16000484D01*
X16478634Y-15800484D02*
X16478634Y-15838579D01*
X16554825Y-15800484D02*
X16554825Y-15838579D01*
X16850063Y-16076674D02*
X16840539Y-16067150D01*
X16840539Y-16067150D02*
X16821491Y-16038579D01*
X16821491Y-16038579D02*
X16811968Y-16019531D01*
X16811968Y-16019531D02*
X16802444Y-15990960D01*
X16802444Y-15990960D02*
X16792920Y-15943341D01*
X16792920Y-15943341D02*
X16792920Y-15905246D01*
X16792920Y-15905246D02*
X16802444Y-15857627D01*
X16802444Y-15857627D02*
X16811968Y-15829055D01*
X16811968Y-15829055D02*
X16821491Y-15810008D01*
X16821491Y-15810008D02*
X16840539Y-15781436D01*
X16840539Y-15781436D02*
X16850063Y-15771912D01*
X17031015Y-16000484D02*
X16916730Y-16000484D01*
X16973872Y-16000484D02*
X16973872Y-15800484D01*
X16973872Y-15800484D02*
X16954825Y-15829055D01*
X16954825Y-15829055D02*
X16935777Y-15848103D01*
X16935777Y-15848103D02*
X16916730Y-15857627D01*
X17202444Y-15800484D02*
X17164349Y-15800484D01*
X17164349Y-15800484D02*
X17145301Y-15810008D01*
X17145301Y-15810008D02*
X17135777Y-15819531D01*
X17135777Y-15819531D02*
X17116730Y-15848103D01*
X17116730Y-15848103D02*
X17107206Y-15886198D01*
X17107206Y-15886198D02*
X17107206Y-15962388D01*
X17107206Y-15962388D02*
X17116730Y-15981436D01*
X17116730Y-15981436D02*
X17126253Y-15990960D01*
X17126253Y-15990960D02*
X17145301Y-16000484D01*
X17145301Y-16000484D02*
X17183396Y-16000484D01*
X17183396Y-16000484D02*
X17202444Y-15990960D01*
X17202444Y-15990960D02*
X17211968Y-15981436D01*
X17211968Y-15981436D02*
X17221491Y-15962388D01*
X17221491Y-15962388D02*
X17221491Y-15914769D01*
X17221491Y-15914769D02*
X17211968Y-15895722D01*
X17211968Y-15895722D02*
X17202444Y-15886198D01*
X17202444Y-15886198D02*
X17183396Y-15876674D01*
X17183396Y-15876674D02*
X17145301Y-15876674D01*
X17145301Y-15876674D02*
X17126253Y-15886198D01*
X17126253Y-15886198D02*
X17116730Y-15895722D01*
X17116730Y-15895722D02*
X17107206Y-15914769D01*
X17459587Y-16000484D02*
X17459587Y-15800484D01*
X17545301Y-16000484D02*
X17545301Y-15895722D01*
X17545301Y-15895722D02*
X17535777Y-15876674D01*
X17535777Y-15876674D02*
X17516730Y-15867150D01*
X17516730Y-15867150D02*
X17488158Y-15867150D01*
X17488158Y-15867150D02*
X17469111Y-15876674D01*
X17469111Y-15876674D02*
X17459587Y-15886198D01*
X17669111Y-16000484D02*
X17650063Y-15990960D01*
X17650063Y-15990960D02*
X17640539Y-15981436D01*
X17640539Y-15981436D02*
X17631015Y-15962388D01*
X17631015Y-15962388D02*
X17631015Y-15905246D01*
X17631015Y-15905246D02*
X17640539Y-15886198D01*
X17640539Y-15886198D02*
X17650063Y-15876674D01*
X17650063Y-15876674D02*
X17669111Y-15867150D01*
X17669111Y-15867150D02*
X17697682Y-15867150D01*
X17697682Y-15867150D02*
X17716730Y-15876674D01*
X17716730Y-15876674D02*
X17726253Y-15886198D01*
X17726253Y-15886198D02*
X17735777Y-15905246D01*
X17735777Y-15905246D02*
X17735777Y-15962388D01*
X17735777Y-15962388D02*
X17726253Y-15981436D01*
X17726253Y-15981436D02*
X17716730Y-15990960D01*
X17716730Y-15990960D02*
X17697682Y-16000484D01*
X17697682Y-16000484D02*
X17669111Y-16000484D01*
X17850063Y-16000484D02*
X17831015Y-15990960D01*
X17831015Y-15990960D02*
X17821492Y-15971912D01*
X17821492Y-15971912D02*
X17821492Y-15800484D01*
X18002444Y-15990960D02*
X17983396Y-16000484D01*
X17983396Y-16000484D02*
X17945301Y-16000484D01*
X17945301Y-16000484D02*
X17926253Y-15990960D01*
X17926253Y-15990960D02*
X17916730Y-15971912D01*
X17916730Y-15971912D02*
X17916730Y-15895722D01*
X17916730Y-15895722D02*
X17926253Y-15876674D01*
X17926253Y-15876674D02*
X17945301Y-15867150D01*
X17945301Y-15867150D02*
X17983396Y-15867150D01*
X17983396Y-15867150D02*
X18002444Y-15876674D01*
X18002444Y-15876674D02*
X18011968Y-15895722D01*
X18011968Y-15895722D02*
X18011968Y-15914769D01*
X18011968Y-15914769D02*
X17916730Y-15933817D01*
X18088158Y-15990960D02*
X18107206Y-16000484D01*
X18107206Y-16000484D02*
X18145301Y-16000484D01*
X18145301Y-16000484D02*
X18164349Y-15990960D01*
X18164349Y-15990960D02*
X18173873Y-15971912D01*
X18173873Y-15971912D02*
X18173873Y-15962388D01*
X18173873Y-15962388D02*
X18164349Y-15943341D01*
X18164349Y-15943341D02*
X18145301Y-15933817D01*
X18145301Y-15933817D02*
X18116730Y-15933817D01*
X18116730Y-15933817D02*
X18097682Y-15924293D01*
X18097682Y-15924293D02*
X18088158Y-15905246D01*
X18088158Y-15905246D02*
X18088158Y-15895722D01*
X18088158Y-15895722D02*
X18097682Y-15876674D01*
X18097682Y-15876674D02*
X18116730Y-15867150D01*
X18116730Y-15867150D02*
X18145301Y-15867150D01*
X18145301Y-15867150D02*
X18164349Y-15876674D01*
X18240539Y-16076674D02*
X18250063Y-16067150D01*
X18250063Y-16067150D02*
X18269111Y-16038579D01*
X18269111Y-16038579D02*
X18278634Y-16019531D01*
X18278634Y-16019531D02*
X18288158Y-15990960D01*
X18288158Y-15990960D02*
X18297682Y-15943341D01*
X18297682Y-15943341D02*
X18297682Y-15905246D01*
X18297682Y-15905246D02*
X18288158Y-15857627D01*
X18288158Y-15857627D02*
X18278634Y-15829055D01*
X18278634Y-15829055D02*
X18269111Y-15810008D01*
X18269111Y-15810008D02*
X18250063Y-15781436D01*
X18250063Y-15781436D02*
X18240539Y-15771912D01*
D10*
X13235000Y-16133000D02*
X13235000Y-16213000D01*
X13195000Y-16173000D02*
X13275000Y-16173000D01*
D11*
X13573872Y-16064484D02*
X13592920Y-16064484D01*
X13592920Y-16064484D02*
X13611967Y-16074008D01*
X13611967Y-16074008D02*
X13621491Y-16083531D01*
X13621491Y-16083531D02*
X13631015Y-16102579D01*
X13631015Y-16102579D02*
X13640539Y-16140674D01*
X13640539Y-16140674D02*
X13640539Y-16188293D01*
X13640539Y-16188293D02*
X13631015Y-16226388D01*
X13631015Y-16226388D02*
X13621491Y-16245436D01*
X13621491Y-16245436D02*
X13611967Y-16254960D01*
X13611967Y-16254960D02*
X13592920Y-16264484D01*
X13592920Y-16264484D02*
X13573872Y-16264484D01*
X13573872Y-16264484D02*
X13554824Y-16254960D01*
X13554824Y-16254960D02*
X13545301Y-16245436D01*
X13545301Y-16245436D02*
X13535777Y-16226388D01*
X13535777Y-16226388D02*
X13526253Y-16188293D01*
X13526253Y-16188293D02*
X13526253Y-16140674D01*
X13526253Y-16140674D02*
X13535777Y-16102579D01*
X13535777Y-16102579D02*
X13545301Y-16083531D01*
X13545301Y-16083531D02*
X13554824Y-16074008D01*
X13554824Y-16074008D02*
X13573872Y-16064484D01*
X13726253Y-16245436D02*
X13735777Y-16254960D01*
X13735777Y-16254960D02*
X13726253Y-16264484D01*
X13726253Y-16264484D02*
X13716729Y-16254960D01*
X13716729Y-16254960D02*
X13726253Y-16245436D01*
X13726253Y-16245436D02*
X13726253Y-16264484D01*
X13850062Y-16150198D02*
X13831015Y-16140674D01*
X13831015Y-16140674D02*
X13821491Y-16131150D01*
X13821491Y-16131150D02*
X13811967Y-16112103D01*
X13811967Y-16112103D02*
X13811967Y-16102579D01*
X13811967Y-16102579D02*
X13821491Y-16083531D01*
X13821491Y-16083531D02*
X13831015Y-16074008D01*
X13831015Y-16074008D02*
X13850062Y-16064484D01*
X13850062Y-16064484D02*
X13888158Y-16064484D01*
X13888158Y-16064484D02*
X13907205Y-16074008D01*
X13907205Y-16074008D02*
X13916729Y-16083531D01*
X13916729Y-16083531D02*
X13926253Y-16102579D01*
X13926253Y-16102579D02*
X13926253Y-16112103D01*
X13926253Y-16112103D02*
X13916729Y-16131150D01*
X13916729Y-16131150D02*
X13907205Y-16140674D01*
X13907205Y-16140674D02*
X13888158Y-16150198D01*
X13888158Y-16150198D02*
X13850062Y-16150198D01*
X13850062Y-16150198D02*
X13831015Y-16159722D01*
X13831015Y-16159722D02*
X13821491Y-16169246D01*
X13821491Y-16169246D02*
X13811967Y-16188293D01*
X13811967Y-16188293D02*
X13811967Y-16226388D01*
X13811967Y-16226388D02*
X13821491Y-16245436D01*
X13821491Y-16245436D02*
X13831015Y-16254960D01*
X13831015Y-16254960D02*
X13850062Y-16264484D01*
X13850062Y-16264484D02*
X13888158Y-16264484D01*
X13888158Y-16264484D02*
X13907205Y-16254960D01*
X13907205Y-16254960D02*
X13916729Y-16245436D01*
X13916729Y-16245436D02*
X13926253Y-16226388D01*
X13926253Y-16226388D02*
X13926253Y-16188293D01*
X13926253Y-16188293D02*
X13916729Y-16169246D01*
X13916729Y-16169246D02*
X13907205Y-16159722D01*
X13907205Y-16159722D02*
X13888158Y-16150198D01*
X14050062Y-16064484D02*
X14069110Y-16064484D01*
X14069110Y-16064484D02*
X14088158Y-16074008D01*
X14088158Y-16074008D02*
X14097682Y-16083531D01*
X14097682Y-16083531D02*
X14107205Y-16102579D01*
X14107205Y-16102579D02*
X14116729Y-16140674D01*
X14116729Y-16140674D02*
X14116729Y-16188293D01*
X14116729Y-16188293D02*
X14107205Y-16226388D01*
X14107205Y-16226388D02*
X14097682Y-16245436D01*
X14097682Y-16245436D02*
X14088158Y-16254960D01*
X14088158Y-16254960D02*
X14069110Y-16264484D01*
X14069110Y-16264484D02*
X14050062Y-16264484D01*
X14050062Y-16264484D02*
X14031015Y-16254960D01*
X14031015Y-16254960D02*
X14021491Y-16245436D01*
X14021491Y-16245436D02*
X14011967Y-16226388D01*
X14011967Y-16226388D02*
X14002443Y-16188293D01*
X14002443Y-16188293D02*
X14002443Y-16140674D01*
X14002443Y-16140674D02*
X14011967Y-16102579D01*
X14011967Y-16102579D02*
X14021491Y-16083531D01*
X14021491Y-16083531D02*
X14031015Y-16074008D01*
X14031015Y-16074008D02*
X14050062Y-16064484D01*
X14240539Y-16064484D02*
X14259586Y-16064484D01*
X14259586Y-16064484D02*
X14278634Y-16074008D01*
X14278634Y-16074008D02*
X14288158Y-16083531D01*
X14288158Y-16083531D02*
X14297682Y-16102579D01*
X14297682Y-16102579D02*
X14307205Y-16140674D01*
X14307205Y-16140674D02*
X14307205Y-16188293D01*
X14307205Y-16188293D02*
X14297682Y-16226388D01*
X14297682Y-16226388D02*
X14288158Y-16245436D01*
X14288158Y-16245436D02*
X14278634Y-16254960D01*
X14278634Y-16254960D02*
X14259586Y-16264484D01*
X14259586Y-16264484D02*
X14240539Y-16264484D01*
X14240539Y-16264484D02*
X14221491Y-16254960D01*
X14221491Y-16254960D02*
X14211967Y-16245436D01*
X14211967Y-16245436D02*
X14202443Y-16226388D01*
X14202443Y-16226388D02*
X14192920Y-16188293D01*
X14192920Y-16188293D02*
X14192920Y-16140674D01*
X14192920Y-16140674D02*
X14202443Y-16102579D01*
X14202443Y-16102579D02*
X14211967Y-16083531D01*
X14211967Y-16083531D02*
X14221491Y-16074008D01*
X14221491Y-16074008D02*
X14240539Y-16064484D01*
X14392920Y-16264484D02*
X14392920Y-16131150D01*
X14392920Y-16150198D02*
X14402443Y-16140674D01*
X14402443Y-16140674D02*
X14421491Y-16131150D01*
X14421491Y-16131150D02*
X14450063Y-16131150D01*
X14450063Y-16131150D02*
X14469110Y-16140674D01*
X14469110Y-16140674D02*
X14478634Y-16159722D01*
X14478634Y-16159722D02*
X14478634Y-16264484D01*
X14478634Y-16159722D02*
X14488158Y-16140674D01*
X14488158Y-16140674D02*
X14507205Y-16131150D01*
X14507205Y-16131150D02*
X14535777Y-16131150D01*
X14535777Y-16131150D02*
X14554824Y-16140674D01*
X14554824Y-16140674D02*
X14564348Y-16159722D01*
X14564348Y-16159722D02*
X14564348Y-16264484D01*
X14659586Y-16264484D02*
X14659586Y-16131150D01*
X14659586Y-16150198D02*
X14669110Y-16140674D01*
X14669110Y-16140674D02*
X14688158Y-16131150D01*
X14688158Y-16131150D02*
X14716729Y-16131150D01*
X14716729Y-16131150D02*
X14735777Y-16140674D01*
X14735777Y-16140674D02*
X14745301Y-16159722D01*
X14745301Y-16159722D02*
X14745301Y-16264484D01*
X14745301Y-16159722D02*
X14754824Y-16140674D01*
X14754824Y-16140674D02*
X14773872Y-16131150D01*
X14773872Y-16131150D02*
X14802443Y-16131150D01*
X14802443Y-16131150D02*
X14821491Y-16140674D01*
X14821491Y-16140674D02*
X14831015Y-16159722D01*
X14831015Y-16159722D02*
X14831015Y-16264484D01*
X15221491Y-16054960D02*
X15050063Y-16312103D01*
X15478634Y-16064484D02*
X15497682Y-16064484D01*
X15497682Y-16064484D02*
X15516729Y-16074008D01*
X15516729Y-16074008D02*
X15526253Y-16083531D01*
X15526253Y-16083531D02*
X15535777Y-16102579D01*
X15535777Y-16102579D02*
X15545301Y-16140674D01*
X15545301Y-16140674D02*
X15545301Y-16188293D01*
X15545301Y-16188293D02*
X15535777Y-16226388D01*
X15535777Y-16226388D02*
X15526253Y-16245436D01*
X15526253Y-16245436D02*
X15516729Y-16254960D01*
X15516729Y-16254960D02*
X15497682Y-16264484D01*
X15497682Y-16264484D02*
X15478634Y-16264484D01*
X15478634Y-16264484D02*
X15459586Y-16254960D01*
X15459586Y-16254960D02*
X15450063Y-16245436D01*
X15450063Y-16245436D02*
X15440539Y-16226388D01*
X15440539Y-16226388D02*
X15431015Y-16188293D01*
X15431015Y-16188293D02*
X15431015Y-16140674D01*
X15431015Y-16140674D02*
X15440539Y-16102579D01*
X15440539Y-16102579D02*
X15450063Y-16083531D01*
X15450063Y-16083531D02*
X15459586Y-16074008D01*
X15459586Y-16074008D02*
X15478634Y-16064484D01*
X15631015Y-16245436D02*
X15640539Y-16254960D01*
X15640539Y-16254960D02*
X15631015Y-16264484D01*
X15631015Y-16264484D02*
X15621491Y-16254960D01*
X15621491Y-16254960D02*
X15631015Y-16245436D01*
X15631015Y-16245436D02*
X15631015Y-16264484D01*
X15764348Y-16064484D02*
X15783396Y-16064484D01*
X15783396Y-16064484D02*
X15802444Y-16074008D01*
X15802444Y-16074008D02*
X15811967Y-16083531D01*
X15811967Y-16083531D02*
X15821491Y-16102579D01*
X15821491Y-16102579D02*
X15831015Y-16140674D01*
X15831015Y-16140674D02*
X15831015Y-16188293D01*
X15831015Y-16188293D02*
X15821491Y-16226388D01*
X15821491Y-16226388D02*
X15811967Y-16245436D01*
X15811967Y-16245436D02*
X15802444Y-16254960D01*
X15802444Y-16254960D02*
X15783396Y-16264484D01*
X15783396Y-16264484D02*
X15764348Y-16264484D01*
X15764348Y-16264484D02*
X15745301Y-16254960D01*
X15745301Y-16254960D02*
X15735777Y-16245436D01*
X15735777Y-16245436D02*
X15726253Y-16226388D01*
X15726253Y-16226388D02*
X15716729Y-16188293D01*
X15716729Y-16188293D02*
X15716729Y-16140674D01*
X15716729Y-16140674D02*
X15726253Y-16102579D01*
X15726253Y-16102579D02*
X15735777Y-16083531D01*
X15735777Y-16083531D02*
X15745301Y-16074008D01*
X15745301Y-16074008D02*
X15764348Y-16064484D01*
X15897682Y-16064484D02*
X16021491Y-16064484D01*
X16021491Y-16064484D02*
X15954825Y-16140674D01*
X15954825Y-16140674D02*
X15983396Y-16140674D01*
X15983396Y-16140674D02*
X16002444Y-16150198D01*
X16002444Y-16150198D02*
X16011967Y-16159722D01*
X16011967Y-16159722D02*
X16021491Y-16178769D01*
X16021491Y-16178769D02*
X16021491Y-16226388D01*
X16021491Y-16226388D02*
X16011967Y-16245436D01*
X16011967Y-16245436D02*
X16002444Y-16254960D01*
X16002444Y-16254960D02*
X15983396Y-16264484D01*
X15983396Y-16264484D02*
X15926253Y-16264484D01*
X15926253Y-16264484D02*
X15907206Y-16254960D01*
X15907206Y-16254960D02*
X15897682Y-16245436D01*
X16211967Y-16264484D02*
X16097682Y-16264484D01*
X16154825Y-16264484D02*
X16154825Y-16064484D01*
X16154825Y-16064484D02*
X16135777Y-16093055D01*
X16135777Y-16093055D02*
X16116729Y-16112103D01*
X16116729Y-16112103D02*
X16097682Y-16121627D01*
X16392920Y-16064484D02*
X16297682Y-16064484D01*
X16297682Y-16064484D02*
X16288158Y-16159722D01*
X16288158Y-16159722D02*
X16297682Y-16150198D01*
X16297682Y-16150198D02*
X16316729Y-16140674D01*
X16316729Y-16140674D02*
X16364348Y-16140674D01*
X16364348Y-16140674D02*
X16383396Y-16150198D01*
X16383396Y-16150198D02*
X16392920Y-16159722D01*
X16392920Y-16159722D02*
X16402444Y-16178769D01*
X16402444Y-16178769D02*
X16402444Y-16226388D01*
X16402444Y-16226388D02*
X16392920Y-16245436D01*
X16392920Y-16245436D02*
X16383396Y-16254960D01*
X16383396Y-16254960D02*
X16364348Y-16264484D01*
X16364348Y-16264484D02*
X16316729Y-16264484D01*
X16316729Y-16264484D02*
X16297682Y-16254960D01*
X16297682Y-16254960D02*
X16288158Y-16245436D01*
X16478634Y-16064484D02*
X16478634Y-16102579D01*
X16554825Y-16064484D02*
X16554825Y-16102579D01*
X16850063Y-16340674D02*
X16840539Y-16331150D01*
X16840539Y-16331150D02*
X16821491Y-16302579D01*
X16821491Y-16302579D02*
X16811968Y-16283531D01*
X16811968Y-16283531D02*
X16802444Y-16254960D01*
X16802444Y-16254960D02*
X16792920Y-16207341D01*
X16792920Y-16207341D02*
X16792920Y-16169246D01*
X16792920Y-16169246D02*
X16802444Y-16121627D01*
X16802444Y-16121627D02*
X16811968Y-16093055D01*
X16811968Y-16093055D02*
X16821491Y-16074008D01*
X16821491Y-16074008D02*
X16840539Y-16045436D01*
X16840539Y-16045436D02*
X16850063Y-16035912D01*
X16916730Y-16083531D02*
X16926253Y-16074008D01*
X16926253Y-16074008D02*
X16945301Y-16064484D01*
X16945301Y-16064484D02*
X16992920Y-16064484D01*
X16992920Y-16064484D02*
X17011968Y-16074008D01*
X17011968Y-16074008D02*
X17021491Y-16083531D01*
X17021491Y-16083531D02*
X17031015Y-16102579D01*
X17031015Y-16102579D02*
X17031015Y-16121627D01*
X17031015Y-16121627D02*
X17021491Y-16150198D01*
X17021491Y-16150198D02*
X16907206Y-16264484D01*
X16907206Y-16264484D02*
X17031015Y-16264484D01*
X17269111Y-16264484D02*
X17269111Y-16064484D01*
X17354825Y-16264484D02*
X17354825Y-16159722D01*
X17354825Y-16159722D02*
X17345301Y-16140674D01*
X17345301Y-16140674D02*
X17326253Y-16131150D01*
X17326253Y-16131150D02*
X17297682Y-16131150D01*
X17297682Y-16131150D02*
X17278634Y-16140674D01*
X17278634Y-16140674D02*
X17269111Y-16150198D01*
X17478634Y-16264484D02*
X17459587Y-16254960D01*
X17459587Y-16254960D02*
X17450063Y-16245436D01*
X17450063Y-16245436D02*
X17440539Y-16226388D01*
X17440539Y-16226388D02*
X17440539Y-16169246D01*
X17440539Y-16169246D02*
X17450063Y-16150198D01*
X17450063Y-16150198D02*
X17459587Y-16140674D01*
X17459587Y-16140674D02*
X17478634Y-16131150D01*
X17478634Y-16131150D02*
X17507206Y-16131150D01*
X17507206Y-16131150D02*
X17526253Y-16140674D01*
X17526253Y-16140674D02*
X17535777Y-16150198D01*
X17535777Y-16150198D02*
X17545301Y-16169246D01*
X17545301Y-16169246D02*
X17545301Y-16226388D01*
X17545301Y-16226388D02*
X17535777Y-16245436D01*
X17535777Y-16245436D02*
X17526253Y-16254960D01*
X17526253Y-16254960D02*
X17507206Y-16264484D01*
X17507206Y-16264484D02*
X17478634Y-16264484D01*
X17659587Y-16264484D02*
X17640539Y-16254960D01*
X17640539Y-16254960D02*
X17631015Y-16235912D01*
X17631015Y-16235912D02*
X17631015Y-16064484D01*
X17811968Y-16254960D02*
X17792920Y-16264484D01*
X17792920Y-16264484D02*
X17754825Y-16264484D01*
X17754825Y-16264484D02*
X17735777Y-16254960D01*
X17735777Y-16254960D02*
X17726253Y-16235912D01*
X17726253Y-16235912D02*
X17726253Y-16159722D01*
X17726253Y-16159722D02*
X17735777Y-16140674D01*
X17735777Y-16140674D02*
X17754825Y-16131150D01*
X17754825Y-16131150D02*
X17792920Y-16131150D01*
X17792920Y-16131150D02*
X17811968Y-16140674D01*
X17811968Y-16140674D02*
X17821492Y-16159722D01*
X17821492Y-16159722D02*
X17821492Y-16178769D01*
X17821492Y-16178769D02*
X17726253Y-16197817D01*
X17897682Y-16254960D02*
X17916730Y-16264484D01*
X17916730Y-16264484D02*
X17954825Y-16264484D01*
X17954825Y-16264484D02*
X17973873Y-16254960D01*
X17973873Y-16254960D02*
X17983396Y-16235912D01*
X17983396Y-16235912D02*
X17983396Y-16226388D01*
X17983396Y-16226388D02*
X17973873Y-16207341D01*
X17973873Y-16207341D02*
X17954825Y-16197817D01*
X17954825Y-16197817D02*
X17926253Y-16197817D01*
X17926253Y-16197817D02*
X17907206Y-16188293D01*
X17907206Y-16188293D02*
X17897682Y-16169246D01*
X17897682Y-16169246D02*
X17897682Y-16159722D01*
X17897682Y-16159722D02*
X17907206Y-16140674D01*
X17907206Y-16140674D02*
X17926253Y-16131150D01*
X17926253Y-16131150D02*
X17954825Y-16131150D01*
X17954825Y-16131150D02*
X17973873Y-16140674D01*
X18050063Y-16340674D02*
X18059587Y-16331150D01*
X18059587Y-16331150D02*
X18078634Y-16302579D01*
X18078634Y-16302579D02*
X18088158Y-16283531D01*
X18088158Y-16283531D02*
X18097682Y-16254960D01*
X18097682Y-16254960D02*
X18107206Y-16207341D01*
X18107206Y-16207341D02*
X18107206Y-16169246D01*
X18107206Y-16169246D02*
X18097682Y-16121627D01*
X18097682Y-16121627D02*
X18088158Y-16093055D01*
X18088158Y-16093055D02*
X18078634Y-16074008D01*
X18078634Y-16074008D02*
X18059587Y-16045436D01*
X18059587Y-16045436D02*
X18050063Y-16035912D01*
D10*
X13260356Y-16472356D02*
X13260356Y-16401644D01*
X13189644Y-16401644D01*
X13189644Y-16472356D01*
X13260356Y-16472356D01*
D11*
X13640539Y-16528484D02*
X13526253Y-16528484D01*
X13583396Y-16528484D02*
X13583396Y-16328484D01*
X13583396Y-16328484D02*
X13564348Y-16357055D01*
X13564348Y-16357055D02*
X13545301Y-16376103D01*
X13545301Y-16376103D02*
X13526253Y-16385627D01*
X13726253Y-16509436D02*
X13735777Y-16518960D01*
X13735777Y-16518960D02*
X13726253Y-16528484D01*
X13726253Y-16528484D02*
X13716729Y-16518960D01*
X13716729Y-16518960D02*
X13726253Y-16509436D01*
X13726253Y-16509436D02*
X13726253Y-16528484D01*
X13859586Y-16328484D02*
X13878634Y-16328484D01*
X13878634Y-16328484D02*
X13897682Y-16338008D01*
X13897682Y-16338008D02*
X13907205Y-16347531D01*
X13907205Y-16347531D02*
X13916729Y-16366579D01*
X13916729Y-16366579D02*
X13926253Y-16404674D01*
X13926253Y-16404674D02*
X13926253Y-16452293D01*
X13926253Y-16452293D02*
X13916729Y-16490388D01*
X13916729Y-16490388D02*
X13907205Y-16509436D01*
X13907205Y-16509436D02*
X13897682Y-16518960D01*
X13897682Y-16518960D02*
X13878634Y-16528484D01*
X13878634Y-16528484D02*
X13859586Y-16528484D01*
X13859586Y-16528484D02*
X13840539Y-16518960D01*
X13840539Y-16518960D02*
X13831015Y-16509436D01*
X13831015Y-16509436D02*
X13821491Y-16490388D01*
X13821491Y-16490388D02*
X13811967Y-16452293D01*
X13811967Y-16452293D02*
X13811967Y-16404674D01*
X13811967Y-16404674D02*
X13821491Y-16366579D01*
X13821491Y-16366579D02*
X13831015Y-16347531D01*
X13831015Y-16347531D02*
X13840539Y-16338008D01*
X13840539Y-16338008D02*
X13859586Y-16328484D01*
X14050062Y-16328484D02*
X14069110Y-16328484D01*
X14069110Y-16328484D02*
X14088158Y-16338008D01*
X14088158Y-16338008D02*
X14097682Y-16347531D01*
X14097682Y-16347531D02*
X14107205Y-16366579D01*
X14107205Y-16366579D02*
X14116729Y-16404674D01*
X14116729Y-16404674D02*
X14116729Y-16452293D01*
X14116729Y-16452293D02*
X14107205Y-16490388D01*
X14107205Y-16490388D02*
X14097682Y-16509436D01*
X14097682Y-16509436D02*
X14088158Y-16518960D01*
X14088158Y-16518960D02*
X14069110Y-16528484D01*
X14069110Y-16528484D02*
X14050062Y-16528484D01*
X14050062Y-16528484D02*
X14031015Y-16518960D01*
X14031015Y-16518960D02*
X14021491Y-16509436D01*
X14021491Y-16509436D02*
X14011967Y-16490388D01*
X14011967Y-16490388D02*
X14002443Y-16452293D01*
X14002443Y-16452293D02*
X14002443Y-16404674D01*
X14002443Y-16404674D02*
X14011967Y-16366579D01*
X14011967Y-16366579D02*
X14021491Y-16347531D01*
X14021491Y-16347531D02*
X14031015Y-16338008D01*
X14031015Y-16338008D02*
X14050062Y-16328484D01*
X14240539Y-16328484D02*
X14259586Y-16328484D01*
X14259586Y-16328484D02*
X14278634Y-16338008D01*
X14278634Y-16338008D02*
X14288158Y-16347531D01*
X14288158Y-16347531D02*
X14297682Y-16366579D01*
X14297682Y-16366579D02*
X14307205Y-16404674D01*
X14307205Y-16404674D02*
X14307205Y-16452293D01*
X14307205Y-16452293D02*
X14297682Y-16490388D01*
X14297682Y-16490388D02*
X14288158Y-16509436D01*
X14288158Y-16509436D02*
X14278634Y-16518960D01*
X14278634Y-16518960D02*
X14259586Y-16528484D01*
X14259586Y-16528484D02*
X14240539Y-16528484D01*
X14240539Y-16528484D02*
X14221491Y-16518960D01*
X14221491Y-16518960D02*
X14211967Y-16509436D01*
X14211967Y-16509436D02*
X14202443Y-16490388D01*
X14202443Y-16490388D02*
X14192920Y-16452293D01*
X14192920Y-16452293D02*
X14192920Y-16404674D01*
X14192920Y-16404674D02*
X14202443Y-16366579D01*
X14202443Y-16366579D02*
X14211967Y-16347531D01*
X14211967Y-16347531D02*
X14221491Y-16338008D01*
X14221491Y-16338008D02*
X14240539Y-16328484D01*
X14392920Y-16528484D02*
X14392920Y-16395150D01*
X14392920Y-16414198D02*
X14402443Y-16404674D01*
X14402443Y-16404674D02*
X14421491Y-16395150D01*
X14421491Y-16395150D02*
X14450063Y-16395150D01*
X14450063Y-16395150D02*
X14469110Y-16404674D01*
X14469110Y-16404674D02*
X14478634Y-16423722D01*
X14478634Y-16423722D02*
X14478634Y-16528484D01*
X14478634Y-16423722D02*
X14488158Y-16404674D01*
X14488158Y-16404674D02*
X14507205Y-16395150D01*
X14507205Y-16395150D02*
X14535777Y-16395150D01*
X14535777Y-16395150D02*
X14554824Y-16404674D01*
X14554824Y-16404674D02*
X14564348Y-16423722D01*
X14564348Y-16423722D02*
X14564348Y-16528484D01*
X14659586Y-16528484D02*
X14659586Y-16395150D01*
X14659586Y-16414198D02*
X14669110Y-16404674D01*
X14669110Y-16404674D02*
X14688158Y-16395150D01*
X14688158Y-16395150D02*
X14716729Y-16395150D01*
X14716729Y-16395150D02*
X14735777Y-16404674D01*
X14735777Y-16404674D02*
X14745301Y-16423722D01*
X14745301Y-16423722D02*
X14745301Y-16528484D01*
X14745301Y-16423722D02*
X14754824Y-16404674D01*
X14754824Y-16404674D02*
X14773872Y-16395150D01*
X14773872Y-16395150D02*
X14802443Y-16395150D01*
X14802443Y-16395150D02*
X14821491Y-16404674D01*
X14821491Y-16404674D02*
X14831015Y-16423722D01*
X14831015Y-16423722D02*
X14831015Y-16528484D01*
X15221491Y-16318960D02*
X15050063Y-16576103D01*
X15478634Y-16328484D02*
X15497682Y-16328484D01*
X15497682Y-16328484D02*
X15516729Y-16338008D01*
X15516729Y-16338008D02*
X15526253Y-16347531D01*
X15526253Y-16347531D02*
X15535777Y-16366579D01*
X15535777Y-16366579D02*
X15545301Y-16404674D01*
X15545301Y-16404674D02*
X15545301Y-16452293D01*
X15545301Y-16452293D02*
X15535777Y-16490388D01*
X15535777Y-16490388D02*
X15526253Y-16509436D01*
X15526253Y-16509436D02*
X15516729Y-16518960D01*
X15516729Y-16518960D02*
X15497682Y-16528484D01*
X15497682Y-16528484D02*
X15478634Y-16528484D01*
X15478634Y-16528484D02*
X15459586Y-16518960D01*
X15459586Y-16518960D02*
X15450063Y-16509436D01*
X15450063Y-16509436D02*
X15440539Y-16490388D01*
X15440539Y-16490388D02*
X15431015Y-16452293D01*
X15431015Y-16452293D02*
X15431015Y-16404674D01*
X15431015Y-16404674D02*
X15440539Y-16366579D01*
X15440539Y-16366579D02*
X15450063Y-16347531D01*
X15450063Y-16347531D02*
X15459586Y-16338008D01*
X15459586Y-16338008D02*
X15478634Y-16328484D01*
X15631015Y-16509436D02*
X15640539Y-16518960D01*
X15640539Y-16518960D02*
X15631015Y-16528484D01*
X15631015Y-16528484D02*
X15621491Y-16518960D01*
X15621491Y-16518960D02*
X15631015Y-16509436D01*
X15631015Y-16509436D02*
X15631015Y-16528484D01*
X15764348Y-16328484D02*
X15783396Y-16328484D01*
X15783396Y-16328484D02*
X15802444Y-16338008D01*
X15802444Y-16338008D02*
X15811967Y-16347531D01*
X15811967Y-16347531D02*
X15821491Y-16366579D01*
X15821491Y-16366579D02*
X15831015Y-16404674D01*
X15831015Y-16404674D02*
X15831015Y-16452293D01*
X15831015Y-16452293D02*
X15821491Y-16490388D01*
X15821491Y-16490388D02*
X15811967Y-16509436D01*
X15811967Y-16509436D02*
X15802444Y-16518960D01*
X15802444Y-16518960D02*
X15783396Y-16528484D01*
X15783396Y-16528484D02*
X15764348Y-16528484D01*
X15764348Y-16528484D02*
X15745301Y-16518960D01*
X15745301Y-16518960D02*
X15735777Y-16509436D01*
X15735777Y-16509436D02*
X15726253Y-16490388D01*
X15726253Y-16490388D02*
X15716729Y-16452293D01*
X15716729Y-16452293D02*
X15716729Y-16404674D01*
X15716729Y-16404674D02*
X15726253Y-16366579D01*
X15726253Y-16366579D02*
X15735777Y-16347531D01*
X15735777Y-16347531D02*
X15745301Y-16338008D01*
X15745301Y-16338008D02*
X15764348Y-16328484D01*
X15897682Y-16328484D02*
X16021491Y-16328484D01*
X16021491Y-16328484D02*
X15954825Y-16404674D01*
X15954825Y-16404674D02*
X15983396Y-16404674D01*
X15983396Y-16404674D02*
X16002444Y-16414198D01*
X16002444Y-16414198D02*
X16011967Y-16423722D01*
X16011967Y-16423722D02*
X16021491Y-16442769D01*
X16021491Y-16442769D02*
X16021491Y-16490388D01*
X16021491Y-16490388D02*
X16011967Y-16509436D01*
X16011967Y-16509436D02*
X16002444Y-16518960D01*
X16002444Y-16518960D02*
X15983396Y-16528484D01*
X15983396Y-16528484D02*
X15926253Y-16528484D01*
X15926253Y-16528484D02*
X15907206Y-16518960D01*
X15907206Y-16518960D02*
X15897682Y-16509436D01*
X16116729Y-16528484D02*
X16154825Y-16528484D01*
X16154825Y-16528484D02*
X16173872Y-16518960D01*
X16173872Y-16518960D02*
X16183396Y-16509436D01*
X16183396Y-16509436D02*
X16202444Y-16480865D01*
X16202444Y-16480865D02*
X16211967Y-16442769D01*
X16211967Y-16442769D02*
X16211967Y-16366579D01*
X16211967Y-16366579D02*
X16202444Y-16347531D01*
X16202444Y-16347531D02*
X16192920Y-16338008D01*
X16192920Y-16338008D02*
X16173872Y-16328484D01*
X16173872Y-16328484D02*
X16135777Y-16328484D01*
X16135777Y-16328484D02*
X16116729Y-16338008D01*
X16116729Y-16338008D02*
X16107206Y-16347531D01*
X16107206Y-16347531D02*
X16097682Y-16366579D01*
X16097682Y-16366579D02*
X16097682Y-16414198D01*
X16097682Y-16414198D02*
X16107206Y-16433246D01*
X16107206Y-16433246D02*
X16116729Y-16442769D01*
X16116729Y-16442769D02*
X16135777Y-16452293D01*
X16135777Y-16452293D02*
X16173872Y-16452293D01*
X16173872Y-16452293D02*
X16192920Y-16442769D01*
X16192920Y-16442769D02*
X16202444Y-16433246D01*
X16202444Y-16433246D02*
X16211967Y-16414198D01*
X16383396Y-16395150D02*
X16383396Y-16528484D01*
X16335777Y-16318960D02*
X16288158Y-16461817D01*
X16288158Y-16461817D02*
X16411967Y-16461817D01*
X16478634Y-16328484D02*
X16478634Y-16366579D01*
X16554825Y-16328484D02*
X16554825Y-16366579D01*
X16850063Y-16604674D02*
X16840539Y-16595150D01*
X16840539Y-16595150D02*
X16821491Y-16566579D01*
X16821491Y-16566579D02*
X16811968Y-16547531D01*
X16811968Y-16547531D02*
X16802444Y-16518960D01*
X16802444Y-16518960D02*
X16792920Y-16471341D01*
X16792920Y-16471341D02*
X16792920Y-16433246D01*
X16792920Y-16433246D02*
X16802444Y-16385627D01*
X16802444Y-16385627D02*
X16811968Y-16357055D01*
X16811968Y-16357055D02*
X16821491Y-16338008D01*
X16821491Y-16338008D02*
X16840539Y-16309436D01*
X16840539Y-16309436D02*
X16850063Y-16299912D01*
X17031015Y-16528484D02*
X16916730Y-16528484D01*
X16973872Y-16528484D02*
X16973872Y-16328484D01*
X16973872Y-16328484D02*
X16954825Y-16357055D01*
X16954825Y-16357055D02*
X16935777Y-16376103D01*
X16935777Y-16376103D02*
X16916730Y-16385627D01*
X17154825Y-16328484D02*
X17173872Y-16328484D01*
X17173872Y-16328484D02*
X17192920Y-16338008D01*
X17192920Y-16338008D02*
X17202444Y-16347531D01*
X17202444Y-16347531D02*
X17211968Y-16366579D01*
X17211968Y-16366579D02*
X17221491Y-16404674D01*
X17221491Y-16404674D02*
X17221491Y-16452293D01*
X17221491Y-16452293D02*
X17211968Y-16490388D01*
X17211968Y-16490388D02*
X17202444Y-16509436D01*
X17202444Y-16509436D02*
X17192920Y-16518960D01*
X17192920Y-16518960D02*
X17173872Y-16528484D01*
X17173872Y-16528484D02*
X17154825Y-16528484D01*
X17154825Y-16528484D02*
X17135777Y-16518960D01*
X17135777Y-16518960D02*
X17126253Y-16509436D01*
X17126253Y-16509436D02*
X17116730Y-16490388D01*
X17116730Y-16490388D02*
X17107206Y-16452293D01*
X17107206Y-16452293D02*
X17107206Y-16404674D01*
X17107206Y-16404674D02*
X17116730Y-16366579D01*
X17116730Y-16366579D02*
X17126253Y-16347531D01*
X17126253Y-16347531D02*
X17135777Y-16338008D01*
X17135777Y-16338008D02*
X17154825Y-16328484D01*
X17459587Y-16528484D02*
X17459587Y-16328484D01*
X17545301Y-16528484D02*
X17545301Y-16423722D01*
X17545301Y-16423722D02*
X17535777Y-16404674D01*
X17535777Y-16404674D02*
X17516730Y-16395150D01*
X17516730Y-16395150D02*
X17488158Y-16395150D01*
X17488158Y-16395150D02*
X17469111Y-16404674D01*
X17469111Y-16404674D02*
X17459587Y-16414198D01*
X17669111Y-16528484D02*
X17650063Y-16518960D01*
X17650063Y-16518960D02*
X17640539Y-16509436D01*
X17640539Y-16509436D02*
X17631015Y-16490388D01*
X17631015Y-16490388D02*
X17631015Y-16433246D01*
X17631015Y-16433246D02*
X17640539Y-16414198D01*
X17640539Y-16414198D02*
X17650063Y-16404674D01*
X17650063Y-16404674D02*
X17669111Y-16395150D01*
X17669111Y-16395150D02*
X17697682Y-16395150D01*
X17697682Y-16395150D02*
X17716730Y-16404674D01*
X17716730Y-16404674D02*
X17726253Y-16414198D01*
X17726253Y-16414198D02*
X17735777Y-16433246D01*
X17735777Y-16433246D02*
X17735777Y-16490388D01*
X17735777Y-16490388D02*
X17726253Y-16509436D01*
X17726253Y-16509436D02*
X17716730Y-16518960D01*
X17716730Y-16518960D02*
X17697682Y-16528484D01*
X17697682Y-16528484D02*
X17669111Y-16528484D01*
X17850063Y-16528484D02*
X17831015Y-16518960D01*
X17831015Y-16518960D02*
X17821492Y-16499912D01*
X17821492Y-16499912D02*
X17821492Y-16328484D01*
X18002444Y-16518960D02*
X17983396Y-16528484D01*
X17983396Y-16528484D02*
X17945301Y-16528484D01*
X17945301Y-16528484D02*
X17926253Y-16518960D01*
X17926253Y-16518960D02*
X17916730Y-16499912D01*
X17916730Y-16499912D02*
X17916730Y-16423722D01*
X17916730Y-16423722D02*
X17926253Y-16404674D01*
X17926253Y-16404674D02*
X17945301Y-16395150D01*
X17945301Y-16395150D02*
X17983396Y-16395150D01*
X17983396Y-16395150D02*
X18002444Y-16404674D01*
X18002444Y-16404674D02*
X18011968Y-16423722D01*
X18011968Y-16423722D02*
X18011968Y-16442769D01*
X18011968Y-16442769D02*
X17916730Y-16461817D01*
X18088158Y-16518960D02*
X18107206Y-16528484D01*
X18107206Y-16528484D02*
X18145301Y-16528484D01*
X18145301Y-16528484D02*
X18164349Y-16518960D01*
X18164349Y-16518960D02*
X18173873Y-16499912D01*
X18173873Y-16499912D02*
X18173873Y-16490388D01*
X18173873Y-16490388D02*
X18164349Y-16471341D01*
X18164349Y-16471341D02*
X18145301Y-16461817D01*
X18145301Y-16461817D02*
X18116730Y-16461817D01*
X18116730Y-16461817D02*
X18097682Y-16452293D01*
X18097682Y-16452293D02*
X18088158Y-16433246D01*
X18088158Y-16433246D02*
X18088158Y-16423722D01*
X18088158Y-16423722D02*
X18097682Y-16404674D01*
X18097682Y-16404674D02*
X18116730Y-16395150D01*
X18116730Y-16395150D02*
X18145301Y-16395150D01*
X18145301Y-16395150D02*
X18164349Y-16404674D01*
X18240539Y-16604674D02*
X18250063Y-16595150D01*
X18250063Y-16595150D02*
X18269111Y-16566579D01*
X18269111Y-16566579D02*
X18278634Y-16547531D01*
X18278634Y-16547531D02*
X18288158Y-16518960D01*
X18288158Y-16518960D02*
X18297682Y-16471341D01*
X18297682Y-16471341D02*
X18297682Y-16433246D01*
X18297682Y-16433246D02*
X18288158Y-16385627D01*
X18288158Y-16385627D02*
X18278634Y-16357055D01*
X18278634Y-16357055D02*
X18269111Y-16338008D01*
X18269111Y-16338008D02*
X18250063Y-16309436D01*
X18250063Y-16309436D02*
X18240539Y-16299912D01*
D12*
X13220000Y-16756000D02*
X13275000Y-16701000D01*
X13220000Y-16646000D01*
X13165000Y-16701000D01*
X13220000Y-16756000D01*
D11*
X13640539Y-16792484D02*
X13526253Y-16792484D01*
X13583396Y-16792484D02*
X13583396Y-16592484D01*
X13583396Y-16592484D02*
X13564348Y-16621055D01*
X13564348Y-16621055D02*
X13545301Y-16640103D01*
X13545301Y-16640103D02*
X13526253Y-16649627D01*
X13726253Y-16773436D02*
X13735777Y-16782960D01*
X13735777Y-16782960D02*
X13726253Y-16792484D01*
X13726253Y-16792484D02*
X13716729Y-16782960D01*
X13716729Y-16782960D02*
X13726253Y-16773436D01*
X13726253Y-16773436D02*
X13726253Y-16792484D01*
X13926253Y-16792484D02*
X13811967Y-16792484D01*
X13869110Y-16792484D02*
X13869110Y-16592484D01*
X13869110Y-16592484D02*
X13850062Y-16621055D01*
X13850062Y-16621055D02*
X13831015Y-16640103D01*
X13831015Y-16640103D02*
X13811967Y-16649627D01*
X14050062Y-16592484D02*
X14069110Y-16592484D01*
X14069110Y-16592484D02*
X14088158Y-16602008D01*
X14088158Y-16602008D02*
X14097682Y-16611531D01*
X14097682Y-16611531D02*
X14107205Y-16630579D01*
X14107205Y-16630579D02*
X14116729Y-16668674D01*
X14116729Y-16668674D02*
X14116729Y-16716293D01*
X14116729Y-16716293D02*
X14107205Y-16754388D01*
X14107205Y-16754388D02*
X14097682Y-16773436D01*
X14097682Y-16773436D02*
X14088158Y-16782960D01*
X14088158Y-16782960D02*
X14069110Y-16792484D01*
X14069110Y-16792484D02*
X14050062Y-16792484D01*
X14050062Y-16792484D02*
X14031015Y-16782960D01*
X14031015Y-16782960D02*
X14021491Y-16773436D01*
X14021491Y-16773436D02*
X14011967Y-16754388D01*
X14011967Y-16754388D02*
X14002443Y-16716293D01*
X14002443Y-16716293D02*
X14002443Y-16668674D01*
X14002443Y-16668674D02*
X14011967Y-16630579D01*
X14011967Y-16630579D02*
X14021491Y-16611531D01*
X14021491Y-16611531D02*
X14031015Y-16602008D01*
X14031015Y-16602008D02*
X14050062Y-16592484D01*
X14240539Y-16592484D02*
X14259586Y-16592484D01*
X14259586Y-16592484D02*
X14278634Y-16602008D01*
X14278634Y-16602008D02*
X14288158Y-16611531D01*
X14288158Y-16611531D02*
X14297682Y-16630579D01*
X14297682Y-16630579D02*
X14307205Y-16668674D01*
X14307205Y-16668674D02*
X14307205Y-16716293D01*
X14307205Y-16716293D02*
X14297682Y-16754388D01*
X14297682Y-16754388D02*
X14288158Y-16773436D01*
X14288158Y-16773436D02*
X14278634Y-16782960D01*
X14278634Y-16782960D02*
X14259586Y-16792484D01*
X14259586Y-16792484D02*
X14240539Y-16792484D01*
X14240539Y-16792484D02*
X14221491Y-16782960D01*
X14221491Y-16782960D02*
X14211967Y-16773436D01*
X14211967Y-16773436D02*
X14202443Y-16754388D01*
X14202443Y-16754388D02*
X14192920Y-16716293D01*
X14192920Y-16716293D02*
X14192920Y-16668674D01*
X14192920Y-16668674D02*
X14202443Y-16630579D01*
X14202443Y-16630579D02*
X14211967Y-16611531D01*
X14211967Y-16611531D02*
X14221491Y-16602008D01*
X14221491Y-16602008D02*
X14240539Y-16592484D01*
X14392920Y-16792484D02*
X14392920Y-16659150D01*
X14392920Y-16678198D02*
X14402443Y-16668674D01*
X14402443Y-16668674D02*
X14421491Y-16659150D01*
X14421491Y-16659150D02*
X14450063Y-16659150D01*
X14450063Y-16659150D02*
X14469110Y-16668674D01*
X14469110Y-16668674D02*
X14478634Y-16687722D01*
X14478634Y-16687722D02*
X14478634Y-16792484D01*
X14478634Y-16687722D02*
X14488158Y-16668674D01*
X14488158Y-16668674D02*
X14507205Y-16659150D01*
X14507205Y-16659150D02*
X14535777Y-16659150D01*
X14535777Y-16659150D02*
X14554824Y-16668674D01*
X14554824Y-16668674D02*
X14564348Y-16687722D01*
X14564348Y-16687722D02*
X14564348Y-16792484D01*
X14659586Y-16792484D02*
X14659586Y-16659150D01*
X14659586Y-16678198D02*
X14669110Y-16668674D01*
X14669110Y-16668674D02*
X14688158Y-16659150D01*
X14688158Y-16659150D02*
X14716729Y-16659150D01*
X14716729Y-16659150D02*
X14735777Y-16668674D01*
X14735777Y-16668674D02*
X14745301Y-16687722D01*
X14745301Y-16687722D02*
X14745301Y-16792484D01*
X14745301Y-16687722D02*
X14754824Y-16668674D01*
X14754824Y-16668674D02*
X14773872Y-16659150D01*
X14773872Y-16659150D02*
X14802443Y-16659150D01*
X14802443Y-16659150D02*
X14821491Y-16668674D01*
X14821491Y-16668674D02*
X14831015Y-16687722D01*
X14831015Y-16687722D02*
X14831015Y-16792484D01*
X15221491Y-16582960D02*
X15050063Y-16840103D01*
X15478634Y-16592484D02*
X15497682Y-16592484D01*
X15497682Y-16592484D02*
X15516729Y-16602008D01*
X15516729Y-16602008D02*
X15526253Y-16611531D01*
X15526253Y-16611531D02*
X15535777Y-16630579D01*
X15535777Y-16630579D02*
X15545301Y-16668674D01*
X15545301Y-16668674D02*
X15545301Y-16716293D01*
X15545301Y-16716293D02*
X15535777Y-16754388D01*
X15535777Y-16754388D02*
X15526253Y-16773436D01*
X15526253Y-16773436D02*
X15516729Y-16782960D01*
X15516729Y-16782960D02*
X15497682Y-16792484D01*
X15497682Y-16792484D02*
X15478634Y-16792484D01*
X15478634Y-16792484D02*
X15459586Y-16782960D01*
X15459586Y-16782960D02*
X15450063Y-16773436D01*
X15450063Y-16773436D02*
X15440539Y-16754388D01*
X15440539Y-16754388D02*
X15431015Y-16716293D01*
X15431015Y-16716293D02*
X15431015Y-16668674D01*
X15431015Y-16668674D02*
X15440539Y-16630579D01*
X15440539Y-16630579D02*
X15450063Y-16611531D01*
X15450063Y-16611531D02*
X15459586Y-16602008D01*
X15459586Y-16602008D02*
X15478634Y-16592484D01*
X15631015Y-16773436D02*
X15640539Y-16782960D01*
X15640539Y-16782960D02*
X15631015Y-16792484D01*
X15631015Y-16792484D02*
X15621491Y-16782960D01*
X15621491Y-16782960D02*
X15631015Y-16773436D01*
X15631015Y-16773436D02*
X15631015Y-16792484D01*
X15764348Y-16592484D02*
X15783396Y-16592484D01*
X15783396Y-16592484D02*
X15802444Y-16602008D01*
X15802444Y-16602008D02*
X15811967Y-16611531D01*
X15811967Y-16611531D02*
X15821491Y-16630579D01*
X15821491Y-16630579D02*
X15831015Y-16668674D01*
X15831015Y-16668674D02*
X15831015Y-16716293D01*
X15831015Y-16716293D02*
X15821491Y-16754388D01*
X15821491Y-16754388D02*
X15811967Y-16773436D01*
X15811967Y-16773436D02*
X15802444Y-16782960D01*
X15802444Y-16782960D02*
X15783396Y-16792484D01*
X15783396Y-16792484D02*
X15764348Y-16792484D01*
X15764348Y-16792484D02*
X15745301Y-16782960D01*
X15745301Y-16782960D02*
X15735777Y-16773436D01*
X15735777Y-16773436D02*
X15726253Y-16754388D01*
X15726253Y-16754388D02*
X15716729Y-16716293D01*
X15716729Y-16716293D02*
X15716729Y-16668674D01*
X15716729Y-16668674D02*
X15726253Y-16630579D01*
X15726253Y-16630579D02*
X15735777Y-16611531D01*
X15735777Y-16611531D02*
X15745301Y-16602008D01*
X15745301Y-16602008D02*
X15764348Y-16592484D01*
X16002444Y-16659150D02*
X16002444Y-16792484D01*
X15954825Y-16582960D02*
X15907206Y-16725817D01*
X15907206Y-16725817D02*
X16031015Y-16725817D01*
X16088158Y-16592484D02*
X16211967Y-16592484D01*
X16211967Y-16592484D02*
X16145301Y-16668674D01*
X16145301Y-16668674D02*
X16173872Y-16668674D01*
X16173872Y-16668674D02*
X16192920Y-16678198D01*
X16192920Y-16678198D02*
X16202444Y-16687722D01*
X16202444Y-16687722D02*
X16211967Y-16706769D01*
X16211967Y-16706769D02*
X16211967Y-16754388D01*
X16211967Y-16754388D02*
X16202444Y-16773436D01*
X16202444Y-16773436D02*
X16192920Y-16782960D01*
X16192920Y-16782960D02*
X16173872Y-16792484D01*
X16173872Y-16792484D02*
X16116729Y-16792484D01*
X16116729Y-16792484D02*
X16097682Y-16782960D01*
X16097682Y-16782960D02*
X16088158Y-16773436D01*
X16278634Y-16592484D02*
X16402444Y-16592484D01*
X16402444Y-16592484D02*
X16335777Y-16668674D01*
X16335777Y-16668674D02*
X16364348Y-16668674D01*
X16364348Y-16668674D02*
X16383396Y-16678198D01*
X16383396Y-16678198D02*
X16392920Y-16687722D01*
X16392920Y-16687722D02*
X16402444Y-16706769D01*
X16402444Y-16706769D02*
X16402444Y-16754388D01*
X16402444Y-16754388D02*
X16392920Y-16773436D01*
X16392920Y-16773436D02*
X16383396Y-16782960D01*
X16383396Y-16782960D02*
X16364348Y-16792484D01*
X16364348Y-16792484D02*
X16307206Y-16792484D01*
X16307206Y-16792484D02*
X16288158Y-16782960D01*
X16288158Y-16782960D02*
X16278634Y-16773436D01*
X16478634Y-16592484D02*
X16478634Y-16630579D01*
X16554825Y-16592484D02*
X16554825Y-16630579D01*
X16850063Y-16868674D02*
X16840539Y-16859150D01*
X16840539Y-16859150D02*
X16821491Y-16830579D01*
X16821491Y-16830579D02*
X16811968Y-16811531D01*
X16811968Y-16811531D02*
X16802444Y-16782960D01*
X16802444Y-16782960D02*
X16792920Y-16735341D01*
X16792920Y-16735341D02*
X16792920Y-16697246D01*
X16792920Y-16697246D02*
X16802444Y-16649627D01*
X16802444Y-16649627D02*
X16811968Y-16621055D01*
X16811968Y-16621055D02*
X16821491Y-16602008D01*
X16821491Y-16602008D02*
X16840539Y-16573436D01*
X16840539Y-16573436D02*
X16850063Y-16563912D01*
X17031015Y-16792484D02*
X16916730Y-16792484D01*
X16973872Y-16792484D02*
X16973872Y-16592484D01*
X16973872Y-16592484D02*
X16954825Y-16621055D01*
X16954825Y-16621055D02*
X16935777Y-16640103D01*
X16935777Y-16640103D02*
X16916730Y-16649627D01*
X17097682Y-16592484D02*
X17221491Y-16592484D01*
X17221491Y-16592484D02*
X17154825Y-16668674D01*
X17154825Y-16668674D02*
X17183396Y-16668674D01*
X17183396Y-16668674D02*
X17202444Y-16678198D01*
X17202444Y-16678198D02*
X17211968Y-16687722D01*
X17211968Y-16687722D02*
X17221491Y-16706769D01*
X17221491Y-16706769D02*
X17221491Y-16754388D01*
X17221491Y-16754388D02*
X17211968Y-16773436D01*
X17211968Y-16773436D02*
X17202444Y-16782960D01*
X17202444Y-16782960D02*
X17183396Y-16792484D01*
X17183396Y-16792484D02*
X17126253Y-16792484D01*
X17126253Y-16792484D02*
X17107206Y-16782960D01*
X17107206Y-16782960D02*
X17097682Y-16773436D01*
X17459587Y-16792484D02*
X17459587Y-16592484D01*
X17545301Y-16792484D02*
X17545301Y-16687722D01*
X17545301Y-16687722D02*
X17535777Y-16668674D01*
X17535777Y-16668674D02*
X17516730Y-16659150D01*
X17516730Y-16659150D02*
X17488158Y-16659150D01*
X17488158Y-16659150D02*
X17469111Y-16668674D01*
X17469111Y-16668674D02*
X17459587Y-16678198D01*
X17669111Y-16792484D02*
X17650063Y-16782960D01*
X17650063Y-16782960D02*
X17640539Y-16773436D01*
X17640539Y-16773436D02*
X17631015Y-16754388D01*
X17631015Y-16754388D02*
X17631015Y-16697246D01*
X17631015Y-16697246D02*
X17640539Y-16678198D01*
X17640539Y-16678198D02*
X17650063Y-16668674D01*
X17650063Y-16668674D02*
X17669111Y-16659150D01*
X17669111Y-16659150D02*
X17697682Y-16659150D01*
X17697682Y-16659150D02*
X17716730Y-16668674D01*
X17716730Y-16668674D02*
X17726253Y-16678198D01*
X17726253Y-16678198D02*
X17735777Y-16697246D01*
X17735777Y-16697246D02*
X17735777Y-16754388D01*
X17735777Y-16754388D02*
X17726253Y-16773436D01*
X17726253Y-16773436D02*
X17716730Y-16782960D01*
X17716730Y-16782960D02*
X17697682Y-16792484D01*
X17697682Y-16792484D02*
X17669111Y-16792484D01*
X17850063Y-16792484D02*
X17831015Y-16782960D01*
X17831015Y-16782960D02*
X17821492Y-16763912D01*
X17821492Y-16763912D02*
X17821492Y-16592484D01*
X18002444Y-16782960D02*
X17983396Y-16792484D01*
X17983396Y-16792484D02*
X17945301Y-16792484D01*
X17945301Y-16792484D02*
X17926253Y-16782960D01*
X17926253Y-16782960D02*
X17916730Y-16763912D01*
X17916730Y-16763912D02*
X17916730Y-16687722D01*
X17916730Y-16687722D02*
X17926253Y-16668674D01*
X17926253Y-16668674D02*
X17945301Y-16659150D01*
X17945301Y-16659150D02*
X17983396Y-16659150D01*
X17983396Y-16659150D02*
X18002444Y-16668674D01*
X18002444Y-16668674D02*
X18011968Y-16687722D01*
X18011968Y-16687722D02*
X18011968Y-16706769D01*
X18011968Y-16706769D02*
X17916730Y-16725817D01*
X18088158Y-16782960D02*
X18107206Y-16792484D01*
X18107206Y-16792484D02*
X18145301Y-16792484D01*
X18145301Y-16792484D02*
X18164349Y-16782960D01*
X18164349Y-16782960D02*
X18173873Y-16763912D01*
X18173873Y-16763912D02*
X18173873Y-16754388D01*
X18173873Y-16754388D02*
X18164349Y-16735341D01*
X18164349Y-16735341D02*
X18145301Y-16725817D01*
X18145301Y-16725817D02*
X18116730Y-16725817D01*
X18116730Y-16725817D02*
X18097682Y-16716293D01*
X18097682Y-16716293D02*
X18088158Y-16697246D01*
X18088158Y-16697246D02*
X18088158Y-16687722D01*
X18088158Y-16687722D02*
X18097682Y-16668674D01*
X18097682Y-16668674D02*
X18116730Y-16659150D01*
X18116730Y-16659150D02*
X18145301Y-16659150D01*
X18145301Y-16659150D02*
X18164349Y-16668674D01*
X18240539Y-16868674D02*
X18250063Y-16859150D01*
X18250063Y-16859150D02*
X18269111Y-16830579D01*
X18269111Y-16830579D02*
X18278634Y-16811531D01*
X18278634Y-16811531D02*
X18288158Y-16782960D01*
X18288158Y-16782960D02*
X18297682Y-16735341D01*
X18297682Y-16735341D02*
X18297682Y-16697246D01*
X18297682Y-16697246D02*
X18288158Y-16649627D01*
X18288158Y-16649627D02*
X18278634Y-16621055D01*
X18278634Y-16621055D02*
X18269111Y-16602008D01*
X18269111Y-16602008D02*
X18250063Y-16573436D01*
X18250063Y-16573436D02*
X18240539Y-16563912D01*
D13*
X13125000Y-16890000D02*
X13275000Y-17040000D01*
X13275000Y-16890000D02*
X13125000Y-17040000D01*
X13275000Y-16965000D02*
G75*
G02*
X13125000Y-16965000I-75000J0D01*
G01*
X13125000Y-16965000D02*
G75*
G02*
X13275000Y-16965000I75000J0D01*
G01*
D11*
X13640539Y-17056484D02*
X13526253Y-17056484D01*
X13583396Y-17056484D02*
X13583396Y-16856484D01*
X13583396Y-16856484D02*
X13564348Y-16885055D01*
X13564348Y-16885055D02*
X13545301Y-16904103D01*
X13545301Y-16904103D02*
X13526253Y-16913627D01*
X13726253Y-17037436D02*
X13735777Y-17046960D01*
X13735777Y-17046960D02*
X13726253Y-17056484D01*
X13726253Y-17056484D02*
X13716729Y-17046960D01*
X13716729Y-17046960D02*
X13726253Y-17037436D01*
X13726253Y-17037436D02*
X13726253Y-17056484D01*
X13916729Y-16856484D02*
X13821491Y-16856484D01*
X13821491Y-16856484D02*
X13811967Y-16951722D01*
X13811967Y-16951722D02*
X13821491Y-16942198D01*
X13821491Y-16942198D02*
X13840539Y-16932674D01*
X13840539Y-16932674D02*
X13888158Y-16932674D01*
X13888158Y-16932674D02*
X13907205Y-16942198D01*
X13907205Y-16942198D02*
X13916729Y-16951722D01*
X13916729Y-16951722D02*
X13926253Y-16970770D01*
X13926253Y-16970770D02*
X13926253Y-17018389D01*
X13926253Y-17018389D02*
X13916729Y-17037436D01*
X13916729Y-17037436D02*
X13907205Y-17046960D01*
X13907205Y-17046960D02*
X13888158Y-17056484D01*
X13888158Y-17056484D02*
X13840539Y-17056484D01*
X13840539Y-17056484D02*
X13821491Y-17046960D01*
X13821491Y-17046960D02*
X13811967Y-17037436D01*
X14050062Y-16856484D02*
X14069110Y-16856484D01*
X14069110Y-16856484D02*
X14088158Y-16866008D01*
X14088158Y-16866008D02*
X14097682Y-16875531D01*
X14097682Y-16875531D02*
X14107205Y-16894579D01*
X14107205Y-16894579D02*
X14116729Y-16932674D01*
X14116729Y-16932674D02*
X14116729Y-16980293D01*
X14116729Y-16980293D02*
X14107205Y-17018389D01*
X14107205Y-17018389D02*
X14097682Y-17037436D01*
X14097682Y-17037436D02*
X14088158Y-17046960D01*
X14088158Y-17046960D02*
X14069110Y-17056484D01*
X14069110Y-17056484D02*
X14050062Y-17056484D01*
X14050062Y-17056484D02*
X14031015Y-17046960D01*
X14031015Y-17046960D02*
X14021491Y-17037436D01*
X14021491Y-17037436D02*
X14011967Y-17018389D01*
X14011967Y-17018389D02*
X14002443Y-16980293D01*
X14002443Y-16980293D02*
X14002443Y-16932674D01*
X14002443Y-16932674D02*
X14011967Y-16894579D01*
X14011967Y-16894579D02*
X14021491Y-16875531D01*
X14021491Y-16875531D02*
X14031015Y-16866008D01*
X14031015Y-16866008D02*
X14050062Y-16856484D01*
X14240539Y-16856484D02*
X14259586Y-16856484D01*
X14259586Y-16856484D02*
X14278634Y-16866008D01*
X14278634Y-16866008D02*
X14288158Y-16875531D01*
X14288158Y-16875531D02*
X14297682Y-16894579D01*
X14297682Y-16894579D02*
X14307205Y-16932674D01*
X14307205Y-16932674D02*
X14307205Y-16980293D01*
X14307205Y-16980293D02*
X14297682Y-17018389D01*
X14297682Y-17018389D02*
X14288158Y-17037436D01*
X14288158Y-17037436D02*
X14278634Y-17046960D01*
X14278634Y-17046960D02*
X14259586Y-17056484D01*
X14259586Y-17056484D02*
X14240539Y-17056484D01*
X14240539Y-17056484D02*
X14221491Y-17046960D01*
X14221491Y-17046960D02*
X14211967Y-17037436D01*
X14211967Y-17037436D02*
X14202443Y-17018389D01*
X14202443Y-17018389D02*
X14192920Y-16980293D01*
X14192920Y-16980293D02*
X14192920Y-16932674D01*
X14192920Y-16932674D02*
X14202443Y-16894579D01*
X14202443Y-16894579D02*
X14211967Y-16875531D01*
X14211967Y-16875531D02*
X14221491Y-16866008D01*
X14221491Y-16866008D02*
X14240539Y-16856484D01*
X14392920Y-17056484D02*
X14392920Y-16923150D01*
X14392920Y-16942198D02*
X14402443Y-16932674D01*
X14402443Y-16932674D02*
X14421491Y-16923150D01*
X14421491Y-16923150D02*
X14450063Y-16923150D01*
X14450063Y-16923150D02*
X14469110Y-16932674D01*
X14469110Y-16932674D02*
X14478634Y-16951722D01*
X14478634Y-16951722D02*
X14478634Y-17056484D01*
X14478634Y-16951722D02*
X14488158Y-16932674D01*
X14488158Y-16932674D02*
X14507205Y-16923150D01*
X14507205Y-16923150D02*
X14535777Y-16923150D01*
X14535777Y-16923150D02*
X14554824Y-16932674D01*
X14554824Y-16932674D02*
X14564348Y-16951722D01*
X14564348Y-16951722D02*
X14564348Y-17056484D01*
X14659586Y-17056484D02*
X14659586Y-16923150D01*
X14659586Y-16942198D02*
X14669110Y-16932674D01*
X14669110Y-16932674D02*
X14688158Y-16923150D01*
X14688158Y-16923150D02*
X14716729Y-16923150D01*
X14716729Y-16923150D02*
X14735777Y-16932674D01*
X14735777Y-16932674D02*
X14745301Y-16951722D01*
X14745301Y-16951722D02*
X14745301Y-17056484D01*
X14745301Y-16951722D02*
X14754824Y-16932674D01*
X14754824Y-16932674D02*
X14773872Y-16923150D01*
X14773872Y-16923150D02*
X14802443Y-16923150D01*
X14802443Y-16923150D02*
X14821491Y-16932674D01*
X14821491Y-16932674D02*
X14831015Y-16951722D01*
X14831015Y-16951722D02*
X14831015Y-17056484D01*
X15221491Y-16846960D02*
X15050063Y-17104103D01*
X15478634Y-16856484D02*
X15497682Y-16856484D01*
X15497682Y-16856484D02*
X15516729Y-16866008D01*
X15516729Y-16866008D02*
X15526253Y-16875531D01*
X15526253Y-16875531D02*
X15535777Y-16894579D01*
X15535777Y-16894579D02*
X15545301Y-16932674D01*
X15545301Y-16932674D02*
X15545301Y-16980293D01*
X15545301Y-16980293D02*
X15535777Y-17018389D01*
X15535777Y-17018389D02*
X15526253Y-17037436D01*
X15526253Y-17037436D02*
X15516729Y-17046960D01*
X15516729Y-17046960D02*
X15497682Y-17056484D01*
X15497682Y-17056484D02*
X15478634Y-17056484D01*
X15478634Y-17056484D02*
X15459586Y-17046960D01*
X15459586Y-17046960D02*
X15450063Y-17037436D01*
X15450063Y-17037436D02*
X15440539Y-17018389D01*
X15440539Y-17018389D02*
X15431015Y-16980293D01*
X15431015Y-16980293D02*
X15431015Y-16932674D01*
X15431015Y-16932674D02*
X15440539Y-16894579D01*
X15440539Y-16894579D02*
X15450063Y-16875531D01*
X15450063Y-16875531D02*
X15459586Y-16866008D01*
X15459586Y-16866008D02*
X15478634Y-16856484D01*
X15631015Y-17037436D02*
X15640539Y-17046960D01*
X15640539Y-17046960D02*
X15631015Y-17056484D01*
X15631015Y-17056484D02*
X15621491Y-17046960D01*
X15621491Y-17046960D02*
X15631015Y-17037436D01*
X15631015Y-17037436D02*
X15631015Y-17056484D01*
X15764348Y-16856484D02*
X15783396Y-16856484D01*
X15783396Y-16856484D02*
X15802444Y-16866008D01*
X15802444Y-16866008D02*
X15811967Y-16875531D01*
X15811967Y-16875531D02*
X15821491Y-16894579D01*
X15821491Y-16894579D02*
X15831015Y-16932674D01*
X15831015Y-16932674D02*
X15831015Y-16980293D01*
X15831015Y-16980293D02*
X15821491Y-17018389D01*
X15821491Y-17018389D02*
X15811967Y-17037436D01*
X15811967Y-17037436D02*
X15802444Y-17046960D01*
X15802444Y-17046960D02*
X15783396Y-17056484D01*
X15783396Y-17056484D02*
X15764348Y-17056484D01*
X15764348Y-17056484D02*
X15745301Y-17046960D01*
X15745301Y-17046960D02*
X15735777Y-17037436D01*
X15735777Y-17037436D02*
X15726253Y-17018389D01*
X15726253Y-17018389D02*
X15716729Y-16980293D01*
X15716729Y-16980293D02*
X15716729Y-16932674D01*
X15716729Y-16932674D02*
X15726253Y-16894579D01*
X15726253Y-16894579D02*
X15735777Y-16875531D01*
X15735777Y-16875531D02*
X15745301Y-16866008D01*
X15745301Y-16866008D02*
X15764348Y-16856484D01*
X16011967Y-16856484D02*
X15916729Y-16856484D01*
X15916729Y-16856484D02*
X15907206Y-16951722D01*
X15907206Y-16951722D02*
X15916729Y-16942198D01*
X15916729Y-16942198D02*
X15935777Y-16932674D01*
X15935777Y-16932674D02*
X15983396Y-16932674D01*
X15983396Y-16932674D02*
X16002444Y-16942198D01*
X16002444Y-16942198D02*
X16011967Y-16951722D01*
X16011967Y-16951722D02*
X16021491Y-16970770D01*
X16021491Y-16970770D02*
X16021491Y-17018389D01*
X16021491Y-17018389D02*
X16011967Y-17037436D01*
X16011967Y-17037436D02*
X16002444Y-17046960D01*
X16002444Y-17046960D02*
X15983396Y-17056484D01*
X15983396Y-17056484D02*
X15935777Y-17056484D01*
X15935777Y-17056484D02*
X15916729Y-17046960D01*
X15916729Y-17046960D02*
X15907206Y-17037436D01*
X16116729Y-17056484D02*
X16154825Y-17056484D01*
X16154825Y-17056484D02*
X16173872Y-17046960D01*
X16173872Y-17046960D02*
X16183396Y-17037436D01*
X16183396Y-17037436D02*
X16202444Y-17008865D01*
X16202444Y-17008865D02*
X16211967Y-16970770D01*
X16211967Y-16970770D02*
X16211967Y-16894579D01*
X16211967Y-16894579D02*
X16202444Y-16875531D01*
X16202444Y-16875531D02*
X16192920Y-16866008D01*
X16192920Y-16866008D02*
X16173872Y-16856484D01*
X16173872Y-16856484D02*
X16135777Y-16856484D01*
X16135777Y-16856484D02*
X16116729Y-16866008D01*
X16116729Y-16866008D02*
X16107206Y-16875531D01*
X16107206Y-16875531D02*
X16097682Y-16894579D01*
X16097682Y-16894579D02*
X16097682Y-16942198D01*
X16097682Y-16942198D02*
X16107206Y-16961246D01*
X16107206Y-16961246D02*
X16116729Y-16970770D01*
X16116729Y-16970770D02*
X16135777Y-16980293D01*
X16135777Y-16980293D02*
X16173872Y-16980293D01*
X16173872Y-16980293D02*
X16192920Y-16970770D01*
X16192920Y-16970770D02*
X16202444Y-16961246D01*
X16202444Y-16961246D02*
X16211967Y-16942198D01*
X16402444Y-17056484D02*
X16288158Y-17056484D01*
X16345301Y-17056484D02*
X16345301Y-16856484D01*
X16345301Y-16856484D02*
X16326253Y-16885055D01*
X16326253Y-16885055D02*
X16307206Y-16904103D01*
X16307206Y-16904103D02*
X16288158Y-16913627D01*
X16478634Y-16856484D02*
X16478634Y-16894579D01*
X16554825Y-16856484D02*
X16554825Y-16894579D01*
X16850063Y-17132674D02*
X16840539Y-17123150D01*
X16840539Y-17123150D02*
X16821491Y-17094579D01*
X16821491Y-17094579D02*
X16811968Y-17075531D01*
X16811968Y-17075531D02*
X16802444Y-17046960D01*
X16802444Y-17046960D02*
X16792920Y-16999341D01*
X16792920Y-16999341D02*
X16792920Y-16961246D01*
X16792920Y-16961246D02*
X16802444Y-16913627D01*
X16802444Y-16913627D02*
X16811968Y-16885055D01*
X16811968Y-16885055D02*
X16821491Y-16866008D01*
X16821491Y-16866008D02*
X16840539Y-16837436D01*
X16840539Y-16837436D02*
X16850063Y-16827912D01*
X17021491Y-16856484D02*
X16926253Y-16856484D01*
X16926253Y-16856484D02*
X16916730Y-16951722D01*
X16916730Y-16951722D02*
X16926253Y-16942198D01*
X16926253Y-16942198D02*
X16945301Y-16932674D01*
X16945301Y-16932674D02*
X16992920Y-16932674D01*
X16992920Y-16932674D02*
X17011968Y-16942198D01*
X17011968Y-16942198D02*
X17021491Y-16951722D01*
X17021491Y-16951722D02*
X17031015Y-16970770D01*
X17031015Y-16970770D02*
X17031015Y-17018389D01*
X17031015Y-17018389D02*
X17021491Y-17037436D01*
X17021491Y-17037436D02*
X17011968Y-17046960D01*
X17011968Y-17046960D02*
X16992920Y-17056484D01*
X16992920Y-17056484D02*
X16945301Y-17056484D01*
X16945301Y-17056484D02*
X16926253Y-17046960D01*
X16926253Y-17046960D02*
X16916730Y-17037436D01*
X17269111Y-17056484D02*
X17269111Y-16856484D01*
X17354825Y-17056484D02*
X17354825Y-16951722D01*
X17354825Y-16951722D02*
X17345301Y-16932674D01*
X17345301Y-16932674D02*
X17326253Y-16923150D01*
X17326253Y-16923150D02*
X17297682Y-16923150D01*
X17297682Y-16923150D02*
X17278634Y-16932674D01*
X17278634Y-16932674D02*
X17269111Y-16942198D01*
X17478634Y-17056484D02*
X17459587Y-17046960D01*
X17459587Y-17046960D02*
X17450063Y-17037436D01*
X17450063Y-17037436D02*
X17440539Y-17018389D01*
X17440539Y-17018389D02*
X17440539Y-16961246D01*
X17440539Y-16961246D02*
X17450063Y-16942198D01*
X17450063Y-16942198D02*
X17459587Y-16932674D01*
X17459587Y-16932674D02*
X17478634Y-16923150D01*
X17478634Y-16923150D02*
X17507206Y-16923150D01*
X17507206Y-16923150D02*
X17526253Y-16932674D01*
X17526253Y-16932674D02*
X17535777Y-16942198D01*
X17535777Y-16942198D02*
X17545301Y-16961246D01*
X17545301Y-16961246D02*
X17545301Y-17018389D01*
X17545301Y-17018389D02*
X17535777Y-17037436D01*
X17535777Y-17037436D02*
X17526253Y-17046960D01*
X17526253Y-17046960D02*
X17507206Y-17056484D01*
X17507206Y-17056484D02*
X17478634Y-17056484D01*
X17659587Y-17056484D02*
X17640539Y-17046960D01*
X17640539Y-17046960D02*
X17631015Y-17027912D01*
X17631015Y-17027912D02*
X17631015Y-16856484D01*
X17811968Y-17046960D02*
X17792920Y-17056484D01*
X17792920Y-17056484D02*
X17754825Y-17056484D01*
X17754825Y-17056484D02*
X17735777Y-17046960D01*
X17735777Y-17046960D02*
X17726253Y-17027912D01*
X17726253Y-17027912D02*
X17726253Y-16951722D01*
X17726253Y-16951722D02*
X17735777Y-16932674D01*
X17735777Y-16932674D02*
X17754825Y-16923150D01*
X17754825Y-16923150D02*
X17792920Y-16923150D01*
X17792920Y-16923150D02*
X17811968Y-16932674D01*
X17811968Y-16932674D02*
X17821492Y-16951722D01*
X17821492Y-16951722D02*
X17821492Y-16970770D01*
X17821492Y-16970770D02*
X17726253Y-16989817D01*
X17897682Y-17046960D02*
X17916730Y-17056484D01*
X17916730Y-17056484D02*
X17954825Y-17056484D01*
X17954825Y-17056484D02*
X17973873Y-17046960D01*
X17973873Y-17046960D02*
X17983396Y-17027912D01*
X17983396Y-17027912D02*
X17983396Y-17018389D01*
X17983396Y-17018389D02*
X17973873Y-16999341D01*
X17973873Y-16999341D02*
X17954825Y-16989817D01*
X17954825Y-16989817D02*
X17926253Y-16989817D01*
X17926253Y-16989817D02*
X17907206Y-16980293D01*
X17907206Y-16980293D02*
X17897682Y-16961246D01*
X17897682Y-16961246D02*
X17897682Y-16951722D01*
X17897682Y-16951722D02*
X17907206Y-16932674D01*
X17907206Y-16932674D02*
X17926253Y-16923150D01*
X17926253Y-16923150D02*
X17954825Y-16923150D01*
X17954825Y-16923150D02*
X17973873Y-16932674D01*
X18050063Y-17132674D02*
X18059587Y-17123150D01*
X18059587Y-17123150D02*
X18078634Y-17094579D01*
X18078634Y-17094579D02*
X18088158Y-17075531D01*
X18088158Y-17075531D02*
X18097682Y-17046960D01*
X18097682Y-17046960D02*
X18107206Y-16999341D01*
X18107206Y-16999341D02*
X18107206Y-16961246D01*
X18107206Y-16961246D02*
X18097682Y-16913627D01*
X18097682Y-16913627D02*
X18088158Y-16885055D01*
X18088158Y-16885055D02*
X18078634Y-16866008D01*
X18078634Y-16866008D02*
X18059587Y-16837436D01*
X18059587Y-16837436D02*
X18050063Y-16827912D01*
X13075000Y-17135000D02*
X13275000Y-17335000D01*
X13275000Y-17135000D02*
X13075000Y-17335000D01*
X13175000Y-17135000D02*
X13175000Y-17335000D01*
X13075000Y-17235000D02*
X13275000Y-17235000D01*
X13516729Y-17126484D02*
X13640539Y-17126484D01*
X13640539Y-17126484D02*
X13573872Y-17202674D01*
X13573872Y-17202674D02*
X13602443Y-17202674D01*
X13602443Y-17202674D02*
X13621491Y-17212198D01*
X13621491Y-17212198D02*
X13631015Y-17221722D01*
X13631015Y-17221722D02*
X13640539Y-17240770D01*
X13640539Y-17240770D02*
X13640539Y-17288389D01*
X13640539Y-17288389D02*
X13631015Y-17307436D01*
X13631015Y-17307436D02*
X13621491Y-17316960D01*
X13621491Y-17316960D02*
X13602443Y-17326484D01*
X13602443Y-17326484D02*
X13545301Y-17326484D01*
X13545301Y-17326484D02*
X13526253Y-17316960D01*
X13526253Y-17316960D02*
X13516729Y-17307436D01*
X13726253Y-17307436D02*
X13735777Y-17316960D01*
X13735777Y-17316960D02*
X13726253Y-17326484D01*
X13726253Y-17326484D02*
X13716729Y-17316960D01*
X13716729Y-17316960D02*
X13726253Y-17307436D01*
X13726253Y-17307436D02*
X13726253Y-17326484D01*
X13916729Y-17126484D02*
X13821491Y-17126484D01*
X13821491Y-17126484D02*
X13811967Y-17221722D01*
X13811967Y-17221722D02*
X13821491Y-17212198D01*
X13821491Y-17212198D02*
X13840539Y-17202674D01*
X13840539Y-17202674D02*
X13888158Y-17202674D01*
X13888158Y-17202674D02*
X13907205Y-17212198D01*
X13907205Y-17212198D02*
X13916729Y-17221722D01*
X13916729Y-17221722D02*
X13926253Y-17240770D01*
X13926253Y-17240770D02*
X13926253Y-17288389D01*
X13926253Y-17288389D02*
X13916729Y-17307436D01*
X13916729Y-17307436D02*
X13907205Y-17316960D01*
X13907205Y-17316960D02*
X13888158Y-17326484D01*
X13888158Y-17326484D02*
X13840539Y-17326484D01*
X13840539Y-17326484D02*
X13821491Y-17316960D01*
X13821491Y-17316960D02*
X13811967Y-17307436D01*
X14050062Y-17126484D02*
X14069110Y-17126484D01*
X14069110Y-17126484D02*
X14088158Y-17136008D01*
X14088158Y-17136008D02*
X14097682Y-17145531D01*
X14097682Y-17145531D02*
X14107205Y-17164579D01*
X14107205Y-17164579D02*
X14116729Y-17202674D01*
X14116729Y-17202674D02*
X14116729Y-17250293D01*
X14116729Y-17250293D02*
X14107205Y-17288389D01*
X14107205Y-17288389D02*
X14097682Y-17307436D01*
X14097682Y-17307436D02*
X14088158Y-17316960D01*
X14088158Y-17316960D02*
X14069110Y-17326484D01*
X14069110Y-17326484D02*
X14050062Y-17326484D01*
X14050062Y-17326484D02*
X14031015Y-17316960D01*
X14031015Y-17316960D02*
X14021491Y-17307436D01*
X14021491Y-17307436D02*
X14011967Y-17288389D01*
X14011967Y-17288389D02*
X14002443Y-17250293D01*
X14002443Y-17250293D02*
X14002443Y-17202674D01*
X14002443Y-17202674D02*
X14011967Y-17164579D01*
X14011967Y-17164579D02*
X14021491Y-17145531D01*
X14021491Y-17145531D02*
X14031015Y-17136008D01*
X14031015Y-17136008D02*
X14050062Y-17126484D01*
X14240539Y-17126484D02*
X14259586Y-17126484D01*
X14259586Y-17126484D02*
X14278634Y-17136008D01*
X14278634Y-17136008D02*
X14288158Y-17145531D01*
X14288158Y-17145531D02*
X14297682Y-17164579D01*
X14297682Y-17164579D02*
X14307205Y-17202674D01*
X14307205Y-17202674D02*
X14307205Y-17250293D01*
X14307205Y-17250293D02*
X14297682Y-17288389D01*
X14297682Y-17288389D02*
X14288158Y-17307436D01*
X14288158Y-17307436D02*
X14278634Y-17316960D01*
X14278634Y-17316960D02*
X14259586Y-17326484D01*
X14259586Y-17326484D02*
X14240539Y-17326484D01*
X14240539Y-17326484D02*
X14221491Y-17316960D01*
X14221491Y-17316960D02*
X14211967Y-17307436D01*
X14211967Y-17307436D02*
X14202443Y-17288389D01*
X14202443Y-17288389D02*
X14192920Y-17250293D01*
X14192920Y-17250293D02*
X14192920Y-17202674D01*
X14192920Y-17202674D02*
X14202443Y-17164579D01*
X14202443Y-17164579D02*
X14211967Y-17145531D01*
X14211967Y-17145531D02*
X14221491Y-17136008D01*
X14221491Y-17136008D02*
X14240539Y-17126484D01*
X14392920Y-17326484D02*
X14392920Y-17193150D01*
X14392920Y-17212198D02*
X14402443Y-17202674D01*
X14402443Y-17202674D02*
X14421491Y-17193150D01*
X14421491Y-17193150D02*
X14450063Y-17193150D01*
X14450063Y-17193150D02*
X14469110Y-17202674D01*
X14469110Y-17202674D02*
X14478634Y-17221722D01*
X14478634Y-17221722D02*
X14478634Y-17326484D01*
X14478634Y-17221722D02*
X14488158Y-17202674D01*
X14488158Y-17202674D02*
X14507205Y-17193150D01*
X14507205Y-17193150D02*
X14535777Y-17193150D01*
X14535777Y-17193150D02*
X14554824Y-17202674D01*
X14554824Y-17202674D02*
X14564348Y-17221722D01*
X14564348Y-17221722D02*
X14564348Y-17326484D01*
X14659586Y-17326484D02*
X14659586Y-17193150D01*
X14659586Y-17212198D02*
X14669110Y-17202674D01*
X14669110Y-17202674D02*
X14688158Y-17193150D01*
X14688158Y-17193150D02*
X14716729Y-17193150D01*
X14716729Y-17193150D02*
X14735777Y-17202674D01*
X14735777Y-17202674D02*
X14745301Y-17221722D01*
X14745301Y-17221722D02*
X14745301Y-17326484D01*
X14745301Y-17221722D02*
X14754824Y-17202674D01*
X14754824Y-17202674D02*
X14773872Y-17193150D01*
X14773872Y-17193150D02*
X14802443Y-17193150D01*
X14802443Y-17193150D02*
X14821491Y-17202674D01*
X14821491Y-17202674D02*
X14831015Y-17221722D01*
X14831015Y-17221722D02*
X14831015Y-17326484D01*
X15221491Y-17116960D02*
X15050063Y-17374103D01*
X15478634Y-17126484D02*
X15497682Y-17126484D01*
X15497682Y-17126484D02*
X15516729Y-17136008D01*
X15516729Y-17136008D02*
X15526253Y-17145531D01*
X15526253Y-17145531D02*
X15535777Y-17164579D01*
X15535777Y-17164579D02*
X15545301Y-17202674D01*
X15545301Y-17202674D02*
X15545301Y-17250293D01*
X15545301Y-17250293D02*
X15535777Y-17288389D01*
X15535777Y-17288389D02*
X15526253Y-17307436D01*
X15526253Y-17307436D02*
X15516729Y-17316960D01*
X15516729Y-17316960D02*
X15497682Y-17326484D01*
X15497682Y-17326484D02*
X15478634Y-17326484D01*
X15478634Y-17326484D02*
X15459586Y-17316960D01*
X15459586Y-17316960D02*
X15450063Y-17307436D01*
X15450063Y-17307436D02*
X15440539Y-17288389D01*
X15440539Y-17288389D02*
X15431015Y-17250293D01*
X15431015Y-17250293D02*
X15431015Y-17202674D01*
X15431015Y-17202674D02*
X15440539Y-17164579D01*
X15440539Y-17164579D02*
X15450063Y-17145531D01*
X15450063Y-17145531D02*
X15459586Y-17136008D01*
X15459586Y-17136008D02*
X15478634Y-17126484D01*
X15631015Y-17307436D02*
X15640539Y-17316960D01*
X15640539Y-17316960D02*
X15631015Y-17326484D01*
X15631015Y-17326484D02*
X15621491Y-17316960D01*
X15621491Y-17316960D02*
X15631015Y-17307436D01*
X15631015Y-17307436D02*
X15631015Y-17326484D01*
X15831015Y-17326484D02*
X15716729Y-17326484D01*
X15773872Y-17326484D02*
X15773872Y-17126484D01*
X15773872Y-17126484D02*
X15754825Y-17155055D01*
X15754825Y-17155055D02*
X15735777Y-17174103D01*
X15735777Y-17174103D02*
X15716729Y-17183627D01*
X15897682Y-17126484D02*
X16021491Y-17126484D01*
X16021491Y-17126484D02*
X15954825Y-17202674D01*
X15954825Y-17202674D02*
X15983396Y-17202674D01*
X15983396Y-17202674D02*
X16002444Y-17212198D01*
X16002444Y-17212198D02*
X16011967Y-17221722D01*
X16011967Y-17221722D02*
X16021491Y-17240770D01*
X16021491Y-17240770D02*
X16021491Y-17288389D01*
X16021491Y-17288389D02*
X16011967Y-17307436D01*
X16011967Y-17307436D02*
X16002444Y-17316960D01*
X16002444Y-17316960D02*
X15983396Y-17326484D01*
X15983396Y-17326484D02*
X15926253Y-17326484D01*
X15926253Y-17326484D02*
X15907206Y-17316960D01*
X15907206Y-17316960D02*
X15897682Y-17307436D01*
X16088158Y-17126484D02*
X16221491Y-17126484D01*
X16221491Y-17126484D02*
X16135777Y-17326484D01*
X16326253Y-17212198D02*
X16307206Y-17202674D01*
X16307206Y-17202674D02*
X16297682Y-17193150D01*
X16297682Y-17193150D02*
X16288158Y-17174103D01*
X16288158Y-17174103D02*
X16288158Y-17164579D01*
X16288158Y-17164579D02*
X16297682Y-17145531D01*
X16297682Y-17145531D02*
X16307206Y-17136008D01*
X16307206Y-17136008D02*
X16326253Y-17126484D01*
X16326253Y-17126484D02*
X16364348Y-17126484D01*
X16364348Y-17126484D02*
X16383396Y-17136008D01*
X16383396Y-17136008D02*
X16392920Y-17145531D01*
X16392920Y-17145531D02*
X16402444Y-17164579D01*
X16402444Y-17164579D02*
X16402444Y-17174103D01*
X16402444Y-17174103D02*
X16392920Y-17193150D01*
X16392920Y-17193150D02*
X16383396Y-17202674D01*
X16383396Y-17202674D02*
X16364348Y-17212198D01*
X16364348Y-17212198D02*
X16326253Y-17212198D01*
X16326253Y-17212198D02*
X16307206Y-17221722D01*
X16307206Y-17221722D02*
X16297682Y-17231246D01*
X16297682Y-17231246D02*
X16288158Y-17250293D01*
X16288158Y-17250293D02*
X16288158Y-17288389D01*
X16288158Y-17288389D02*
X16297682Y-17307436D01*
X16297682Y-17307436D02*
X16307206Y-17316960D01*
X16307206Y-17316960D02*
X16326253Y-17326484D01*
X16326253Y-17326484D02*
X16364348Y-17326484D01*
X16364348Y-17326484D02*
X16383396Y-17316960D01*
X16383396Y-17316960D02*
X16392920Y-17307436D01*
X16392920Y-17307436D02*
X16402444Y-17288389D01*
X16402444Y-17288389D02*
X16402444Y-17250293D01*
X16402444Y-17250293D02*
X16392920Y-17231246D01*
X16392920Y-17231246D02*
X16383396Y-17221722D01*
X16383396Y-17221722D02*
X16364348Y-17212198D01*
X16478634Y-17126484D02*
X16478634Y-17164579D01*
X16554825Y-17126484D02*
X16554825Y-17164579D01*
X16850063Y-17402674D02*
X16840539Y-17393150D01*
X16840539Y-17393150D02*
X16821491Y-17364579D01*
X16821491Y-17364579D02*
X16811968Y-17345531D01*
X16811968Y-17345531D02*
X16802444Y-17316960D01*
X16802444Y-17316960D02*
X16792920Y-17269341D01*
X16792920Y-17269341D02*
X16792920Y-17231246D01*
X16792920Y-17231246D02*
X16802444Y-17183627D01*
X16802444Y-17183627D02*
X16811968Y-17155055D01*
X16811968Y-17155055D02*
X16821491Y-17136008D01*
X16821491Y-17136008D02*
X16840539Y-17107436D01*
X16840539Y-17107436D02*
X16850063Y-17097912D01*
X16916730Y-17145531D02*
X16926253Y-17136008D01*
X16926253Y-17136008D02*
X16945301Y-17126484D01*
X16945301Y-17126484D02*
X16992920Y-17126484D01*
X16992920Y-17126484D02*
X17011968Y-17136008D01*
X17011968Y-17136008D02*
X17021491Y-17145531D01*
X17021491Y-17145531D02*
X17031015Y-17164579D01*
X17031015Y-17164579D02*
X17031015Y-17183627D01*
X17031015Y-17183627D02*
X17021491Y-17212198D01*
X17021491Y-17212198D02*
X16907206Y-17326484D01*
X16907206Y-17326484D02*
X17031015Y-17326484D01*
X17269111Y-17326484D02*
X17269111Y-17126484D01*
X17354825Y-17326484D02*
X17354825Y-17221722D01*
X17354825Y-17221722D02*
X17345301Y-17202674D01*
X17345301Y-17202674D02*
X17326253Y-17193150D01*
X17326253Y-17193150D02*
X17297682Y-17193150D01*
X17297682Y-17193150D02*
X17278634Y-17202674D01*
X17278634Y-17202674D02*
X17269111Y-17212198D01*
X17478634Y-17326484D02*
X17459587Y-17316960D01*
X17459587Y-17316960D02*
X17450063Y-17307436D01*
X17450063Y-17307436D02*
X17440539Y-17288389D01*
X17440539Y-17288389D02*
X17440539Y-17231246D01*
X17440539Y-17231246D02*
X17450063Y-17212198D01*
X17450063Y-17212198D02*
X17459587Y-17202674D01*
X17459587Y-17202674D02*
X17478634Y-17193150D01*
X17478634Y-17193150D02*
X17507206Y-17193150D01*
X17507206Y-17193150D02*
X17526253Y-17202674D01*
X17526253Y-17202674D02*
X17535777Y-17212198D01*
X17535777Y-17212198D02*
X17545301Y-17231246D01*
X17545301Y-17231246D02*
X17545301Y-17288389D01*
X17545301Y-17288389D02*
X17535777Y-17307436D01*
X17535777Y-17307436D02*
X17526253Y-17316960D01*
X17526253Y-17316960D02*
X17507206Y-17326484D01*
X17507206Y-17326484D02*
X17478634Y-17326484D01*
X17659587Y-17326484D02*
X17640539Y-17316960D01*
X17640539Y-17316960D02*
X17631015Y-17297912D01*
X17631015Y-17297912D02*
X17631015Y-17126484D01*
X17811968Y-17316960D02*
X17792920Y-17326484D01*
X17792920Y-17326484D02*
X17754825Y-17326484D01*
X17754825Y-17326484D02*
X17735777Y-17316960D01*
X17735777Y-17316960D02*
X17726253Y-17297912D01*
X17726253Y-17297912D02*
X17726253Y-17221722D01*
X17726253Y-17221722D02*
X17735777Y-17202674D01*
X17735777Y-17202674D02*
X17754825Y-17193150D01*
X17754825Y-17193150D02*
X17792920Y-17193150D01*
X17792920Y-17193150D02*
X17811968Y-17202674D01*
X17811968Y-17202674D02*
X17821492Y-17221722D01*
X17821492Y-17221722D02*
X17821492Y-17240770D01*
X17821492Y-17240770D02*
X17726253Y-17259817D01*
X17897682Y-17316960D02*
X17916730Y-17326484D01*
X17916730Y-17326484D02*
X17954825Y-17326484D01*
X17954825Y-17326484D02*
X17973873Y-17316960D01*
X17973873Y-17316960D02*
X17983396Y-17297912D01*
X17983396Y-17297912D02*
X17983396Y-17288389D01*
X17983396Y-17288389D02*
X17973873Y-17269341D01*
X17973873Y-17269341D02*
X17954825Y-17259817D01*
X17954825Y-17259817D02*
X17926253Y-17259817D01*
X17926253Y-17259817D02*
X17907206Y-17250293D01*
X17907206Y-17250293D02*
X17897682Y-17231246D01*
X17897682Y-17231246D02*
X17897682Y-17221722D01*
X17897682Y-17221722D02*
X17907206Y-17202674D01*
X17907206Y-17202674D02*
X17926253Y-17193150D01*
X17926253Y-17193150D02*
X17954825Y-17193150D01*
X17954825Y-17193150D02*
X17973873Y-17202674D01*
X18050063Y-17402674D02*
X18059587Y-17393150D01*
X18059587Y-17393150D02*
X18078634Y-17364579D01*
X18078634Y-17364579D02*
X18088158Y-17345531D01*
X18088158Y-17345531D02*
X18097682Y-17316960D01*
X18097682Y-17316960D02*
X18107206Y-17269341D01*
X18107206Y-17269341D02*
X18107206Y-17231246D01*
X18107206Y-17231246D02*
X18097682Y-17183627D01*
X18097682Y-17183627D02*
X18088158Y-17155055D01*
X18088158Y-17155055D02*
X18078634Y-17136008D01*
X18078634Y-17136008D02*
X18059587Y-17107436D01*
X18059587Y-17107436D02*
X18050063Y-17097912D01*
M02*
