%TF.GenerationSoftware,KiCad,Pcbnew,8.0.6*%
%TF.CreationDate,2025-12-26T07:27:58-05:00*%
%TF.ProjectId,heaterboard_1,68656174-6572-4626-9f61-72645f312e6b,3.0*%
%TF.SameCoordinates,Original*%
%TF.FileFunction,Drillmap*%
%TF.FilePolarity,Positive*%
%FSLAX45Y45*%
G04 Gerber Fmt 4.5, Leading zero omitted, Abs format (unit mm)*
G04 Created by KiCad (PCBNEW 8.0.6) date 2025-12-26 07:27:58*
%MOMM*%
%LPD*%
G01*
G04 APERTURE LIST*
%ADD10C,0.100000*%
%ADD11C,0.200000*%
G04 APERTURE END LIST*
D10*
X13280000Y-15000000D02*
X15800000Y-15000000D01*
X15800000Y-8500000D02*
X13280000Y-8500000D01*
X13280000Y-8500000D02*
X13280000Y-15000000D01*
X15800000Y-15000000D02*
X15800000Y-8500000D01*
D11*
X13535777Y-15316484D02*
X13535777Y-15116484D01*
X13535777Y-15116484D02*
X13583396Y-15116484D01*
X13583396Y-15116484D02*
X13611967Y-15126008D01*
X13611967Y-15126008D02*
X13631015Y-15145055D01*
X13631015Y-15145055D02*
X13640539Y-15164103D01*
X13640539Y-15164103D02*
X13650062Y-15202198D01*
X13650062Y-15202198D02*
X13650062Y-15230769D01*
X13650062Y-15230769D02*
X13640539Y-15268865D01*
X13640539Y-15268865D02*
X13631015Y-15287912D01*
X13631015Y-15287912D02*
X13611967Y-15306960D01*
X13611967Y-15306960D02*
X13583396Y-15316484D01*
X13583396Y-15316484D02*
X13535777Y-15316484D01*
X13735777Y-15316484D02*
X13735777Y-15183150D01*
X13735777Y-15221246D02*
X13745301Y-15202198D01*
X13745301Y-15202198D02*
X13754824Y-15192674D01*
X13754824Y-15192674D02*
X13773872Y-15183150D01*
X13773872Y-15183150D02*
X13792920Y-15183150D01*
X13859586Y-15316484D02*
X13859586Y-15183150D01*
X13859586Y-15116484D02*
X13850062Y-15126008D01*
X13850062Y-15126008D02*
X13859586Y-15135531D01*
X13859586Y-15135531D02*
X13869110Y-15126008D01*
X13869110Y-15126008D02*
X13859586Y-15116484D01*
X13859586Y-15116484D02*
X13859586Y-15135531D01*
X13983396Y-15316484D02*
X13964348Y-15306960D01*
X13964348Y-15306960D02*
X13954824Y-15287912D01*
X13954824Y-15287912D02*
X13954824Y-15116484D01*
X14088158Y-15316484D02*
X14069110Y-15306960D01*
X14069110Y-15306960D02*
X14059586Y-15287912D01*
X14059586Y-15287912D02*
X14059586Y-15116484D01*
X14316729Y-15316484D02*
X14316729Y-15116484D01*
X14316729Y-15116484D02*
X14383396Y-15259341D01*
X14383396Y-15259341D02*
X14450062Y-15116484D01*
X14450062Y-15116484D02*
X14450062Y-15316484D01*
X14631015Y-15316484D02*
X14631015Y-15211722D01*
X14631015Y-15211722D02*
X14621491Y-15192674D01*
X14621491Y-15192674D02*
X14602443Y-15183150D01*
X14602443Y-15183150D02*
X14564348Y-15183150D01*
X14564348Y-15183150D02*
X14545301Y-15192674D01*
X14631015Y-15306960D02*
X14611967Y-15316484D01*
X14611967Y-15316484D02*
X14564348Y-15316484D01*
X14564348Y-15316484D02*
X14545301Y-15306960D01*
X14545301Y-15306960D02*
X14535777Y-15287912D01*
X14535777Y-15287912D02*
X14535777Y-15268865D01*
X14535777Y-15268865D02*
X14545301Y-15249817D01*
X14545301Y-15249817D02*
X14564348Y-15240293D01*
X14564348Y-15240293D02*
X14611967Y-15240293D01*
X14611967Y-15240293D02*
X14631015Y-15230769D01*
X14726253Y-15183150D02*
X14726253Y-15383150D01*
X14726253Y-15192674D02*
X14745301Y-15183150D01*
X14745301Y-15183150D02*
X14783396Y-15183150D01*
X14783396Y-15183150D02*
X14802443Y-15192674D01*
X14802443Y-15192674D02*
X14811967Y-15202198D01*
X14811967Y-15202198D02*
X14821491Y-15221246D01*
X14821491Y-15221246D02*
X14821491Y-15278388D01*
X14821491Y-15278388D02*
X14811967Y-15297436D01*
X14811967Y-15297436D02*
X14802443Y-15306960D01*
X14802443Y-15306960D02*
X14783396Y-15316484D01*
X14783396Y-15316484D02*
X14745301Y-15316484D01*
X14745301Y-15316484D02*
X14726253Y-15306960D01*
X14907205Y-15297436D02*
X14916729Y-15306960D01*
X14916729Y-15306960D02*
X14907205Y-15316484D01*
X14907205Y-15316484D02*
X14897682Y-15306960D01*
X14897682Y-15306960D02*
X14907205Y-15297436D01*
X14907205Y-15297436D02*
X14907205Y-15316484D01*
X14907205Y-15192674D02*
X14916729Y-15202198D01*
X14916729Y-15202198D02*
X14907205Y-15211722D01*
X14907205Y-15211722D02*
X14897682Y-15202198D01*
X14897682Y-15202198D02*
X14907205Y-15192674D01*
X14907205Y-15192674D02*
X14907205Y-15211722D01*
M02*
