M48
; DRILL file {KiCad 8.0.6} date 2025-12-26T07:27:52-0500
; FORMAT={-:-/ absolute / metric / decimal}
; #@! TF.CreationDate,2025-12-26T07:27:52-05:00
; #@! TF.GenerationSoftware,Kicad,Pcbnew,8.0.6
; #@! TF.FileFunction,Plated,1,2,PTH
FMAT,2
METRIC
; #@! TA.AperFunction,Plated,PTH,ViaDrill
T1C0.400
; #@! TA.AperFunction,Plated,PTH,ComponentDrill
T2C0.500
; #@! TA.AperFunction,Plated,PTH,ViaDrill
T3C0.800
; #@! TA.AperFunction,Plated,PTH,ComponentDrill
T4C1.000
; #@! TA.AperFunction,Plated,PTH,ComponentDrill
T5C1.100
; #@! TA.AperFunction,Plated,PTH,ComponentDrill
T6C1.500
; #@! TA.AperFunction,Plated,PTH,ComponentDrill
T7C3.500
%
G90
G05
T1
X137.16Y-102.159
X138.43Y-109.22
X139.065Y-106.045
X139.8Y-102.58
X141.951Y-105.006
X144.761Y-114.23
X145.59Y-121.045
X146.006Y-131.373
X148.59Y-112.395
X153.845Y-105.17
T2
X141.375Y-89.0
X141.375Y-146.0
X142.144Y-87.144
X142.144Y-90.856
X142.144Y-144.144
X142.144Y-147.856
X144.0Y-86.375
X144.0Y-91.625
X144.0Y-143.375
X144.0Y-148.625
X145.856Y-87.144
X145.856Y-90.856
X145.856Y-144.144
X145.856Y-147.856
X146.625Y-89.0
X146.625Y-146.0
T3
X146.304Y-105.156
X149.8Y-100.45
T4
X141.09Y-107.125
X141.09Y-109.665
X143.63Y-107.125
X143.63Y-109.665
X146.17Y-107.125
X146.17Y-109.665
X148.71Y-107.125
X148.71Y-109.665
X151.25Y-107.125
X151.25Y-109.665
T5
X138.55Y-98.25
X141.09Y-98.25
X143.63Y-98.25
X146.17Y-98.25
X148.71Y-98.25
X151.25Y-98.25
X153.0Y-117.46
X153.0Y-120.0
X153.0Y-124.46
X153.0Y-127.0
X153.0Y-132.92
X153.0Y-135.46
X153.0Y-138.0
T6
X136.45Y-88.73
X143.05Y-117.33
X143.05Y-124.33
X143.05Y-135.33
X151.05Y-146.13
T7
X144.0Y-89.0
X144.0Y-146.0
M30
