M48
; DRILL file {KiCad 8.0.6} date 2025-12-11T00:54:29-0500
; FORMAT={-:-/ absolute / inch / decimal}
; #@! TF.CreationDate,2025-12-11T00:54:29-05:00
; #@! TF.GenerationSoftware,Kicad,Pcbnew,8.0.6
; #@! TF.FileFunction,Plated,1,2,PTH
FMAT,2
INCH
; #@! TA.AperFunction,Plated,PTH,ViaDrill
T1C0.0157
; #@! TA.AperFunction,Plated,PTH,ComponentDrill
T2C0.0197
; #@! TA.AperFunction,Plated,PTH,ViaDrill
T3C0.0315
; #@! TA.AperFunction,Plated,PTH,ComponentDrill
T4C0.0315
; #@! TA.AperFunction,Plated,PTH,ComponentDrill
T5C0.0394
; #@! TA.AperFunction,Plated,PTH,ComponentDrill
T6C0.0433
; #@! TA.AperFunction,Plated,PTH,ComponentDrill
T7C0.0472
; #@! TA.AperFunction,Plated,PTH,ComponentDrill
T8C0.0591
; #@! TA.AperFunction,Plated,PTH,ComponentDrill
T9C0.0984
; #@! TA.AperFunction,Plated,PTH,ComponentDrill
T10C0.1378
%
G90
G05
T1
X2.6142Y-4.4646
X2.622Y-5.1024
X2.6378Y-4.622
X2.7402Y-3.937
X2.7719Y-3.6705
X2.8254Y-4.5906
X2.9226Y-4.5906
X2.9528Y-4.9843
X2.9528Y-5.3071
X2.9528Y-5.5709
X3.0419Y-3.6905
X3.252Y-5.2126
X3.3619Y-3.7055
X3.4619Y-3.7055
X3.4669Y-3.6155
X3.5354Y-4.1811
X3.6327Y-4.2362
X3.6661Y-4.9697
X3.685Y-4.3386
X3.7327Y-4.2362
X3.7811Y-5.2134
X3.8189Y-5.6496
X3.8504Y-4.2992
X3.9055Y-4.0681
X3.9173Y-5.6496
X3.9587Y-3.5661
X3.9863Y-3.8734
X4.0919Y-3.6105
X4.0965Y-5.2648
X4.1594Y-4.5354
X4.1606Y-5.2846
X4.164Y-5.2283
X4.1724Y-3.8693
X4.1772Y-4.0787
X4.2126Y-4.3701
X4.2126Y-5.4134
X4.252Y-5.4331
X4.2717Y-3.8787
X4.311Y-4.2717
X4.3701Y-3.8905
X4.5748Y-4.0236
X4.6181Y-4.2205
X4.622Y-4.3465
X4.6378Y-5.4264
X4.6699Y-4.6548
X4.7461Y-5.4756
X4.7461Y-5.6035
X4.7854Y-5.387
X4.8248Y-3.9401
X4.8291Y-5.601
X4.834Y-4.8693
X4.8618Y-5.062
X4.8661Y-4.9685
X4.8826Y-4.7638
X4.8839Y-5.4362
X4.9213Y-4.0484
X4.9213Y-4.1575
X4.9213Y-5.1378
X4.9882Y-5.0315
X4.9921Y-5.3476
X5.0315Y-4.4815
X5.0413Y-4.5799
X5.0512Y-5.387
X5.0591Y-5.4528
X5.4Y-4.022
X5.45Y-4.3
X5.475Y-4.175
X5.5039Y-4.0386
X5.5512Y-5.0957
X5.5886Y-4.1341
X5.6458Y-5.4774
X5.6535Y-5.3161
X5.6654Y-5.2549
X5.7008Y-4.4972
X5.7913Y-5.5287
X5.85Y-4.425
X5.8719Y-5.4755
T2
X2.0226Y-3.5039
X2.0226Y-5.748
X2.0529Y-3.4309
X2.0529Y-3.577
X2.0529Y-5.675
X2.0529Y-5.8211
X2.126Y-3.4006
X2.126Y-3.6073
X2.126Y-5.6447
X2.126Y-5.8514
X2.1991Y-3.4309
X2.1991Y-3.577
X2.1991Y-5.675
X2.1991Y-5.8211
X2.2293Y-3.5039
X2.2293Y-5.748
X4.936Y-3.5039
X4.936Y-5.748
X4.9663Y-3.4309
X4.9663Y-3.577
X4.9663Y-5.675
X4.9663Y-5.8211
X5.0394Y-3.4006
X5.0394Y-3.6073
X5.0394Y-5.6447
X5.0394Y-5.8514
X5.1124Y-3.4309
X5.1124Y-3.577
X5.1124Y-5.675
X5.1124Y-5.8211
X5.1427Y-3.5039
X5.1427Y-5.748
X5.5659Y-3.5039
X5.5659Y-5.748
X5.5962Y-3.4309
X5.5962Y-3.577
X5.5962Y-5.675
X5.5962Y-5.8211
X5.6693Y-3.4006
X5.6693Y-3.6073
X5.6693Y-5.6447
X5.6693Y-5.8514
X5.7424Y-3.4309
X5.7424Y-3.577
X5.7424Y-5.675
X5.7424Y-5.8211
X5.7726Y-3.5039
X5.7726Y-5.748
T3
X4.6972Y-4.1078
X4.7165Y-4.3929
X5.685Y-4.6035
X5.76Y-4.14
X5.8287Y-4.7571
X5.8976Y-3.9547
T4
X3.4327Y-4.037
X3.5327Y-4.037
X3.6327Y-4.037
X3.7327Y-4.037
T5
X2.9528Y-5.3937
X3.1136Y-3.6642
X3.2136Y-3.6642
X3.2528Y-5.3937
X3.3136Y-3.6642
X3.4136Y-3.6642
X3.4734Y-5.5642
X3.5136Y-3.6642
X3.5734Y-5.5642
X3.6136Y-3.6642
X3.6734Y-5.5642
X3.7136Y-3.6642
X3.7734Y-5.5642
X3.8136Y-3.6642
X3.8734Y-5.5642
X3.9136Y-3.6642
X3.9734Y-5.5642
X4.0136Y-3.6642
X4.0734Y-5.5642
X4.1734Y-3.6642
X4.1734Y-5.5642
X4.2734Y-3.6642
X4.3734Y-3.6642
X4.3734Y-5.5642
X4.4734Y-3.6642
X4.4734Y-5.5642
X4.5734Y-3.6642
X4.5734Y-5.5642
X4.6734Y-3.6642
X4.6734Y-5.5642
X4.7734Y-3.6642
X4.7734Y-5.5642
X4.8734Y-3.6642
X4.8734Y-5.5642
X4.9394Y-4.6693
X4.9394Y-4.7693
X4.9394Y-4.8693
X4.9394Y-4.9693
X4.9394Y-5.0693
X5.0394Y-4.6693
X5.0394Y-4.7693
X5.0394Y-4.8693
X5.0394Y-4.9693
X5.0394Y-5.0693
X5.5547Y-4.2175
X5.5547Y-4.3175
X5.6547Y-4.2175
X5.6547Y-4.3175
X5.7547Y-4.2175
X5.7547Y-4.3175
X5.8547Y-4.2175
X5.8547Y-4.3175
X5.9547Y-4.2175
X5.9547Y-4.3175
T6
X4.3524Y-5.4461
X4.4524Y-5.4461
X4.5524Y-5.4461
X5.0Y-3.8484
X5.0Y-3.9484
X5.0Y-4.0484
X5.0Y-4.1484
X5.0Y-4.2484
X5.0Y-4.3484
X5.4547Y-3.8681
X5.5547Y-3.8681
X5.6547Y-3.8681
X5.7547Y-3.8681
X5.8547Y-3.8681
X5.9547Y-3.8681
X6.0039Y-4.7464
X6.0039Y-4.8464
T7
X2.6378Y-4.0748
X2.6378Y-4.3307
X2.6378Y-4.7244
X2.6378Y-4.9803
X2.815Y-4.0748
X2.815Y-4.3307
X2.815Y-4.7244
X2.815Y-4.9803
X4.311Y-4.439
X4.311Y-4.6161
X4.5669Y-4.439
X4.5669Y-4.6161
T8
X4.439Y-4.1437
X6.0236Y-5.748
T9
X3.124Y-4.0591
X3.124Y-4.9961
X4.0413Y-4.0591
X4.0413Y-4.9961
T10
X2.126Y-3.5039
X2.126Y-5.748
X5.0394Y-3.5039
X5.0394Y-5.748
X5.6693Y-3.5039
X5.6693Y-5.748
M30
