G04 #@! TF.GenerationSoftware,KiCad,Pcbnew,8.0.6*
G04 #@! TF.CreationDate,2025-12-26T07:32:45-05:00*
G04 #@! TF.ProjectId,pcb_moonratII,7063625f-6d6f-46f6-9e72-617449492e6b,1.0*
G04 #@! TF.SameCoordinates,Original*
G04 #@! TF.FileFunction,Paste,Top*
G04 #@! TF.FilePolarity,Positive*
%FSLAX46Y46*%
G04 Gerber Fmt 4.6, Leading zero omitted, Abs format (unit mm)*
G04 Created by KiCad (PCBNEW 8.0.6) date 2025-12-26 07:32:45*
%MOMM*%
%LPD*%
G01*
G04 APERTURE LIST*
G04 Aperture macros list*
%AMRoundRect*
0 Rectangle with rounded corners*
0 $1 Rounding radius*
0 $2 $3 $4 $5 $6 $7 $8 $9 X,Y pos of 4 corners*
0 Add a 4 corners polygon primitive as box body*
4,1,4,$2,$3,$4,$5,$6,$7,$8,$9,$2,$3,0*
0 Add four circle primitives for the rounded corners*
1,1,$1+$1,$2,$3*
1,1,$1+$1,$4,$5*
1,1,$1+$1,$6,$7*
1,1,$1+$1,$8,$9*
0 Add four rect primitives between the rounded corners*
20,1,$1+$1,$2,$3,$4,$5,0*
20,1,$1+$1,$4,$5,$6,$7,0*
20,1,$1+$1,$6,$7,$8,$9,0*
20,1,$1+$1,$8,$9,$2,$3,0*%
G04 Aperture macros list end*
%ADD10RoundRect,0.237500X0.250000X0.237500X-0.250000X0.237500X-0.250000X-0.237500X0.250000X-0.237500X0*%
%ADD11RoundRect,0.237500X0.237500X-0.250000X0.237500X0.250000X-0.237500X0.250000X-0.237500X-0.250000X0*%
%ADD12R,2.000000X3.000000*%
%ADD13R,2.000000X2.999999*%
%ADD14RoundRect,0.237500X-0.250000X-0.237500X0.250000X-0.237500X0.250000X0.237500X-0.250000X0.237500X0*%
%ADD15R,3.150000X1.780000*%
%ADD16RoundRect,0.250000X-0.900000X1.000000X-0.900000X-1.000000X0.900000X-1.000000X0.900000X1.000000X0*%
%ADD17RoundRect,0.237500X-0.237500X0.300000X-0.237500X-0.300000X0.237500X-0.300000X0.237500X0.300000X0*%
%ADD18RoundRect,0.150000X0.587500X0.150000X-0.587500X0.150000X-0.587500X-0.150000X0.587500X-0.150000X0*%
%ADD19RoundRect,0.150000X-0.150000X0.512500X-0.150000X-0.512500X0.150000X-0.512500X0.150000X0.512500X0*%
G04 #@! TA.AperFunction,Profile*
%ADD20C,0.100000*%
G04 #@! TD*
G04 APERTURE END LIST*
D10*
G04 #@! TO.C,R2*
X104212500Y-90079714D03*
X102387500Y-90079714D03*
G04 #@! TD*
D11*
G04 #@! TO.C,R7*
X142400000Y-137842214D03*
X142400000Y-136017214D03*
G04 #@! TD*
D12*
G04 #@! TO.C,J1*
X57650000Y-97300000D03*
X57650000Y-108300000D03*
X51650000Y-108300000D03*
D13*
X51650000Y-97300000D03*
G04 #@! TD*
D14*
G04 #@! TO.C,R10*
X74042000Y-92850714D03*
X75867000Y-92850714D03*
G04 #@! TD*
D10*
G04 #@! TO.C,R3*
X113585000Y-101600000D03*
X111760000Y-101600000D03*
G04 #@! TD*
D15*
G04 #@! TO.C,F1*
X66840707Y-93429293D03*
X66840707Y-88499293D03*
G04 #@! TD*
D10*
G04 #@! TO.C,R4*
X70312500Y-129600000D03*
X68487500Y-129600000D03*
G04 #@! TD*
D16*
G04 #@! TO.C,D1*
X144400000Y-119380000D03*
X144400000Y-123680000D03*
G04 #@! TD*
D10*
G04 #@! TO.C,R5*
X70112500Y-113400000D03*
X68287500Y-113400000D03*
G04 #@! TD*
D14*
G04 #@! TO.C,R1*
X123137500Y-136079714D03*
X124962500Y-136079714D03*
G04 #@! TD*
D10*
G04 #@! TO.C,R9*
X109875000Y-90079714D03*
X108050000Y-90079714D03*
G04 #@! TD*
D17*
G04 #@! TO.C,C1*
X149273000Y-136057214D03*
X149273000Y-137782214D03*
G04 #@! TD*
D18*
G04 #@! TO.C,Q2*
X88235000Y-134300000D03*
X88235000Y-132400000D03*
X86360000Y-133350000D03*
G04 #@! TD*
D19*
G04 #@! TO.C,U1*
X147050000Y-135792214D03*
X146100000Y-135792214D03*
X145150000Y-135792214D03*
X145150000Y-138067214D03*
X147050000Y-138067214D03*
G04 #@! TD*
D10*
G04 #@! TO.C,R6*
X71699500Y-90945714D03*
X69874500Y-90945714D03*
G04 #@! TD*
D20*
X50000000Y-150000000D02*
X158000000Y-150000000D01*
X158000000Y-85000000D02*
X50000000Y-85000000D01*
X50000000Y-85000000D02*
X50000000Y-150000000D01*
X158000000Y-150000000D02*
X158000000Y-85000000D01*
M02*
