G04 #@! TF.GenerationSoftware,KiCad,Pcbnew,8.0.6*
G04 #@! TF.CreationDate,2025-12-26T07:32:45-05:00*
G04 #@! TF.ProjectId,pcb_moonratII,7063625f-6d6f-46f6-9e72-617449492e6b,1.0*
G04 #@! TF.SameCoordinates,Original*
G04 #@! TF.FileFunction,Soldermask,Top*
G04 #@! TF.FilePolarity,Negative*
%FSLAX46Y46*%
G04 Gerber Fmt 4.6, Leading zero omitted, Abs format (unit mm)*
G04 Created by KiCad (PCBNEW 8.0.6) date 2025-12-26 07:32:45*
%MOMM*%
%LPD*%
G01*
G04 APERTURE LIST*
G04 Aperture macros list*
%AMRoundRect*
0 Rectangle with rounded corners*
0 $1 Rounding radius*
0 $2 $3 $4 $5 $6 $7 $8 $9 X,Y pos of 4 corners*
0 Add a 4 corners polygon primitive as box body*
4,1,4,$2,$3,$4,$5,$6,$7,$8,$9,$2,$3,0*
0 Add four circle primitives for the rounded corners*
1,1,$1+$1,$2,$3*
1,1,$1+$1,$4,$5*
1,1,$1+$1,$6,$7*
1,1,$1+$1,$8,$9*
0 Add four rect primitives between the rounded corners*
20,1,$1+$1,$2,$3,$4,$5,0*
20,1,$1+$1,$4,$5,$6,$7,0*
20,1,$1+$1,$6,$7,$8,$9,0*
20,1,$1+$1,$8,$9,$2,$3,0*%
G04 Aperture macros list end*
%ADD10C,0.800000*%
%ADD11C,7.000000*%
%ADD12RoundRect,0.237500X0.250000X0.237500X-0.250000X0.237500X-0.250000X-0.237500X0.250000X-0.237500X0*%
%ADD13C,3.000000*%
%ADD14R,2.200000X2.200000*%
%ADD15C,2.200000*%
%ADD16R,2.100000X2.100000*%
%ADD17C,2.100000*%
%ADD18RoundRect,0.237500X0.237500X-0.250000X0.237500X0.250000X-0.237500X0.250000X-0.237500X-0.250000X0*%
%ADD19RoundRect,0.250000X-0.600000X0.600000X-0.600000X-0.600000X0.600000X-0.600000X0.600000X0.600000X0*%
%ADD20C,1.700000*%
%ADD21O,1.600000X1.600000*%
%ADD22C,1.800000*%
%ADD23R,2.000000X3.000000*%
%ADD24R,2.000000X2.999999*%
%ADD25RoundRect,0.237500X-0.250000X-0.237500X0.250000X-0.237500X0.250000X0.237500X-0.250000X0.237500X0*%
%ADD26R,3.150000X1.780000*%
%ADD27O,3.500000X3.500000*%
%ADD28R,1.905000X2.000000*%
%ADD29O,1.905000X2.000000*%
%ADD30R,2.000000X2.000000*%
%ADD31C,2.000000*%
%ADD32R,1.600000X1.600000*%
%ADD33C,1.600000*%
%ADD34C,4.500000*%
%ADD35RoundRect,0.250000X-0.900000X1.000000X-0.900000X-1.000000X0.900000X-1.000000X0.900000X1.000000X0*%
%ADD36RoundRect,0.237500X-0.237500X0.300000X-0.237500X-0.300000X0.237500X-0.300000X0.237500X0.300000X0*%
%ADD37RoundRect,0.150000X0.587500X0.150000X-0.587500X0.150000X-0.587500X-0.150000X0.587500X-0.150000X0*%
%ADD38RoundRect,0.150000X-0.150000X0.512500X-0.150000X-0.512500X0.150000X-0.512500X0.150000X0.512500X0*%
%ADD39RoundRect,0.250000X-0.600000X-0.600000X0.600000X-0.600000X0.600000X0.600000X-0.600000X0.600000X0*%
G04 #@! TA.AperFunction,Profile*
%ADD40C,0.100000*%
G04 #@! TD*
G04 APERTURE END LIST*
D10*
G04 #@! TO.C,H2*
X51375000Y-146000000D03*
X52143845Y-144143845D03*
X52143845Y-147856155D03*
X54000000Y-143375000D03*
D11*
X54000000Y-146000000D03*
D10*
X54000000Y-148625000D03*
X55856155Y-144143845D03*
X55856155Y-147856155D03*
X56625000Y-146000000D03*
G04 #@! TD*
D12*
G04 #@! TO.C,R2*
X104212500Y-90079714D03*
X102387500Y-90079714D03*
G04 #@! TD*
D13*
G04 #@! TO.C,TP2*
X153000000Y-146000000D03*
G04 #@! TD*
D14*
G04 #@! TO.C,SW1*
X67000000Y-110000000D03*
D15*
X67000000Y-103500000D03*
X71500000Y-110000000D03*
X71500000Y-103500000D03*
G04 #@! TD*
D10*
G04 #@! TO.C,H3*
X125375000Y-146000000D03*
X126143845Y-144143845D03*
X126143845Y-147856155D03*
X128000000Y-143375000D03*
D11*
X128000000Y-146000000D03*
D10*
X128000000Y-148625000D03*
X129856155Y-144143845D03*
X129856155Y-147856155D03*
X130625000Y-146000000D03*
G04 #@! TD*
D16*
G04 #@! TO.C,J9*
X151250000Y-98250000D03*
D17*
X148710000Y-98250000D03*
X146170000Y-98250000D03*
X143630000Y-98250000D03*
X141090000Y-98250000D03*
X138550000Y-98250000D03*
G04 #@! TD*
D18*
G04 #@! TO.C,R7*
X142400000Y-137842214D03*
X142400000Y-136017214D03*
G04 #@! TD*
D19*
G04 #@! TO.C,J10*
X151250000Y-107125000D03*
D20*
X151250000Y-109665000D03*
X148710000Y-107125000D03*
X148710000Y-109665000D03*
X146170000Y-107125000D03*
X146170000Y-109665000D03*
X143630000Y-107125000D03*
X143630000Y-109665000D03*
X141090000Y-107125000D03*
X141090000Y-109665000D03*
G04 #@! TD*
D21*
G04 #@! TO.C,J1*
X51750000Y-102800000D03*
D22*
X56150000Y-102800000D03*
D23*
X57650000Y-97300000D03*
X57650000Y-108300000D03*
X51650000Y-108300000D03*
D24*
X51650000Y-97300000D03*
G04 #@! TD*
D25*
G04 #@! TO.C,R10*
X74042000Y-92850714D03*
X75867000Y-92850714D03*
G04 #@! TD*
D12*
G04 #@! TO.C,R3*
X113585000Y-101600000D03*
X111760000Y-101600000D03*
G04 #@! TD*
D14*
G04 #@! TO.C,SW3*
X67000000Y-126500000D03*
D15*
X67000000Y-120000000D03*
X71500000Y-126500000D03*
X71500000Y-120000000D03*
G04 #@! TD*
D26*
G04 #@! TO.C,F1*
X66840707Y-93429293D03*
X66840707Y-88499293D03*
G04 #@! TD*
D16*
G04 #@! TO.C,J6*
X127000000Y-110450000D03*
D17*
X127000000Y-107910000D03*
X127000000Y-105370000D03*
X127000000Y-102830000D03*
X127000000Y-100290000D03*
X127000000Y-97750000D03*
G04 #@! TD*
D13*
G04 #@! TO.C,TP1*
X112749993Y-105250005D03*
G04 #@! TD*
D16*
G04 #@! TO.C,J11*
X152500000Y-123099714D03*
D17*
X152500000Y-120559714D03*
G04 #@! TD*
D10*
G04 #@! TO.C,H6*
X141375000Y-146000000D03*
X142143845Y-144143845D03*
X142143845Y-147856155D03*
X144000000Y-143375000D03*
D11*
X144000000Y-146000000D03*
D10*
X144000000Y-148625000D03*
X145856155Y-144143845D03*
X145856155Y-147856155D03*
X146625000Y-146000000D03*
G04 #@! TD*
D27*
G04 #@! TO.C,Q1*
X113090000Y-121669714D03*
D28*
X110550000Y-138329714D03*
D29*
X113090000Y-138329714D03*
X115630000Y-138329714D03*
G04 #@! TD*
D10*
G04 #@! TO.C,H4*
X125375000Y-89000000D03*
X126143845Y-87143845D03*
X126143845Y-90856155D03*
X128000000Y-86375000D03*
D11*
X128000000Y-89000000D03*
D10*
X128000000Y-91625000D03*
X129856155Y-87143845D03*
X129856155Y-90856155D03*
X130625000Y-89000000D03*
G04 #@! TD*
G04 #@! TO.C,H1*
X51375000Y-89000000D03*
X52143845Y-87143845D03*
X52143845Y-90856155D03*
X54000000Y-86375000D03*
D11*
X54000000Y-89000000D03*
D10*
X54000000Y-91625000D03*
X55856155Y-87143845D03*
X55856155Y-90856155D03*
X56625000Y-89000000D03*
G04 #@! TD*
D30*
G04 #@! TO.C,BZ1*
X75000000Y-137000000D03*
D31*
X82620000Y-137000000D03*
G04 #@! TD*
D12*
G04 #@! TO.C,R4*
X70312500Y-129600000D03*
X68487500Y-129600000D03*
G04 #@! TD*
D32*
G04 #@! TO.C,J2*
X87190000Y-102540000D03*
D33*
X89730000Y-102540000D03*
X92270000Y-102540000D03*
X94810000Y-102540000D03*
D34*
X79350000Y-103100000D03*
X102650000Y-103100000D03*
X79350000Y-126900000D03*
X102650000Y-126900000D03*
G04 #@! TD*
D14*
G04 #@! TO.C,SW2*
X109500000Y-112750000D03*
D15*
X116000000Y-112750000D03*
X109500000Y-117250000D03*
X116000000Y-117250000D03*
G04 #@! TD*
D35*
G04 #@! TO.C,D1*
X144400000Y-119380000D03*
X144400000Y-123680000D03*
G04 #@! TD*
D12*
G04 #@! TO.C,R5*
X70112500Y-113400000D03*
X68287500Y-113400000D03*
G04 #@! TD*
D25*
G04 #@! TO.C,R1*
X123137500Y-136079714D03*
X124962500Y-136079714D03*
G04 #@! TD*
D10*
G04 #@! TO.C,H5*
X141375000Y-89000000D03*
X142143845Y-87143845D03*
X142143845Y-90856155D03*
X144000000Y-86375000D03*
D11*
X144000000Y-89000000D03*
D10*
X144000000Y-91625000D03*
X145856155Y-87143845D03*
X145856155Y-90856155D03*
X146625000Y-89000000D03*
G04 #@! TD*
D12*
G04 #@! TO.C,R9*
X109875000Y-90079714D03*
X108050000Y-90079714D03*
G04 #@! TD*
D36*
G04 #@! TO.C,C1*
X149273000Y-136057214D03*
X149273000Y-137782214D03*
G04 #@! TD*
D37*
G04 #@! TO.C,Q2*
X88235000Y-134300000D03*
X88235000Y-132400000D03*
X86360000Y-133350000D03*
G04 #@! TD*
D38*
G04 #@! TO.C,U1*
X147050000Y-135792214D03*
X146100000Y-135792214D03*
X145150000Y-135792214D03*
X145150000Y-138067214D03*
X147050000Y-138067214D03*
G04 #@! TD*
D39*
G04 #@! TO.C,J5*
X125460000Y-118600000D03*
D20*
X128000000Y-118600000D03*
X125460000Y-121140000D03*
X128000000Y-121140000D03*
X125460000Y-123680000D03*
X128000000Y-123680000D03*
X125460000Y-126220000D03*
X128000000Y-126220000D03*
X125460000Y-128760000D03*
X128000000Y-128760000D03*
G04 #@! TD*
D12*
G04 #@! TO.C,R6*
X71699500Y-90945714D03*
X69874500Y-90945714D03*
G04 #@! TD*
D32*
G04 #@! TO.C,A1*
X88225000Y-141330000D03*
D21*
X90765000Y-141330000D03*
X93305000Y-141330000D03*
X95845000Y-141330000D03*
X98385000Y-141330000D03*
X100925000Y-141330000D03*
X103465000Y-141330000D03*
X106005000Y-141330000D03*
X111085000Y-141330000D03*
X113625000Y-141330000D03*
X116165000Y-141330000D03*
X118705000Y-141330000D03*
X121245000Y-141330000D03*
X123785000Y-141330000D03*
X123785000Y-93070000D03*
X121245000Y-93070000D03*
X118705000Y-93070000D03*
X116165000Y-93070000D03*
X113625000Y-93070000D03*
X111085000Y-93070000D03*
X108545000Y-93070000D03*
X106005000Y-93070000D03*
X101945000Y-93070000D03*
X99405000Y-93070000D03*
X96865000Y-93070000D03*
X94325000Y-93070000D03*
X91785000Y-93070000D03*
X89245000Y-93070000D03*
X86705000Y-93070000D03*
X84165000Y-93070000D03*
X81625000Y-93070000D03*
X79085000Y-93070000D03*
G04 #@! TD*
D40*
X50000000Y-150000000D02*
X158000000Y-150000000D01*
X158000000Y-85000000D02*
X50000000Y-85000000D01*
X50000000Y-85000000D02*
X50000000Y-150000000D01*
X158000000Y-150000000D02*
X158000000Y-85000000D01*
M02*
