G04 #@! TF.GenerationSoftware,KiCad,Pcbnew,8.0.6*
G04 #@! TF.CreationDate,2025-12-26T07:32:45-05:00*
G04 #@! TF.ProjectId,pcb_moonratII,7063625f-6d6f-46f6-9e72-617449492e6b,1.0*
G04 #@! TF.SameCoordinates,Original*
G04 #@! TF.FileFunction,Soldermask,Bot*
G04 #@! TF.FilePolarity,Negative*
%FSLAX46Y46*%
G04 Gerber Fmt 4.6, Leading zero omitted, Abs format (unit mm)*
G04 Created by KiCad (PCBNEW 8.0.6) date 2025-12-26 07:32:45*
%MOMM*%
%LPD*%
G01*
G04 APERTURE LIST*
G04 Aperture macros list*
%AMRoundRect*
0 Rectangle with rounded corners*
0 $1 Rounding radius*
0 $2 $3 $4 $5 $6 $7 $8 $9 X,Y pos of 4 corners*
0 Add a 4 corners polygon primitive as box body*
4,1,4,$2,$3,$4,$5,$6,$7,$8,$9,$2,$3,0*
0 Add four circle primitives for the rounded corners*
1,1,$1+$1,$2,$3*
1,1,$1+$1,$4,$5*
1,1,$1+$1,$6,$7*
1,1,$1+$1,$8,$9*
0 Add four rect primitives between the rounded corners*
20,1,$1+$1,$2,$3,$4,$5,0*
20,1,$1+$1,$4,$5,$6,$7,0*
20,1,$1+$1,$6,$7,$8,$9,0*
20,1,$1+$1,$8,$9,$2,$3,0*%
G04 Aperture macros list end*
%ADD10C,0.800000*%
%ADD11C,7.000000*%
%ADD12C,3.000000*%
%ADD13R,2.200000X2.200000*%
%ADD14C,2.200000*%
%ADD15R,2.100000X2.100000*%
%ADD16C,2.100000*%
%ADD17RoundRect,0.250000X-0.600000X0.600000X-0.600000X-0.600000X0.600000X-0.600000X0.600000X0.600000X0*%
%ADD18C,1.700000*%
%ADD19O,1.600000X1.600000*%
%ADD20C,1.800000*%
%ADD21O,3.500000X3.500000*%
%ADD22R,1.905000X2.000000*%
%ADD23O,1.905000X2.000000*%
%ADD24R,2.000000X2.000000*%
%ADD25C,2.000000*%
%ADD26R,1.600000X1.600000*%
%ADD27C,1.600000*%
%ADD28C,4.500000*%
%ADD29RoundRect,0.250000X-0.600000X-0.600000X0.600000X-0.600000X0.600000X0.600000X-0.600000X0.600000X0*%
G04 #@! TA.AperFunction,Profile*
%ADD30C,0.100000*%
G04 #@! TD*
G04 APERTURE END LIST*
D10*
G04 #@! TO.C,H2*
X51375000Y-146000000D03*
X52143845Y-144143845D03*
X52143845Y-147856155D03*
X54000000Y-143375000D03*
D11*
X54000000Y-146000000D03*
D10*
X54000000Y-148625000D03*
X55856155Y-144143845D03*
X55856155Y-147856155D03*
X56625000Y-146000000D03*
G04 #@! TD*
D12*
G04 #@! TO.C,TP2*
X153000000Y-146000000D03*
G04 #@! TD*
D13*
G04 #@! TO.C,SW1*
X67000000Y-110000000D03*
D14*
X67000000Y-103500000D03*
X71500000Y-110000000D03*
X71500000Y-103500000D03*
G04 #@! TD*
D10*
G04 #@! TO.C,H3*
X125375000Y-146000000D03*
X126143845Y-144143845D03*
X126143845Y-147856155D03*
X128000000Y-143375000D03*
D11*
X128000000Y-146000000D03*
D10*
X128000000Y-148625000D03*
X129856155Y-144143845D03*
X129856155Y-147856155D03*
X130625000Y-146000000D03*
G04 #@! TD*
D15*
G04 #@! TO.C,J9*
X151250000Y-98250000D03*
D16*
X148710000Y-98250000D03*
X146170000Y-98250000D03*
X143630000Y-98250000D03*
X141090000Y-98250000D03*
X138550000Y-98250000D03*
G04 #@! TD*
D17*
G04 #@! TO.C,J10*
X151250000Y-107125000D03*
D18*
X151250000Y-109665000D03*
X148710000Y-107125000D03*
X148710000Y-109665000D03*
X146170000Y-107125000D03*
X146170000Y-109665000D03*
X143630000Y-107125000D03*
X143630000Y-109665000D03*
X141090000Y-107125000D03*
X141090000Y-109665000D03*
G04 #@! TD*
D19*
G04 #@! TO.C,J1*
X51750000Y-102800000D03*
D20*
X56150000Y-102800000D03*
G04 #@! TD*
D13*
G04 #@! TO.C,SW3*
X67000000Y-126500000D03*
D14*
X67000000Y-120000000D03*
X71500000Y-126500000D03*
X71500000Y-120000000D03*
G04 #@! TD*
D15*
G04 #@! TO.C,J6*
X127000000Y-110450000D03*
D16*
X127000000Y-107910000D03*
X127000000Y-105370000D03*
X127000000Y-102830000D03*
X127000000Y-100290000D03*
X127000000Y-97750000D03*
G04 #@! TD*
D12*
G04 #@! TO.C,TP1*
X112749993Y-105250005D03*
G04 #@! TD*
D15*
G04 #@! TO.C,J11*
X152500000Y-123099714D03*
D16*
X152500000Y-120559714D03*
G04 #@! TD*
D10*
G04 #@! TO.C,H6*
X141375000Y-146000000D03*
X142143845Y-144143845D03*
X142143845Y-147856155D03*
X144000000Y-143375000D03*
D11*
X144000000Y-146000000D03*
D10*
X144000000Y-148625000D03*
X145856155Y-144143845D03*
X145856155Y-147856155D03*
X146625000Y-146000000D03*
G04 #@! TD*
D21*
G04 #@! TO.C,Q1*
X113090000Y-121669714D03*
D22*
X110550000Y-138329714D03*
D23*
X113090000Y-138329714D03*
X115630000Y-138329714D03*
G04 #@! TD*
D10*
G04 #@! TO.C,H4*
X125375000Y-89000000D03*
X126143845Y-87143845D03*
X126143845Y-90856155D03*
X128000000Y-86375000D03*
D11*
X128000000Y-89000000D03*
D10*
X128000000Y-91625000D03*
X129856155Y-87143845D03*
X129856155Y-90856155D03*
X130625000Y-89000000D03*
G04 #@! TD*
G04 #@! TO.C,H1*
X51375000Y-89000000D03*
X52143845Y-87143845D03*
X52143845Y-90856155D03*
X54000000Y-86375000D03*
D11*
X54000000Y-89000000D03*
D10*
X54000000Y-91625000D03*
X55856155Y-87143845D03*
X55856155Y-90856155D03*
X56625000Y-89000000D03*
G04 #@! TD*
D24*
G04 #@! TO.C,BZ1*
X75000000Y-137000000D03*
D25*
X82620000Y-137000000D03*
G04 #@! TD*
D26*
G04 #@! TO.C,J2*
X87190000Y-102540000D03*
D27*
X89730000Y-102540000D03*
X92270000Y-102540000D03*
X94810000Y-102540000D03*
D28*
X79350000Y-103100000D03*
X102650000Y-103100000D03*
X79350000Y-126900000D03*
X102650000Y-126900000D03*
G04 #@! TD*
D13*
G04 #@! TO.C,SW2*
X109500000Y-112750000D03*
D14*
X116000000Y-112750000D03*
X109500000Y-117250000D03*
X116000000Y-117250000D03*
G04 #@! TD*
D10*
G04 #@! TO.C,H5*
X141375000Y-89000000D03*
X142143845Y-87143845D03*
X142143845Y-90856155D03*
X144000000Y-86375000D03*
D11*
X144000000Y-89000000D03*
D10*
X144000000Y-91625000D03*
X145856155Y-87143845D03*
X145856155Y-90856155D03*
X146625000Y-89000000D03*
G04 #@! TD*
D29*
G04 #@! TO.C,J5*
X125460000Y-118600000D03*
D18*
X128000000Y-118600000D03*
X125460000Y-121140000D03*
X128000000Y-121140000D03*
X125460000Y-123680000D03*
X128000000Y-123680000D03*
X125460000Y-126220000D03*
X128000000Y-126220000D03*
X125460000Y-128760000D03*
X128000000Y-128760000D03*
G04 #@! TD*
D26*
G04 #@! TO.C,A1*
X88225000Y-141330000D03*
D19*
X90765000Y-141330000D03*
X93305000Y-141330000D03*
X95845000Y-141330000D03*
X98385000Y-141330000D03*
X100925000Y-141330000D03*
X103465000Y-141330000D03*
X106005000Y-141330000D03*
X111085000Y-141330000D03*
X113625000Y-141330000D03*
X116165000Y-141330000D03*
X118705000Y-141330000D03*
X121245000Y-141330000D03*
X123785000Y-141330000D03*
X123785000Y-93070000D03*
X121245000Y-93070000D03*
X118705000Y-93070000D03*
X116165000Y-93070000D03*
X113625000Y-93070000D03*
X111085000Y-93070000D03*
X108545000Y-93070000D03*
X106005000Y-93070000D03*
X101945000Y-93070000D03*
X99405000Y-93070000D03*
X96865000Y-93070000D03*
X94325000Y-93070000D03*
X91785000Y-93070000D03*
X89245000Y-93070000D03*
X86705000Y-93070000D03*
X84165000Y-93070000D03*
X81625000Y-93070000D03*
X79085000Y-93070000D03*
G04 #@! TD*
D30*
X50000000Y-150000000D02*
X158000000Y-150000000D01*
X158000000Y-85000000D02*
X50000000Y-85000000D01*
X50000000Y-85000000D02*
X50000000Y-150000000D01*
X158000000Y-150000000D02*
X158000000Y-85000000D01*
M02*
