G04 #@! TF.GenerationSoftware,KiCad,Pcbnew,8.0.6*
G04 #@! TF.CreationDate,2025-12-26T07:32:45-05:00*
G04 #@! TF.ProjectId,pcb_moonratII,7063625f-6d6f-46f6-9e72-617449492e6b,1.0*
G04 #@! TF.SameCoordinates,Original*
G04 #@! TF.FileFunction,Legend,Bot*
G04 #@! TF.FilePolarity,Positive*
%FSLAX46Y46*%
G04 Gerber Fmt 4.6, Leading zero omitted, Abs format (unit mm)*
G04 Created by KiCad (PCBNEW 8.0.6) date 2025-12-26 07:32:45*
%MOMM*%
%LPD*%
G01*
G04 APERTURE LIST*
G04 Aperture macros list*
%AMRoundRect*
0 Rectangle with rounded corners*
0 $1 Rounding radius*
0 $2 $3 $4 $5 $6 $7 $8 $9 X,Y pos of 4 corners*
0 Add a 4 corners polygon primitive as box body*
4,1,4,$2,$3,$4,$5,$6,$7,$8,$9,$2,$3,0*
0 Add four circle primitives for the rounded corners*
1,1,$1+$1,$2,$3*
1,1,$1+$1,$4,$5*
1,1,$1+$1,$6,$7*
1,1,$1+$1,$8,$9*
0 Add four rect primitives between the rounded corners*
20,1,$1+$1,$2,$3,$4,$5,0*
20,1,$1+$1,$4,$5,$6,$7,0*
20,1,$1+$1,$6,$7,$8,$9,0*
20,1,$1+$1,$8,$9,$2,$3,0*%
G04 Aperture macros list end*
%ADD10C,0.150000*%
%ADD11C,0.120000*%
%ADD12C,0.800000*%
%ADD13C,7.000000*%
%ADD14C,3.000000*%
%ADD15R,2.200000X2.200000*%
%ADD16C,2.200000*%
%ADD17R,2.100000X2.100000*%
%ADD18C,2.100000*%
%ADD19RoundRect,0.250000X-0.600000X0.600000X-0.600000X-0.600000X0.600000X-0.600000X0.600000X0.600000X0*%
%ADD20C,1.700000*%
%ADD21O,1.600000X1.600000*%
%ADD22C,1.800000*%
%ADD23O,3.500000X3.500000*%
%ADD24R,1.905000X2.000000*%
%ADD25O,1.905000X2.000000*%
%ADD26R,2.000000X2.000000*%
%ADD27C,2.000000*%
%ADD28R,1.600000X1.600000*%
%ADD29C,1.600000*%
%ADD30C,4.500000*%
%ADD31RoundRect,0.250000X-0.600000X-0.600000X0.600000X-0.600000X0.600000X0.600000X-0.600000X0.600000X0*%
G04 #@! TA.AperFunction,Profile*
%ADD32C,0.100000*%
G04 #@! TD*
G04 APERTURE END LIST*
D10*
X97314839Y-104662200D02*
X97171982Y-104709819D01*
X97171982Y-104709819D02*
X96933887Y-104709819D01*
X96933887Y-104709819D02*
X96838649Y-104662200D01*
X96838649Y-104662200D02*
X96791030Y-104614580D01*
X96791030Y-104614580D02*
X96743411Y-104519342D01*
X96743411Y-104519342D02*
X96743411Y-104424104D01*
X96743411Y-104424104D02*
X96791030Y-104328866D01*
X96791030Y-104328866D02*
X96838649Y-104281247D01*
X96838649Y-104281247D02*
X96933887Y-104233628D01*
X96933887Y-104233628D02*
X97124363Y-104186009D01*
X97124363Y-104186009D02*
X97219601Y-104138390D01*
X97219601Y-104138390D02*
X97267220Y-104090771D01*
X97267220Y-104090771D02*
X97314839Y-103995533D01*
X97314839Y-103995533D02*
X97314839Y-103900295D01*
X97314839Y-103900295D02*
X97267220Y-103805057D01*
X97267220Y-103805057D02*
X97219601Y-103757438D01*
X97219601Y-103757438D02*
X97124363Y-103709819D01*
X97124363Y-103709819D02*
X96886268Y-103709819D01*
X96886268Y-103709819D02*
X96743411Y-103757438D01*
X96314839Y-104709819D02*
X96314839Y-103709819D01*
X96314839Y-103709819D02*
X96076744Y-103709819D01*
X96076744Y-103709819D02*
X95933887Y-103757438D01*
X95933887Y-103757438D02*
X95838649Y-103852676D01*
X95838649Y-103852676D02*
X95791030Y-103947914D01*
X95791030Y-103947914D02*
X95743411Y-104138390D01*
X95743411Y-104138390D02*
X95743411Y-104281247D01*
X95743411Y-104281247D02*
X95791030Y-104471723D01*
X95791030Y-104471723D02*
X95838649Y-104566961D01*
X95838649Y-104566961D02*
X95933887Y-104662200D01*
X95933887Y-104662200D02*
X96076744Y-104709819D01*
X96076744Y-104709819D02*
X96314839Y-104709819D01*
X95362458Y-104424104D02*
X94886268Y-104424104D01*
X95457696Y-104709819D02*
X95124363Y-103709819D01*
X95124363Y-103709819D02*
X94791030Y-104709819D01*
X93743410Y-104662200D02*
X93600553Y-104709819D01*
X93600553Y-104709819D02*
X93362458Y-104709819D01*
X93362458Y-104709819D02*
X93267220Y-104662200D01*
X93267220Y-104662200D02*
X93219601Y-104614580D01*
X93219601Y-104614580D02*
X93171982Y-104519342D01*
X93171982Y-104519342D02*
X93171982Y-104424104D01*
X93171982Y-104424104D02*
X93219601Y-104328866D01*
X93219601Y-104328866D02*
X93267220Y-104281247D01*
X93267220Y-104281247D02*
X93362458Y-104233628D01*
X93362458Y-104233628D02*
X93552934Y-104186009D01*
X93552934Y-104186009D02*
X93648172Y-104138390D01*
X93648172Y-104138390D02*
X93695791Y-104090771D01*
X93695791Y-104090771D02*
X93743410Y-103995533D01*
X93743410Y-103995533D02*
X93743410Y-103900295D01*
X93743410Y-103900295D02*
X93695791Y-103805057D01*
X93695791Y-103805057D02*
X93648172Y-103757438D01*
X93648172Y-103757438D02*
X93552934Y-103709819D01*
X93552934Y-103709819D02*
X93314839Y-103709819D01*
X93314839Y-103709819D02*
X93171982Y-103757438D01*
X92171982Y-104614580D02*
X92219601Y-104662200D01*
X92219601Y-104662200D02*
X92362458Y-104709819D01*
X92362458Y-104709819D02*
X92457696Y-104709819D01*
X92457696Y-104709819D02*
X92600553Y-104662200D01*
X92600553Y-104662200D02*
X92695791Y-104566961D01*
X92695791Y-104566961D02*
X92743410Y-104471723D01*
X92743410Y-104471723D02*
X92791029Y-104281247D01*
X92791029Y-104281247D02*
X92791029Y-104138390D01*
X92791029Y-104138390D02*
X92743410Y-103947914D01*
X92743410Y-103947914D02*
X92695791Y-103852676D01*
X92695791Y-103852676D02*
X92600553Y-103757438D01*
X92600553Y-103757438D02*
X92457696Y-103709819D01*
X92457696Y-103709819D02*
X92362458Y-103709819D01*
X92362458Y-103709819D02*
X92219601Y-103757438D01*
X92219601Y-103757438D02*
X92171982Y-103805057D01*
X91267220Y-104709819D02*
X91743410Y-104709819D01*
X91743410Y-104709819D02*
X91743410Y-103709819D01*
X90314838Y-103709819D02*
X89981505Y-104709819D01*
X89981505Y-104709819D02*
X89648172Y-103709819D01*
X88886267Y-104662200D02*
X88981505Y-104709819D01*
X88981505Y-104709819D02*
X89171981Y-104709819D01*
X89171981Y-104709819D02*
X89267219Y-104662200D01*
X89267219Y-104662200D02*
X89314838Y-104614580D01*
X89314838Y-104614580D02*
X89362457Y-104519342D01*
X89362457Y-104519342D02*
X89362457Y-104233628D01*
X89362457Y-104233628D02*
X89314838Y-104138390D01*
X89314838Y-104138390D02*
X89267219Y-104090771D01*
X89267219Y-104090771D02*
X89171981Y-104043152D01*
X89171981Y-104043152D02*
X88981505Y-104043152D01*
X88981505Y-104043152D02*
X88886267Y-104090771D01*
X88029124Y-104662200D02*
X88124362Y-104709819D01*
X88124362Y-104709819D02*
X88314838Y-104709819D01*
X88314838Y-104709819D02*
X88410076Y-104662200D01*
X88410076Y-104662200D02*
X88457695Y-104614580D01*
X88457695Y-104614580D02*
X88505314Y-104519342D01*
X88505314Y-104519342D02*
X88505314Y-104233628D01*
X88505314Y-104233628D02*
X88457695Y-104138390D01*
X88457695Y-104138390D02*
X88410076Y-104090771D01*
X88410076Y-104090771D02*
X88314838Y-104043152D01*
X88314838Y-104043152D02*
X88124362Y-104043152D01*
X88124362Y-104043152D02*
X88029124Y-104090771D01*
X86314838Y-103757438D02*
X86410076Y-103709819D01*
X86410076Y-103709819D02*
X86552933Y-103709819D01*
X86552933Y-103709819D02*
X86695790Y-103757438D01*
X86695790Y-103757438D02*
X86791028Y-103852676D01*
X86791028Y-103852676D02*
X86838647Y-103947914D01*
X86838647Y-103947914D02*
X86886266Y-104138390D01*
X86886266Y-104138390D02*
X86886266Y-104281247D01*
X86886266Y-104281247D02*
X86838647Y-104471723D01*
X86838647Y-104471723D02*
X86791028Y-104566961D01*
X86791028Y-104566961D02*
X86695790Y-104662200D01*
X86695790Y-104662200D02*
X86552933Y-104709819D01*
X86552933Y-104709819D02*
X86457695Y-104709819D01*
X86457695Y-104709819D02*
X86314838Y-104662200D01*
X86314838Y-104662200D02*
X86267219Y-104614580D01*
X86267219Y-104614580D02*
X86267219Y-104281247D01*
X86267219Y-104281247D02*
X86457695Y-104281247D01*
X85838647Y-104709819D02*
X85838647Y-103709819D01*
X85838647Y-103709819D02*
X85267219Y-104709819D01*
X85267219Y-104709819D02*
X85267219Y-103709819D01*
X84791028Y-104709819D02*
X84791028Y-103709819D01*
X84791028Y-103709819D02*
X84552933Y-103709819D01*
X84552933Y-103709819D02*
X84410076Y-103757438D01*
X84410076Y-103757438D02*
X84314838Y-103852676D01*
X84314838Y-103852676D02*
X84267219Y-103947914D01*
X84267219Y-103947914D02*
X84219600Y-104138390D01*
X84219600Y-104138390D02*
X84219600Y-104281247D01*
X84219600Y-104281247D02*
X84267219Y-104471723D01*
X84267219Y-104471723D02*
X84314838Y-104566961D01*
X84314838Y-104566961D02*
X84410076Y-104662200D01*
X84410076Y-104662200D02*
X84552933Y-104709819D01*
X84552933Y-104709819D02*
X84791028Y-104709819D01*
X90209285Y-136419104D02*
X89733095Y-136419104D01*
X90304523Y-136704819D02*
X89971190Y-135704819D01*
X89971190Y-135704819D02*
X89637857Y-136704819D01*
X88780714Y-136704819D02*
X89352142Y-136704819D01*
X89066428Y-136704819D02*
X89066428Y-135704819D01*
X89066428Y-135704819D02*
X89161666Y-135847676D01*
X89161666Y-135847676D02*
X89256904Y-135942914D01*
X89256904Y-135942914D02*
X89352142Y-135990533D01*
X105459819Y-94641667D02*
X105459819Y-95308333D01*
X105459819Y-95308333D02*
X106459819Y-94879762D01*
X83949104Y-94625952D02*
X83949104Y-95102142D01*
X84234819Y-94530714D02*
X83234819Y-94864047D01*
X83234819Y-94864047D02*
X84234819Y-95197380D01*
X84234819Y-96102142D02*
X83758628Y-95768809D01*
X84234819Y-95530714D02*
X83234819Y-95530714D01*
X83234819Y-95530714D02*
X83234819Y-95911666D01*
X83234819Y-95911666D02*
X83282438Y-96006904D01*
X83282438Y-96006904D02*
X83330057Y-96054523D01*
X83330057Y-96054523D02*
X83425295Y-96102142D01*
X83425295Y-96102142D02*
X83568152Y-96102142D01*
X83568152Y-96102142D02*
X83663390Y-96054523D01*
X83663390Y-96054523D02*
X83711009Y-96006904D01*
X83711009Y-96006904D02*
X83758628Y-95911666D01*
X83758628Y-95911666D02*
X83758628Y-95530714D01*
X83711009Y-96530714D02*
X83711009Y-96864047D01*
X84234819Y-97006904D02*
X84234819Y-96530714D01*
X84234819Y-96530714D02*
X83234819Y-96530714D01*
X83234819Y-96530714D02*
X83234819Y-97006904D01*
X83711009Y-97768809D02*
X83711009Y-97435476D01*
X84234819Y-97435476D02*
X83234819Y-97435476D01*
X83234819Y-97435476D02*
X83234819Y-97911666D01*
X113413152Y-95165476D02*
X114079819Y-95165476D01*
X113032200Y-94927381D02*
X113746485Y-94689286D01*
X113746485Y-94689286D02*
X113746485Y-95308333D01*
X113794104Y-138075714D02*
X113794104Y-138551904D01*
X114079819Y-137980476D02*
X113079819Y-138313809D01*
X113079819Y-138313809D02*
X114079819Y-138647142D01*
X114079819Y-139504285D02*
X114079819Y-138932857D01*
X114079819Y-139218571D02*
X113079819Y-139218571D01*
X113079819Y-139218571D02*
X113222676Y-139123333D01*
X113222676Y-139123333D02*
X113317914Y-139028095D01*
X113317914Y-139028095D02*
X113365533Y-138932857D01*
X111158866Y-94236905D02*
X111111247Y-94284524D01*
X111111247Y-94284524D02*
X111063628Y-94379762D01*
X111063628Y-94379762D02*
X111158866Y-94570238D01*
X111158866Y-94570238D02*
X111111247Y-94665476D01*
X111111247Y-94665476D02*
X111063628Y-94713095D01*
X110539819Y-95570238D02*
X110539819Y-95094048D01*
X110539819Y-95094048D02*
X111016009Y-95046429D01*
X111016009Y-95046429D02*
X110968390Y-95094048D01*
X110968390Y-95094048D02*
X110920771Y-95189286D01*
X110920771Y-95189286D02*
X110920771Y-95427381D01*
X110920771Y-95427381D02*
X110968390Y-95522619D01*
X110968390Y-95522619D02*
X111016009Y-95570238D01*
X111016009Y-95570238D02*
X111111247Y-95617857D01*
X111111247Y-95617857D02*
X111349342Y-95617857D01*
X111349342Y-95617857D02*
X111444580Y-95570238D01*
X111444580Y-95570238D02*
X111492200Y-95522619D01*
X111492200Y-95522619D02*
X111539819Y-95427381D01*
X111539819Y-95427381D02*
X111539819Y-95189286D01*
X111539819Y-95189286D02*
X111492200Y-95094048D01*
X111492200Y-95094048D02*
X111444580Y-95046429D01*
X111254104Y-138075714D02*
X111254104Y-138551904D01*
X111539819Y-137980476D02*
X110539819Y-138313809D01*
X110539819Y-138313809D02*
X111539819Y-138647142D01*
X110539819Y-139170952D02*
X110539819Y-139266190D01*
X110539819Y-139266190D02*
X110587438Y-139361428D01*
X110587438Y-139361428D02*
X110635057Y-139409047D01*
X110635057Y-139409047D02*
X110730295Y-139456666D01*
X110730295Y-139456666D02*
X110920771Y-139504285D01*
X110920771Y-139504285D02*
X111158866Y-139504285D01*
X111158866Y-139504285D02*
X111349342Y-139456666D01*
X111349342Y-139456666D02*
X111444580Y-139409047D01*
X111444580Y-139409047D02*
X111492200Y-139361428D01*
X111492200Y-139361428D02*
X111539819Y-139266190D01*
X111539819Y-139266190D02*
X111539819Y-139170952D01*
X111539819Y-139170952D02*
X111492200Y-139075714D01*
X111492200Y-139075714D02*
X111444580Y-139028095D01*
X111444580Y-139028095D02*
X111349342Y-138980476D01*
X111349342Y-138980476D02*
X111158866Y-138932857D01*
X111158866Y-138932857D02*
X110920771Y-138932857D01*
X110920771Y-138932857D02*
X110730295Y-138980476D01*
X110730295Y-138980476D02*
X110635057Y-139028095D01*
X110635057Y-139028095D02*
X110587438Y-139075714D01*
X110587438Y-139075714D02*
X110539819Y-139170952D01*
X94013866Y-94395714D02*
X93966247Y-94443333D01*
X93966247Y-94443333D02*
X93918628Y-94538571D01*
X93918628Y-94538571D02*
X94013866Y-94729047D01*
X94013866Y-94729047D02*
X93966247Y-94824285D01*
X93966247Y-94824285D02*
X93918628Y-94871904D01*
X94394819Y-95776666D02*
X94394819Y-95205238D01*
X94394819Y-95490952D02*
X93394819Y-95490952D01*
X93394819Y-95490952D02*
X93537676Y-95395714D01*
X93537676Y-95395714D02*
X93632914Y-95300476D01*
X93632914Y-95300476D02*
X93680533Y-95205238D01*
X94394819Y-96729047D02*
X94394819Y-96157619D01*
X94394819Y-96443333D02*
X93394819Y-96443333D01*
X93394819Y-96443333D02*
X93537676Y-96348095D01*
X93537676Y-96348095D02*
X93632914Y-96252857D01*
X93632914Y-96252857D02*
X93680533Y-96157619D01*
X93759819Y-138170952D02*
X93283628Y-137837619D01*
X93759819Y-137599524D02*
X92759819Y-137599524D01*
X92759819Y-137599524D02*
X92759819Y-137980476D01*
X92759819Y-137980476D02*
X92807438Y-138075714D01*
X92807438Y-138075714D02*
X92855057Y-138123333D01*
X92855057Y-138123333D02*
X92950295Y-138170952D01*
X92950295Y-138170952D02*
X93093152Y-138170952D01*
X93093152Y-138170952D02*
X93188390Y-138123333D01*
X93188390Y-138123333D02*
X93236009Y-138075714D01*
X93236009Y-138075714D02*
X93283628Y-137980476D01*
X93283628Y-137980476D02*
X93283628Y-137599524D01*
X93236009Y-138599524D02*
X93236009Y-138932857D01*
X93759819Y-139075714D02*
X93759819Y-138599524D01*
X93759819Y-138599524D02*
X92759819Y-138599524D01*
X92759819Y-138599524D02*
X92759819Y-139075714D01*
X93712200Y-139456667D02*
X93759819Y-139599524D01*
X93759819Y-139599524D02*
X93759819Y-139837619D01*
X93759819Y-139837619D02*
X93712200Y-139932857D01*
X93712200Y-139932857D02*
X93664580Y-139980476D01*
X93664580Y-139980476D02*
X93569342Y-140028095D01*
X93569342Y-140028095D02*
X93474104Y-140028095D01*
X93474104Y-140028095D02*
X93378866Y-139980476D01*
X93378866Y-139980476D02*
X93331247Y-139932857D01*
X93331247Y-139932857D02*
X93283628Y-139837619D01*
X93283628Y-139837619D02*
X93236009Y-139647143D01*
X93236009Y-139647143D02*
X93188390Y-139551905D01*
X93188390Y-139551905D02*
X93140771Y-139504286D01*
X93140771Y-139504286D02*
X93045533Y-139456667D01*
X93045533Y-139456667D02*
X92950295Y-139456667D01*
X92950295Y-139456667D02*
X92855057Y-139504286D01*
X92855057Y-139504286D02*
X92807438Y-139551905D01*
X92807438Y-139551905D02*
X92759819Y-139647143D01*
X92759819Y-139647143D02*
X92759819Y-139885238D01*
X92759819Y-139885238D02*
X92807438Y-140028095D01*
X116238866Y-94236905D02*
X116191247Y-94284524D01*
X116191247Y-94284524D02*
X116143628Y-94379762D01*
X116143628Y-94379762D02*
X116238866Y-94570238D01*
X116238866Y-94570238D02*
X116191247Y-94665476D01*
X116191247Y-94665476D02*
X116143628Y-94713095D01*
X115619819Y-94998810D02*
X115619819Y-95617857D01*
X115619819Y-95617857D02*
X116000771Y-95284524D01*
X116000771Y-95284524D02*
X116000771Y-95427381D01*
X116000771Y-95427381D02*
X116048390Y-95522619D01*
X116048390Y-95522619D02*
X116096009Y-95570238D01*
X116096009Y-95570238D02*
X116191247Y-95617857D01*
X116191247Y-95617857D02*
X116429342Y-95617857D01*
X116429342Y-95617857D02*
X116524580Y-95570238D01*
X116524580Y-95570238D02*
X116572200Y-95522619D01*
X116572200Y-95522619D02*
X116619819Y-95427381D01*
X116619819Y-95427381D02*
X116619819Y-95141667D01*
X116619819Y-95141667D02*
X116572200Y-95046429D01*
X116572200Y-95046429D02*
X116524580Y-94998810D01*
X82084404Y-94415988D02*
X82132023Y-94558845D01*
X82132023Y-94558845D02*
X82132023Y-94796940D01*
X82132023Y-94796940D02*
X82084404Y-94892178D01*
X82084404Y-94892178D02*
X82036784Y-94939797D01*
X82036784Y-94939797D02*
X81941546Y-94987416D01*
X81941546Y-94987416D02*
X81846308Y-94987416D01*
X81846308Y-94987416D02*
X81751070Y-94939797D01*
X81751070Y-94939797D02*
X81703451Y-94892178D01*
X81703451Y-94892178D02*
X81655832Y-94796940D01*
X81655832Y-94796940D02*
X81608213Y-94606464D01*
X81608213Y-94606464D02*
X81560594Y-94511226D01*
X81560594Y-94511226D02*
X81512975Y-94463607D01*
X81512975Y-94463607D02*
X81417737Y-94415988D01*
X81417737Y-94415988D02*
X81322499Y-94415988D01*
X81322499Y-94415988D02*
X81227261Y-94463607D01*
X81227261Y-94463607D02*
X81179642Y-94511226D01*
X81179642Y-94511226D02*
X81132023Y-94606464D01*
X81132023Y-94606464D02*
X81132023Y-94844559D01*
X81132023Y-94844559D02*
X81179642Y-94987416D01*
X82132023Y-95415988D02*
X81132023Y-95415988D01*
X81132023Y-95415988D02*
X81132023Y-95654083D01*
X81132023Y-95654083D02*
X81179642Y-95796940D01*
X81179642Y-95796940D02*
X81274880Y-95892178D01*
X81274880Y-95892178D02*
X81370118Y-95939797D01*
X81370118Y-95939797D02*
X81560594Y-95987416D01*
X81560594Y-95987416D02*
X81703451Y-95987416D01*
X81703451Y-95987416D02*
X81893927Y-95939797D01*
X81893927Y-95939797D02*
X81989165Y-95892178D01*
X81989165Y-95892178D02*
X82084404Y-95796940D01*
X82084404Y-95796940D02*
X82132023Y-95654083D01*
X82132023Y-95654083D02*
X82132023Y-95415988D01*
X81846308Y-96368369D02*
X81846308Y-96844559D01*
X82132023Y-96273131D02*
X81132023Y-96606464D01*
X81132023Y-96606464D02*
X82132023Y-96939797D01*
X79742200Y-94419524D02*
X79789819Y-94562381D01*
X79789819Y-94562381D02*
X79789819Y-94800476D01*
X79789819Y-94800476D02*
X79742200Y-94895714D01*
X79742200Y-94895714D02*
X79694580Y-94943333D01*
X79694580Y-94943333D02*
X79599342Y-94990952D01*
X79599342Y-94990952D02*
X79504104Y-94990952D01*
X79504104Y-94990952D02*
X79408866Y-94943333D01*
X79408866Y-94943333D02*
X79361247Y-94895714D01*
X79361247Y-94895714D02*
X79313628Y-94800476D01*
X79313628Y-94800476D02*
X79266009Y-94610000D01*
X79266009Y-94610000D02*
X79218390Y-94514762D01*
X79218390Y-94514762D02*
X79170771Y-94467143D01*
X79170771Y-94467143D02*
X79075533Y-94419524D01*
X79075533Y-94419524D02*
X78980295Y-94419524D01*
X78980295Y-94419524D02*
X78885057Y-94467143D01*
X78885057Y-94467143D02*
X78837438Y-94514762D01*
X78837438Y-94514762D02*
X78789819Y-94610000D01*
X78789819Y-94610000D02*
X78789819Y-94848095D01*
X78789819Y-94848095D02*
X78837438Y-94990952D01*
X79694580Y-95990952D02*
X79742200Y-95943333D01*
X79742200Y-95943333D02*
X79789819Y-95800476D01*
X79789819Y-95800476D02*
X79789819Y-95705238D01*
X79789819Y-95705238D02*
X79742200Y-95562381D01*
X79742200Y-95562381D02*
X79646961Y-95467143D01*
X79646961Y-95467143D02*
X79551723Y-95419524D01*
X79551723Y-95419524D02*
X79361247Y-95371905D01*
X79361247Y-95371905D02*
X79218390Y-95371905D01*
X79218390Y-95371905D02*
X79027914Y-95419524D01*
X79027914Y-95419524D02*
X78932676Y-95467143D01*
X78932676Y-95467143D02*
X78837438Y-95562381D01*
X78837438Y-95562381D02*
X78789819Y-95705238D01*
X78789819Y-95705238D02*
X78789819Y-95800476D01*
X78789819Y-95800476D02*
X78837438Y-95943333D01*
X78837438Y-95943333D02*
X78885057Y-95990952D01*
X79789819Y-96895714D02*
X79789819Y-96419524D01*
X79789819Y-96419524D02*
X78789819Y-96419524D01*
X101443390Y-94879762D02*
X101395771Y-94784524D01*
X101395771Y-94784524D02*
X101348152Y-94736905D01*
X101348152Y-94736905D02*
X101252914Y-94689286D01*
X101252914Y-94689286D02*
X101205295Y-94689286D01*
X101205295Y-94689286D02*
X101110057Y-94736905D01*
X101110057Y-94736905D02*
X101062438Y-94784524D01*
X101062438Y-94784524D02*
X101014819Y-94879762D01*
X101014819Y-94879762D02*
X101014819Y-95070238D01*
X101014819Y-95070238D02*
X101062438Y-95165476D01*
X101062438Y-95165476D02*
X101110057Y-95213095D01*
X101110057Y-95213095D02*
X101205295Y-95260714D01*
X101205295Y-95260714D02*
X101252914Y-95260714D01*
X101252914Y-95260714D02*
X101348152Y-95213095D01*
X101348152Y-95213095D02*
X101395771Y-95165476D01*
X101395771Y-95165476D02*
X101443390Y-95070238D01*
X101443390Y-95070238D02*
X101443390Y-94879762D01*
X101443390Y-94879762D02*
X101491009Y-94784524D01*
X101491009Y-94784524D02*
X101538628Y-94736905D01*
X101538628Y-94736905D02*
X101633866Y-94689286D01*
X101633866Y-94689286D02*
X101824342Y-94689286D01*
X101824342Y-94689286D02*
X101919580Y-94736905D01*
X101919580Y-94736905D02*
X101967200Y-94784524D01*
X101967200Y-94784524D02*
X102014819Y-94879762D01*
X102014819Y-94879762D02*
X102014819Y-95070238D01*
X102014819Y-95070238D02*
X101967200Y-95165476D01*
X101967200Y-95165476D02*
X101919580Y-95213095D01*
X101919580Y-95213095D02*
X101824342Y-95260714D01*
X101824342Y-95260714D02*
X101633866Y-95260714D01*
X101633866Y-95260714D02*
X101538628Y-95213095D01*
X101538628Y-95213095D02*
X101491009Y-95165476D01*
X101491009Y-95165476D02*
X101443390Y-95070238D01*
X105459819Y-137694762D02*
X106459819Y-138028095D01*
X106459819Y-138028095D02*
X105459819Y-138361428D01*
X106459819Y-138694762D02*
X105459819Y-138694762D01*
X106459819Y-139170952D02*
X105459819Y-139170952D01*
X105459819Y-139170952D02*
X106459819Y-139742380D01*
X106459819Y-139742380D02*
X105459819Y-139742380D01*
X95299819Y-137313810D02*
X95299819Y-137932857D01*
X95299819Y-137932857D02*
X95680771Y-137599524D01*
X95680771Y-137599524D02*
X95680771Y-137742381D01*
X95680771Y-137742381D02*
X95728390Y-137837619D01*
X95728390Y-137837619D02*
X95776009Y-137885238D01*
X95776009Y-137885238D02*
X95871247Y-137932857D01*
X95871247Y-137932857D02*
X96109342Y-137932857D01*
X96109342Y-137932857D02*
X96204580Y-137885238D01*
X96204580Y-137885238D02*
X96252200Y-137837619D01*
X96252200Y-137837619D02*
X96299819Y-137742381D01*
X96299819Y-137742381D02*
X96299819Y-137456667D01*
X96299819Y-137456667D02*
X96252200Y-137361429D01*
X96252200Y-137361429D02*
X96204580Y-137313810D01*
X96204580Y-138361429D02*
X96252200Y-138409048D01*
X96252200Y-138409048D02*
X96299819Y-138361429D01*
X96299819Y-138361429D02*
X96252200Y-138313810D01*
X96252200Y-138313810D02*
X96204580Y-138361429D01*
X96204580Y-138361429D02*
X96299819Y-138361429D01*
X95299819Y-138742381D02*
X95299819Y-139361428D01*
X95299819Y-139361428D02*
X95680771Y-139028095D01*
X95680771Y-139028095D02*
X95680771Y-139170952D01*
X95680771Y-139170952D02*
X95728390Y-139266190D01*
X95728390Y-139266190D02*
X95776009Y-139313809D01*
X95776009Y-139313809D02*
X95871247Y-139361428D01*
X95871247Y-139361428D02*
X96109342Y-139361428D01*
X96109342Y-139361428D02*
X96204580Y-139313809D01*
X96204580Y-139313809D02*
X96252200Y-139266190D01*
X96252200Y-139266190D02*
X96299819Y-139170952D01*
X96299819Y-139170952D02*
X96299819Y-138885238D01*
X96299819Y-138885238D02*
X96252200Y-138790000D01*
X96252200Y-138790000D02*
X96204580Y-138742381D01*
X95299819Y-139647143D02*
X96299819Y-139980476D01*
X96299819Y-139980476D02*
X95299819Y-140313809D01*
X96553866Y-94395714D02*
X96506247Y-94443333D01*
X96506247Y-94443333D02*
X96458628Y-94538571D01*
X96458628Y-94538571D02*
X96553866Y-94729047D01*
X96553866Y-94729047D02*
X96506247Y-94824285D01*
X96506247Y-94824285D02*
X96458628Y-94871904D01*
X96934819Y-95776666D02*
X96934819Y-95205238D01*
X96934819Y-95490952D02*
X95934819Y-95490952D01*
X95934819Y-95490952D02*
X96077676Y-95395714D01*
X96077676Y-95395714D02*
X96172914Y-95300476D01*
X96172914Y-95300476D02*
X96220533Y-95205238D01*
X95934819Y-96395714D02*
X95934819Y-96490952D01*
X95934819Y-96490952D02*
X95982438Y-96586190D01*
X95982438Y-96586190D02*
X96030057Y-96633809D01*
X96030057Y-96633809D02*
X96125295Y-96681428D01*
X96125295Y-96681428D02*
X96315771Y-96729047D01*
X96315771Y-96729047D02*
X96553866Y-96729047D01*
X96553866Y-96729047D02*
X96744342Y-96681428D01*
X96744342Y-96681428D02*
X96839580Y-96633809D01*
X96839580Y-96633809D02*
X96887200Y-96586190D01*
X96887200Y-96586190D02*
X96934819Y-96490952D01*
X96934819Y-96490952D02*
X96934819Y-96395714D01*
X96934819Y-96395714D02*
X96887200Y-96300476D01*
X96887200Y-96300476D02*
X96839580Y-96252857D01*
X96839580Y-96252857D02*
X96744342Y-96205238D01*
X96744342Y-96205238D02*
X96553866Y-96157619D01*
X96553866Y-96157619D02*
X96315771Y-96157619D01*
X96315771Y-96157619D02*
X96125295Y-96205238D01*
X96125295Y-96205238D02*
X96030057Y-96252857D01*
X96030057Y-96252857D02*
X95982438Y-96300476D01*
X95982438Y-96300476D02*
X95934819Y-96395714D01*
X123239819Y-94618095D02*
X123239819Y-94713333D01*
X123239819Y-94713333D02*
X123287438Y-94808571D01*
X123287438Y-94808571D02*
X123335057Y-94856190D01*
X123335057Y-94856190D02*
X123430295Y-94903809D01*
X123430295Y-94903809D02*
X123620771Y-94951428D01*
X123620771Y-94951428D02*
X123858866Y-94951428D01*
X123858866Y-94951428D02*
X124049342Y-94903809D01*
X124049342Y-94903809D02*
X124144580Y-94856190D01*
X124144580Y-94856190D02*
X124192200Y-94808571D01*
X124192200Y-94808571D02*
X124239819Y-94713333D01*
X124239819Y-94713333D02*
X124239819Y-94618095D01*
X124239819Y-94618095D02*
X124192200Y-94522857D01*
X124192200Y-94522857D02*
X124144580Y-94475238D01*
X124144580Y-94475238D02*
X124049342Y-94427619D01*
X124049342Y-94427619D02*
X123858866Y-94380000D01*
X123858866Y-94380000D02*
X123620771Y-94380000D01*
X123620771Y-94380000D02*
X123430295Y-94427619D01*
X123430295Y-94427619D02*
X123335057Y-94475238D01*
X123335057Y-94475238D02*
X123287438Y-94522857D01*
X123287438Y-94522857D02*
X123239819Y-94618095D01*
X123858866Y-95380000D02*
X123858866Y-96141905D01*
X123573152Y-96618095D02*
X123858866Y-97380000D01*
X123858866Y-97380000D02*
X124144580Y-96618095D01*
X124239819Y-98427618D02*
X123763628Y-98094285D01*
X124239819Y-97856190D02*
X123239819Y-97856190D01*
X123239819Y-97856190D02*
X123239819Y-98237142D01*
X123239819Y-98237142D02*
X123287438Y-98332380D01*
X123287438Y-98332380D02*
X123335057Y-98379999D01*
X123335057Y-98379999D02*
X123430295Y-98427618D01*
X123430295Y-98427618D02*
X123573152Y-98427618D01*
X123573152Y-98427618D02*
X123668390Y-98379999D01*
X123668390Y-98379999D02*
X123716009Y-98332380D01*
X123716009Y-98332380D02*
X123763628Y-98237142D01*
X123763628Y-98237142D02*
X123763628Y-97856190D01*
X123239819Y-98760952D02*
X124239819Y-99427618D01*
X123239819Y-99427618D02*
X124239819Y-98760952D01*
X123954104Y-138075714D02*
X123954104Y-138551904D01*
X124239819Y-137980476D02*
X123239819Y-138313809D01*
X123239819Y-138313809D02*
X124239819Y-138647142D01*
X123239819Y-139456666D02*
X123239819Y-138980476D01*
X123239819Y-138980476D02*
X123716009Y-138932857D01*
X123716009Y-138932857D02*
X123668390Y-138980476D01*
X123668390Y-138980476D02*
X123620771Y-139075714D01*
X123620771Y-139075714D02*
X123620771Y-139313809D01*
X123620771Y-139313809D02*
X123668390Y-139409047D01*
X123668390Y-139409047D02*
X123716009Y-139456666D01*
X123716009Y-139456666D02*
X123811247Y-139504285D01*
X123811247Y-139504285D02*
X124049342Y-139504285D01*
X124049342Y-139504285D02*
X124144580Y-139456666D01*
X124144580Y-139456666D02*
X124192200Y-139409047D01*
X124192200Y-139409047D02*
X124239819Y-139313809D01*
X124239819Y-139313809D02*
X124239819Y-139075714D01*
X124239819Y-139075714D02*
X124192200Y-138980476D01*
X124192200Y-138980476D02*
X124144580Y-138932857D01*
X121414104Y-138075714D02*
X121414104Y-138551904D01*
X121699819Y-137980476D02*
X120699819Y-138313809D01*
X120699819Y-138313809D02*
X121699819Y-138647142D01*
X121033152Y-139409047D02*
X121699819Y-139409047D01*
X120652200Y-139170952D02*
X121366485Y-138932857D01*
X121366485Y-138932857D02*
X121366485Y-139551904D01*
X89314819Y-95419523D02*
X89314819Y-94848095D01*
X89314819Y-95133809D02*
X88314819Y-95133809D01*
X88314819Y-95133809D02*
X88457676Y-95038571D01*
X88457676Y-95038571D02*
X88552914Y-94943333D01*
X88552914Y-94943333D02*
X88600533Y-94848095D01*
X88314819Y-95752857D02*
X88314819Y-96371904D01*
X88314819Y-96371904D02*
X88695771Y-96038571D01*
X88695771Y-96038571D02*
X88695771Y-96181428D01*
X88695771Y-96181428D02*
X88743390Y-96276666D01*
X88743390Y-96276666D02*
X88791009Y-96324285D01*
X88791009Y-96324285D02*
X88886247Y-96371904D01*
X88886247Y-96371904D02*
X89124342Y-96371904D01*
X89124342Y-96371904D02*
X89219580Y-96324285D01*
X89219580Y-96324285D02*
X89267200Y-96276666D01*
X89267200Y-96276666D02*
X89314819Y-96181428D01*
X89314819Y-96181428D02*
X89314819Y-95895714D01*
X89314819Y-95895714D02*
X89267200Y-95800476D01*
X89267200Y-95800476D02*
X89219580Y-95752857D01*
X100427438Y-138028095D02*
X100379819Y-137932857D01*
X100379819Y-137932857D02*
X100379819Y-137790000D01*
X100379819Y-137790000D02*
X100427438Y-137647143D01*
X100427438Y-137647143D02*
X100522676Y-137551905D01*
X100522676Y-137551905D02*
X100617914Y-137504286D01*
X100617914Y-137504286D02*
X100808390Y-137456667D01*
X100808390Y-137456667D02*
X100951247Y-137456667D01*
X100951247Y-137456667D02*
X101141723Y-137504286D01*
X101141723Y-137504286D02*
X101236961Y-137551905D01*
X101236961Y-137551905D02*
X101332200Y-137647143D01*
X101332200Y-137647143D02*
X101379819Y-137790000D01*
X101379819Y-137790000D02*
X101379819Y-137885238D01*
X101379819Y-137885238D02*
X101332200Y-138028095D01*
X101332200Y-138028095D02*
X101284580Y-138075714D01*
X101284580Y-138075714D02*
X100951247Y-138075714D01*
X100951247Y-138075714D02*
X100951247Y-137885238D01*
X101379819Y-138504286D02*
X100379819Y-138504286D01*
X100379819Y-138504286D02*
X101379819Y-139075714D01*
X101379819Y-139075714D02*
X100379819Y-139075714D01*
X101379819Y-139551905D02*
X100379819Y-139551905D01*
X100379819Y-139551905D02*
X100379819Y-139790000D01*
X100379819Y-139790000D02*
X100427438Y-139932857D01*
X100427438Y-139932857D02*
X100522676Y-140028095D01*
X100522676Y-140028095D02*
X100617914Y-140075714D01*
X100617914Y-140075714D02*
X100808390Y-140123333D01*
X100808390Y-140123333D02*
X100951247Y-140123333D01*
X100951247Y-140123333D02*
X101141723Y-140075714D01*
X101141723Y-140075714D02*
X101236961Y-140028095D01*
X101236961Y-140028095D02*
X101332200Y-139932857D01*
X101332200Y-139932857D02*
X101379819Y-139790000D01*
X101379819Y-139790000D02*
X101379819Y-139551905D01*
X118255057Y-94689286D02*
X118207438Y-94736905D01*
X118207438Y-94736905D02*
X118159819Y-94832143D01*
X118159819Y-94832143D02*
X118159819Y-95070238D01*
X118159819Y-95070238D02*
X118207438Y-95165476D01*
X118207438Y-95165476D02*
X118255057Y-95213095D01*
X118255057Y-95213095D02*
X118350295Y-95260714D01*
X118350295Y-95260714D02*
X118445533Y-95260714D01*
X118445533Y-95260714D02*
X118588390Y-95213095D01*
X118588390Y-95213095D02*
X119159819Y-94641667D01*
X119159819Y-94641667D02*
X119159819Y-95260714D01*
X118874104Y-138075714D02*
X118874104Y-138551904D01*
X119159819Y-137980476D02*
X118159819Y-138313809D01*
X118159819Y-138313809D02*
X119159819Y-138647142D01*
X118159819Y-138885238D02*
X118159819Y-139504285D01*
X118159819Y-139504285D02*
X118540771Y-139170952D01*
X118540771Y-139170952D02*
X118540771Y-139313809D01*
X118540771Y-139313809D02*
X118588390Y-139409047D01*
X118588390Y-139409047D02*
X118636009Y-139456666D01*
X118636009Y-139456666D02*
X118731247Y-139504285D01*
X118731247Y-139504285D02*
X118969342Y-139504285D01*
X118969342Y-139504285D02*
X119064580Y-139456666D01*
X119064580Y-139456666D02*
X119112200Y-139409047D01*
X119112200Y-139409047D02*
X119159819Y-139313809D01*
X119159819Y-139313809D02*
X119159819Y-139028095D01*
X119159819Y-139028095D02*
X119112200Y-138932857D01*
X119112200Y-138932857D02*
X119064580Y-138885238D01*
X91854819Y-95419523D02*
X91854819Y-94848095D01*
X91854819Y-95133809D02*
X90854819Y-95133809D01*
X90854819Y-95133809D02*
X90997676Y-95038571D01*
X90997676Y-95038571D02*
X91092914Y-94943333D01*
X91092914Y-94943333D02*
X91140533Y-94848095D01*
X90950057Y-95800476D02*
X90902438Y-95848095D01*
X90902438Y-95848095D02*
X90854819Y-95943333D01*
X90854819Y-95943333D02*
X90854819Y-96181428D01*
X90854819Y-96181428D02*
X90902438Y-96276666D01*
X90902438Y-96276666D02*
X90950057Y-96324285D01*
X90950057Y-96324285D02*
X91045295Y-96371904D01*
X91045295Y-96371904D02*
X91140533Y-96371904D01*
X91140533Y-96371904D02*
X91283390Y-96324285D01*
X91283390Y-96324285D02*
X91854819Y-95752857D01*
X91854819Y-95752857D02*
X91854819Y-96371904D01*
X121699819Y-95070476D02*
X121699819Y-94499048D01*
X121699819Y-94784762D02*
X120699819Y-94784762D01*
X120699819Y-94784762D02*
X120842676Y-94689524D01*
X120842676Y-94689524D02*
X120937914Y-94594286D01*
X120937914Y-94594286D02*
X120985533Y-94499048D01*
X121033152Y-96260953D02*
X121318866Y-95499048D01*
X121318866Y-95499048D02*
X121604580Y-96260953D01*
X121318866Y-96737143D02*
X121318866Y-97499048D01*
X120699819Y-97832381D02*
X120699819Y-98403809D01*
X121699819Y-98118095D02*
X120699819Y-98118095D01*
X120699819Y-98641905D02*
X121699819Y-99308571D01*
X120699819Y-99308571D02*
X121699819Y-98641905D01*
X108618866Y-94236905D02*
X108571247Y-94284524D01*
X108571247Y-94284524D02*
X108523628Y-94379762D01*
X108523628Y-94379762D02*
X108618866Y-94570238D01*
X108618866Y-94570238D02*
X108571247Y-94665476D01*
X108571247Y-94665476D02*
X108523628Y-94713095D01*
X107999819Y-95522619D02*
X107999819Y-95332143D01*
X107999819Y-95332143D02*
X108047438Y-95236905D01*
X108047438Y-95236905D02*
X108095057Y-95189286D01*
X108095057Y-95189286D02*
X108237914Y-95094048D01*
X108237914Y-95094048D02*
X108428390Y-95046429D01*
X108428390Y-95046429D02*
X108809342Y-95046429D01*
X108809342Y-95046429D02*
X108904580Y-95094048D01*
X108904580Y-95094048D02*
X108952200Y-95141667D01*
X108952200Y-95141667D02*
X108999819Y-95236905D01*
X108999819Y-95236905D02*
X108999819Y-95427381D01*
X108999819Y-95427381D02*
X108952200Y-95522619D01*
X108952200Y-95522619D02*
X108904580Y-95570238D01*
X108904580Y-95570238D02*
X108809342Y-95617857D01*
X108809342Y-95617857D02*
X108571247Y-95617857D01*
X108571247Y-95617857D02*
X108476009Y-95570238D01*
X108476009Y-95570238D02*
X108428390Y-95522619D01*
X108428390Y-95522619D02*
X108380771Y-95427381D01*
X108380771Y-95427381D02*
X108380771Y-95236905D01*
X108380771Y-95236905D02*
X108428390Y-95141667D01*
X108428390Y-95141667D02*
X108476009Y-95094048D01*
X108476009Y-95094048D02*
X108571247Y-95046429D01*
X97839819Y-138599523D02*
X97839819Y-138123333D01*
X97839819Y-138123333D02*
X98316009Y-138075714D01*
X98316009Y-138075714D02*
X98268390Y-138123333D01*
X98268390Y-138123333D02*
X98220771Y-138218571D01*
X98220771Y-138218571D02*
X98220771Y-138456666D01*
X98220771Y-138456666D02*
X98268390Y-138551904D01*
X98268390Y-138551904D02*
X98316009Y-138599523D01*
X98316009Y-138599523D02*
X98411247Y-138647142D01*
X98411247Y-138647142D02*
X98649342Y-138647142D01*
X98649342Y-138647142D02*
X98744580Y-138599523D01*
X98744580Y-138599523D02*
X98792200Y-138551904D01*
X98792200Y-138551904D02*
X98839819Y-138456666D01*
X98839819Y-138456666D02*
X98839819Y-138218571D01*
X98839819Y-138218571D02*
X98792200Y-138123333D01*
X98792200Y-138123333D02*
X98744580Y-138075714D01*
X97839819Y-138932857D02*
X98839819Y-139266190D01*
X98839819Y-139266190D02*
X97839819Y-139599523D01*
X85822438Y-94848095D02*
X85774819Y-94752857D01*
X85774819Y-94752857D02*
X85774819Y-94610000D01*
X85774819Y-94610000D02*
X85822438Y-94467143D01*
X85822438Y-94467143D02*
X85917676Y-94371905D01*
X85917676Y-94371905D02*
X86012914Y-94324286D01*
X86012914Y-94324286D02*
X86203390Y-94276667D01*
X86203390Y-94276667D02*
X86346247Y-94276667D01*
X86346247Y-94276667D02*
X86536723Y-94324286D01*
X86536723Y-94324286D02*
X86631961Y-94371905D01*
X86631961Y-94371905D02*
X86727200Y-94467143D01*
X86727200Y-94467143D02*
X86774819Y-94610000D01*
X86774819Y-94610000D02*
X86774819Y-94705238D01*
X86774819Y-94705238D02*
X86727200Y-94848095D01*
X86727200Y-94848095D02*
X86679580Y-94895714D01*
X86679580Y-94895714D02*
X86346247Y-94895714D01*
X86346247Y-94895714D02*
X86346247Y-94705238D01*
X86774819Y-95324286D02*
X85774819Y-95324286D01*
X85774819Y-95324286D02*
X86774819Y-95895714D01*
X86774819Y-95895714D02*
X85774819Y-95895714D01*
X86774819Y-96371905D02*
X85774819Y-96371905D01*
X85774819Y-96371905D02*
X85774819Y-96610000D01*
X85774819Y-96610000D02*
X85822438Y-96752857D01*
X85822438Y-96752857D02*
X85917676Y-96848095D01*
X85917676Y-96848095D02*
X86012914Y-96895714D01*
X86012914Y-96895714D02*
X86203390Y-96943333D01*
X86203390Y-96943333D02*
X86346247Y-96943333D01*
X86346247Y-96943333D02*
X86536723Y-96895714D01*
X86536723Y-96895714D02*
X86631961Y-96848095D01*
X86631961Y-96848095D02*
X86727200Y-96752857D01*
X86727200Y-96752857D02*
X86774819Y-96610000D01*
X86774819Y-96610000D02*
X86774819Y-96371905D01*
X116334104Y-138075714D02*
X116334104Y-138551904D01*
X116619819Y-137980476D02*
X115619819Y-138313809D01*
X115619819Y-138313809D02*
X116619819Y-138647142D01*
X115715057Y-138932857D02*
X115667438Y-138980476D01*
X115667438Y-138980476D02*
X115619819Y-139075714D01*
X115619819Y-139075714D02*
X115619819Y-139313809D01*
X115619819Y-139313809D02*
X115667438Y-139409047D01*
X115667438Y-139409047D02*
X115715057Y-139456666D01*
X115715057Y-139456666D02*
X115810295Y-139504285D01*
X115810295Y-139504285D02*
X115905533Y-139504285D01*
X115905533Y-139504285D02*
X116048390Y-139456666D01*
X116048390Y-139456666D02*
X116619819Y-138885238D01*
X116619819Y-138885238D02*
X116619819Y-139504285D01*
X99093866Y-94236905D02*
X99046247Y-94284524D01*
X99046247Y-94284524D02*
X98998628Y-94379762D01*
X98998628Y-94379762D02*
X99093866Y-94570238D01*
X99093866Y-94570238D02*
X99046247Y-94665476D01*
X99046247Y-94665476D02*
X98998628Y-94713095D01*
X99474819Y-95141667D02*
X99474819Y-95332143D01*
X99474819Y-95332143D02*
X99427200Y-95427381D01*
X99427200Y-95427381D02*
X99379580Y-95475000D01*
X99379580Y-95475000D02*
X99236723Y-95570238D01*
X99236723Y-95570238D02*
X99046247Y-95617857D01*
X99046247Y-95617857D02*
X98665295Y-95617857D01*
X98665295Y-95617857D02*
X98570057Y-95570238D01*
X98570057Y-95570238D02*
X98522438Y-95522619D01*
X98522438Y-95522619D02*
X98474819Y-95427381D01*
X98474819Y-95427381D02*
X98474819Y-95236905D01*
X98474819Y-95236905D02*
X98522438Y-95141667D01*
X98522438Y-95141667D02*
X98570057Y-95094048D01*
X98570057Y-95094048D02*
X98665295Y-95046429D01*
X98665295Y-95046429D02*
X98903390Y-95046429D01*
X98903390Y-95046429D02*
X98998628Y-95094048D01*
X98998628Y-95094048D02*
X99046247Y-95141667D01*
X99046247Y-95141667D02*
X99093866Y-95236905D01*
X99093866Y-95236905D02*
X99093866Y-95427381D01*
X99093866Y-95427381D02*
X99046247Y-95522619D01*
X99046247Y-95522619D02*
X98998628Y-95570238D01*
X98998628Y-95570238D02*
X98903390Y-95617857D01*
X102967438Y-138028095D02*
X102919819Y-137932857D01*
X102919819Y-137932857D02*
X102919819Y-137790000D01*
X102919819Y-137790000D02*
X102967438Y-137647143D01*
X102967438Y-137647143D02*
X103062676Y-137551905D01*
X103062676Y-137551905D02*
X103157914Y-137504286D01*
X103157914Y-137504286D02*
X103348390Y-137456667D01*
X103348390Y-137456667D02*
X103491247Y-137456667D01*
X103491247Y-137456667D02*
X103681723Y-137504286D01*
X103681723Y-137504286D02*
X103776961Y-137551905D01*
X103776961Y-137551905D02*
X103872200Y-137647143D01*
X103872200Y-137647143D02*
X103919819Y-137790000D01*
X103919819Y-137790000D02*
X103919819Y-137885238D01*
X103919819Y-137885238D02*
X103872200Y-138028095D01*
X103872200Y-138028095D02*
X103824580Y-138075714D01*
X103824580Y-138075714D02*
X103491247Y-138075714D01*
X103491247Y-138075714D02*
X103491247Y-137885238D01*
X103919819Y-138504286D02*
X102919819Y-138504286D01*
X102919819Y-138504286D02*
X103919819Y-139075714D01*
X103919819Y-139075714D02*
X102919819Y-139075714D01*
X103919819Y-139551905D02*
X102919819Y-139551905D01*
X102919819Y-139551905D02*
X102919819Y-139790000D01*
X102919819Y-139790000D02*
X102967438Y-139932857D01*
X102967438Y-139932857D02*
X103062676Y-140028095D01*
X103062676Y-140028095D02*
X103157914Y-140075714D01*
X103157914Y-140075714D02*
X103348390Y-140123333D01*
X103348390Y-140123333D02*
X103491247Y-140123333D01*
X103491247Y-140123333D02*
X103681723Y-140075714D01*
X103681723Y-140075714D02*
X103776961Y-140028095D01*
X103776961Y-140028095D02*
X103872200Y-139932857D01*
X103872200Y-139932857D02*
X103919819Y-139790000D01*
X103919819Y-139790000D02*
X103919819Y-139551905D01*
X89314819Y-137369286D02*
X88314819Y-137369286D01*
X88314819Y-137369286D02*
X89314819Y-137940714D01*
X89314819Y-137940714D02*
X88314819Y-137940714D01*
X89219580Y-138988333D02*
X89267200Y-138940714D01*
X89267200Y-138940714D02*
X89314819Y-138797857D01*
X89314819Y-138797857D02*
X89314819Y-138702619D01*
X89314819Y-138702619D02*
X89267200Y-138559762D01*
X89267200Y-138559762D02*
X89171961Y-138464524D01*
X89171961Y-138464524D02*
X89076723Y-138416905D01*
X89076723Y-138416905D02*
X88886247Y-138369286D01*
X88886247Y-138369286D02*
X88743390Y-138369286D01*
X88743390Y-138369286D02*
X88552914Y-138416905D01*
X88552914Y-138416905D02*
X88457676Y-138464524D01*
X88457676Y-138464524D02*
X88362438Y-138559762D01*
X88362438Y-138559762D02*
X88314819Y-138702619D01*
X88314819Y-138702619D02*
X88314819Y-138797857D01*
X88314819Y-138797857D02*
X88362438Y-138940714D01*
X88362438Y-138940714D02*
X88410057Y-138988333D01*
X90219819Y-138599523D02*
X90219819Y-138123333D01*
X90219819Y-138123333D02*
X90696009Y-138075714D01*
X90696009Y-138075714D02*
X90648390Y-138123333D01*
X90648390Y-138123333D02*
X90600771Y-138218571D01*
X90600771Y-138218571D02*
X90600771Y-138456666D01*
X90600771Y-138456666D02*
X90648390Y-138551904D01*
X90648390Y-138551904D02*
X90696009Y-138599523D01*
X90696009Y-138599523D02*
X90791247Y-138647142D01*
X90791247Y-138647142D02*
X91029342Y-138647142D01*
X91029342Y-138647142D02*
X91124580Y-138599523D01*
X91124580Y-138599523D02*
X91172200Y-138551904D01*
X91172200Y-138551904D02*
X91219819Y-138456666D01*
X91219819Y-138456666D02*
X91219819Y-138218571D01*
X91219819Y-138218571D02*
X91172200Y-138123333D01*
X91172200Y-138123333D02*
X91124580Y-138075714D01*
X90219819Y-138932857D02*
X91219819Y-139266190D01*
X91219819Y-139266190D02*
X90219819Y-139599523D01*
D11*
G04 #@! TO.C,A1*
X53805000Y-99930000D02*
X60155000Y-99930000D01*
X53805000Y-111610000D02*
X53805000Y-99930000D01*
X58255000Y-131680000D02*
X60155000Y-131680000D01*
X58255000Y-140820000D02*
X58255000Y-131680000D01*
X60155000Y-90400000D02*
X124805000Y-90400000D01*
X60155000Y-99930000D02*
X60155000Y-90400000D01*
X60155000Y-111610000D02*
X53805000Y-111610000D01*
X60155000Y-131680000D02*
X60155000Y-111610000D01*
X60155000Y-140820000D02*
X58255000Y-140820000D01*
X60155000Y-144000000D02*
X60155000Y-140820000D01*
X124805000Y-90400000D02*
X126455000Y-92050000D01*
X126455000Y-92050000D02*
X126455000Y-103480000D01*
X126455000Y-103480000D02*
X128995000Y-106020000D01*
X126455000Y-141330000D02*
X126455000Y-144000000D01*
X126455000Y-144000000D02*
X60155000Y-144000000D01*
X128995000Y-106020000D02*
X128995000Y-138790000D01*
X128995000Y-138790000D02*
X126455000Y-141330000D01*
G04 #@! TD*
%LPC*%
D12*
G04 #@! TO.C,H2*
X51375000Y-146000000D03*
X52143845Y-144143845D03*
X52143845Y-147856155D03*
X54000000Y-143375000D03*
D13*
X54000000Y-146000000D03*
D12*
X54000000Y-148625000D03*
X55856155Y-144143845D03*
X55856155Y-147856155D03*
X56625000Y-146000000D03*
G04 #@! TD*
D14*
G04 #@! TO.C,TP2*
X153000000Y-146000000D03*
G04 #@! TD*
D15*
G04 #@! TO.C,SW1*
X67000000Y-110000000D03*
D16*
X67000000Y-103500000D03*
X71500000Y-110000000D03*
X71500000Y-103500000D03*
G04 #@! TD*
D12*
G04 #@! TO.C,H3*
X125375000Y-146000000D03*
X126143845Y-144143845D03*
X126143845Y-147856155D03*
X128000000Y-143375000D03*
D13*
X128000000Y-146000000D03*
D12*
X128000000Y-148625000D03*
X129856155Y-144143845D03*
X129856155Y-147856155D03*
X130625000Y-146000000D03*
G04 #@! TD*
D17*
G04 #@! TO.C,J9*
X151250000Y-98250000D03*
D18*
X148710000Y-98250000D03*
X146170000Y-98250000D03*
X143630000Y-98250000D03*
X141090000Y-98250000D03*
X138550000Y-98250000D03*
G04 #@! TD*
D19*
G04 #@! TO.C,J10*
X151250000Y-107125000D03*
D20*
X151250000Y-109665000D03*
X148710000Y-107125000D03*
X148710000Y-109665000D03*
X146170000Y-107125000D03*
X146170000Y-109665000D03*
X143630000Y-107125000D03*
X143630000Y-109665000D03*
X141090000Y-107125000D03*
X141090000Y-109665000D03*
G04 #@! TD*
D21*
G04 #@! TO.C,J1*
X51750000Y-102800000D03*
D22*
X56150000Y-102800000D03*
G04 #@! TD*
D15*
G04 #@! TO.C,SW3*
X67000000Y-126500000D03*
D16*
X67000000Y-120000000D03*
X71500000Y-126500000D03*
X71500000Y-120000000D03*
G04 #@! TD*
D17*
G04 #@! TO.C,J6*
X127000000Y-110450000D03*
D18*
X127000000Y-107910000D03*
X127000000Y-105370000D03*
X127000000Y-102830000D03*
X127000000Y-100290000D03*
X127000000Y-97750000D03*
G04 #@! TD*
D14*
G04 #@! TO.C,TP1*
X112749993Y-105250005D03*
G04 #@! TD*
D17*
G04 #@! TO.C,J11*
X152500000Y-123099714D03*
D18*
X152500000Y-120559714D03*
G04 #@! TD*
D12*
G04 #@! TO.C,H6*
X141375000Y-146000000D03*
X142143845Y-144143845D03*
X142143845Y-147856155D03*
X144000000Y-143375000D03*
D13*
X144000000Y-146000000D03*
D12*
X144000000Y-148625000D03*
X145856155Y-144143845D03*
X145856155Y-147856155D03*
X146625000Y-146000000D03*
G04 #@! TD*
D23*
G04 #@! TO.C,Q1*
X113090000Y-121669714D03*
D24*
X110550000Y-138329714D03*
D25*
X113090000Y-138329714D03*
X115630000Y-138329714D03*
G04 #@! TD*
D12*
G04 #@! TO.C,H4*
X125375000Y-89000000D03*
X126143845Y-87143845D03*
X126143845Y-90856155D03*
X128000000Y-86375000D03*
D13*
X128000000Y-89000000D03*
D12*
X128000000Y-91625000D03*
X129856155Y-87143845D03*
X129856155Y-90856155D03*
X130625000Y-89000000D03*
G04 #@! TD*
G04 #@! TO.C,H1*
X51375000Y-89000000D03*
X52143845Y-87143845D03*
X52143845Y-90856155D03*
X54000000Y-86375000D03*
D13*
X54000000Y-89000000D03*
D12*
X54000000Y-91625000D03*
X55856155Y-87143845D03*
X55856155Y-90856155D03*
X56625000Y-89000000D03*
G04 #@! TD*
D26*
G04 #@! TO.C,BZ1*
X75000000Y-137000000D03*
D27*
X82620000Y-137000000D03*
G04 #@! TD*
D28*
G04 #@! TO.C,J2*
X87190000Y-102540000D03*
D29*
X89730000Y-102540000D03*
X92270000Y-102540000D03*
X94810000Y-102540000D03*
D30*
X79350000Y-103100000D03*
X102650000Y-103100000D03*
X79350000Y-126900000D03*
X102650000Y-126900000D03*
G04 #@! TD*
D15*
G04 #@! TO.C,SW2*
X109500000Y-112750000D03*
D16*
X116000000Y-112750000D03*
X109500000Y-117250000D03*
X116000000Y-117250000D03*
G04 #@! TD*
D12*
G04 #@! TO.C,H5*
X141375000Y-89000000D03*
X142143845Y-87143845D03*
X142143845Y-90856155D03*
X144000000Y-86375000D03*
D13*
X144000000Y-89000000D03*
D12*
X144000000Y-91625000D03*
X145856155Y-87143845D03*
X145856155Y-90856155D03*
X146625000Y-89000000D03*
G04 #@! TD*
D31*
G04 #@! TO.C,J5*
X125460000Y-118600000D03*
D20*
X128000000Y-118600000D03*
X125460000Y-121140000D03*
X128000000Y-121140000D03*
X125460000Y-123680000D03*
X128000000Y-123680000D03*
X125460000Y-126220000D03*
X128000000Y-126220000D03*
X125460000Y-128760000D03*
X128000000Y-128760000D03*
G04 #@! TD*
D28*
G04 #@! TO.C,A1*
X88225000Y-141330000D03*
D21*
X90765000Y-141330000D03*
X93305000Y-141330000D03*
X95845000Y-141330000D03*
X98385000Y-141330000D03*
X100925000Y-141330000D03*
X103465000Y-141330000D03*
X106005000Y-141330000D03*
X111085000Y-141330000D03*
X113625000Y-141330000D03*
X116165000Y-141330000D03*
X118705000Y-141330000D03*
X121245000Y-141330000D03*
X123785000Y-141330000D03*
X123785000Y-93070000D03*
X121245000Y-93070000D03*
X118705000Y-93070000D03*
X116165000Y-93070000D03*
X113625000Y-93070000D03*
X111085000Y-93070000D03*
X108545000Y-93070000D03*
X106005000Y-93070000D03*
X101945000Y-93070000D03*
X99405000Y-93070000D03*
X96865000Y-93070000D03*
X94325000Y-93070000D03*
X91785000Y-93070000D03*
X89245000Y-93070000D03*
X86705000Y-93070000D03*
X84165000Y-93070000D03*
X81625000Y-93070000D03*
X79085000Y-93070000D03*
G04 #@! TD*
%LPD*%
D32*
X50000000Y-150000000D02*
X158000000Y-150000000D01*
X158000000Y-85000000D02*
X50000000Y-85000000D01*
X50000000Y-85000000D02*
X50000000Y-150000000D01*
X158000000Y-150000000D02*
X158000000Y-85000000D01*
M02*
