M48
; DRILL file {KiCad 8.0.6} date 2025-12-26T07:31:25-0500
; FORMAT={-:-/ absolute / metric / decimal}
; #@! TF.CreationDate,2025-12-26T07:31:25-05:00
; #@! TF.GenerationSoftware,Kicad,Pcbnew,8.0.6
; #@! TF.FileFunction,Plated,1,2,PTH
FMAT,2
METRIC
; #@! TA.AperFunction,Plated,PTH,ViaDrill
T1C0.400
; #@! TA.AperFunction,Plated,PTH,ComponentDrill
T2C0.500
; #@! TA.AperFunction,Plated,PTH,ViaDrill
T3C0.800
; #@! TA.AperFunction,Plated,PTH,ComponentDrill
T4C0.800
; #@! TA.AperFunction,Plated,PTH,ComponentDrill
T5C1.000
; #@! TA.AperFunction,Plated,PTH,ComponentDrill
T6C1.100
; #@! TA.AperFunction,Plated,PTH,ComponentDrill
T7C1.200
; #@! TA.AperFunction,Plated,PTH,ComponentDrill
T8C1.500
; #@! TA.AperFunction,Plated,PTH,ComponentDrill
T9C2.500
; #@! TA.AperFunction,Plated,PTH,ComponentDrill
T10C3.500
%
G90
G05
T1
X66.4Y-113.4
X66.6Y-129.6
X67.0Y-117.4
X69.6Y-100.0
X70.406Y-93.232
X71.766Y-116.6
X74.234Y-116.6
X75.0Y-126.6
X75.0Y-134.8
X75.0Y-141.5
X77.264Y-93.74
X82.6Y-132.4
X85.392Y-94.121
X87.932Y-94.121
X88.059Y-91.835
X89.8Y-106.2
X92.27Y-107.6
X93.12Y-126.23
X93.6Y-110.2
X94.81Y-107.6
X96.04Y-132.42
X97.0Y-143.5
X97.8Y-109.2
X99.2Y-103.33
X99.5Y-143.5
X100.55Y-90.58
X101.251Y-98.384
X103.934Y-91.708
X104.05Y-133.725
X105.65Y-115.2
X105.68Y-134.23
X105.765Y-132.799
X105.98Y-98.28
X106.1Y-103.6
X107.0Y-111.0
X107.0Y-137.5
X108.0Y-138.0
X108.5Y-98.52
X109.5Y-108.5
X111.0Y-98.82
X116.2Y-102.2
X117.3Y-107.2
X117.4Y-110.4
X117.8Y-137.83
X118.616Y-118.231
X120.55Y-139.08
X120.55Y-142.33
X121.55Y-136.83
X122.55Y-100.08
X122.66Y-142.266
X122.784Y-123.68
X123.49Y-128.574
X123.6Y-126.2
X124.019Y-121.001
X124.05Y-138.08
X125.0Y-102.83
X125.0Y-105.6
X125.0Y-130.5
X126.7Y-127.8
X126.8Y-135.83
X127.8Y-113.83
X128.05Y-116.33
X128.3Y-136.83
X128.5Y-138.5
X137.16Y-102.159
X138.43Y-109.22
X139.065Y-106.045
X139.8Y-102.58
X141.0Y-129.43
X141.951Y-105.006
X143.404Y-139.126
X143.6Y-135.03
X143.9Y-133.475
X144.8Y-114.23
X147.1Y-140.43
X148.59Y-112.395
X149.146Y-139.079
T2
X51.375Y-89.0
X51.375Y-146.0
X52.144Y-87.144
X52.144Y-90.856
X52.144Y-144.144
X52.144Y-147.856
X54.0Y-86.375
X54.0Y-91.625
X54.0Y-143.375
X54.0Y-148.625
X55.856Y-87.144
X55.856Y-90.856
X55.856Y-144.144
X55.856Y-147.856
X56.625Y-89.0
X56.625Y-146.0
X125.375Y-89.0
X125.375Y-146.0
X126.144Y-87.144
X126.144Y-90.856
X126.144Y-144.144
X126.144Y-147.856
X128.0Y-86.375
X128.0Y-91.625
X128.0Y-143.375
X128.0Y-148.625
X129.856Y-87.144
X129.856Y-90.856
X129.856Y-144.144
X129.856Y-147.856
X130.625Y-89.0
X130.625Y-146.0
X141.375Y-89.0
X141.375Y-146.0
X142.144Y-87.144
X142.144Y-90.856
X142.144Y-144.144
X142.144Y-147.856
X144.0Y-86.375
X144.0Y-91.625
X144.0Y-143.375
X144.0Y-148.625
X145.856Y-87.144
X145.856Y-90.856
X145.856Y-144.144
X145.856Y-147.856
X146.625Y-89.0
X146.625Y-146.0
T3
X119.31Y-104.339
X119.8Y-111.58
X144.4Y-116.93
X146.304Y-105.156
X148.05Y-120.83
X149.8Y-100.45
T4
X87.19Y-102.54
X89.73Y-102.54
X92.27Y-102.54
X94.81Y-102.54
T5
X75.0Y-137.0
X79.085Y-93.07
X81.625Y-93.07
X82.62Y-137.0
X84.165Y-93.07
X86.705Y-93.07
X88.225Y-141.33
X89.245Y-93.07
X90.765Y-141.33
X91.785Y-93.07
X93.305Y-141.33
X94.325Y-93.07
X95.845Y-141.33
X96.865Y-93.07
X98.385Y-141.33
X99.405Y-93.07
X100.925Y-141.33
X101.945Y-93.07
X103.465Y-141.33
X106.005Y-93.07
X106.005Y-141.33
X108.545Y-93.07
X111.085Y-93.07
X111.085Y-141.33
X113.625Y-93.07
X113.625Y-141.33
X116.165Y-93.07
X116.165Y-141.33
X118.705Y-93.07
X118.705Y-141.33
X121.245Y-93.07
X121.245Y-141.33
X123.785Y-93.07
X123.785Y-141.33
X125.46Y-118.6
X125.46Y-121.14
X125.46Y-123.68
X125.46Y-126.22
X125.46Y-128.76
X128.0Y-118.6
X128.0Y-121.14
X128.0Y-123.68
X128.0Y-126.22
X128.0Y-128.76
X141.09Y-107.125
X141.09Y-109.665
X143.63Y-107.125
X143.63Y-109.665
X146.17Y-107.125
X146.17Y-109.665
X148.71Y-107.125
X148.71Y-109.665
X151.25Y-107.125
X151.25Y-109.665
T6
X110.55Y-138.33
X113.09Y-138.33
X115.63Y-138.33
X127.0Y-97.75
X127.0Y-100.29
X127.0Y-102.83
X127.0Y-105.37
X127.0Y-107.91
X127.0Y-110.45
X138.55Y-98.25
X141.09Y-98.25
X143.63Y-98.25
X146.17Y-98.25
X148.71Y-98.25
X151.25Y-98.25
X152.5Y-120.56
X152.5Y-123.1
T7
X67.0Y-103.5
X67.0Y-110.0
X67.0Y-120.0
X67.0Y-126.5
X71.5Y-103.5
X71.5Y-110.0
X71.5Y-120.0
X71.5Y-126.5
X109.5Y-112.75
X109.5Y-117.25
X116.0Y-112.75
X116.0Y-117.25
T8
X112.75Y-105.25
X153.0Y-146.0
T9
X79.35Y-103.1
X79.35Y-126.9
X102.65Y-103.1
X102.65Y-126.9
T10
X54.0Y-89.0
X54.0Y-146.0
X128.0Y-89.0
X128.0Y-146.0
X144.0Y-89.0
X144.0Y-146.0
M30
