G04 #@! TF.GenerationSoftware,KiCad,Pcbnew,8.0.6*
G04 #@! TF.CreationDate,2025-12-26T07:32:45-05:00*
G04 #@! TF.ProjectId,pcb_moonratII,7063625f-6d6f-46f6-9e72-617449492e6b,1.0*
G04 #@! TF.SameCoordinates,Original*
G04 #@! TF.FileFunction,Other,User*
%FSLAX46Y46*%
G04 Gerber Fmt 4.6, Leading zero omitted, Abs format (unit mm)*
G04 Created by KiCad (PCBNEW 8.0.6) date 2025-12-26 07:32:45*
%MOMM*%
%LPD*%
G01*
G04 APERTURE LIST*
%ADD10C,0.250000*%
%ADD11C,0.150000*%
G04 #@! TA.AperFunction,Profile*
%ADD12C,0.100000*%
G04 #@! TD*
G04 APERTURE END LIST*
D10*
X132800000Y-149900000D02*
X132800000Y-85100000D01*
D11*
X130493922Y-155769819D02*
X130827255Y-156769819D01*
X130827255Y-156769819D02*
X131160588Y-155769819D01*
X131493922Y-156388866D02*
X132255827Y-156388866D01*
X133303445Y-156674580D02*
X133255826Y-156722200D01*
X133255826Y-156722200D02*
X133112969Y-156769819D01*
X133112969Y-156769819D02*
X133017731Y-156769819D01*
X133017731Y-156769819D02*
X132874874Y-156722200D01*
X132874874Y-156722200D02*
X132779636Y-156626961D01*
X132779636Y-156626961D02*
X132732017Y-156531723D01*
X132732017Y-156531723D02*
X132684398Y-156341247D01*
X132684398Y-156341247D02*
X132684398Y-156198390D01*
X132684398Y-156198390D02*
X132732017Y-156007914D01*
X132732017Y-156007914D02*
X132779636Y-155912676D01*
X132779636Y-155912676D02*
X132874874Y-155817438D01*
X132874874Y-155817438D02*
X133017731Y-155769819D01*
X133017731Y-155769819D02*
X133112969Y-155769819D01*
X133112969Y-155769819D02*
X133255826Y-155817438D01*
X133255826Y-155817438D02*
X133303445Y-155865057D01*
X133732017Y-155769819D02*
X133732017Y-156579342D01*
X133732017Y-156579342D02*
X133779636Y-156674580D01*
X133779636Y-156674580D02*
X133827255Y-156722200D01*
X133827255Y-156722200D02*
X133922493Y-156769819D01*
X133922493Y-156769819D02*
X134112969Y-156769819D01*
X134112969Y-156769819D02*
X134208207Y-156722200D01*
X134208207Y-156722200D02*
X134255826Y-156674580D01*
X134255826Y-156674580D02*
X134303445Y-156579342D01*
X134303445Y-156579342D02*
X134303445Y-155769819D01*
X134636779Y-155769819D02*
X135208207Y-155769819D01*
X134922493Y-156769819D02*
X134922493Y-155769819D01*
D12*
X50000000Y-150000000D02*
X158000000Y-150000000D01*
X158000000Y-85000000D02*
X50000000Y-85000000D01*
X50000000Y-85000000D02*
X50000000Y-150000000D01*
X158000000Y-150000000D02*
X158000000Y-85000000D01*
M02*
