%TF.GenerationSoftware,KiCad,Pcbnew,8.0.6*%
%TF.CreationDate,2025-12-26T07:31:26-05:00*%
%TF.ProjectId,pcb_moonratII,7063625f-6d6f-46f6-9e72-617449492e6b,1.0*%
%TF.SameCoordinates,Original*%
%TF.FileFunction,Drillmap*%
%TF.FilePolarity,Positive*%
%FSLAX45Y45*%
G04 Gerber Fmt 4.5, Leading zero omitted, Abs format (unit mm)*
G04 Created by KiCad (PCBNEW 8.0.6) date 2025-12-26 07:31:26*
%MOMM*%
%LPD*%
G01*
G04 APERTURE LIST*
%ADD10C,0.100000*%
%ADD11C,0.200000*%
%ADD12C,0.160000*%
%ADD13C,0.180000*%
%ADD14C,0.350000*%
G04 APERTURE END LIST*
D10*
X5000000Y-15000000D02*
X15800000Y-15000000D01*
X15800000Y-8500000D02*
X5000000Y-8500000D01*
X5000000Y-8500000D02*
X5000000Y-15000000D01*
X15800000Y-15000000D02*
X15800000Y-8500000D01*
D11*
D12*
X5095000Y-10200000D02*
X5255000Y-10360000D01*
X5255000Y-10200000D02*
X5095000Y-10360000D01*
D13*
X5705000Y-10280000D02*
G75*
G02*
X5525000Y-10280000I-90000J0D01*
G01*
X5525000Y-10280000D02*
G75*
G02*
X5705000Y-10280000I90000J0D01*
G01*
D14*
X11309000Y-11991971D02*
X11309000Y-12341971D01*
X11134000Y-12166971D02*
X11484000Y-12166971D01*
D11*
X5255777Y-15316484D02*
X5255777Y-15116484D01*
X5255777Y-15116484D02*
X5303396Y-15116484D01*
X5303396Y-15116484D02*
X5331967Y-15126008D01*
X5331967Y-15126008D02*
X5351015Y-15145055D01*
X5351015Y-15145055D02*
X5360539Y-15164103D01*
X5360539Y-15164103D02*
X5370063Y-15202198D01*
X5370063Y-15202198D02*
X5370063Y-15230769D01*
X5370063Y-15230769D02*
X5360539Y-15268865D01*
X5360539Y-15268865D02*
X5351015Y-15287912D01*
X5351015Y-15287912D02*
X5331967Y-15306960D01*
X5331967Y-15306960D02*
X5303396Y-15316484D01*
X5303396Y-15316484D02*
X5255777Y-15316484D01*
X5455777Y-15316484D02*
X5455777Y-15183150D01*
X5455777Y-15221246D02*
X5465301Y-15202198D01*
X5465301Y-15202198D02*
X5474824Y-15192674D01*
X5474824Y-15192674D02*
X5493872Y-15183150D01*
X5493872Y-15183150D02*
X5512920Y-15183150D01*
X5579586Y-15316484D02*
X5579586Y-15183150D01*
X5579586Y-15116484D02*
X5570063Y-15126008D01*
X5570063Y-15126008D02*
X5579586Y-15135531D01*
X5579586Y-15135531D02*
X5589110Y-15126008D01*
X5589110Y-15126008D02*
X5579586Y-15116484D01*
X5579586Y-15116484D02*
X5579586Y-15135531D01*
X5703396Y-15316484D02*
X5684348Y-15306960D01*
X5684348Y-15306960D02*
X5674824Y-15287912D01*
X5674824Y-15287912D02*
X5674824Y-15116484D01*
X5808158Y-15316484D02*
X5789110Y-15306960D01*
X5789110Y-15306960D02*
X5779586Y-15287912D01*
X5779586Y-15287912D02*
X5779586Y-15116484D01*
X6036729Y-15316484D02*
X6036729Y-15116484D01*
X6036729Y-15116484D02*
X6103396Y-15259341D01*
X6103396Y-15259341D02*
X6170062Y-15116484D01*
X6170062Y-15116484D02*
X6170062Y-15316484D01*
X6351015Y-15316484D02*
X6351015Y-15211722D01*
X6351015Y-15211722D02*
X6341491Y-15192674D01*
X6341491Y-15192674D02*
X6322443Y-15183150D01*
X6322443Y-15183150D02*
X6284348Y-15183150D01*
X6284348Y-15183150D02*
X6265301Y-15192674D01*
X6351015Y-15306960D02*
X6331967Y-15316484D01*
X6331967Y-15316484D02*
X6284348Y-15316484D01*
X6284348Y-15316484D02*
X6265301Y-15306960D01*
X6265301Y-15306960D02*
X6255777Y-15287912D01*
X6255777Y-15287912D02*
X6255777Y-15268865D01*
X6255777Y-15268865D02*
X6265301Y-15249817D01*
X6265301Y-15249817D02*
X6284348Y-15240293D01*
X6284348Y-15240293D02*
X6331967Y-15240293D01*
X6331967Y-15240293D02*
X6351015Y-15230769D01*
X6446253Y-15183150D02*
X6446253Y-15383150D01*
X6446253Y-15192674D02*
X6465301Y-15183150D01*
X6465301Y-15183150D02*
X6503396Y-15183150D01*
X6503396Y-15183150D02*
X6522443Y-15192674D01*
X6522443Y-15192674D02*
X6531967Y-15202198D01*
X6531967Y-15202198D02*
X6541491Y-15221246D01*
X6541491Y-15221246D02*
X6541491Y-15278388D01*
X6541491Y-15278388D02*
X6531967Y-15297436D01*
X6531967Y-15297436D02*
X6522443Y-15306960D01*
X6522443Y-15306960D02*
X6503396Y-15316484D01*
X6503396Y-15316484D02*
X6465301Y-15316484D01*
X6465301Y-15316484D02*
X6446253Y-15306960D01*
X6627205Y-15297436D02*
X6636729Y-15306960D01*
X6636729Y-15306960D02*
X6627205Y-15316484D01*
X6627205Y-15316484D02*
X6617682Y-15306960D01*
X6617682Y-15306960D02*
X6627205Y-15297436D01*
X6627205Y-15297436D02*
X6627205Y-15316484D01*
X6627205Y-15192674D02*
X6636729Y-15202198D01*
X6636729Y-15202198D02*
X6627205Y-15211722D01*
X6627205Y-15211722D02*
X6617682Y-15202198D01*
X6617682Y-15202198D02*
X6627205Y-15192674D01*
X6627205Y-15192674D02*
X6627205Y-15211722D01*
D12*
X4835000Y-15565000D02*
X4995000Y-15725000D01*
X4995000Y-15565000D02*
X4835000Y-15725000D01*
D11*
X5360539Y-15736484D02*
X5246253Y-15736484D01*
X5303396Y-15736484D02*
X5303396Y-15536484D01*
X5303396Y-15536484D02*
X5284348Y-15565055D01*
X5284348Y-15565055D02*
X5265301Y-15584103D01*
X5265301Y-15584103D02*
X5246253Y-15593627D01*
X5446253Y-15717436D02*
X5455777Y-15726960D01*
X5455777Y-15726960D02*
X5446253Y-15736484D01*
X5446253Y-15736484D02*
X5436729Y-15726960D01*
X5436729Y-15726960D02*
X5446253Y-15717436D01*
X5446253Y-15717436D02*
X5446253Y-15736484D01*
X5627205Y-15536484D02*
X5589110Y-15536484D01*
X5589110Y-15536484D02*
X5570063Y-15546008D01*
X5570063Y-15546008D02*
X5560539Y-15555531D01*
X5560539Y-15555531D02*
X5541491Y-15584103D01*
X5541491Y-15584103D02*
X5531967Y-15622198D01*
X5531967Y-15622198D02*
X5531967Y-15698388D01*
X5531967Y-15698388D02*
X5541491Y-15717436D01*
X5541491Y-15717436D02*
X5551015Y-15726960D01*
X5551015Y-15726960D02*
X5570063Y-15736484D01*
X5570063Y-15736484D02*
X5608158Y-15736484D01*
X5608158Y-15736484D02*
X5627205Y-15726960D01*
X5627205Y-15726960D02*
X5636729Y-15717436D01*
X5636729Y-15717436D02*
X5646253Y-15698388D01*
X5646253Y-15698388D02*
X5646253Y-15650769D01*
X5646253Y-15650769D02*
X5636729Y-15631722D01*
X5636729Y-15631722D02*
X5627205Y-15622198D01*
X5627205Y-15622198D02*
X5608158Y-15612674D01*
X5608158Y-15612674D02*
X5570063Y-15612674D01*
X5570063Y-15612674D02*
X5551015Y-15622198D01*
X5551015Y-15622198D02*
X5541491Y-15631722D01*
X5541491Y-15631722D02*
X5531967Y-15650769D01*
X5770062Y-15536484D02*
X5789110Y-15536484D01*
X5789110Y-15536484D02*
X5808158Y-15546008D01*
X5808158Y-15546008D02*
X5817682Y-15555531D01*
X5817682Y-15555531D02*
X5827205Y-15574579D01*
X5827205Y-15574579D02*
X5836729Y-15612674D01*
X5836729Y-15612674D02*
X5836729Y-15660293D01*
X5836729Y-15660293D02*
X5827205Y-15698388D01*
X5827205Y-15698388D02*
X5817682Y-15717436D01*
X5817682Y-15717436D02*
X5808158Y-15726960D01*
X5808158Y-15726960D02*
X5789110Y-15736484D01*
X5789110Y-15736484D02*
X5770062Y-15736484D01*
X5770062Y-15736484D02*
X5751015Y-15726960D01*
X5751015Y-15726960D02*
X5741491Y-15717436D01*
X5741491Y-15717436D02*
X5731967Y-15698388D01*
X5731967Y-15698388D02*
X5722443Y-15660293D01*
X5722443Y-15660293D02*
X5722443Y-15612674D01*
X5722443Y-15612674D02*
X5731967Y-15574579D01*
X5731967Y-15574579D02*
X5741491Y-15555531D01*
X5741491Y-15555531D02*
X5751015Y-15546008D01*
X5751015Y-15546008D02*
X5770062Y-15536484D01*
X5960539Y-15536484D02*
X5979586Y-15536484D01*
X5979586Y-15536484D02*
X5998634Y-15546008D01*
X5998634Y-15546008D02*
X6008158Y-15555531D01*
X6008158Y-15555531D02*
X6017682Y-15574579D01*
X6017682Y-15574579D02*
X6027205Y-15612674D01*
X6027205Y-15612674D02*
X6027205Y-15660293D01*
X6027205Y-15660293D02*
X6017682Y-15698388D01*
X6017682Y-15698388D02*
X6008158Y-15717436D01*
X6008158Y-15717436D02*
X5998634Y-15726960D01*
X5998634Y-15726960D02*
X5979586Y-15736484D01*
X5979586Y-15736484D02*
X5960539Y-15736484D01*
X5960539Y-15736484D02*
X5941491Y-15726960D01*
X5941491Y-15726960D02*
X5931967Y-15717436D01*
X5931967Y-15717436D02*
X5922443Y-15698388D01*
X5922443Y-15698388D02*
X5912920Y-15660293D01*
X5912920Y-15660293D02*
X5912920Y-15612674D01*
X5912920Y-15612674D02*
X5922443Y-15574579D01*
X5922443Y-15574579D02*
X5931967Y-15555531D01*
X5931967Y-15555531D02*
X5941491Y-15546008D01*
X5941491Y-15546008D02*
X5960539Y-15536484D01*
X6112920Y-15736484D02*
X6112920Y-15603150D01*
X6112920Y-15622198D02*
X6122443Y-15612674D01*
X6122443Y-15612674D02*
X6141491Y-15603150D01*
X6141491Y-15603150D02*
X6170063Y-15603150D01*
X6170063Y-15603150D02*
X6189110Y-15612674D01*
X6189110Y-15612674D02*
X6198634Y-15631722D01*
X6198634Y-15631722D02*
X6198634Y-15736484D01*
X6198634Y-15631722D02*
X6208158Y-15612674D01*
X6208158Y-15612674D02*
X6227205Y-15603150D01*
X6227205Y-15603150D02*
X6255777Y-15603150D01*
X6255777Y-15603150D02*
X6274824Y-15612674D01*
X6274824Y-15612674D02*
X6284348Y-15631722D01*
X6284348Y-15631722D02*
X6284348Y-15736484D01*
X6379586Y-15736484D02*
X6379586Y-15603150D01*
X6379586Y-15622198D02*
X6389110Y-15612674D01*
X6389110Y-15612674D02*
X6408158Y-15603150D01*
X6408158Y-15603150D02*
X6436729Y-15603150D01*
X6436729Y-15603150D02*
X6455777Y-15612674D01*
X6455777Y-15612674D02*
X6465301Y-15631722D01*
X6465301Y-15631722D02*
X6465301Y-15736484D01*
X6465301Y-15631722D02*
X6474824Y-15612674D01*
X6474824Y-15612674D02*
X6493872Y-15603150D01*
X6493872Y-15603150D02*
X6522443Y-15603150D01*
X6522443Y-15603150D02*
X6541491Y-15612674D01*
X6541491Y-15612674D02*
X6551015Y-15631722D01*
X6551015Y-15631722D02*
X6551015Y-15736484D01*
X6941491Y-15526960D02*
X6770063Y-15784103D01*
X7198634Y-15536484D02*
X7217682Y-15536484D01*
X7217682Y-15536484D02*
X7236729Y-15546008D01*
X7236729Y-15546008D02*
X7246253Y-15555531D01*
X7246253Y-15555531D02*
X7255777Y-15574579D01*
X7255777Y-15574579D02*
X7265301Y-15612674D01*
X7265301Y-15612674D02*
X7265301Y-15660293D01*
X7265301Y-15660293D02*
X7255777Y-15698388D01*
X7255777Y-15698388D02*
X7246253Y-15717436D01*
X7246253Y-15717436D02*
X7236729Y-15726960D01*
X7236729Y-15726960D02*
X7217682Y-15736484D01*
X7217682Y-15736484D02*
X7198634Y-15736484D01*
X7198634Y-15736484D02*
X7179586Y-15726960D01*
X7179586Y-15726960D02*
X7170063Y-15717436D01*
X7170063Y-15717436D02*
X7160539Y-15698388D01*
X7160539Y-15698388D02*
X7151015Y-15660293D01*
X7151015Y-15660293D02*
X7151015Y-15612674D01*
X7151015Y-15612674D02*
X7160539Y-15574579D01*
X7160539Y-15574579D02*
X7170063Y-15555531D01*
X7170063Y-15555531D02*
X7179586Y-15546008D01*
X7179586Y-15546008D02*
X7198634Y-15536484D01*
X7351015Y-15717436D02*
X7360539Y-15726960D01*
X7360539Y-15726960D02*
X7351015Y-15736484D01*
X7351015Y-15736484D02*
X7341491Y-15726960D01*
X7341491Y-15726960D02*
X7351015Y-15717436D01*
X7351015Y-15717436D02*
X7351015Y-15736484D01*
X7484348Y-15536484D02*
X7503396Y-15536484D01*
X7503396Y-15536484D02*
X7522444Y-15546008D01*
X7522444Y-15546008D02*
X7531967Y-15555531D01*
X7531967Y-15555531D02*
X7541491Y-15574579D01*
X7541491Y-15574579D02*
X7551015Y-15612674D01*
X7551015Y-15612674D02*
X7551015Y-15660293D01*
X7551015Y-15660293D02*
X7541491Y-15698388D01*
X7541491Y-15698388D02*
X7531967Y-15717436D01*
X7531967Y-15717436D02*
X7522444Y-15726960D01*
X7522444Y-15726960D02*
X7503396Y-15736484D01*
X7503396Y-15736484D02*
X7484348Y-15736484D01*
X7484348Y-15736484D02*
X7465301Y-15726960D01*
X7465301Y-15726960D02*
X7455777Y-15717436D01*
X7455777Y-15717436D02*
X7446253Y-15698388D01*
X7446253Y-15698388D02*
X7436729Y-15660293D01*
X7436729Y-15660293D02*
X7436729Y-15612674D01*
X7436729Y-15612674D02*
X7446253Y-15574579D01*
X7446253Y-15574579D02*
X7455777Y-15555531D01*
X7455777Y-15555531D02*
X7465301Y-15546008D01*
X7465301Y-15546008D02*
X7484348Y-15536484D01*
X7722444Y-15536484D02*
X7684348Y-15536484D01*
X7684348Y-15536484D02*
X7665301Y-15546008D01*
X7665301Y-15546008D02*
X7655777Y-15555531D01*
X7655777Y-15555531D02*
X7636729Y-15584103D01*
X7636729Y-15584103D02*
X7627206Y-15622198D01*
X7627206Y-15622198D02*
X7627206Y-15698388D01*
X7627206Y-15698388D02*
X7636729Y-15717436D01*
X7636729Y-15717436D02*
X7646253Y-15726960D01*
X7646253Y-15726960D02*
X7665301Y-15736484D01*
X7665301Y-15736484D02*
X7703396Y-15736484D01*
X7703396Y-15736484D02*
X7722444Y-15726960D01*
X7722444Y-15726960D02*
X7731967Y-15717436D01*
X7731967Y-15717436D02*
X7741491Y-15698388D01*
X7741491Y-15698388D02*
X7741491Y-15650769D01*
X7741491Y-15650769D02*
X7731967Y-15631722D01*
X7731967Y-15631722D02*
X7722444Y-15622198D01*
X7722444Y-15622198D02*
X7703396Y-15612674D01*
X7703396Y-15612674D02*
X7665301Y-15612674D01*
X7665301Y-15612674D02*
X7646253Y-15622198D01*
X7646253Y-15622198D02*
X7636729Y-15631722D01*
X7636729Y-15631722D02*
X7627206Y-15650769D01*
X7808158Y-15536484D02*
X7931967Y-15536484D01*
X7931967Y-15536484D02*
X7865301Y-15612674D01*
X7865301Y-15612674D02*
X7893872Y-15612674D01*
X7893872Y-15612674D02*
X7912920Y-15622198D01*
X7912920Y-15622198D02*
X7922444Y-15631722D01*
X7922444Y-15631722D02*
X7931967Y-15650769D01*
X7931967Y-15650769D02*
X7931967Y-15698388D01*
X7931967Y-15698388D02*
X7922444Y-15717436D01*
X7922444Y-15717436D02*
X7912920Y-15726960D01*
X7912920Y-15726960D02*
X7893872Y-15736484D01*
X7893872Y-15736484D02*
X7836729Y-15736484D01*
X7836729Y-15736484D02*
X7817682Y-15726960D01*
X7817682Y-15726960D02*
X7808158Y-15717436D01*
X8055777Y-15536484D02*
X8074825Y-15536484D01*
X8074825Y-15536484D02*
X8093872Y-15546008D01*
X8093872Y-15546008D02*
X8103396Y-15555531D01*
X8103396Y-15555531D02*
X8112920Y-15574579D01*
X8112920Y-15574579D02*
X8122444Y-15612674D01*
X8122444Y-15612674D02*
X8122444Y-15660293D01*
X8122444Y-15660293D02*
X8112920Y-15698388D01*
X8112920Y-15698388D02*
X8103396Y-15717436D01*
X8103396Y-15717436D02*
X8093872Y-15726960D01*
X8093872Y-15726960D02*
X8074825Y-15736484D01*
X8074825Y-15736484D02*
X8055777Y-15736484D01*
X8055777Y-15736484D02*
X8036729Y-15726960D01*
X8036729Y-15726960D02*
X8027206Y-15717436D01*
X8027206Y-15717436D02*
X8017682Y-15698388D01*
X8017682Y-15698388D02*
X8008158Y-15660293D01*
X8008158Y-15660293D02*
X8008158Y-15612674D01*
X8008158Y-15612674D02*
X8017682Y-15574579D01*
X8017682Y-15574579D02*
X8027206Y-15555531D01*
X8027206Y-15555531D02*
X8036729Y-15546008D01*
X8036729Y-15546008D02*
X8055777Y-15536484D01*
X8198634Y-15536484D02*
X8198634Y-15574579D01*
X8274825Y-15536484D02*
X8274825Y-15574579D01*
X8570063Y-15812674D02*
X8560539Y-15803150D01*
X8560539Y-15803150D02*
X8541491Y-15774579D01*
X8541491Y-15774579D02*
X8531968Y-15755531D01*
X8531968Y-15755531D02*
X8522444Y-15726960D01*
X8522444Y-15726960D02*
X8512920Y-15679341D01*
X8512920Y-15679341D02*
X8512920Y-15641246D01*
X8512920Y-15641246D02*
X8522444Y-15593627D01*
X8522444Y-15593627D02*
X8531968Y-15565055D01*
X8531968Y-15565055D02*
X8541491Y-15546008D01*
X8541491Y-15546008D02*
X8560539Y-15517436D01*
X8560539Y-15517436D02*
X8570063Y-15507912D01*
X8751015Y-15736484D02*
X8636730Y-15736484D01*
X8693872Y-15736484D02*
X8693872Y-15536484D01*
X8693872Y-15536484D02*
X8674825Y-15565055D01*
X8674825Y-15565055D02*
X8655777Y-15584103D01*
X8655777Y-15584103D02*
X8636730Y-15593627D01*
X8989111Y-15736484D02*
X8989111Y-15536484D01*
X9074825Y-15736484D02*
X9074825Y-15631722D01*
X9074825Y-15631722D02*
X9065301Y-15612674D01*
X9065301Y-15612674D02*
X9046253Y-15603150D01*
X9046253Y-15603150D02*
X9017682Y-15603150D01*
X9017682Y-15603150D02*
X8998634Y-15612674D01*
X8998634Y-15612674D02*
X8989111Y-15622198D01*
X9198634Y-15736484D02*
X9179587Y-15726960D01*
X9179587Y-15726960D02*
X9170063Y-15717436D01*
X9170063Y-15717436D02*
X9160539Y-15698388D01*
X9160539Y-15698388D02*
X9160539Y-15641246D01*
X9160539Y-15641246D02*
X9170063Y-15622198D01*
X9170063Y-15622198D02*
X9179587Y-15612674D01*
X9179587Y-15612674D02*
X9198634Y-15603150D01*
X9198634Y-15603150D02*
X9227206Y-15603150D01*
X9227206Y-15603150D02*
X9246253Y-15612674D01*
X9246253Y-15612674D02*
X9255777Y-15622198D01*
X9255777Y-15622198D02*
X9265301Y-15641246D01*
X9265301Y-15641246D02*
X9265301Y-15698388D01*
X9265301Y-15698388D02*
X9255777Y-15717436D01*
X9255777Y-15717436D02*
X9246253Y-15726960D01*
X9246253Y-15726960D02*
X9227206Y-15736484D01*
X9227206Y-15736484D02*
X9198634Y-15736484D01*
X9379587Y-15736484D02*
X9360539Y-15726960D01*
X9360539Y-15726960D02*
X9351015Y-15707912D01*
X9351015Y-15707912D02*
X9351015Y-15536484D01*
X9531968Y-15726960D02*
X9512920Y-15736484D01*
X9512920Y-15736484D02*
X9474825Y-15736484D01*
X9474825Y-15736484D02*
X9455777Y-15726960D01*
X9455777Y-15726960D02*
X9446253Y-15707912D01*
X9446253Y-15707912D02*
X9446253Y-15631722D01*
X9446253Y-15631722D02*
X9455777Y-15612674D01*
X9455777Y-15612674D02*
X9474825Y-15603150D01*
X9474825Y-15603150D02*
X9512920Y-15603150D01*
X9512920Y-15603150D02*
X9531968Y-15612674D01*
X9531968Y-15612674D02*
X9541492Y-15631722D01*
X9541492Y-15631722D02*
X9541492Y-15650769D01*
X9541492Y-15650769D02*
X9446253Y-15669817D01*
X9608158Y-15812674D02*
X9617682Y-15803150D01*
X9617682Y-15803150D02*
X9636730Y-15774579D01*
X9636730Y-15774579D02*
X9646253Y-15755531D01*
X9646253Y-15755531D02*
X9655777Y-15726960D01*
X9655777Y-15726960D02*
X9665301Y-15679341D01*
X9665301Y-15679341D02*
X9665301Y-15641246D01*
X9665301Y-15641246D02*
X9655777Y-15593627D01*
X9655777Y-15593627D02*
X9646253Y-15565055D01*
X9646253Y-15565055D02*
X9636730Y-15546008D01*
X9636730Y-15546008D02*
X9617682Y-15517436D01*
X9617682Y-15517436D02*
X9608158Y-15507912D01*
X9970063Y-15812674D02*
X9960539Y-15803150D01*
X9960539Y-15803150D02*
X9941492Y-15774579D01*
X9941492Y-15774579D02*
X9931968Y-15755531D01*
X9931968Y-15755531D02*
X9922444Y-15726960D01*
X9922444Y-15726960D02*
X9912920Y-15679341D01*
X9912920Y-15679341D02*
X9912920Y-15641246D01*
X9912920Y-15641246D02*
X9922444Y-15593627D01*
X9922444Y-15593627D02*
X9931968Y-15565055D01*
X9931968Y-15565055D02*
X9941492Y-15546008D01*
X9941492Y-15546008D02*
X9960539Y-15517436D01*
X9960539Y-15517436D02*
X9970063Y-15507912D01*
X10046253Y-15603150D02*
X10046253Y-15736484D01*
X10046253Y-15622198D02*
X10055777Y-15612674D01*
X10055777Y-15612674D02*
X10074825Y-15603150D01*
X10074825Y-15603150D02*
X10103396Y-15603150D01*
X10103396Y-15603150D02*
X10122444Y-15612674D01*
X10122444Y-15612674D02*
X10131968Y-15631722D01*
X10131968Y-15631722D02*
X10131968Y-15736484D01*
X10255777Y-15736484D02*
X10236730Y-15726960D01*
X10236730Y-15726960D02*
X10227206Y-15717436D01*
X10227206Y-15717436D02*
X10217682Y-15698388D01*
X10217682Y-15698388D02*
X10217682Y-15641246D01*
X10217682Y-15641246D02*
X10227206Y-15622198D01*
X10227206Y-15622198D02*
X10236730Y-15612674D01*
X10236730Y-15612674D02*
X10255777Y-15603150D01*
X10255777Y-15603150D02*
X10284349Y-15603150D01*
X10284349Y-15603150D02*
X10303396Y-15612674D01*
X10303396Y-15612674D02*
X10312920Y-15622198D01*
X10312920Y-15622198D02*
X10322444Y-15641246D01*
X10322444Y-15641246D02*
X10322444Y-15698388D01*
X10322444Y-15698388D02*
X10312920Y-15717436D01*
X10312920Y-15717436D02*
X10303396Y-15726960D01*
X10303396Y-15726960D02*
X10284349Y-15736484D01*
X10284349Y-15736484D02*
X10255777Y-15736484D01*
X10379587Y-15603150D02*
X10455777Y-15603150D01*
X10408158Y-15536484D02*
X10408158Y-15707912D01*
X10408158Y-15707912D02*
X10417682Y-15726960D01*
X10417682Y-15726960D02*
X10436730Y-15736484D01*
X10436730Y-15736484D02*
X10455777Y-15736484D01*
X10674825Y-15603150D02*
X10674825Y-15803150D01*
X10674825Y-15612674D02*
X10693873Y-15603150D01*
X10693873Y-15603150D02*
X10731968Y-15603150D01*
X10731968Y-15603150D02*
X10751015Y-15612674D01*
X10751015Y-15612674D02*
X10760539Y-15622198D01*
X10760539Y-15622198D02*
X10770063Y-15641246D01*
X10770063Y-15641246D02*
X10770063Y-15698388D01*
X10770063Y-15698388D02*
X10760539Y-15717436D01*
X10760539Y-15717436D02*
X10751015Y-15726960D01*
X10751015Y-15726960D02*
X10731968Y-15736484D01*
X10731968Y-15736484D02*
X10693873Y-15736484D01*
X10693873Y-15736484D02*
X10674825Y-15726960D01*
X10884349Y-15736484D02*
X10865301Y-15726960D01*
X10865301Y-15726960D02*
X10855777Y-15707912D01*
X10855777Y-15707912D02*
X10855777Y-15536484D01*
X11046254Y-15736484D02*
X11046254Y-15631722D01*
X11046254Y-15631722D02*
X11036730Y-15612674D01*
X11036730Y-15612674D02*
X11017682Y-15603150D01*
X11017682Y-15603150D02*
X10979587Y-15603150D01*
X10979587Y-15603150D02*
X10960539Y-15612674D01*
X11046254Y-15726960D02*
X11027206Y-15736484D01*
X11027206Y-15736484D02*
X10979587Y-15736484D01*
X10979587Y-15736484D02*
X10960539Y-15726960D01*
X10960539Y-15726960D02*
X10951015Y-15707912D01*
X10951015Y-15707912D02*
X10951015Y-15688865D01*
X10951015Y-15688865D02*
X10960539Y-15669817D01*
X10960539Y-15669817D02*
X10979587Y-15660293D01*
X10979587Y-15660293D02*
X11027206Y-15660293D01*
X11027206Y-15660293D02*
X11046254Y-15650769D01*
X11112920Y-15603150D02*
X11189111Y-15603150D01*
X11141492Y-15536484D02*
X11141492Y-15707912D01*
X11141492Y-15707912D02*
X11151015Y-15726960D01*
X11151015Y-15726960D02*
X11170063Y-15736484D01*
X11170063Y-15736484D02*
X11189111Y-15736484D01*
X11331968Y-15726960D02*
X11312920Y-15736484D01*
X11312920Y-15736484D02*
X11274825Y-15736484D01*
X11274825Y-15736484D02*
X11255777Y-15726960D01*
X11255777Y-15726960D02*
X11246253Y-15707912D01*
X11246253Y-15707912D02*
X11246253Y-15631722D01*
X11246253Y-15631722D02*
X11255777Y-15612674D01*
X11255777Y-15612674D02*
X11274825Y-15603150D01*
X11274825Y-15603150D02*
X11312920Y-15603150D01*
X11312920Y-15603150D02*
X11331968Y-15612674D01*
X11331968Y-15612674D02*
X11341492Y-15631722D01*
X11341492Y-15631722D02*
X11341492Y-15650769D01*
X11341492Y-15650769D02*
X11246253Y-15669817D01*
X11512920Y-15736484D02*
X11512920Y-15536484D01*
X11512920Y-15726960D02*
X11493873Y-15736484D01*
X11493873Y-15736484D02*
X11455777Y-15736484D01*
X11455777Y-15736484D02*
X11436730Y-15726960D01*
X11436730Y-15726960D02*
X11427206Y-15717436D01*
X11427206Y-15717436D02*
X11417682Y-15698388D01*
X11417682Y-15698388D02*
X11417682Y-15641246D01*
X11417682Y-15641246D02*
X11427206Y-15622198D01*
X11427206Y-15622198D02*
X11436730Y-15612674D01*
X11436730Y-15612674D02*
X11455777Y-15603150D01*
X11455777Y-15603150D02*
X11493873Y-15603150D01*
X11493873Y-15603150D02*
X11512920Y-15612674D01*
X11589111Y-15812674D02*
X11598634Y-15803150D01*
X11598634Y-15803150D02*
X11617682Y-15774579D01*
X11617682Y-15774579D02*
X11627206Y-15755531D01*
X11627206Y-15755531D02*
X11636730Y-15726960D01*
X11636730Y-15726960D02*
X11646253Y-15679341D01*
X11646253Y-15679341D02*
X11646253Y-15641246D01*
X11646253Y-15641246D02*
X11636730Y-15593627D01*
X11636730Y-15593627D02*
X11627206Y-15565055D01*
X11627206Y-15565055D02*
X11617682Y-15546008D01*
X11617682Y-15546008D02*
X11598634Y-15517436D01*
X11598634Y-15517436D02*
X11589111Y-15507912D01*
D13*
X4995000Y-15925000D02*
G75*
G02*
X4815000Y-15925000I-90000J0D01*
G01*
X4815000Y-15925000D02*
G75*
G02*
X4995000Y-15925000I90000J0D01*
G01*
D11*
X5360539Y-16016484D02*
X5246253Y-16016484D01*
X5303396Y-16016484D02*
X5303396Y-15816484D01*
X5303396Y-15816484D02*
X5284348Y-15845055D01*
X5284348Y-15845055D02*
X5265301Y-15864103D01*
X5265301Y-15864103D02*
X5246253Y-15873627D01*
X5446253Y-15997436D02*
X5455777Y-16006960D01*
X5455777Y-16006960D02*
X5446253Y-16016484D01*
X5446253Y-16016484D02*
X5436729Y-16006960D01*
X5436729Y-16006960D02*
X5446253Y-15997436D01*
X5446253Y-15997436D02*
X5446253Y-16016484D01*
X5570063Y-15902198D02*
X5551015Y-15892674D01*
X5551015Y-15892674D02*
X5541491Y-15883150D01*
X5541491Y-15883150D02*
X5531967Y-15864103D01*
X5531967Y-15864103D02*
X5531967Y-15854579D01*
X5531967Y-15854579D02*
X5541491Y-15835531D01*
X5541491Y-15835531D02*
X5551015Y-15826008D01*
X5551015Y-15826008D02*
X5570063Y-15816484D01*
X5570063Y-15816484D02*
X5608158Y-15816484D01*
X5608158Y-15816484D02*
X5627205Y-15826008D01*
X5627205Y-15826008D02*
X5636729Y-15835531D01*
X5636729Y-15835531D02*
X5646253Y-15854579D01*
X5646253Y-15854579D02*
X5646253Y-15864103D01*
X5646253Y-15864103D02*
X5636729Y-15883150D01*
X5636729Y-15883150D02*
X5627205Y-15892674D01*
X5627205Y-15892674D02*
X5608158Y-15902198D01*
X5608158Y-15902198D02*
X5570063Y-15902198D01*
X5570063Y-15902198D02*
X5551015Y-15911722D01*
X5551015Y-15911722D02*
X5541491Y-15921246D01*
X5541491Y-15921246D02*
X5531967Y-15940293D01*
X5531967Y-15940293D02*
X5531967Y-15978388D01*
X5531967Y-15978388D02*
X5541491Y-15997436D01*
X5541491Y-15997436D02*
X5551015Y-16006960D01*
X5551015Y-16006960D02*
X5570063Y-16016484D01*
X5570063Y-16016484D02*
X5608158Y-16016484D01*
X5608158Y-16016484D02*
X5627205Y-16006960D01*
X5627205Y-16006960D02*
X5636729Y-15997436D01*
X5636729Y-15997436D02*
X5646253Y-15978388D01*
X5646253Y-15978388D02*
X5646253Y-15940293D01*
X5646253Y-15940293D02*
X5636729Y-15921246D01*
X5636729Y-15921246D02*
X5627205Y-15911722D01*
X5627205Y-15911722D02*
X5608158Y-15902198D01*
X5770062Y-15816484D02*
X5789110Y-15816484D01*
X5789110Y-15816484D02*
X5808158Y-15826008D01*
X5808158Y-15826008D02*
X5817682Y-15835531D01*
X5817682Y-15835531D02*
X5827205Y-15854579D01*
X5827205Y-15854579D02*
X5836729Y-15892674D01*
X5836729Y-15892674D02*
X5836729Y-15940293D01*
X5836729Y-15940293D02*
X5827205Y-15978388D01*
X5827205Y-15978388D02*
X5817682Y-15997436D01*
X5817682Y-15997436D02*
X5808158Y-16006960D01*
X5808158Y-16006960D02*
X5789110Y-16016484D01*
X5789110Y-16016484D02*
X5770062Y-16016484D01*
X5770062Y-16016484D02*
X5751015Y-16006960D01*
X5751015Y-16006960D02*
X5741491Y-15997436D01*
X5741491Y-15997436D02*
X5731967Y-15978388D01*
X5731967Y-15978388D02*
X5722443Y-15940293D01*
X5722443Y-15940293D02*
X5722443Y-15892674D01*
X5722443Y-15892674D02*
X5731967Y-15854579D01*
X5731967Y-15854579D02*
X5741491Y-15835531D01*
X5741491Y-15835531D02*
X5751015Y-15826008D01*
X5751015Y-15826008D02*
X5770062Y-15816484D01*
X5960539Y-15816484D02*
X5979586Y-15816484D01*
X5979586Y-15816484D02*
X5998634Y-15826008D01*
X5998634Y-15826008D02*
X6008158Y-15835531D01*
X6008158Y-15835531D02*
X6017682Y-15854579D01*
X6017682Y-15854579D02*
X6027205Y-15892674D01*
X6027205Y-15892674D02*
X6027205Y-15940293D01*
X6027205Y-15940293D02*
X6017682Y-15978388D01*
X6017682Y-15978388D02*
X6008158Y-15997436D01*
X6008158Y-15997436D02*
X5998634Y-16006960D01*
X5998634Y-16006960D02*
X5979586Y-16016484D01*
X5979586Y-16016484D02*
X5960539Y-16016484D01*
X5960539Y-16016484D02*
X5941491Y-16006960D01*
X5941491Y-16006960D02*
X5931967Y-15997436D01*
X5931967Y-15997436D02*
X5922443Y-15978388D01*
X5922443Y-15978388D02*
X5912920Y-15940293D01*
X5912920Y-15940293D02*
X5912920Y-15892674D01*
X5912920Y-15892674D02*
X5922443Y-15854579D01*
X5922443Y-15854579D02*
X5931967Y-15835531D01*
X5931967Y-15835531D02*
X5941491Y-15826008D01*
X5941491Y-15826008D02*
X5960539Y-15816484D01*
X6112920Y-16016484D02*
X6112920Y-15883150D01*
X6112920Y-15902198D02*
X6122443Y-15892674D01*
X6122443Y-15892674D02*
X6141491Y-15883150D01*
X6141491Y-15883150D02*
X6170063Y-15883150D01*
X6170063Y-15883150D02*
X6189110Y-15892674D01*
X6189110Y-15892674D02*
X6198634Y-15911722D01*
X6198634Y-15911722D02*
X6198634Y-16016484D01*
X6198634Y-15911722D02*
X6208158Y-15892674D01*
X6208158Y-15892674D02*
X6227205Y-15883150D01*
X6227205Y-15883150D02*
X6255777Y-15883150D01*
X6255777Y-15883150D02*
X6274824Y-15892674D01*
X6274824Y-15892674D02*
X6284348Y-15911722D01*
X6284348Y-15911722D02*
X6284348Y-16016484D01*
X6379586Y-16016484D02*
X6379586Y-15883150D01*
X6379586Y-15902198D02*
X6389110Y-15892674D01*
X6389110Y-15892674D02*
X6408158Y-15883150D01*
X6408158Y-15883150D02*
X6436729Y-15883150D01*
X6436729Y-15883150D02*
X6455777Y-15892674D01*
X6455777Y-15892674D02*
X6465301Y-15911722D01*
X6465301Y-15911722D02*
X6465301Y-16016484D01*
X6465301Y-15911722D02*
X6474824Y-15892674D01*
X6474824Y-15892674D02*
X6493872Y-15883150D01*
X6493872Y-15883150D02*
X6522443Y-15883150D01*
X6522443Y-15883150D02*
X6541491Y-15892674D01*
X6541491Y-15892674D02*
X6551015Y-15911722D01*
X6551015Y-15911722D02*
X6551015Y-16016484D01*
X6941491Y-15806960D02*
X6770063Y-16064103D01*
X7198634Y-15816484D02*
X7217682Y-15816484D01*
X7217682Y-15816484D02*
X7236729Y-15826008D01*
X7236729Y-15826008D02*
X7246253Y-15835531D01*
X7246253Y-15835531D02*
X7255777Y-15854579D01*
X7255777Y-15854579D02*
X7265301Y-15892674D01*
X7265301Y-15892674D02*
X7265301Y-15940293D01*
X7265301Y-15940293D02*
X7255777Y-15978388D01*
X7255777Y-15978388D02*
X7246253Y-15997436D01*
X7246253Y-15997436D02*
X7236729Y-16006960D01*
X7236729Y-16006960D02*
X7217682Y-16016484D01*
X7217682Y-16016484D02*
X7198634Y-16016484D01*
X7198634Y-16016484D02*
X7179586Y-16006960D01*
X7179586Y-16006960D02*
X7170063Y-15997436D01*
X7170063Y-15997436D02*
X7160539Y-15978388D01*
X7160539Y-15978388D02*
X7151015Y-15940293D01*
X7151015Y-15940293D02*
X7151015Y-15892674D01*
X7151015Y-15892674D02*
X7160539Y-15854579D01*
X7160539Y-15854579D02*
X7170063Y-15835531D01*
X7170063Y-15835531D02*
X7179586Y-15826008D01*
X7179586Y-15826008D02*
X7198634Y-15816484D01*
X7351015Y-15997436D02*
X7360539Y-16006960D01*
X7360539Y-16006960D02*
X7351015Y-16016484D01*
X7351015Y-16016484D02*
X7341491Y-16006960D01*
X7341491Y-16006960D02*
X7351015Y-15997436D01*
X7351015Y-15997436D02*
X7351015Y-16016484D01*
X7484348Y-15816484D02*
X7503396Y-15816484D01*
X7503396Y-15816484D02*
X7522444Y-15826008D01*
X7522444Y-15826008D02*
X7531967Y-15835531D01*
X7531967Y-15835531D02*
X7541491Y-15854579D01*
X7541491Y-15854579D02*
X7551015Y-15892674D01*
X7551015Y-15892674D02*
X7551015Y-15940293D01*
X7551015Y-15940293D02*
X7541491Y-15978388D01*
X7541491Y-15978388D02*
X7531967Y-15997436D01*
X7531967Y-15997436D02*
X7522444Y-16006960D01*
X7522444Y-16006960D02*
X7503396Y-16016484D01*
X7503396Y-16016484D02*
X7484348Y-16016484D01*
X7484348Y-16016484D02*
X7465301Y-16006960D01*
X7465301Y-16006960D02*
X7455777Y-15997436D01*
X7455777Y-15997436D02*
X7446253Y-15978388D01*
X7446253Y-15978388D02*
X7436729Y-15940293D01*
X7436729Y-15940293D02*
X7436729Y-15892674D01*
X7436729Y-15892674D02*
X7446253Y-15854579D01*
X7446253Y-15854579D02*
X7455777Y-15835531D01*
X7455777Y-15835531D02*
X7465301Y-15826008D01*
X7465301Y-15826008D02*
X7484348Y-15816484D01*
X7617682Y-15816484D02*
X7751015Y-15816484D01*
X7751015Y-15816484D02*
X7665301Y-16016484D01*
X7865301Y-15816484D02*
X7884348Y-15816484D01*
X7884348Y-15816484D02*
X7903396Y-15826008D01*
X7903396Y-15826008D02*
X7912920Y-15835531D01*
X7912920Y-15835531D02*
X7922444Y-15854579D01*
X7922444Y-15854579D02*
X7931967Y-15892674D01*
X7931967Y-15892674D02*
X7931967Y-15940293D01*
X7931967Y-15940293D02*
X7922444Y-15978388D01*
X7922444Y-15978388D02*
X7912920Y-15997436D01*
X7912920Y-15997436D02*
X7903396Y-16006960D01*
X7903396Y-16006960D02*
X7884348Y-16016484D01*
X7884348Y-16016484D02*
X7865301Y-16016484D01*
X7865301Y-16016484D02*
X7846253Y-16006960D01*
X7846253Y-16006960D02*
X7836729Y-15997436D01*
X7836729Y-15997436D02*
X7827206Y-15978388D01*
X7827206Y-15978388D02*
X7817682Y-15940293D01*
X7817682Y-15940293D02*
X7817682Y-15892674D01*
X7817682Y-15892674D02*
X7827206Y-15854579D01*
X7827206Y-15854579D02*
X7836729Y-15835531D01*
X7836729Y-15835531D02*
X7846253Y-15826008D01*
X7846253Y-15826008D02*
X7865301Y-15816484D01*
X8027206Y-16016484D02*
X8065301Y-16016484D01*
X8065301Y-16016484D02*
X8084348Y-16006960D01*
X8084348Y-16006960D02*
X8093872Y-15997436D01*
X8093872Y-15997436D02*
X8112920Y-15968865D01*
X8112920Y-15968865D02*
X8122444Y-15930769D01*
X8122444Y-15930769D02*
X8122444Y-15854579D01*
X8122444Y-15854579D02*
X8112920Y-15835531D01*
X8112920Y-15835531D02*
X8103396Y-15826008D01*
X8103396Y-15826008D02*
X8084348Y-15816484D01*
X8084348Y-15816484D02*
X8046253Y-15816484D01*
X8046253Y-15816484D02*
X8027206Y-15826008D01*
X8027206Y-15826008D02*
X8017682Y-15835531D01*
X8017682Y-15835531D02*
X8008158Y-15854579D01*
X8008158Y-15854579D02*
X8008158Y-15902198D01*
X8008158Y-15902198D02*
X8017682Y-15921246D01*
X8017682Y-15921246D02*
X8027206Y-15930769D01*
X8027206Y-15930769D02*
X8046253Y-15940293D01*
X8046253Y-15940293D02*
X8084348Y-15940293D01*
X8084348Y-15940293D02*
X8103396Y-15930769D01*
X8103396Y-15930769D02*
X8112920Y-15921246D01*
X8112920Y-15921246D02*
X8122444Y-15902198D01*
X8198634Y-15816484D02*
X8198634Y-15854579D01*
X8274825Y-15816484D02*
X8274825Y-15854579D01*
X8570063Y-16092674D02*
X8560539Y-16083150D01*
X8560539Y-16083150D02*
X8541491Y-16054579D01*
X8541491Y-16054579D02*
X8531968Y-16035531D01*
X8531968Y-16035531D02*
X8522444Y-16006960D01*
X8522444Y-16006960D02*
X8512920Y-15959341D01*
X8512920Y-15959341D02*
X8512920Y-15921246D01*
X8512920Y-15921246D02*
X8522444Y-15873627D01*
X8522444Y-15873627D02*
X8531968Y-15845055D01*
X8531968Y-15845055D02*
X8541491Y-15826008D01*
X8541491Y-15826008D02*
X8560539Y-15797436D01*
X8560539Y-15797436D02*
X8570063Y-15787912D01*
X8751015Y-16016484D02*
X8636730Y-16016484D01*
X8693872Y-16016484D02*
X8693872Y-15816484D01*
X8693872Y-15816484D02*
X8674825Y-15845055D01*
X8674825Y-15845055D02*
X8655777Y-15864103D01*
X8655777Y-15864103D02*
X8636730Y-15873627D01*
X8989111Y-16016484D02*
X8989111Y-15816484D01*
X9074825Y-16016484D02*
X9074825Y-15911722D01*
X9074825Y-15911722D02*
X9065301Y-15892674D01*
X9065301Y-15892674D02*
X9046253Y-15883150D01*
X9046253Y-15883150D02*
X9017682Y-15883150D01*
X9017682Y-15883150D02*
X8998634Y-15892674D01*
X8998634Y-15892674D02*
X8989111Y-15902198D01*
X9198634Y-16016484D02*
X9179587Y-16006960D01*
X9179587Y-16006960D02*
X9170063Y-15997436D01*
X9170063Y-15997436D02*
X9160539Y-15978388D01*
X9160539Y-15978388D02*
X9160539Y-15921246D01*
X9160539Y-15921246D02*
X9170063Y-15902198D01*
X9170063Y-15902198D02*
X9179587Y-15892674D01*
X9179587Y-15892674D02*
X9198634Y-15883150D01*
X9198634Y-15883150D02*
X9227206Y-15883150D01*
X9227206Y-15883150D02*
X9246253Y-15892674D01*
X9246253Y-15892674D02*
X9255777Y-15902198D01*
X9255777Y-15902198D02*
X9265301Y-15921246D01*
X9265301Y-15921246D02*
X9265301Y-15978388D01*
X9265301Y-15978388D02*
X9255777Y-15997436D01*
X9255777Y-15997436D02*
X9246253Y-16006960D01*
X9246253Y-16006960D02*
X9227206Y-16016484D01*
X9227206Y-16016484D02*
X9198634Y-16016484D01*
X9379587Y-16016484D02*
X9360539Y-16006960D01*
X9360539Y-16006960D02*
X9351015Y-15987912D01*
X9351015Y-15987912D02*
X9351015Y-15816484D01*
X9531968Y-16006960D02*
X9512920Y-16016484D01*
X9512920Y-16016484D02*
X9474825Y-16016484D01*
X9474825Y-16016484D02*
X9455777Y-16006960D01*
X9455777Y-16006960D02*
X9446253Y-15987912D01*
X9446253Y-15987912D02*
X9446253Y-15911722D01*
X9446253Y-15911722D02*
X9455777Y-15892674D01*
X9455777Y-15892674D02*
X9474825Y-15883150D01*
X9474825Y-15883150D02*
X9512920Y-15883150D01*
X9512920Y-15883150D02*
X9531968Y-15892674D01*
X9531968Y-15892674D02*
X9541492Y-15911722D01*
X9541492Y-15911722D02*
X9541492Y-15930769D01*
X9541492Y-15930769D02*
X9446253Y-15949817D01*
X9608158Y-16092674D02*
X9617682Y-16083150D01*
X9617682Y-16083150D02*
X9636730Y-16054579D01*
X9636730Y-16054579D02*
X9646253Y-16035531D01*
X9646253Y-16035531D02*
X9655777Y-16006960D01*
X9655777Y-16006960D02*
X9665301Y-15959341D01*
X9665301Y-15959341D02*
X9665301Y-15921246D01*
X9665301Y-15921246D02*
X9655777Y-15873627D01*
X9655777Y-15873627D02*
X9646253Y-15845055D01*
X9646253Y-15845055D02*
X9636730Y-15826008D01*
X9636730Y-15826008D02*
X9617682Y-15797436D01*
X9617682Y-15797436D02*
X9608158Y-15787912D01*
X9970063Y-16092674D02*
X9960539Y-16083150D01*
X9960539Y-16083150D02*
X9941492Y-16054579D01*
X9941492Y-16054579D02*
X9931968Y-16035531D01*
X9931968Y-16035531D02*
X9922444Y-16006960D01*
X9922444Y-16006960D02*
X9912920Y-15959341D01*
X9912920Y-15959341D02*
X9912920Y-15921246D01*
X9912920Y-15921246D02*
X9922444Y-15873627D01*
X9922444Y-15873627D02*
X9931968Y-15845055D01*
X9931968Y-15845055D02*
X9941492Y-15826008D01*
X9941492Y-15826008D02*
X9960539Y-15797436D01*
X9960539Y-15797436D02*
X9970063Y-15787912D01*
X10046253Y-15883150D02*
X10046253Y-16016484D01*
X10046253Y-15902198D02*
X10055777Y-15892674D01*
X10055777Y-15892674D02*
X10074825Y-15883150D01*
X10074825Y-15883150D02*
X10103396Y-15883150D01*
X10103396Y-15883150D02*
X10122444Y-15892674D01*
X10122444Y-15892674D02*
X10131968Y-15911722D01*
X10131968Y-15911722D02*
X10131968Y-16016484D01*
X10255777Y-16016484D02*
X10236730Y-16006960D01*
X10236730Y-16006960D02*
X10227206Y-15997436D01*
X10227206Y-15997436D02*
X10217682Y-15978388D01*
X10217682Y-15978388D02*
X10217682Y-15921246D01*
X10217682Y-15921246D02*
X10227206Y-15902198D01*
X10227206Y-15902198D02*
X10236730Y-15892674D01*
X10236730Y-15892674D02*
X10255777Y-15883150D01*
X10255777Y-15883150D02*
X10284349Y-15883150D01*
X10284349Y-15883150D02*
X10303396Y-15892674D01*
X10303396Y-15892674D02*
X10312920Y-15902198D01*
X10312920Y-15902198D02*
X10322444Y-15921246D01*
X10322444Y-15921246D02*
X10322444Y-15978388D01*
X10322444Y-15978388D02*
X10312920Y-15997436D01*
X10312920Y-15997436D02*
X10303396Y-16006960D01*
X10303396Y-16006960D02*
X10284349Y-16016484D01*
X10284349Y-16016484D02*
X10255777Y-16016484D01*
X10379587Y-15883150D02*
X10455777Y-15883150D01*
X10408158Y-15816484D02*
X10408158Y-15987912D01*
X10408158Y-15987912D02*
X10417682Y-16006960D01*
X10417682Y-16006960D02*
X10436730Y-16016484D01*
X10436730Y-16016484D02*
X10455777Y-16016484D01*
X10674825Y-15883150D02*
X10674825Y-16083150D01*
X10674825Y-15892674D02*
X10693873Y-15883150D01*
X10693873Y-15883150D02*
X10731968Y-15883150D01*
X10731968Y-15883150D02*
X10751015Y-15892674D01*
X10751015Y-15892674D02*
X10760539Y-15902198D01*
X10760539Y-15902198D02*
X10770063Y-15921246D01*
X10770063Y-15921246D02*
X10770063Y-15978388D01*
X10770063Y-15978388D02*
X10760539Y-15997436D01*
X10760539Y-15997436D02*
X10751015Y-16006960D01*
X10751015Y-16006960D02*
X10731968Y-16016484D01*
X10731968Y-16016484D02*
X10693873Y-16016484D01*
X10693873Y-16016484D02*
X10674825Y-16006960D01*
X10884349Y-16016484D02*
X10865301Y-16006960D01*
X10865301Y-16006960D02*
X10855777Y-15987912D01*
X10855777Y-15987912D02*
X10855777Y-15816484D01*
X11046254Y-16016484D02*
X11046254Y-15911722D01*
X11046254Y-15911722D02*
X11036730Y-15892674D01*
X11036730Y-15892674D02*
X11017682Y-15883150D01*
X11017682Y-15883150D02*
X10979587Y-15883150D01*
X10979587Y-15883150D02*
X10960539Y-15892674D01*
X11046254Y-16006960D02*
X11027206Y-16016484D01*
X11027206Y-16016484D02*
X10979587Y-16016484D01*
X10979587Y-16016484D02*
X10960539Y-16006960D01*
X10960539Y-16006960D02*
X10951015Y-15987912D01*
X10951015Y-15987912D02*
X10951015Y-15968865D01*
X10951015Y-15968865D02*
X10960539Y-15949817D01*
X10960539Y-15949817D02*
X10979587Y-15940293D01*
X10979587Y-15940293D02*
X11027206Y-15940293D01*
X11027206Y-15940293D02*
X11046254Y-15930769D01*
X11112920Y-15883150D02*
X11189111Y-15883150D01*
X11141492Y-15816484D02*
X11141492Y-15987912D01*
X11141492Y-15987912D02*
X11151015Y-16006960D01*
X11151015Y-16006960D02*
X11170063Y-16016484D01*
X11170063Y-16016484D02*
X11189111Y-16016484D01*
X11331968Y-16006960D02*
X11312920Y-16016484D01*
X11312920Y-16016484D02*
X11274825Y-16016484D01*
X11274825Y-16016484D02*
X11255777Y-16006960D01*
X11255777Y-16006960D02*
X11246253Y-15987912D01*
X11246253Y-15987912D02*
X11246253Y-15911722D01*
X11246253Y-15911722D02*
X11255777Y-15892674D01*
X11255777Y-15892674D02*
X11274825Y-15883150D01*
X11274825Y-15883150D02*
X11312920Y-15883150D01*
X11312920Y-15883150D02*
X11331968Y-15892674D01*
X11331968Y-15892674D02*
X11341492Y-15911722D01*
X11341492Y-15911722D02*
X11341492Y-15930769D01*
X11341492Y-15930769D02*
X11246253Y-15949817D01*
X11512920Y-16016484D02*
X11512920Y-15816484D01*
X11512920Y-16006960D02*
X11493873Y-16016484D01*
X11493873Y-16016484D02*
X11455777Y-16016484D01*
X11455777Y-16016484D02*
X11436730Y-16006960D01*
X11436730Y-16006960D02*
X11427206Y-15997436D01*
X11427206Y-15997436D02*
X11417682Y-15978388D01*
X11417682Y-15978388D02*
X11417682Y-15921246D01*
X11417682Y-15921246D02*
X11427206Y-15902198D01*
X11427206Y-15902198D02*
X11436730Y-15892674D01*
X11436730Y-15892674D02*
X11455777Y-15883150D01*
X11455777Y-15883150D02*
X11493873Y-15883150D01*
X11493873Y-15883150D02*
X11512920Y-15892674D01*
X11589111Y-16092674D02*
X11598634Y-16083150D01*
X11598634Y-16083150D02*
X11617682Y-16054579D01*
X11617682Y-16054579D02*
X11627206Y-16035531D01*
X11627206Y-16035531D02*
X11636730Y-16006960D01*
X11636730Y-16006960D02*
X11646253Y-15959341D01*
X11646253Y-15959341D02*
X11646253Y-15921246D01*
X11646253Y-15921246D02*
X11636730Y-15873627D01*
X11636730Y-15873627D02*
X11627206Y-15845055D01*
X11627206Y-15845055D02*
X11617682Y-15826008D01*
X11617682Y-15826008D02*
X11598634Y-15797436D01*
X11598634Y-15797436D02*
X11589111Y-15787912D01*
X4895000Y-16125000D02*
X4895000Y-16325000D01*
X4795000Y-16225000D02*
X4995000Y-16225000D01*
X5236729Y-16116484D02*
X5360539Y-16116484D01*
X5360539Y-16116484D02*
X5293872Y-16192674D01*
X5293872Y-16192674D02*
X5322444Y-16192674D01*
X5322444Y-16192674D02*
X5341491Y-16202198D01*
X5341491Y-16202198D02*
X5351015Y-16211722D01*
X5351015Y-16211722D02*
X5360539Y-16230769D01*
X5360539Y-16230769D02*
X5360539Y-16278388D01*
X5360539Y-16278388D02*
X5351015Y-16297436D01*
X5351015Y-16297436D02*
X5341491Y-16306960D01*
X5341491Y-16306960D02*
X5322444Y-16316484D01*
X5322444Y-16316484D02*
X5265301Y-16316484D01*
X5265301Y-16316484D02*
X5246253Y-16306960D01*
X5246253Y-16306960D02*
X5236729Y-16297436D01*
X5446253Y-16297436D02*
X5455777Y-16306960D01*
X5455777Y-16306960D02*
X5446253Y-16316484D01*
X5446253Y-16316484D02*
X5436729Y-16306960D01*
X5436729Y-16306960D02*
X5446253Y-16297436D01*
X5446253Y-16297436D02*
X5446253Y-16316484D01*
X5636729Y-16116484D02*
X5541491Y-16116484D01*
X5541491Y-16116484D02*
X5531967Y-16211722D01*
X5531967Y-16211722D02*
X5541491Y-16202198D01*
X5541491Y-16202198D02*
X5560539Y-16192674D01*
X5560539Y-16192674D02*
X5608158Y-16192674D01*
X5608158Y-16192674D02*
X5627205Y-16202198D01*
X5627205Y-16202198D02*
X5636729Y-16211722D01*
X5636729Y-16211722D02*
X5646253Y-16230769D01*
X5646253Y-16230769D02*
X5646253Y-16278388D01*
X5646253Y-16278388D02*
X5636729Y-16297436D01*
X5636729Y-16297436D02*
X5627205Y-16306960D01*
X5627205Y-16306960D02*
X5608158Y-16316484D01*
X5608158Y-16316484D02*
X5560539Y-16316484D01*
X5560539Y-16316484D02*
X5541491Y-16306960D01*
X5541491Y-16306960D02*
X5531967Y-16297436D01*
X5770062Y-16116484D02*
X5789110Y-16116484D01*
X5789110Y-16116484D02*
X5808158Y-16126008D01*
X5808158Y-16126008D02*
X5817682Y-16135531D01*
X5817682Y-16135531D02*
X5827205Y-16154579D01*
X5827205Y-16154579D02*
X5836729Y-16192674D01*
X5836729Y-16192674D02*
X5836729Y-16240293D01*
X5836729Y-16240293D02*
X5827205Y-16278388D01*
X5827205Y-16278388D02*
X5817682Y-16297436D01*
X5817682Y-16297436D02*
X5808158Y-16306960D01*
X5808158Y-16306960D02*
X5789110Y-16316484D01*
X5789110Y-16316484D02*
X5770062Y-16316484D01*
X5770062Y-16316484D02*
X5751015Y-16306960D01*
X5751015Y-16306960D02*
X5741491Y-16297436D01*
X5741491Y-16297436D02*
X5731967Y-16278388D01*
X5731967Y-16278388D02*
X5722443Y-16240293D01*
X5722443Y-16240293D02*
X5722443Y-16192674D01*
X5722443Y-16192674D02*
X5731967Y-16154579D01*
X5731967Y-16154579D02*
X5741491Y-16135531D01*
X5741491Y-16135531D02*
X5751015Y-16126008D01*
X5751015Y-16126008D02*
X5770062Y-16116484D01*
X5960539Y-16116484D02*
X5979586Y-16116484D01*
X5979586Y-16116484D02*
X5998634Y-16126008D01*
X5998634Y-16126008D02*
X6008158Y-16135531D01*
X6008158Y-16135531D02*
X6017682Y-16154579D01*
X6017682Y-16154579D02*
X6027205Y-16192674D01*
X6027205Y-16192674D02*
X6027205Y-16240293D01*
X6027205Y-16240293D02*
X6017682Y-16278388D01*
X6017682Y-16278388D02*
X6008158Y-16297436D01*
X6008158Y-16297436D02*
X5998634Y-16306960D01*
X5998634Y-16306960D02*
X5979586Y-16316484D01*
X5979586Y-16316484D02*
X5960539Y-16316484D01*
X5960539Y-16316484D02*
X5941491Y-16306960D01*
X5941491Y-16306960D02*
X5931967Y-16297436D01*
X5931967Y-16297436D02*
X5922443Y-16278388D01*
X5922443Y-16278388D02*
X5912920Y-16240293D01*
X5912920Y-16240293D02*
X5912920Y-16192674D01*
X5912920Y-16192674D02*
X5922443Y-16154579D01*
X5922443Y-16154579D02*
X5931967Y-16135531D01*
X5931967Y-16135531D02*
X5941491Y-16126008D01*
X5941491Y-16126008D02*
X5960539Y-16116484D01*
X6112920Y-16316484D02*
X6112920Y-16183150D01*
X6112920Y-16202198D02*
X6122443Y-16192674D01*
X6122443Y-16192674D02*
X6141491Y-16183150D01*
X6141491Y-16183150D02*
X6170063Y-16183150D01*
X6170063Y-16183150D02*
X6189110Y-16192674D01*
X6189110Y-16192674D02*
X6198634Y-16211722D01*
X6198634Y-16211722D02*
X6198634Y-16316484D01*
X6198634Y-16211722D02*
X6208158Y-16192674D01*
X6208158Y-16192674D02*
X6227205Y-16183150D01*
X6227205Y-16183150D02*
X6255777Y-16183150D01*
X6255777Y-16183150D02*
X6274824Y-16192674D01*
X6274824Y-16192674D02*
X6284348Y-16211722D01*
X6284348Y-16211722D02*
X6284348Y-16316484D01*
X6379586Y-16316484D02*
X6379586Y-16183150D01*
X6379586Y-16202198D02*
X6389110Y-16192674D01*
X6389110Y-16192674D02*
X6408158Y-16183150D01*
X6408158Y-16183150D02*
X6436729Y-16183150D01*
X6436729Y-16183150D02*
X6455777Y-16192674D01*
X6455777Y-16192674D02*
X6465301Y-16211722D01*
X6465301Y-16211722D02*
X6465301Y-16316484D01*
X6465301Y-16211722D02*
X6474824Y-16192674D01*
X6474824Y-16192674D02*
X6493872Y-16183150D01*
X6493872Y-16183150D02*
X6522443Y-16183150D01*
X6522443Y-16183150D02*
X6541491Y-16192674D01*
X6541491Y-16192674D02*
X6551015Y-16211722D01*
X6551015Y-16211722D02*
X6551015Y-16316484D01*
X6941491Y-16106960D02*
X6770063Y-16364103D01*
X7198634Y-16116484D02*
X7217682Y-16116484D01*
X7217682Y-16116484D02*
X7236729Y-16126008D01*
X7236729Y-16126008D02*
X7246253Y-16135531D01*
X7246253Y-16135531D02*
X7255777Y-16154579D01*
X7255777Y-16154579D02*
X7265301Y-16192674D01*
X7265301Y-16192674D02*
X7265301Y-16240293D01*
X7265301Y-16240293D02*
X7255777Y-16278388D01*
X7255777Y-16278388D02*
X7246253Y-16297436D01*
X7246253Y-16297436D02*
X7236729Y-16306960D01*
X7236729Y-16306960D02*
X7217682Y-16316484D01*
X7217682Y-16316484D02*
X7198634Y-16316484D01*
X7198634Y-16316484D02*
X7179586Y-16306960D01*
X7179586Y-16306960D02*
X7170063Y-16297436D01*
X7170063Y-16297436D02*
X7160539Y-16278388D01*
X7160539Y-16278388D02*
X7151015Y-16240293D01*
X7151015Y-16240293D02*
X7151015Y-16192674D01*
X7151015Y-16192674D02*
X7160539Y-16154579D01*
X7160539Y-16154579D02*
X7170063Y-16135531D01*
X7170063Y-16135531D02*
X7179586Y-16126008D01*
X7179586Y-16126008D02*
X7198634Y-16116484D01*
X7351015Y-16297436D02*
X7360539Y-16306960D01*
X7360539Y-16306960D02*
X7351015Y-16316484D01*
X7351015Y-16316484D02*
X7341491Y-16306960D01*
X7341491Y-16306960D02*
X7351015Y-16297436D01*
X7351015Y-16297436D02*
X7351015Y-16316484D01*
X7551015Y-16316484D02*
X7436729Y-16316484D01*
X7493872Y-16316484D02*
X7493872Y-16116484D01*
X7493872Y-16116484D02*
X7474825Y-16145055D01*
X7474825Y-16145055D02*
X7455777Y-16164103D01*
X7455777Y-16164103D02*
X7436729Y-16173627D01*
X7617682Y-16116484D02*
X7741491Y-16116484D01*
X7741491Y-16116484D02*
X7674825Y-16192674D01*
X7674825Y-16192674D02*
X7703396Y-16192674D01*
X7703396Y-16192674D02*
X7722444Y-16202198D01*
X7722444Y-16202198D02*
X7731967Y-16211722D01*
X7731967Y-16211722D02*
X7741491Y-16230769D01*
X7741491Y-16230769D02*
X7741491Y-16278388D01*
X7741491Y-16278388D02*
X7731967Y-16297436D01*
X7731967Y-16297436D02*
X7722444Y-16306960D01*
X7722444Y-16306960D02*
X7703396Y-16316484D01*
X7703396Y-16316484D02*
X7646253Y-16316484D01*
X7646253Y-16316484D02*
X7627206Y-16306960D01*
X7627206Y-16306960D02*
X7617682Y-16297436D01*
X7808158Y-16116484D02*
X7941491Y-16116484D01*
X7941491Y-16116484D02*
X7855777Y-16316484D01*
X8046253Y-16202198D02*
X8027206Y-16192674D01*
X8027206Y-16192674D02*
X8017682Y-16183150D01*
X8017682Y-16183150D02*
X8008158Y-16164103D01*
X8008158Y-16164103D02*
X8008158Y-16154579D01*
X8008158Y-16154579D02*
X8017682Y-16135531D01*
X8017682Y-16135531D02*
X8027206Y-16126008D01*
X8027206Y-16126008D02*
X8046253Y-16116484D01*
X8046253Y-16116484D02*
X8084348Y-16116484D01*
X8084348Y-16116484D02*
X8103396Y-16126008D01*
X8103396Y-16126008D02*
X8112920Y-16135531D01*
X8112920Y-16135531D02*
X8122444Y-16154579D01*
X8122444Y-16154579D02*
X8122444Y-16164103D01*
X8122444Y-16164103D02*
X8112920Y-16183150D01*
X8112920Y-16183150D02*
X8103396Y-16192674D01*
X8103396Y-16192674D02*
X8084348Y-16202198D01*
X8084348Y-16202198D02*
X8046253Y-16202198D01*
X8046253Y-16202198D02*
X8027206Y-16211722D01*
X8027206Y-16211722D02*
X8017682Y-16221246D01*
X8017682Y-16221246D02*
X8008158Y-16240293D01*
X8008158Y-16240293D02*
X8008158Y-16278388D01*
X8008158Y-16278388D02*
X8017682Y-16297436D01*
X8017682Y-16297436D02*
X8027206Y-16306960D01*
X8027206Y-16306960D02*
X8046253Y-16316484D01*
X8046253Y-16316484D02*
X8084348Y-16316484D01*
X8084348Y-16316484D02*
X8103396Y-16306960D01*
X8103396Y-16306960D02*
X8112920Y-16297436D01*
X8112920Y-16297436D02*
X8122444Y-16278388D01*
X8122444Y-16278388D02*
X8122444Y-16240293D01*
X8122444Y-16240293D02*
X8112920Y-16221246D01*
X8112920Y-16221246D02*
X8103396Y-16211722D01*
X8103396Y-16211722D02*
X8084348Y-16202198D01*
X8198634Y-16116484D02*
X8198634Y-16154579D01*
X8274825Y-16116484D02*
X8274825Y-16154579D01*
X8570063Y-16392674D02*
X8560539Y-16383150D01*
X8560539Y-16383150D02*
X8541491Y-16354579D01*
X8541491Y-16354579D02*
X8531968Y-16335531D01*
X8531968Y-16335531D02*
X8522444Y-16306960D01*
X8522444Y-16306960D02*
X8512920Y-16259341D01*
X8512920Y-16259341D02*
X8512920Y-16221246D01*
X8512920Y-16221246D02*
X8522444Y-16173627D01*
X8522444Y-16173627D02*
X8531968Y-16145055D01*
X8531968Y-16145055D02*
X8541491Y-16126008D01*
X8541491Y-16126008D02*
X8560539Y-16097436D01*
X8560539Y-16097436D02*
X8570063Y-16087912D01*
X8751015Y-16316484D02*
X8636730Y-16316484D01*
X8693872Y-16316484D02*
X8693872Y-16116484D01*
X8693872Y-16116484D02*
X8674825Y-16145055D01*
X8674825Y-16145055D02*
X8655777Y-16164103D01*
X8655777Y-16164103D02*
X8636730Y-16173627D01*
X8989111Y-16316484D02*
X8989111Y-16116484D01*
X9074825Y-16316484D02*
X9074825Y-16211722D01*
X9074825Y-16211722D02*
X9065301Y-16192674D01*
X9065301Y-16192674D02*
X9046253Y-16183150D01*
X9046253Y-16183150D02*
X9017682Y-16183150D01*
X9017682Y-16183150D02*
X8998634Y-16192674D01*
X8998634Y-16192674D02*
X8989111Y-16202198D01*
X9198634Y-16316484D02*
X9179587Y-16306960D01*
X9179587Y-16306960D02*
X9170063Y-16297436D01*
X9170063Y-16297436D02*
X9160539Y-16278388D01*
X9160539Y-16278388D02*
X9160539Y-16221246D01*
X9160539Y-16221246D02*
X9170063Y-16202198D01*
X9170063Y-16202198D02*
X9179587Y-16192674D01*
X9179587Y-16192674D02*
X9198634Y-16183150D01*
X9198634Y-16183150D02*
X9227206Y-16183150D01*
X9227206Y-16183150D02*
X9246253Y-16192674D01*
X9246253Y-16192674D02*
X9255777Y-16202198D01*
X9255777Y-16202198D02*
X9265301Y-16221246D01*
X9265301Y-16221246D02*
X9265301Y-16278388D01*
X9265301Y-16278388D02*
X9255777Y-16297436D01*
X9255777Y-16297436D02*
X9246253Y-16306960D01*
X9246253Y-16306960D02*
X9227206Y-16316484D01*
X9227206Y-16316484D02*
X9198634Y-16316484D01*
X9379587Y-16316484D02*
X9360539Y-16306960D01*
X9360539Y-16306960D02*
X9351015Y-16287912D01*
X9351015Y-16287912D02*
X9351015Y-16116484D01*
X9531968Y-16306960D02*
X9512920Y-16316484D01*
X9512920Y-16316484D02*
X9474825Y-16316484D01*
X9474825Y-16316484D02*
X9455777Y-16306960D01*
X9455777Y-16306960D02*
X9446253Y-16287912D01*
X9446253Y-16287912D02*
X9446253Y-16211722D01*
X9446253Y-16211722D02*
X9455777Y-16192674D01*
X9455777Y-16192674D02*
X9474825Y-16183150D01*
X9474825Y-16183150D02*
X9512920Y-16183150D01*
X9512920Y-16183150D02*
X9531968Y-16192674D01*
X9531968Y-16192674D02*
X9541492Y-16211722D01*
X9541492Y-16211722D02*
X9541492Y-16230769D01*
X9541492Y-16230769D02*
X9446253Y-16249817D01*
X9608158Y-16392674D02*
X9617682Y-16383150D01*
X9617682Y-16383150D02*
X9636730Y-16354579D01*
X9636730Y-16354579D02*
X9646253Y-16335531D01*
X9646253Y-16335531D02*
X9655777Y-16306960D01*
X9655777Y-16306960D02*
X9665301Y-16259341D01*
X9665301Y-16259341D02*
X9665301Y-16221246D01*
X9665301Y-16221246D02*
X9655777Y-16173627D01*
X9655777Y-16173627D02*
X9646253Y-16145055D01*
X9646253Y-16145055D02*
X9636730Y-16126008D01*
X9636730Y-16126008D02*
X9617682Y-16097436D01*
X9617682Y-16097436D02*
X9608158Y-16087912D01*
X9970063Y-16392674D02*
X9960539Y-16383150D01*
X9960539Y-16383150D02*
X9941492Y-16354579D01*
X9941492Y-16354579D02*
X9931968Y-16335531D01*
X9931968Y-16335531D02*
X9922444Y-16306960D01*
X9922444Y-16306960D02*
X9912920Y-16259341D01*
X9912920Y-16259341D02*
X9912920Y-16221246D01*
X9912920Y-16221246D02*
X9922444Y-16173627D01*
X9922444Y-16173627D02*
X9931968Y-16145055D01*
X9931968Y-16145055D02*
X9941492Y-16126008D01*
X9941492Y-16126008D02*
X9960539Y-16097436D01*
X9960539Y-16097436D02*
X9970063Y-16087912D01*
X10046253Y-16183150D02*
X10046253Y-16316484D01*
X10046253Y-16202198D02*
X10055777Y-16192674D01*
X10055777Y-16192674D02*
X10074825Y-16183150D01*
X10074825Y-16183150D02*
X10103396Y-16183150D01*
X10103396Y-16183150D02*
X10122444Y-16192674D01*
X10122444Y-16192674D02*
X10131968Y-16211722D01*
X10131968Y-16211722D02*
X10131968Y-16316484D01*
X10255777Y-16316484D02*
X10236730Y-16306960D01*
X10236730Y-16306960D02*
X10227206Y-16297436D01*
X10227206Y-16297436D02*
X10217682Y-16278388D01*
X10217682Y-16278388D02*
X10217682Y-16221246D01*
X10217682Y-16221246D02*
X10227206Y-16202198D01*
X10227206Y-16202198D02*
X10236730Y-16192674D01*
X10236730Y-16192674D02*
X10255777Y-16183150D01*
X10255777Y-16183150D02*
X10284349Y-16183150D01*
X10284349Y-16183150D02*
X10303396Y-16192674D01*
X10303396Y-16192674D02*
X10312920Y-16202198D01*
X10312920Y-16202198D02*
X10322444Y-16221246D01*
X10322444Y-16221246D02*
X10322444Y-16278388D01*
X10322444Y-16278388D02*
X10312920Y-16297436D01*
X10312920Y-16297436D02*
X10303396Y-16306960D01*
X10303396Y-16306960D02*
X10284349Y-16316484D01*
X10284349Y-16316484D02*
X10255777Y-16316484D01*
X10379587Y-16183150D02*
X10455777Y-16183150D01*
X10408158Y-16116484D02*
X10408158Y-16287912D01*
X10408158Y-16287912D02*
X10417682Y-16306960D01*
X10417682Y-16306960D02*
X10436730Y-16316484D01*
X10436730Y-16316484D02*
X10455777Y-16316484D01*
X10674825Y-16183150D02*
X10674825Y-16383150D01*
X10674825Y-16192674D02*
X10693873Y-16183150D01*
X10693873Y-16183150D02*
X10731968Y-16183150D01*
X10731968Y-16183150D02*
X10751015Y-16192674D01*
X10751015Y-16192674D02*
X10760539Y-16202198D01*
X10760539Y-16202198D02*
X10770063Y-16221246D01*
X10770063Y-16221246D02*
X10770063Y-16278388D01*
X10770063Y-16278388D02*
X10760539Y-16297436D01*
X10760539Y-16297436D02*
X10751015Y-16306960D01*
X10751015Y-16306960D02*
X10731968Y-16316484D01*
X10731968Y-16316484D02*
X10693873Y-16316484D01*
X10693873Y-16316484D02*
X10674825Y-16306960D01*
X10884349Y-16316484D02*
X10865301Y-16306960D01*
X10865301Y-16306960D02*
X10855777Y-16287912D01*
X10855777Y-16287912D02*
X10855777Y-16116484D01*
X11046254Y-16316484D02*
X11046254Y-16211722D01*
X11046254Y-16211722D02*
X11036730Y-16192674D01*
X11036730Y-16192674D02*
X11017682Y-16183150D01*
X11017682Y-16183150D02*
X10979587Y-16183150D01*
X10979587Y-16183150D02*
X10960539Y-16192674D01*
X11046254Y-16306960D02*
X11027206Y-16316484D01*
X11027206Y-16316484D02*
X10979587Y-16316484D01*
X10979587Y-16316484D02*
X10960539Y-16306960D01*
X10960539Y-16306960D02*
X10951015Y-16287912D01*
X10951015Y-16287912D02*
X10951015Y-16268865D01*
X10951015Y-16268865D02*
X10960539Y-16249817D01*
X10960539Y-16249817D02*
X10979587Y-16240293D01*
X10979587Y-16240293D02*
X11027206Y-16240293D01*
X11027206Y-16240293D02*
X11046254Y-16230769D01*
X11112920Y-16183150D02*
X11189111Y-16183150D01*
X11141492Y-16116484D02*
X11141492Y-16287912D01*
X11141492Y-16287912D02*
X11151015Y-16306960D01*
X11151015Y-16306960D02*
X11170063Y-16316484D01*
X11170063Y-16316484D02*
X11189111Y-16316484D01*
X11331968Y-16306960D02*
X11312920Y-16316484D01*
X11312920Y-16316484D02*
X11274825Y-16316484D01*
X11274825Y-16316484D02*
X11255777Y-16306960D01*
X11255777Y-16306960D02*
X11246253Y-16287912D01*
X11246253Y-16287912D02*
X11246253Y-16211722D01*
X11246253Y-16211722D02*
X11255777Y-16192674D01*
X11255777Y-16192674D02*
X11274825Y-16183150D01*
X11274825Y-16183150D02*
X11312920Y-16183150D01*
X11312920Y-16183150D02*
X11331968Y-16192674D01*
X11331968Y-16192674D02*
X11341492Y-16211722D01*
X11341492Y-16211722D02*
X11341492Y-16230769D01*
X11341492Y-16230769D02*
X11246253Y-16249817D01*
X11512920Y-16316484D02*
X11512920Y-16116484D01*
X11512920Y-16306960D02*
X11493873Y-16316484D01*
X11493873Y-16316484D02*
X11455777Y-16316484D01*
X11455777Y-16316484D02*
X11436730Y-16306960D01*
X11436730Y-16306960D02*
X11427206Y-16297436D01*
X11427206Y-16297436D02*
X11417682Y-16278388D01*
X11417682Y-16278388D02*
X11417682Y-16221246D01*
X11417682Y-16221246D02*
X11427206Y-16202198D01*
X11427206Y-16202198D02*
X11436730Y-16192674D01*
X11436730Y-16192674D02*
X11455777Y-16183150D01*
X11455777Y-16183150D02*
X11493873Y-16183150D01*
X11493873Y-16183150D02*
X11512920Y-16192674D01*
X11589111Y-16392674D02*
X11598634Y-16383150D01*
X11598634Y-16383150D02*
X11617682Y-16354579D01*
X11617682Y-16354579D02*
X11627206Y-16335531D01*
X11627206Y-16335531D02*
X11636730Y-16306960D01*
X11636730Y-16306960D02*
X11646253Y-16259341D01*
X11646253Y-16259341D02*
X11646253Y-16221246D01*
X11646253Y-16221246D02*
X11636730Y-16173627D01*
X11636730Y-16173627D02*
X11627206Y-16145055D01*
X11627206Y-16145055D02*
X11617682Y-16126008D01*
X11617682Y-16126008D02*
X11598634Y-16097436D01*
X11598634Y-16097436D02*
X11589111Y-16087912D01*
M02*
